<svg xmlns="http://www.w3.org/2000/svg" xmlns:xlink="http://www.w3.org/1999/xlink" width="673.595" height="306.206" viewBox="0 0 673.595 306.206">
  <defs>
    <clipPath id="clip-path">
      <rect id="Rectangle_2230" data-name="Rectangle 2230" width="24.441" height="23.164" fill="none"/>
    </clipPath>
    <clipPath id="clip-path-2">
      <rect id="Rectangle_2232" data-name="Rectangle 2232" width="54.728" height="40.11" fill="none"/>
    </clipPath>
    <clipPath id="clip-path-3">
      <rect id="Rectangle_2233" data-name="Rectangle 2233" width="15.329" height="19.111" fill="none"/>
    </clipPath>
    <clipPath id="clip-path-4">
      <rect id="Rectangle_2236" data-name="Rectangle 2236" width="10.923" height="56.992" fill="none"/>
    </clipPath>
    <clipPath id="clip-path-5">
      <rect id="Rectangle_2237" data-name="Rectangle 2237" width="41.397" height="55.606" fill="none"/>
    </clipPath>
    <clipPath id="clip-path-6">
      <rect id="Rectangle_2238" data-name="Rectangle 2238" width="46.278" height="24.676" fill="none"/>
    </clipPath>
  </defs>
  <g id="Group_6048" data-name="Group 6048" transform="translate(-131.405 -1051.111)">
    <path id="Path_23818" data-name="Path 23818" d="M608.529,147.309a46.542,46.542,0,0,0-31.9,80.446l-6.281,22.017L592.58,237.61a46.558,46.558,0,1,0,15.949-90.3" transform="translate(149.705 903.804)" fill="#f5f5f5"/>
    <path id="Path_23819" data-name="Path 23819" d="M608.549,147.309s.282-.005.83.013l2.439.094c.534.036,1.139.019,1.8.107l2.149.314c.773.128,1.619.206,2.5.4l2.8.706a46,46,0,0,1,27.107,20.177l1.445,2.368q.615,1.262,1.244,2.551a44.584,44.584,0,0,1,4.37,17.647,48.662,48.662,0,0,1-.1,6.553c-.084,1.107-.311,2.209-.462,3.327q-.128.836-.255,1.68-.21.828-.421,1.66a44.3,44.3,0,0,1-5.339,13.026,46.816,46.816,0,0,1-22.682,19.377,47.578,47.578,0,0,1-31.944,1.088l-1.519-.521.234-.019-22.231,12.159-.59.323.185-.646c2.17-7.593,4.274-14.955,6.291-22.015l.074.272a46.994,46.994,0,0,1-12.436-19.607,47.025,47.025,0,0,1-2.115-10.748c-.087-.889-.121-1.775-.133-2.656a23.205,23.205,0,0,1,.053-2.622,36.321,36.321,0,0,1,.456-5.113,46.435,46.435,0,0,1,6.427-17.74,47.593,47.593,0,0,1,10.741-12.129l2.9-2.153,2.917-1.772a23.731,23.731,0,0,1,2.843-1.487c.944-.427,1.82-.923,2.732-1.25a47.874,47.874,0,0,1,9.465-2.687l3.523-.509,2.591-.11,1.585-.057c.356-.01.537,0,.537,0s-.181.025-.537.05l-1.58.1-2.583.153-3.5.551a48.573,48.573,0,0,0-9.4,2.751c-.9.33-1.772.83-2.708,1.261a23.57,23.57,0,0,0-2.817,1.494l-2.887,1.775L579.67,157.6a47.4,47.4,0,0,0-10.608,12.075,46.1,46.1,0,0,0-6.313,17.593,35.629,35.629,0,0,0-.439,5.063,22.737,22.737,0,0,0-.046,2.6c.013.872.049,1.749.136,2.629a46.665,46.665,0,0,0,2.113,10.63,46.544,46.544,0,0,0,12.326,19.37l.119.114-.045.158c-2.011,7.062-4.108,14.425-6.271,22.02l-.405-.324,22.226-12.165.111-.061.124.043,1.5.516a47.064,47.064,0,0,0,31.56-1.065,46.322,46.322,0,0,0,22.44-19.13,43.827,43.827,0,0,0,5.3-12.873l.419-1.641q.128-.835.255-1.663c.151-1.106.379-2.2.466-3.291a48.412,48.412,0,0,0,.117-6.486,44.2,44.2,0,0,0-4.28-17.489q-.619-1.28-1.224-2.532l-1.424-2.353a46.035,46.035,0,0,0-13.451-14.012A46.622,46.622,0,0,0,621,149.16l-2.781-.729c-.877-.2-1.717-.288-2.487-.425l-2.138-.34c-.654-.1-1.255-.09-1.789-.135l-2.431-.151c-.548-.037-.829-.071-.829-.071" transform="translate(149.685 903.804)" fill="#263238"/>
    <path id="Path_23820" data-name="Path 23820" d="M595.2,185.441h3.292l7.185-10.013v-6.573s5.09-.312,4.491,8.293.049,6.414.049,6.414,10.806.042,11.7.98c.654.682.949,11.416,1.061,17.237a6.3,6.3,0,0,1-4.465,6.348,4.687,4.687,0,0,1-1.163.157c-2.7,0-16.465-2.191-16.465-2.191H595.2Z" transform="translate(152.87 905.856)" fill="#263238"/>
    <path id="Path_23821" data-name="Path 23821" d="M586.594,182.351l2.025,22.519h5.638V182.8Z" transform="translate(152.05 907.142)" fill="#263238"/>
    <path id="Path_23822" data-name="Path 23822" d="M180.4,193.435c-.185,3.518-4.762,8.2-3.344,11.429,2.609,5.939,1.109,13.038-2.276,18.571s-8.431,9.815-13.39,14a111.709,111.709,0,0,0-2.25-25.789c-.547-2.653-1.438-5.612-3.864-6.816-3.139-1.556-7.129.694-10.346-.694-3.429-1.482-4.123-6.167-7.014-8.533-2.614-2.14-6.463-1.912-9.666-.837s-6.158,2.875-9.454,3.611-7.275.078-9.1-2.764c-1.127-1.755-.314-.682-1.39-2.469,0,0-6.432.219-8.639-7.26,0,0-3.024-8.309,3.66-11.985,0,0,1.521-15.018,16.636-8.262,4.339,1.941,9.477-4.319,13.715-2.164,3.526,1.792,4.576,6.691,8.1,8.485,4.046,2.059,8.76-1,13.3-1.194a10.945,10.945,0,0,1,10.939,11.008s.714-3,5.626-1.678,9.12,6.492,8.76,13.345" transform="translate(105.599 905.299)" fill="#263238"/>
    <path id="Path_23823" data-name="Path 23823" d="M172.959,215.859a10.6,10.6,0,0,0-.924-4.951c-.632-1.28-3-4.195-5.62-4.369l.384-15.479a6.155,6.155,0,0,0-5.506-6.242l-30.354-3.21a18.475,18.475,0,0,0-20.378,17.224c-.734,11.662-1.171,25.928.21,34.629,2.779,17.5,16.188,19.724,16.188,19.724l-.327,12.222c-.515,13.026,9.232,20.866,19.29,20.866,10.182,0,19.34-8.68,19.046-21.576l.98-39.393a6.918,6.918,0,0,0,4.433-2.16,11.005,11.005,0,0,0,2.579-7.285" transform="translate(106.636 907.061)" fill="#ffbe9d"/>
    <path id="Path_23824" data-name="Path 23824" d="M116.7,206.169a2.243,2.243,0,0,0,2.163,2.264,2.147,2.147,0,0,0,2.313-2.023,2.245,2.245,0,0,0-2.161-2.266,2.147,2.147,0,0,0-2.315,2.025" transform="translate(107.286 909.218)" fill="#263238"/>
    <path id="Path_23825" data-name="Path 23825" d="M113.33,204.306c.278.292,1.978-.966,4.393-.959,2.412-.027,4.184,1.215,4.446.919.129-.131-.154-.659-.927-1.221a6.158,6.158,0,0,0-3.559-1.1,5.916,5.916,0,0,0-3.5,1.129c-.743.57-.994,1.1-.858,1.23" transform="translate(106.962 909.009)" fill="#263238"/>
    <path id="Path_23826" data-name="Path 23826" d="M137.977,206.58a2.244,2.244,0,0,0,2.163,2.264,2.146,2.146,0,0,0,2.313-2.023,2.243,2.243,0,0,0-2.161-2.265,2.147,2.147,0,0,0-2.315,2.024" transform="translate(109.313 909.257)" fill="#263238"/>
    <path id="Path_23827" data-name="Path 23827" d="M135,204.717c.279.292,1.98-.965,4.393-.958,2.412-.028,4.185,1.214,4.447.918.128-.131-.152-.659-.927-1.221a6.162,6.162,0,0,0-3.56-1.1,5.919,5.919,0,0,0-3.5,1.129c-.74.57-.993,1.1-.858,1.23" transform="translate(109.026 909.048)" fill="#263238"/>
    <path id="Path_23828" data-name="Path 23828" d="M127.532,222.612c.011-.137-1.49-.4-3.922-.708-.617-.064-1.2-.186-1.3-.607a3.136,3.136,0,0,1,.412-1.828l1.823-4.694c2.532-6.684,4.366-12.182,4.1-12.281s-2.542,5.238-5.073,11.923q-.915,2.471-1.747,4.723a3.563,3.563,0,0,0-.32,2.419,1.545,1.545,0,0,0,1.014.9,4.2,4.2,0,0,0,1.047.146c2.447.131,3.966.142,3.975.005" transform="translate(107.732 909.061)" fill="#263238"/>
    <path id="Path_23829" data-name="Path 23829" d="M125.486,247.493a44.509,44.509,0,0,0,23.432-6.251s-6.062,13.165-23.573,11.528Z" transform="translate(108.11 912.752)" fill="#eb996e"/>
    <path id="Path_23830" data-name="Path 23830" d="M134.007,200.81c.238.656,2.649.345,5.482.687,2.84.285,5.125,1.114,5.5.526.168-.283-.231-.9-1.154-1.536a9.6,9.6,0,0,0-8.367-.923c-1.04.42-1.564.934-1.461,1.246" transform="translate(108.934 908.728)" fill="#263238"/>
    <path id="Path_23831" data-name="Path 23831" d="M112.975,199.189c.425.549,2.089-.021,4.089-.047,2-.1,3.693.368,4.083-.206.171-.278-.1-.828-.836-1.347a5.923,5.923,0,0,0-6.585.2c-.706.564-.939,1.129-.751,1.4" transform="translate(106.926 908.508)" fill="#263238"/>
    <path id="Path_23832" data-name="Path 23832" d="M127.478,233.444c-.046-.053.169-.345.658-.651a4.309,4.309,0,0,1,4.309-.02c.493.3.709.593.664.645a10.271,10.271,0,0,0-2.818-.642,10.31,10.31,0,0,0-2.813.667" transform="translate(108.313 911.891)" fill="#eb996e"/>
    <path id="Path_23833" data-name="Path 23833" d="M160.036,217.9a15.781,15.781,0,0,0,1.657-.808,4.5,4.5,0,0,0,2.027-3.6,4.611,4.611,0,0,0-1.813-3.729,3.863,3.863,0,0,0-1.671-.647c-.05-.067.809-.356,1.895.311a4.738,4.738,0,0,1,2.16,4.074,4.484,4.484,0,0,1-.807,2.5,4.739,4.739,0,0,1-1.579,1.434,2.73,2.73,0,0,1-1.869.465" transform="translate(111.415 909.68)" fill="#eb996e"/>
    <path id="Path_23834" data-name="Path 23834" d="M107.552,177.852c-2.827,7.558,3.887,13.042,9.119,14.263,7.314,1.706,15.1-2.911,20.1-.945,3.732,1.467,7.259,4.353,11.226,3.769,1.928-.283,3.83-1.392,5.712-.881,2.4.651,3.371,3.572,3.314,6.055-.069,3.067-1.1,6.108-.715,9.152s3.105,6.189,6.066,5.383a7.277,7.277,0,0,0,4.975-6.588c.347-4.211-.419-9.233-.214-13.453.182-3.725.192-7.822-2.178-10.7s-6.425-3.661-10.133-4.171a282.833,282.833,0,0,0-47.272-2.486" transform="translate(106.351 906.643)" fill="#263238"/>
    <path id="Path_23835" data-name="Path 23835" d="M99.1,180.257a2.382,2.382,0,0,1-.156-.79,4.547,4.547,0,0,1,.461-2.262,5.07,5.07,0,0,1,2.64-2.51,4.665,4.665,0,0,1,2.3-.26c.814.084,1.641.3,2.5.346a4.915,4.915,0,0,0,2.584-.576,12.18,12.18,0,0,0,2.4-1.738c.784-.681,1.584-1.426,2.507-2.092a8.1,8.1,0,0,1,3.223-1.409,11.87,11.87,0,0,1,7.323,1.245,34.219,34.219,0,0,1,6.489,4.632,25.651,25.651,0,0,0,6.468,4.366,7.466,7.466,0,0,0,3.56.542,10.174,10.174,0,0,0,3.331-1.081,30.464,30.464,0,0,1,6.1-2.808,12.092,12.092,0,0,1,5.865-.184,8.966,8.966,0,0,1,4.262,2.291,8.583,8.583,0,0,1,2.026,3.044,6.6,6.6,0,0,1,.446,2.265,4.016,4.016,0,0,1-.024.6c-.013.135-.024.2-.034.2a8.733,8.733,0,0,0-.595-2.985,8.555,8.555,0,0,0-2.039-2.895,8.708,8.708,0,0,0-4.13-2.129,11.759,11.759,0,0,0-5.652.248c-2.01.511-3.872,1.733-5.987,2.822a10.635,10.635,0,0,1-3.5,1.151,8,8,0,0,1-3.822-.563,25.879,25.879,0,0,1-6.63-4.447,34.182,34.182,0,0,0-6.371-4.569,11.39,11.39,0,0,0-6.978-1.23c-2.292.376-3.943,1.988-5.521,3.343a12.479,12.479,0,0,1-2.511,1.772,5.326,5.326,0,0,1-2.807.586c-.917-.067-1.739-.3-2.519-.389a4.35,4.35,0,0,0-2.149.2,4.885,4.885,0,0,0-2.555,2.312,4.681,4.681,0,0,0-.544,2.158c0,.518.076.787.041.794" transform="translate(105.594 905.851)" fill="#455a64"/>
    <path id="Path_23836" data-name="Path 23836" d="M107.078,191.517a1.386,1.386,0,0,1-.766.051,2.64,2.64,0,0,1-1.773-1.275,5.136,5.136,0,0,1-.414-3.44,9.862,9.862,0,0,1,1.79-4.243,9.607,9.607,0,0,1,4.457-3.35,9.907,9.907,0,0,1,6.39-.161,22.487,22.487,0,0,1,6.147,3.487,21.611,21.611,0,0,0,6.443,3.613,12.185,12.185,0,0,0,7.236-.4,34.39,34.39,0,0,0,6.27-2.989,56.174,56.174,0,0,1,5.637-2.965,15.952,15.952,0,0,1,5.4-1.4,10.057,10.057,0,0,1,7.5,2.521,6.808,6.808,0,0,1,1.289,1.778,3.815,3.815,0,0,1,.261.718,8.285,8.285,0,0,0-1.7-2.334,9.975,9.975,0,0,0-7.326-2.281,15.76,15.76,0,0,0-5.234,1.428,57.593,57.593,0,0,0-5.564,2.988,34.426,34.426,0,0,1-6.357,3.063,12.687,12.687,0,0,1-7.567.416,21.9,21.9,0,0,1-6.615-3.709A22.25,22.25,0,0,0,116.6,179.6a9.464,9.464,0,0,0-6.071.1,9.243,9.243,0,0,0-4.295,3.147,9.659,9.659,0,0,0-1.8,4.056,4.964,4.964,0,0,0,.294,3.277,2.571,2.571,0,0,0,1.6,1.272,3.7,3.7,0,0,0,.743.061" transform="translate(106.078 906.769)" fill="#455a64"/>
    <path id="Path_23837" data-name="Path 23837" d="M168.988,220.252c-.043-.036.4-.52.974-1.537a10.542,10.542,0,0,0,1.31-4.687,9.885,9.885,0,0,0-.415-3.326,12.6,12.6,0,0,0-1.757-3.44c-.766-1.148-1.675-2.3-2.474-3.614a8.3,8.3,0,0,1-1.433-4.561,11.159,11.159,0,0,1,1.46-4.539,9.654,9.654,0,0,0,1.228-4.037,6.882,6.882,0,0,0-3.232-6.013,7.215,7.215,0,0,0-4.692-.92,16.324,16.324,0,0,0-1.759.434,1.521,1.521,0,0,1,.413-.24,6.263,6.263,0,0,1,1.308-.413,7.073,7.073,0,0,1,8.488,7.163,10.075,10.075,0,0,1-1.249,4.266,10.771,10.771,0,0,0-1.394,4.314,7.812,7.812,0,0,0,1.341,4.257c.769,1.279,1.666,2.435,2.434,3.611a12.82,12.82,0,0,1,1.772,3.6,10.045,10.045,0,0,1,.364,3.482,10.182,10.182,0,0,1-1.521,4.778,7.131,7.131,0,0,1-.819,1.094c-.212.23-.33.343-.345.33" transform="translate(111.239 907.225)" fill="#455a64"/>
    <path id="Path_23838" data-name="Path 23838" d="M128.105,206.359a24.866,24.866,0,0,0-.46-2.723,11.224,11.224,0,0,0-4.112-6.07,11.028,11.028,0,0,0-10.44-1.54,11.054,11.054,0,0,0-5.1,3.84,10.949,10.949,0,0,0,0,12.984,11.047,11.047,0,0,0,5.1,3.841,11.03,11.03,0,0,0,10.441-1.54,11.231,11.231,0,0,0,4.111-6.07,24.865,24.865,0,0,0,.46-2.723,8.694,8.694,0,0,1-.244,2.777,11.362,11.362,0,0,1-8.9,8.52,11.5,11.5,0,0,1-6.049-.47,11.522,11.522,0,0,1-5.371-4,11.46,11.46,0,0,1,0-13.646,11.519,11.519,0,0,1,5.37-4,11.506,11.506,0,0,1,6.048-.47,11.332,11.332,0,0,1,4.816,2.183,11.218,11.218,0,0,1,4.082,6.336,8.7,8.7,0,0,1,.244,2.778" transform="translate(106.2 908.334)" fill="#263238"/>
    <path id="Path_23839" data-name="Path 23839" d="M151.591,206.359a24.851,24.851,0,0,0-.46-2.723,11.224,11.224,0,0,0-4.112-6.07,11.028,11.028,0,0,0-10.44-1.54,11.054,11.054,0,0,0-5.1,3.84,10.949,10.949,0,0,0,0,12.984,11.047,11.047,0,0,0,5.1,3.841,11.03,11.03,0,0,0,10.441-1.54,11.231,11.231,0,0,0,4.111-6.07,24.85,24.85,0,0,0,.46-2.723,8.694,8.694,0,0,1-.244,2.777,11.362,11.362,0,0,1-8.9,8.52,11.5,11.5,0,0,1-6.049-.47,11.511,11.511,0,0,1-5.37-4,11.458,11.458,0,0,1,0-13.646,11.519,11.519,0,0,1,5.37-4,11.506,11.506,0,0,1,6.048-.47,11.332,11.332,0,0,1,4.816,2.183,11.218,11.218,0,0,1,4.082,6.336,8.7,8.7,0,0,1,.244,2.778" transform="translate(108.437 908.334)" fill="#263238"/>
    <path id="Path_23840" data-name="Path 23840" d="M129.937,203.665a.047.047,0,0,1,.011-.03l.013-.015.009-.007,0,0,0,0h0v.116h0a.385.385,0,0,1-.053.027l-.015.007-.009,0,0,0h0v-.2h0l.038-.014v.228a7.391,7.391,0,0,1-1.84.171c-1.107,0-2.005-.127-2.005-.285s.9-.285,2.005-.285a7.391,7.391,0,0,1,1.84.171v.228l-.038-.014h0v-.2h.005l.009,0,.015.007a.387.387,0,0,1,.053.027h0v.116h0l0,0,0,0-.009-.007-.013-.015a.047.047,0,0,1-.011-.03" transform="translate(108.181 909.145)" fill="#263238"/>
    <path id="Path_23841" data-name="Path 23841" d="M163.15,206a41.756,41.756,0,0,1-6.9-.208,41.94,41.94,0,0,1-6.857-.777,42.043,42.043,0,0,1,6.9.208,41.982,41.982,0,0,1,6.857.777" transform="translate(110.401 909.294)" fill="#263238"/>
    <path id="Path_23842" data-name="Path 23842" d="M136.869,220.307a2.955,2.955,0,0,1,.081,1.771,6.04,6.04,0,0,1-6.2,5.071,2.932,2.932,0,0,1-1.718-.429c.023-.091.673.084,1.715.026a6.208,6.208,0,0,0,5.807-4.752c.262-1.01.219-1.681.313-1.687" transform="translate(108.461 910.758)" fill="#263238"/>
    <path id="Path_23843" data-name="Path 23843" d="M96.969,292.105a1.6,1.6,0,0,1,.03.35c.007.263.016.6.028,1.03.012.942.031,2.268.053,3.957.02,3.475.047,8.438.082,14.554.037,12.293-.379,29.276-1.331,48-1.019,18.713-1.941,35.65-2.611,47.954-.306,6.107-.554,11.063-.727,14.533l-.2,3.952c-.028.426-.05.766-.067,1.027a1.625,1.625,0,0,1-.043.349,1.6,1.6,0,0,1-.016-.352c0-.263.007-.6.011-1.03.023-.942.055-2.267.1-3.956.1-3.435.275-8.405.548-14.544.517-12.28,1.507-29.231,2.444-47.962.952-18.724,1.432-35.691,1.5-47.978.043-6.116.077-11.078.1-14.553.023-1.689.041-3.015.054-3.957.011-.427.021-.767.027-1.03a1.6,1.6,0,0,1,.03-.35" transform="translate(104.949 917.598)" fill="#263238"/>
    <path id="Path_23844" data-name="Path 23844" d="M195.851,275.419c-5.894-6.8-17.406-7.8-22.508-4.108s-7.941,9.965-8.453,16.241,1.089,12.565,3.485,18.388c3.841,9.333,9.527,16.884,18.016,26.5l21.88,28.726-42.225,41.224,17.5,27.61,35.891-28.915,29.682-31.461" transform="translate(111.868 915.415)" fill="#e8505b"/>
    <path id="Path_23845" data-name="Path 23845" d="M53.772,355.888a6.98,6.98,0,0,1,2.273-1.1,16.316,16.316,0,0,1,11.964.648,6.91,6.91,0,0,1,2.14,1.337c-.05.082-.876-.406-2.3-.966a18.534,18.534,0,0,0-11.688-.634c-1.474.4-2.348.8-2.39.712" transform="translate(101.292 923.489)" fill="#263238"/>
    <path id="Path_23846" data-name="Path 23846" d="M214.185,283.094l-.02.041c-14.739-19.536-30.6-17.927-38.681-18.159V256.4c-5.97,0-14.126,5.38-18.346,9.229l-4.165,5.724a21.3,21.3,0,0,0-13.629-13.37,42.364,42.364,0,0,0-6.981-1.583v7.673c-19.8.552-30.388,5.966-43.616,21.28-.685.793-2.03,2.136-3.571,3.658L46.024,334.978c-8,8.848-15.28,21.029-13.613,32.838,1.878,13.31,9.639,22.078,24.5,32.119l41.183,26.694-.2,4.59h98.282s66.646-49.165,68.28-67.377c1.291-14.388-21.664-44.885-50.273-80.747M99.776,387.485l-28.82-21.505,31.13-32.207Zm94.36,1.71-.773-15.92,4.125-41.8c8.212,9.422,23.417,28.11,23.417,30.912Z" transform="translate(99.234 914.196)" fill="#e8505b"/>
    <path id="Path_23847" data-name="Path 23847" d="M164.977,264.229a7.6,7.6,0,0,1-.745,1.3c-.518.814-1.277,1.987-2.27,3.4a78.231,78.231,0,0,1-8.622,10.381c-.93.945-1.877,1.828-2.8,2.673l-.459.422-.008-.624a13.982,13.982,0,0,0-4.033-9.589,5.875,5.875,0,0,0-2.513-1.773,1.638,1.638,0,0,0-1.065.181,1.092,1.092,0,0,1,1.1-.375,5.679,5.679,0,0,1,2.732,1.706,13.8,13.8,0,0,1,2.889,3.917,14.067,14.067,0,0,1,1.449,5.925l-.467-.2c.907-.846,1.846-1.724,2.769-2.663a93.245,93.245,0,0,0,8.7-10.214l2.413-3.288a7.632,7.632,0,0,1,.929-1.18" transform="translate(109.741 914.942)" fill="#263238"/>
    <path id="Path_23848" data-name="Path 23848" d="M123.648,263.4a6.03,6.03,0,0,1,.863,1.013c.586.778,1.315,1.743,2.18,2.888,1.82,2.453,4.3,5.864,7.017,9.653l1.769,2.478-.493.072a24.5,24.5,0,0,1,2.212-5.066,8.751,8.751,0,0,1,3.169-3.117,5.95,5.95,0,0,1,2.839-.8,2.442,2.442,0,0,1,1.055.152c-.005.046-.378-.012-1.045.046a6.255,6.255,0,0,0-2.665.916,8.637,8.637,0,0,0-2.933,3.056,25.591,25.591,0,0,0-2.1,4.991l-.174.516-.319-.444-1.777-2.473c-2.714-3.789-5.146-7.236-6.882-9.75l-2.033-2.992a6,6,0,0,1-.682-1.143" transform="translate(107.948 914.863)" fill="#263238"/>
    <g id="Group_6026" data-name="Group 6026" transform="translate(252.207 1180.267)" opacity="0.1">
      <g id="Group_6025" data-name="Group 6025">
        <g id="Group_6024" data-name="Group 6024" clip-path="url(#clip-path)">
          <path id="Path_23849" data-name="Path 23849" d="M142.466,270.507a16.917,16.917,0,0,1,4.282,13.447c-.21,1.6-.394,3.726,1.105,4.32,1.039.412,2.16-.3,3.031-1a59.612,59.612,0,0,0,15.447-18.84,3.667,3.667,0,0,0,.571-1.914,1.315,1.315,0,0,0-1.285-1.28,1.931,1.931,0,0,0-1.141.8c-4.553,5.254-9.593,10.718-14.146,15.972a11.624,11.624,0,0,0-2.531-8.094c-1.808-2.227-3.785-4.461-5.332-3.4" transform="translate(-142.466 -265.23)"/>
        </g>
      </g>
    </g>
    <path id="Path_23850" data-name="Path 23850" d="M182.242,420.169a2.726,2.726,0,0,1-.342-.459c-.233-.354-.537-.809-.915-1.379-.812-1.263-1.945-3.023-3.358-5.219-2.866-4.531-6.861-10.846-11.513-18.2L166,394.73l.153-.152,10.272-10.243c8.714-8.624,16.6-16.429,22.355-22.125l6.82-6.658,1.874-1.79a5.432,5.432,0,0,1,.681-.6,5.348,5.348,0,0,1-.6.678q-.672.695-1.8,1.865c-1.621,1.643-3.9,3.952-6.692,6.786l-22.237,22.244-10.294,10.221.037-.333c4.583,7.4,8.517,13.751,11.34,18.31,1.357,2.229,2.446,4.017,3.226,5.3.348.589.626,1.06.841,1.425a2.736,2.736,0,0,1,.264.508" transform="translate(111.983 923.414)" fill="#263238"/>
    <path id="Path_23851" data-name="Path 23851" d="M170.449,274.37a.953.953,0,0,1-.16.215l-.508.59c-.471.5-1.1,1.286-1.883,2.318a23.257,23.257,0,0,0-4.189,10,28.721,28.721,0,0,0,2.436,15.81,37.723,37.723,0,0,0,4.819,8.245c2.12,2.588,4.31,5.278,6.512,8.063,8.83,11.134,16.432,21.509,22.006,28.959l6.589,8.833,1.782,2.409.451.635a.943.943,0,0,1,.139.229c-.008.005-.07-.06-.185-.193l-.5-.6-1.867-2.344c-1.607-2.048-3.914-5.024-6.735-8.725-5.658-7.39-13.309-17.724-22.131-28.847-2.2-2.783-4.384-5.472-6.5-8.068a37.9,37.9,0,0,1-4.867-8.389,28.883,28.883,0,0,1-2.352-16.082,22.926,22.926,0,0,1,4.41-10.064A24.587,24.587,0,0,1,169.7,275.1l.551-.553a1,1,0,0,1,.2-.174" transform="translate(111.696 915.908)" fill="#263238"/>
    <path id="Path_23852" data-name="Path 23852" d="M206.636,287.285c.019.053-.6.255-1.632.8a16.36,16.36,0,0,0-3.889,2.992,32.6,32.6,0,0,0-4.383,5.853,86.857,86.857,0,0,1-4.891,7.626,18.641,18.641,0,0,1-14.195,7.582,17.254,17.254,0,0,1-4.98-.465,10.213,10.213,0,0,1-1.3-.39,1.5,1.5,0,0,1-.437-.187,23.214,23.214,0,0,0,6.7.64,18.923,18.923,0,0,0,7-1.869,18.665,18.665,0,0,0,6.77-5.659c1.936-2.52,3.4-5.206,4.9-7.556a31.177,31.177,0,0,1,4.545-5.86,15.163,15.163,0,0,1,4.073-2.906,9.429,9.429,0,0,1,1.269-.494,1.516,1.516,0,0,1,.463-.11" transform="translate(112.452 917.138)" fill="#fafafa"/>
    <path id="Path_23853" data-name="Path 23853" d="M187.785,375.88a.964.964,0,0,1-.258-.038l-.742-.169a10.935,10.935,0,0,0-1.212-.221,14.734,14.734,0,0,0-1.669-.185,30.876,30.876,0,0,0-10.571,1.358,53.617,53.617,0,0,0-6.948,2.541c-2.43,1.077-4.952,2.429-7.678,3.71a49.568,49.568,0,0,1-8.854,3.353,26.25,26.25,0,0,1-4.972.789,21.234,21.234,0,0,1-5.18-.377,30.152,30.152,0,0,1-9.406-3.875c-2.826-1.69-5.359-3.6-7.776-5.377-4.792-3.6-9.365-6.59-13.716-7.867a21.923,21.923,0,0,0-5.985-.98,17.059,17.059,0,0,0-4.548.533,17.967,17.967,0,0,0-3.636,1.463c-.005-.009.066-.06.21-.153l.648-.4a13.285,13.285,0,0,1,2.718-1.119,16.7,16.7,0,0,1,4.609-.639,21.9,21.9,0,0,1,6.1.912c4.446,1.251,9.1,4.255,13.912,7.83,2.428,1.771,4.954,3.657,7.751,5.321a29.815,29.815,0,0,0,9.232,3.8,20.734,20.734,0,0,0,5.039.37,25.866,25.866,0,0,0,4.865-.764,49.723,49.723,0,0,0,8.766-3.286c2.721-1.262,5.245-2.6,7.712-3.667a52.545,52.545,0,0,1,7.029-2.5,29.938,29.938,0,0,1,10.7-1.192,14.064,14.064,0,0,1,3.864.835" transform="translate(105.184 924.849)" fill="#fafafa"/>
    <path id="Path_23854" data-name="Path 23854" d="M82.56,366.335c.02,0,.05.127.091.377s.1.618.127,1.1a16.586,16.586,0,0,1-.175,4.067,13.548,13.548,0,0,1-2.278,5.6,17.5,17.5,0,0,1-5.617,4.815c-2.247,1.344-4.458,2.468-6.266,3.781a17.185,17.185,0,0,0-4.23,4.089,6.845,6.845,0,0,0-1.263,3.684c-.007.939.142,1.456.083,1.468-.02,0-.064-.119-.131-.365a5,5,0,0,1-.174-1.1,6.748,6.748,0,0,1,1.147-3.907,16.832,16.832,0,0,1,4.259-4.293c1.835-1.368,4.06-2.515,6.281-3.844a17.478,17.478,0,0,0,5.483-4.633,13.594,13.594,0,0,0,2.309-5.37,19.222,19.222,0,0,0,.35-3.985,9.971,9.971,0,0,1,0-1.483" transform="translate(102.144 924.669)" fill="#fafafa"/>
    <path id="Path_23855" data-name="Path 23855" d="M235.028,324.943a24.818,24.818,0,0,0-6.5,2.031,19.612,19.612,0,0,0-5.839,4.429,17.887,17.887,0,0,0-2.473,3.552c-.721,1.318-1.218,2.822-1.923,4.308a10.563,10.563,0,0,1-2.887,3.85,12.67,12.67,0,0,1-3.917,2.174,19.236,19.236,0,0,1-7.449.927,42.357,42.357,0,0,1-5.013-.6,10.9,10.9,0,0,1-1.809-.382,12,12,0,0,1,1.841.163c1.18.127,2.885.353,5,.413a19.493,19.493,0,0,0,7.256-1.017,10.758,10.758,0,0,0,6.465-5.775c.687-1.442,1.193-2.958,1.945-4.324a18,18,0,0,1,2.578-3.643,19.345,19.345,0,0,1,6.051-4.439,18.188,18.188,0,0,1,4.827-1.511,10.8,10.8,0,0,1,1.367-.156,1.526,1.526,0,0,1,.48,0" transform="translate(114.957 920.724)" fill="#fafafa"/>
    <path id="Path_23856" data-name="Path 23856" d="M190.284,334.372a.873.873,0,0,1-.252.074l-.748.161c-.658.146-1.635.321-2.9.519a65.1,65.1,0,0,1-10.807.766,50.07,50.07,0,0,1-15.825-2.681,53.85,53.85,0,0,1-8.607-4.039,61.523,61.523,0,0,0-9.088-4.436,20.661,20.661,0,0,0-4.953-1.122,19.75,19.75,0,0,0-4.916.244,31.666,31.666,0,0,0-8.8,3.17c-5.315,2.817-9.791,5.952-13.823,8.128a33.25,33.25,0,0,1-10.076,3.932,14.7,14.7,0,0,1-2.93.325l-.766.026a.875.875,0,0,1-.261-.01.915.915,0,0,1,.26-.048l.76-.083a16.577,16.577,0,0,0,2.893-.428,34.416,34.416,0,0,0,9.924-4.067c3.986-2.208,8.426-5.371,13.776-8.242a31.934,31.934,0,0,1,8.946-3.253,20.173,20.173,0,0,1,5.063-.26,21.11,21.11,0,0,1,5.09,1.149,60.857,60.857,0,0,1,9.17,4.485,54.137,54.137,0,0,0,8.512,4.033,50.616,50.616,0,0,0,15.659,2.773,70.909,70.909,0,0,0,10.768-.582c1.265-.164,2.246-.3,2.91-.413l.758-.106a.93.93,0,0,1,.262-.016" transform="translate(105.27 920.541)" fill="#fafafa"/>
    <path id="Path_23857" data-name="Path 23857" d="M86.781,341.672a3.665,3.665,0,0,0-.057-1.688,4.859,4.859,0,0,0-3.443-2.815c-.95-.284-2.036-.446-3.2-.714a7.883,7.883,0,0,1-3.508-1.612,9.272,9.272,0,0,1-2.43-3.506,26.228,26.228,0,0,1-1.257-4.351,24.96,24.96,0,0,0-1.25-4.254,16.356,16.356,0,0,0-2.051-3.549,15.686,15.686,0,0,0-5.287-4.456,16.257,16.257,0,0,0-4.441-1.557c-1.1-.222-1.722-.266-1.717-.322a1.349,1.349,0,0,1,.456-.012,9.451,9.451,0,0,1,1.3.116,14.9,14.9,0,0,1,4.586,1.415,15.665,15.665,0,0,1,5.521,4.5,16.471,16.471,0,0,1,2.15,3.652,24.739,24.739,0,0,1,1.29,4.344,26.555,26.555,0,0,0,1.218,4.263,8.84,8.84,0,0,0,2.257,3.323A7.5,7.5,0,0,0,80.187,336c1.136.283,2.234.47,3.211.787a5.012,5.012,0,0,1,3.538,3.137,2.666,2.666,0,0,1,.018,1.325,1.158,1.158,0,0,1-.173.426" transform="translate(101.707 919.572)" fill="#fafafa"/>
    <path id="Path_23858" data-name="Path 23858" d="M170.444,288.941a13.946,13.946,0,0,0-3.219-1.306,10.058,10.058,0,0,0-4.032-.058,21.309,21.309,0,0,0-5.108,1.718c-1.83.828-3.761,1.9-5.865,3.008a32.975,32.975,0,0,1-7.04,2.921,20.5,20.5,0,0,1-8.424.276,32.862,32.862,0,0,1-8.586-2.84c-5.595-2.728-10.247-6.389-14.742-9.233a39.559,39.559,0,0,0-12.759-5.838,20.725,20.725,0,0,0-9.407-.111,32.492,32.492,0,0,0-3.318,1.087,12.96,12.96,0,0,1,3.264-1.3,20.332,20.332,0,0,1,9.547-.067c4.008.79,8.458,2.9,12.955,5.788,4.533,2.837,9.191,6.474,14.706,9.161a32.544,32.544,0,0,0,8.432,2.8,20.083,20.083,0,0,0,8.2-.233A33.04,33.04,0,0,0,152,291.883c2.105-1.086,4.058-2.143,5.919-2.957a21.214,21.214,0,0,1,5.221-1.664,9.538,9.538,0,0,1,6.552,1.161,5.323,5.323,0,0,1,.75.517" transform="translate(104.547 916.127)" fill="#fafafa"/>
    <path id="Path_23859" data-name="Path 23859" d="M159.029,416.789c1.107.554-.12-.056,3.047,1.517l17.571-.034,3.542-2.886-12.807-21.061c-1.561.68-8.447,1.758-10.662,2.541a17.848,17.848,0,0,1-5.972,1,32.971,32.971,0,0,1-6.759-.555c-.152-.055-.343-.1-.475-.158a2.337,2.337,0,0,0-.943-.191c-1.9-.169-3.405,1.814-2.342,3.383,1.09,1.608,6.251,3.655,12.867,3.468.105,0,.2.013.308.013,5.814-.008.482,4.865-2.963,7.75a4.576,4.576,0,0,0-1.663,4.149,1.948,1.948,0,0,0,.775,1.428c1.468.921,6.475-.368,6.475-.368" transform="translate(109.78 927.336)" fill="#ffbe9d"/>
    <path id="Path_23860" data-name="Path 23860" d="M92.334,422.854a1.249,1.249,0,0,1-.013-.31c0-.238.01-.537.018-.909.03-.839.071-2.007.124-3.488.13-3.072.314-7.443.54-12.826.453-10.867,1.077-25.81,1.764-42.315.645-16.531,1.14-31.5,1.4-42.332.114-5.387.206-9.759.271-12.832.032-1.483.057-2.649.074-3.49.014-.372.025-.67.034-.908a1.243,1.243,0,0,1,.032-.309,1.282,1.282,0,0,1,.027.309c.005.238.013.536.022.908.008.84.019,2.008.033,3.491.03,3.032-.02,7.418-.089,12.839-.162,10.841-.594,25.813-1.239,42.347s-1.359,31.486-1.931,42.311c-.3,5.38-.548,9.748-.721,12.818-.1,1.48-.175,2.646-.231,3.484-.031.371-.055.668-.074.9a1.253,1.253,0,0,1-.045.308" transform="translate(104.964 918.648)" fill="#263238"/>
    <path id="Path_23861" data-name="Path 23861" d="M135.972,428.087a2.168,2.168,0,0,1-.053-.406c-.024-.3-.056-.693-.1-1.2-.076-1.086-.182-2.631-.318-4.6-.136-2-.3-4.447-.391-7.293s-.289-6.083-.313-9.667c-.056-3.584-.15-7.509-.1-11.724.016-2.107,0-4.287.046-6.531s.1-4.555.156-6.923c.276-9.473.768-19.882,1.529-30.79,1.538-21.824,3.487-41.529,4.736-55.8.616-7.113,1.115-12.88,1.463-16.905.171-1.969.3-3.512.4-4.6.049-.5.089-.9.118-1.195a2.186,2.186,0,0,1,.059-.405,2.229,2.229,0,0,1,0,.41c-.015.3-.036.694-.062,1.2-.068,1.086-.166,2.631-.291,4.606-.256,4-.7,9.781-1.283,16.923-1.146,14.284-3.032,33.995-4.569,55.806-.76,10.9-1.267,21.3-1.572,30.767q-.092,3.549-.18,6.917c-.054,2.242-.048,4.419-.074,6.525-.071,4.211,0,8.133.03,11.714,0,3.581.168,6.818.229,9.662s.192,5.292.294,7.293c.091,1.976.161,3.522.21,4.609.018.5.031.9.041,1.2a2.129,2.129,0,0,1-.005.41" transform="translate(109 915.496)" fill="#263238"/>
    <path id="Path_23862" data-name="Path 23862" d="M143.339,315.835c-.054-.055.565-.315,1.239.274a1.616,1.616,0,0,1,.537,1.382,1.635,1.635,0,0,1-2.99.5,1.617,1.617,0,0,1,.058-1.482c.446-.777,1.115-.731,1.083-.662.03.085-.472.2-.72.836a1.274,1.274,0,0,0,.042,1.06,1.146,1.146,0,0,0,2.008-.335,1.265,1.265,0,0,0-.306-1.016c-.441-.525-.951-.467-.951-.556" transform="translate(109.694 919.848)" fill="#263238"/>
    <path id="Path_23863" data-name="Path 23863" d="M140.534,360.719c-.053-.055.565-.315,1.24.274a1.615,1.615,0,0,1,.536,1.382,1.635,1.635,0,0,1-2.99.5,1.617,1.617,0,0,1,.058-1.482c.447-.777,1.116-.731,1.083-.662.03.085-.472.2-.718.836a1.269,1.269,0,0,0,.041,1.06,1.147,1.147,0,0,0,2.009-.335,1.273,1.273,0,0,0-.306-1.016c-.442-.525-.952-.467-.952-.556" transform="translate(109.426 924.124)" fill="#263238"/>
    <path id="Path_23864" data-name="Path 23864" d="M214.268,393.822a6.546,6.546,0,0,1-1.473-.185,19.776,19.776,0,0,1-3.859-1.237,21.513,21.513,0,0,1-9.86-8.809,33.516,33.516,0,0,1-2.727-6.829,20.393,20.393,0,0,0-2.428-5.361,9.829,9.829,0,0,0-2.779-2.784c-.8-.5-1.3-.663-1.283-.712.008-.019.136.01.378.082a5.935,5.935,0,0,1,1.018.439,9.28,9.28,0,0,1,3,2.743,19.674,19.674,0,0,1,2.595,5.426,35.144,35.144,0,0,0,2.725,6.711,22.01,22.01,0,0,0,9.533,8.728,34.453,34.453,0,0,0,5.164,1.789" transform="translate(114.256 924.818)" fill="#fafafa"/>
    <path id="Path_23865" data-name="Path 23865" d="M332.169,430.565l-18.6-54.036,8.614-51.855c2.508-13.98,3.908-26.314.152-33.331C312.3,272.584,300.173,270.9,283.608,266.6c-3.416-.888-29.406-1.763-32.263-1.062-22.55,2.528-36.993,14.483-44.874,33.91l-8.595,34.6-11.792,36.186a15.462,15.462,0,0,1-10.4,8.46l-45.524,15.522.379,8.907-.379,12.013,60.559-11.366c12.144-2.279,24.486-6.757,27.961-18.473l6.523-19.291c3.189,8.167,6.654,15.655,6.654,15.655l-4.425,48.665Z" transform="translate(108.569 915.042)" fill="#455a64"/>
    <path id="Path_23866" data-name="Path 23866" d="M310.58,332.189l-17.306,57.858a27.913,27.913,0,0,1-18.632,18.708l-72.023,19.2-9.543-24.868,65.1-24.2,15.979-57.948s3.689-32.39,32.986-30.727" transform="translate(114.562 917.411)" fill="#455a64"/>
    <path id="Path_23867" data-name="Path 23867" d="M307.175,290.213s-.3.012-.874.01c-.577.022-1.438-.069-2.564.027a28.53,28.53,0,0,0-9.625,1.967,26,26,0,0,0-6.212,3.477,29.751,29.751,0,0,0-5.923,6.073,43.913,43.913,0,0,0-7.595,19.193l0,.02,0,.011c-4.425,16.115-9.845,35.858-15.915,57.965l-.035.128-.126.047-65.093,24.223.166-.37c.537,1.4,1.116,2.907,1.7,4.422l7.843,20.446-.336-.172,61.878-16.458q3.539-.94,6.98-1.855c1.143-.311,2.293-.591,3.408-.922a29.566,29.566,0,0,0,3.219-1.231,27.534,27.534,0,0,0,13.606-13.5A39.1,39.1,0,0,0,293.7,388q1.723-5.732,3.3-10.972c4.21-13.945,7.593-25.152,9.93-32.892,1.174-3.849,2.084-6.831,2.705-8.869l.714-2.295c.164-.516.261-.775.261-.775s-.062.269-.208.791-.376,1.3-.664,2.31c-.6,2.044-1.477,5.037-2.61,8.9-2.3,7.75-5.624,18.975-9.763,32.942L294.1,388.115a39.281,39.281,0,0,1-2.038,5.783,27.96,27.96,0,0,1-13.8,13.751,30.393,30.393,0,0,1-3.28,1.261c-1.125.336-2.266.617-3.412.93q-3.44.92-6.977,1.867c-18.865,5.036-39.738,10.611-61.87,16.521l-.246.065-.091-.238c-2.509-6.535-5.16-13.441-7.849-20.445-.581-1.515-1.16-3.023-1.7-4.421l-.1-.269.271-.1,65.109-24.177-.161.176c6.119-22.094,11.583-41.827,16.043-57.931l-.005.03a44.1,44.1,0,0,1,7.734-19.331,29.958,29.958,0,0,1,6.013-6.1,26.091,26.091,0,0,1,6.292-3.467,28.1,28.1,0,0,1,9.7-1.879c1.129-.078,1.991.031,2.569.026.577.023.872.047.872.047" transform="translate(114.53 917.408)" fill="#263238"/>
    <path id="Path_23868" data-name="Path 23868" d="M257.114,360.443a2.523,2.523,0,0,1-.861.065,10.507,10.507,0,0,1-2.338-.269,15.33,15.33,0,0,1-6.834-3.6,16.744,16.744,0,0,1-4.445-6.325,8.743,8.743,0,0,1-.424-1.275,6.119,6.119,0,0,1-.226-.987,2.512,2.512,0,0,1-.076-.86c.106-.021.3,1.19,1.1,2.966a18.194,18.194,0,0,0,4.454,6.056,16.436,16.436,0,0,0,6.55,3.638c1.876.5,3.107.481,3.1.6" transform="translate(119.213 922.845)" fill="#263238"/>
    <path id="Path_23869" data-name="Path 23869" d="M217.32,319.106a11.145,11.145,0,0,1-.61,1.7c-.418,1.085-1.058,2.642-1.785,4.587-1.421,3.872-3.423,9.354-3.633,15.668a26.258,26.258,0,0,0,1.193,8.73,31.965,31.965,0,0,0,2.966,6.6,44.183,44.183,0,0,0,2.735,4.068,14.013,14.013,0,0,1,1.067,1.459c-.014.013-.133-.1-.345-.319s-.521-.553-.895-1a34.7,34.7,0,0,1-2.907-4,30.6,30.6,0,0,1-3.121-6.648,26.04,26.04,0,0,1-1.263-8.906c.218-6.441,2.308-11.952,3.828-15.8.778-1.933,1.474-3.468,1.956-4.527a10.9,10.9,0,0,1,.815-1.617" transform="translate(116.242 920.17)" fill="#263238"/>
    <path id="Path_23870" data-name="Path 23870" d="M258.884,378.884a14.769,14.769,0,0,0-6.7-7.764,3.29,3.29,0,0,1,1.493.522,10.436,10.436,0,0,1,4.906,5.689,3.278,3.278,0,0,1,.3,1.553" transform="translate(120.193 925.123)" fill="#263238"/>
    <path id="Path_23871" data-name="Path 23871" d="M196.056,396.422s-20.6,1.837-20.313,15.22l25.655-1.3Z" transform="translate(112.911 927.535)" fill="#b78876"/>
    <path id="Path_23872" data-name="Path 23872" d="M225.313,192.33q-2.829,13.662-5.392,27.377c-2.164,11.594-4.165,23.7-.889,35.033,1.8,6.216,5.1,11.87,8.375,17.452,1.841,3.139,3.859,6.447,7.12,8.059,4.435,2.192,10.051.46,13.579-3.008s5.333-8.311,6.549-13.1c2.374-9.358,2.9-19.074,3.267-28.721.373-9.735.582-19.659-2.135-29.015s-8.838-18.208-17.869-21.859" transform="translate(116.87 907.351)" fill="#263238"/>
    <path id="Path_23873" data-name="Path 23873" d="M225.969,186.136a15.956,15.956,0,0,1,9.014-3.339c2.626-5.325,8.861-7.76,14.69-8.895,8.585-1.67,7.652-1.906,15.656,1.619s19.348,13.5,20.79,22.124a78.57,78.57,0,0,0,7.191,21.777c2.152,4.541,6.463,7.707,9,12.048a18.01,18.01,0,0,1,1.039,15.774c-2.066,4.935-6.431,9.291-6.02,14.625.239,3.091.127,5.312,1.349,8.161,4.154,9.684,2.215,22.593-6.721,28.179s-21.821,3.637-28.706-4.339c-5.98-6.928-7.139-16.808-6.544-25.94s2.667-18.209,2.07-27.34" transform="translate(117.696 906.225)" fill="#263238"/>
    <path id="Path_23874" data-name="Path 23874" d="M248.71,421.917l-.124-3.151-46.446-4.9-20.35-58.5L94.64,353.4l26.365,68.516q64.635.5,127.7,0" transform="translate(105.185 923.437)" fill="#263238"/>
    <path id="Path_23875" data-name="Path 23875" d="M138.844,386.134a4.559,4.559,0,1,0,1.679-6.224,4.558,4.558,0,0,0-1.679,6.224" transform="translate(109.338 925.904)" fill="#fff"/>
    <path id="Path_23876" data-name="Path 23876" d="M257.839,296.5c10.448,0,19.845-8.907,19.543-22.137l1.881-75.558a6.316,6.316,0,0,0-5.649-6.405L242.467,189.1a18.956,18.956,0,0,0-20.91,17.673c-.754,11.966-1.2,26.605.215,35.533,2.851,17.952,16.611,20.237,16.611,20.237l-.336,12.542c-.528,13.364,9.473,21.409,19.793,21.409" transform="translate(117.208 907.775)" fill="#b78876"/>
    <path id="Path_23877" data-name="Path 23877" d="M227.852,214.3a2.3,2.3,0,0,0,2.22,2.323,2.2,2.2,0,0,0,2.373-2.076,2.3,2.3,0,0,0-2.218-2.325,2.2,2.2,0,0,0-2.376,2.078" transform="translate(117.875 909.988)" fill="#263238"/>
    <path id="Path_23878" data-name="Path 23878" d="M224.4,212.393c.286.3,2.03-.99,4.507-.984,2.475-.03,4.293,1.245,4.563.942.131-.135-.159-.677-.951-1.253a6.317,6.317,0,0,0-3.652-1.126,6.067,6.067,0,0,0-3.588,1.159c-.762.584-1.02,1.127-.879,1.262" transform="translate(117.542 909.773)" fill="#263238"/>
    <path id="Path_23879" data-name="Path 23879" d="M249.688,214.726a2.3,2.3,0,0,0,2.22,2.323,2.2,2.2,0,0,0,2.373-2.076,2.3,2.3,0,0,0-2.218-2.325,2.2,2.2,0,0,0-2.376,2.078" transform="translate(119.955 910.028)" fill="#263238"/>
    <path id="Path_23880" data-name="Path 23880" d="M246.633,212.815c.286.3,2.033-.99,4.508-.984,2.474-.03,4.293,1.245,4.562.942.133-.135-.156-.676-.951-1.253a6.323,6.323,0,0,0-3.652-1.126,6.072,6.072,0,0,0-3.588,1.159c-.759.585-1.019,1.127-.879,1.262" transform="translate(119.661 909.813)" fill="#263238"/>
    <path id="Path_23881" data-name="Path 23881" d="M238.97,231.176c.011-.141-1.529-.406-4.024-.726-.633-.066-1.231-.191-1.338-.622a3.225,3.225,0,0,1,.423-1.876q.892-2.3,1.871-4.817c2.6-6.859,4.48-12.5,4.2-12.6s-2.608,5.374-5.206,12.233q-.938,2.538-1.792,4.847a3.658,3.658,0,0,0-.329,2.483,1.59,1.59,0,0,0,1.041.925,4.279,4.279,0,0,0,1.074.149c2.511.135,4.069.147,4.079.005" transform="translate(118.333 909.827)" fill="#263238"/>
    <path id="Path_23882" data-name="Path 23882" d="M236.858,256.706a45.671,45.671,0,0,0,24.043-6.414s-5.833,12.333-23.8,10.653Z" transform="translate(118.733 913.614)" fill="#aa6550"/>
    <path id="Path_23883" data-name="Path 23883" d="M239.4,234.977a4.463,4.463,0,0,1,4-1.658,4.079,4.079,0,0,1,2.816,1.51,2.587,2.587,0,0,1,.2,2.953,3,3,0,0,1-3.249.821,9.39,9.39,0,0,1-3.167-1.89,2.758,2.758,0,0,1-.708-.733.828.828,0,0,1,0-.922" transform="translate(118.951 911.995)" fill="#aa6550"/>
    <path id="Path_23884" data-name="Path 23884" d="M245.765,230.944c-.4-.023-.407,2.666-2.71,4.575s-5.164,1.612-5.186,1.989c-.037.169.639.522,1.849.555a6.7,6.7,0,0,0,4.328-1.508,5.835,5.835,0,0,0,2.1-3.836c.1-1.125-.2-1.791-.381-1.775" transform="translate(118.829 911.771)" fill="#263238"/>
    <path id="Path_23885" data-name="Path 23885" d="M245.614,208.8c.244.674,2.718.355,5.624.705,2.914.291,5.258,1.142,5.644.538.172-.289-.237-.922-1.184-1.575a9.855,9.855,0,0,0-8.585-.947c-1.067.43-1.6.959-1.5,1.279" transform="translate(119.566 909.485)" fill="#263238"/>
    <path id="Path_23886" data-name="Path 23886" d="M225.233,205.858c.436.563,2.142-.022,4.195-.048,2.051-.1,3.791.378,4.19-.211.175-.286-.1-.849-.858-1.382a6.074,6.074,0,0,0-6.757.209c-.725.578-.964,1.158-.771,1.433" transform="translate(117.62 909.137)" fill="#263238"/>
    <path id="Path_23887" data-name="Path 23887" d="M221.833,204.909c6.752-3.921,13.342-7.551,17.563-14.121,2.336,6.585,6.893,9.84,12.936,13.346s12.806,5.542,19.5,7.547c-3.388,3.285-3.836,8.6-3.055,13.253s2.565,9.138,2.855,13.847c.389,6.29-1.91,12.456-2.056,18.756-.2,8.636,3.618,16.795,7.351,24.583l16.219-9.448-2.335-42.119.195-29.8-25.282-23.5-32.034,3.5Z" transform="translate(117.302 906.656)" fill="#263238"/>
    <path id="Path_23888" data-name="Path 23888" d="M218.971,293.988c8.225,8.323,7.356,23.142,16.4,30.57,5.544,4.555,13.638,4.988,20.434,2.686s12.527-6.954,17.767-11.855,10.206-10.178,16.177-14.157c5.8-3.866,15.716-6.245,17.118-13.074,1.027-5-4.22-11.01-5.21-16.019-1.57-7.947,7.028-14.095,8.464-22.068,2.87-15.928-5.54-34.636-14.3-48.246S282.137,172.987,259.93,171.7c-19.882-.888-33.425,8.65-40.032,22.445-3.314,6.918-4.093,14.739-4.737,22.382-1.5,17.855-2.332,36.773,5.918,52.679,1.709,3.295,3.747,7.469,1.445,10.381-2.106,2.665-6.874,2.553-8.2,5.68-1.378,3.243,2.173,6.217,4.65,8.723M243.718,188.17c2.661-.112,10.552,0,19.36,11.729,5.268,7.016,5.264,18.394,5.144,28.306-.089,7.371,0,26.021,0,26.021s1.17,23.552-6.838,25.641c-9.82,2.563-18.431.8-25.78-6.2s-11.565-16.823-13.235-26.834-2.622-20.216-1.309-30.281c.778-5.955,2.7-12.447,6.022-17.451a24.332,24.332,0,0,1,16.636-10.931" transform="translate(116.557 906.122)" fill="#e8505b"/>
    <g id="Group_6031" data-name="Group 6031" transform="translate(366.978 1173.411)" opacity="0.3">
      <g id="Group_6030" data-name="Group 6030">
        <g id="Group_6029" data-name="Group 6029" clip-path="url(#clip-path-2)">
          <path id="Path_23889" data-name="Path 23889" d="M301.982,272.132c-6.583,3.576-11.113,8.885-16.467,14.123s-11.317,10.306-18.568,12.184-16.066-.357-19.693-6.911c20.558,3.494,44.422-12.923,51.443-32.558a11.343,11.343,0,0,0-.111,5.21,70.347,70.347,0,0,0,3.4,7.952" transform="translate(-247.254 -258.97)"/>
        </g>
      </g>
    </g>
    <g id="Group_6034" data-name="Group 6034" transform="translate(338.844 1181.16)" opacity="0.3">
      <g id="Group_6033" data-name="Group 6033">
        <g id="Group_6032" data-name="Group 6032" clip-path="url(#clip-path-3)">
          <path id="Path_23890" data-name="Path 23890" d="M222.692,266.045a20.211,20.211,0,0,0,9.932,12.553,13,13,0,0,1,3.136,1.843,3.042,3.042,0,0,1,.955,3.286,2.947,2.947,0,0,1-3.529,1.291,8.587,8.587,0,0,1-3.336-2.323c-3.578-3.458-7.274-6.956-8.281-11.829a5.785,5.785,0,0,0,1.189-2.44,10.879,10.879,0,0,0-.066-2.381" transform="translate(-221.568 -266.045)"/>
        </g>
      </g>
    </g>
    <path id="Path_23891" data-name="Path 23891" d="M297.8,262.521a3.247,3.247,0,0,1-.308.64c-.227.405-.53,1.022-1,1.77a60.524,60.524,0,0,1-4.244,6.159,67.267,67.267,0,0,1-7.5,8.176,46.057,46.057,0,0,1-11.169,7.744,51.25,51.25,0,0,1-6.646,2.378,50.424,50.424,0,0,1-6.411,1.428,45.047,45.047,0,0,1-11.094.413,37.737,37.737,0,0,1-7.35-1.406c-.854-.225-1.49-.493-1.93-.641a3.268,3.268,0,0,1-.656-.272c.017-.051.944.259,2.645.7a41.774,41.774,0,0,0,7.325,1.218,46.25,46.25,0,0,0,10.976-.53,50.875,50.875,0,0,0,6.339-1.447,51.913,51.913,0,0,0,6.562-2.357,46.65,46.65,0,0,0,11.056-7.614,71.03,71.03,0,0,0,7.541-8.039,72.559,72.559,0,0,0,4.371-6.025c.5-.727.83-1.324,1.089-1.71a3.348,3.348,0,0,1,.407-.583" transform="translate(118.984 914.779)" fill="#263238"/>
    <path id="Path_23892" data-name="Path 23892" d="M249.024,282.457a5.26,5.26,0,0,1-1.306.341,20.034,20.034,0,0,1-3.666.33,22.425,22.425,0,0,1-19.925-11.952,19.982,19.982,0,0,1-1.436-3.39,5.236,5.236,0,0,1-.313-1.311,48.1,48.1,0,0,0,2.1,4.5,23.067,23.067,0,0,0,19.579,11.743,47.815,47.815,0,0,0,4.965-.266" transform="translate(117.353 915.156)" fill="#263238"/>
    <path id="Path_23893" data-name="Path 23893" d="M242.807,308.857a2.864,2.864,0,0,1,.639-.164c.421-.1,1.048-.189,1.842-.38a58.675,58.675,0,0,0,6.649-1.854,76.076,76.076,0,0,0,20.01-10.7,167.043,167.043,0,0,0,17.25-14.909c2.056-2,3.739-3.634,4.967-4.827l1.364-1.3a2.887,2.887,0,0,1,.5-.426,2.885,2.885,0,0,1-.422.507l-1.287,1.376c-1.128,1.185-2.774,2.887-4.842,4.957a149.094,149.094,0,0,1-17.2,15.083,72.559,72.559,0,0,1-20.22,10.619,49.8,49.8,0,0,1-6.734,1.689c-.8.158-1.44.215-1.866.276a2.881,2.881,0,0,1-.657.05" transform="translate(119.3 915.901)" fill="#263238"/>
    <path id="Path_23894" data-name="Path 23894" d="M613.775,332.941,575.129,287.37l-.089.093c-1.526-1.506-2.854-2.835-3.532-3.62-13.392-15.5-24.026-20.765-44.51-21.1l-39.822.863c-7.405.607-24.206-2.561-39.749,18.041l-.02-.041c-28.3,35.48-51.014,65.651-49.735,79.886,1.616,18.018,70.337,69.393,70.337,69.393l94.448-.083-.194-7.192,40.743-26.409c14.7-9.933,22.378-18.608,24.237-31.777,1.649-11.683-5.556-23.734-13.468-32.488M440.76,360.056c0-2.772,14.9-20.242,23.025-29.563l4.224,40.337-.766,15.75ZM560.6,384.889l-2.287-53.14,30.8,31.863Z" transform="translate(134.048 914.801)" fill="#455a64"/>
    <path id="Path_23895" data-name="Path 23895" d="M524.619,399.614l-69.821,34.5a3.745,3.745,0,0,1-5.017-1.7L427.214,386.75a3.745,3.745,0,0,1,1.7-5.016l69.821-34.5a3.746,3.746,0,0,1,5.017,1.7L526.318,394.6a3.746,3.746,0,0,1-1.7,5.017" transform="translate(136.83 922.812)" fill="#e0e0e0"/>
    <path id="Path_23896" data-name="Path 23896" d="M472.3,382.968a4.322,4.322,0,1,1-1.426,5.943,4.321,4.321,0,0,1,1.426-5.943" transform="translate(140.965 926.193)" fill="#fff"/>
    <path id="Path_23897" data-name="Path 23897" d="M543.812,291.183a1.571,1.571,0,0,1,.03.347c.007.261.016.6.027,1.018.013.934.032,2.245.054,3.916.024,3.439.058,8.348.1,14.4.065,12.154.54,28.941,1.482,47.465.925,18.531,1.9,35.3,2.416,47.45.269,6.073.445,10.991.54,14.39.041,1.669.072,2.98.094,3.913,0,.423.008.758.01,1.019a1.707,1.707,0,0,1-.015.347,1.408,1.408,0,0,1-.043-.345c-.018-.26-.039-.595-.067-1.016-.048-.932-.115-2.242-.2-3.909-.172-3.435-.418-8.337-.722-14.379-.663-12.174-1.575-28.929-2.584-47.442-.942-18.529-1.353-35.33-1.315-47.492.035-6.051.062-10.96.082-14.4.022-1.67.041-2.981.054-3.916.011-.422.021-.757.027-1.018a1.587,1.587,0,0,1,.03-.347" transform="translate(147.956 917.51)" fill="#263238"/>
    <path id="Path_23898" data-name="Path 23898" d="M459.106,269.622c5.04-3.66,10.9-2.553,15.944,1.1s7.856,9.858,8.363,16.068-1.077,12.43-3.448,18.19c-3.8,9.235-9.426,16.7-17.823,26.217L440.5,359.614,482.269,400.4l-17.311,27.316-34.987-28.152c-11.942-10.09-22.108-20.41-29.574-31.078" transform="translate(134.313 915.241)" fill="#455a64"/>
    <path id="Path_23899" data-name="Path 23899" d="M400.4,368.492s.093.106.26.326l.734.987c.644.871,1.6,2.159,2.912,3.789a152.316,152.316,0,0,0,12.085,13.359c2.747,2.723,5.867,5.645,9.349,8.713,3.456,3.1,7.4,6.185,11.567,9.528l27.818,22.327-.382.062,17.293-27.326.042.349-21.553-21.033L440.3,359.823l-.177-.174.15-.2c7.642-10.018,14.911-19.55,21.664-28.406l.007-.008.005-.007a141.484,141.484,0,0,0,11.438-14.362,64.955,64.955,0,0,0,7.524-14.775,37.43,37.43,0,0,0,2.359-14.372,23.977,23.977,0,0,0-3.693-11.769,18.969,18.969,0,0,0-7.427-6.655,13.767,13.767,0,0,0-7.218-1.6,11.276,11.276,0,0,0-4.438,1.313c-.934.5-1.37.844-1.388.816,0,0,.106-.087.329-.242a8.813,8.813,0,0,1,1.019-.648,11.1,11.1,0,0,1,4.465-1.4,13.864,13.864,0,0,1,7.338,1.548,19.167,19.167,0,0,1,7.578,6.7,24.253,24.253,0,0,1,3.807,11.916,37.747,37.747,0,0,1-2.326,14.534,65.31,65.31,0,0,1-7.533,14.9,141.244,141.244,0,0,1-11.448,14.437l.012-.014-21.629,28.433-.027-.369,20.229,19.742,21.544,21.042.162.158-.122.192-17.327,27.3-.156.245-.226-.183-27.766-22.4c-4.152-3.355-8.092-6.461-11.542-9.58-3.474-3.088-6.585-6.03-9.321-8.773A144.969,144.969,0,0,1,404.173,373.7c-1.289-1.647-2.23-2.953-2.852-3.841l-.7-1.012c-.156-.228-.226-.35-.226-.35" transform="translate(134.313 915.234)" fill="#263238"/>
    <path id="Path_23900" data-name="Path 23900" d="M587.419,354.289a16.265,16.265,0,0,1-2.193-.676,16.263,16.263,0,0,0-5.383-.693,16.082,16.082,0,0,0-5.282,1.251,16.666,16.666,0,0,1-2.107.907,6.508,6.508,0,0,1,1.94-1.274,13.466,13.466,0,0,1,10.961-.574,6.569,6.569,0,0,1,2.065,1.059" transform="translate(150.703 923.335)" fill="#263238"/>
    <path id="Path_23901" data-name="Path 23901" d="M485.052,414.522c-1.1.548-4.465,2.222-7.6,3.778a10.73,10.73,0,0,1-11.546-1.291l-4.757-3.874,13.14-20.669c1.544.674,7.888,1.572,10.08,2.345a17.611,17.611,0,0,0,5.909.993,32.6,32.6,0,0,0,6.687-.55c.15-.054.34-.1.47-.156a2.328,2.328,0,0,1,.933-.189c1.881-.166,3.369,1.8,2.317,3.348-1.078,1.59-6.184,3.615-12.73,3.43-.1,0-.2.013-.3.013-5.751-.008-.477,4.814,2.932,7.668a4.531,4.531,0,0,1,1.645,4.1,1.924,1.924,0,0,1-.768,1.413c-1.452.911-6.406-.364-6.406-.364" transform="translate(140.1 927.158)" fill="#a36853"/>
    <path id="Path_23902" data-name="Path 23902" d="M500.844,289.139c-10.074,0-19.134-8.587-19.048-21.377l-1.813-72.851.2.033a6.089,6.089,0,0,1,5.448-6.175l30.03-3.176a18.279,18.279,0,0,1,20.161,17.041c.726,11.536,1.159,25.651-.208,34.259-2.748,17.31-16.016,19.513-16.016,19.513l.325,12.092c.509,12.887-9.133,20.642-19.084,20.642" transform="translate(141.894 907.441)" fill="#a36853"/>
    <path id="Path_23903" data-name="Path 23903" d="M525.226,209.892a2.22,2.22,0,0,1-2.14,2.24,2.124,2.124,0,0,1-2.289-2,2.222,2.222,0,0,1,2.139-2.242,2.125,2.125,0,0,1,2.29,2" transform="translate(145.782 909.574)" fill="#263238"/>
    <path id="Path_23904" data-name="Path 23904" d="M528.938,208.048c-.275.289-1.957-.955-4.346-.948-2.387-.029-4.139,1.2-4.4.908-.127-.129.153-.652.917-1.208a6.1,6.1,0,0,1,3.521-1.085,5.854,5.854,0,0,1,3.459,1.117c.735.564.984,1.088.848,1.217" transform="translate(145.722 909.368)" fill="#263238"/>
    <path id="Path_23905" data-name="Path 23905" d="M504.173,210.3a2.22,2.22,0,0,1-2.14,2.24,2.124,2.124,0,0,1-2.289-2,2.222,2.222,0,0,1,2.139-2.241,2.125,2.125,0,0,1,2.29,2" transform="translate(143.776 909.613)" fill="#263238"/>
    <path id="Path_23906" data-name="Path 23906" d="M507.5,208.455c-.276.289-1.959-.955-4.347-.948-2.385-.028-4.139,1.2-4.4.908-.127-.129.151-.652.917-1.207a6.09,6.09,0,0,1,3.521-1.087,5.853,5.853,0,0,1,3.459,1.117c.733.564.984,1.088.849,1.217" transform="translate(143.679 909.406)" fill="#263238"/>
    <path id="Path_23907" data-name="Path 23907" d="M514.748,226.158a15.829,15.829,0,0,1,3.88-.7c.609-.064,1.187-.184,1.289-.6a3.1,3.1,0,0,0-.406-1.808q-.861-2.215-1.8-4.645c-2.5-6.613-4.318-12.051-4.05-12.15s2.515,5.182,5.02,11.795q.9,2.446,1.728,4.672a3.532,3.532,0,0,1,.315,2.394,1.534,1.534,0,0,1-1,.893,4.111,4.111,0,0,1-1.036.143c-2.422.13-3.924.141-3.933.005" transform="translate(145.099 909.419)" fill="#263238"/>
    <path id="Path_23908" data-name="Path 23908" d="M518.174,250.774a44.045,44.045,0,0,1-23.182-6.184s6,13.024,23.323,11.4Z" transform="translate(143.324 913.071)" fill="#8f5039"/>
    <path id="Path_23909" data-name="Path 23909" d="M508.665,204.589c-.236.649-2.621.342-5.423.679-2.81.281-5.07,1.1-5.442.52-.165-.279.228-.89,1.142-1.519a9.5,9.5,0,0,1,8.277-.913c1.029.415,1.548.924,1.446,1.233" transform="translate(143.588 909.09)" fill="#263238"/>
    <path id="Path_23910" data-name="Path 23910" d="M528.08,201.748c-.421.542-2.066-.021-4.045-.047-1.978-.1-3.655.365-4.04-.2-.169-.276.1-.819.828-1.333a5.854,5.854,0,0,1,6.513.2c.7.557.929,1.116.744,1.381" transform="translate(145.701 908.754)" fill="#263238"/>
    <path id="Path_23911" data-name="Path 23911" d="M481.3,213.473c2.941-.528,5.3.379,6.125,3.249,1.246,4.323.4,6.463.609,9.442l4.369-1.311c-1.086-9.98,1.392-17.365.307-27.344,6.086,1.969,14.453-1.79,17.052-8.1a16.966,16.966,0,0,0,18.075,1.27,6.96,6.96,0,0,0,7.437,3.48c3.322-.933,6.764-5.6,7.717-8.92,1.713-5.969.877-14.533-3.963-18.426s-14.548-2.959-18.318,1.977c-1.488,1.948-1.663,5.555-4.065,6.048-2.129.437-4.07-1.142-6.019-2.106-6.081-3.005-14.474.988-15.979,7.6-5.084-3.031-11.235-5.011-16.924-3.377s-10.217,7.932-8.282,13.525c.807,2.337,2.606,4.355,2.8,6.82.382,4.764-5.326,9.08-3.5,13.5,1.02,2.473,4.011,3.571,5.36,5.879,1.513,2.587.575,5.841.7,8.834.206,5,2.758,12.387,7.551,13.808" transform="translate(140.789 905.432)" fill="#263238"/>
    <path id="Path_23912" data-name="Path 23912" d="M480.938,209.152c-1.781.171-2.63,1.342-3.308,2.642a9.157,9.157,0,0,0-.894,4.261,9.517,9.517,0,0,0,2.089,6.347A5.485,5.485,0,0,0,485,223.974" transform="translate(141.585 909.695)" fill="#a36853"/>
    <path id="Path_23913" data-name="Path 23913" d="M483.649,219.9c.023.055-.645.3-1.663-.067a3.436,3.436,0,0,1-1.5-1.1,3.93,3.93,0,0,1-.8-2.131,4.086,4.086,0,0,1,.449-2.228,3.877,3.877,0,0,1,1.226-1.383c.89-.6,1.591-.557,1.586-.5a11.89,11.89,0,0,0-1.342.817,3.837,3.837,0,0,0-1.35,3.247,3.43,3.43,0,0,0,1.892,2.9,9.466,9.466,0,0,0,1.5.438" transform="translate(141.865 910.01)" fill="#8f5039"/>
    <path id="Path_23914" data-name="Path 23914" d="M507.91,232.871c2.137,1.5,6.331.706,7.886-1.515a42.076,42.076,0,0,1-9.149-6.739s-3.111,5.178,1.263,8.254" transform="translate(144.332 911.168)" fill="#fafafa"/>
    <path id="Path_23915" data-name="Path 23915" d="M514.66,236.875a6.34,6.34,0,0,0-5.57-.025c-.046-.053.168-.341.656-.64a4.257,4.257,0,0,1,4.264.019c.485.3.7.594.651.646" transform="translate(144.666 912.219)" fill="#aa6550"/>
    <path id="Path_23916" data-name="Path 23916" d="M492.383,304.718c4.847-6.752,10.152-16.614,12.585-21.254,4.524-8.632,3.763-9.07,2.678-9.454-2.919-1.031-8.531,14.868-9.285,10.7s9.1-18.591,6.008-19.542c-4.028-1.238-9.6,15.521-10.177,16.9-.559,1.342-2.569.545-1.983-.672.841-1.749,9.23-20.358,5.284-21.612-2.188-.7-2.978,3.4-2.978,3.4s-6.578,18.023-8.423,17.368c-1.873-.665,1.637-11.386,3.073-14.912,1.418-3.483.357-5.617-1.691-5-1.4.418-6.047,11.1-7.386,14.625s-4.844,13.249-6.971,6.951c-.034-.1-.077-.186-.111-.285-1.928-6.259-5.486-10.443-7.338-10.953-1.808-.5-3.187,1.542-2.426,3.269a2.344,2.344,0,0,0,.479.823c.1.105.2.269.3.4a32.625,32.625,0,0,1,2.668,6.154,17.657,17.657,0,0,1,.958,5.916c-.03,2.324,1.15,9.118,1.008,10.8" transform="translate(140.279 914.512)" fill="#ffad9d"/>
    <path id="Path_23917" data-name="Path 23917" d="M485.166,295.548l-26.492,52.539s-14.982-43.344-23.063-60.585c-3.086-6.585-9.253-11.127-15.184-14.149v-.118c-.415-.171-.826-.328-1.239-.494a62.8,62.8,0,0,0-13.346-4.594c-27.957-8-54.289-5.206-84.771,5.454,0,0-15.824,4.257-23.495,24.9-6.91,18.6-14.646,47.068-15.972,52.128-9.5,31.961,4.065,49.762,22.93,47.569,7.779-1.224,14.394-7.62,17.32-10.163l9.977-9.379.219,7.263-11.157,44.843,114.717-.239-20.7-53.116,4.591-24.347,7.874,18.713a32.784,32.784,0,0,0,60.1.773l26.832-67.535Z" transform="translate(122.699 914.876)" fill="#e8505b"/>
    <path id="Path_23918" data-name="Path 23918" d="M343.816,352.56a10.9,10.9,0,0,1-1.031,1.476c-.7.924-1.73,2.245-3.056,3.836-2.637,3.193-6.444,7.47-10.861,11.989s-8.621,8.413-11.769,11.1c-1.571,1.35-2.872,2.407-3.791,3.112a10.989,10.989,0,0,1-1.462,1.05,10.8,10.8,0,0,1,1.321-1.222c.874-.756,2.134-1.857,3.665-3.243,3.073-2.762,7.22-6.689,11.628-11.2s8.251-8.733,10.96-11.852c1.363-1.553,2.44-2.832,3.191-3.713a10.85,10.85,0,0,1,1.2-1.337" transform="translate(125.877 923.357)" fill="#263238"/>
    <path id="Path_23919" data-name="Path 23919" d="M403.339,371.138a2.5,2.5,0,0,1,.064-.613c.078-.46.175-1.035.295-1.738.295-1.584.7-3.74,1.186-6.371,1.012-5.374,2.39-12.8,3.492-21.071.273-2.068.524-4.089.742-6.043a32.8,32.8,0,0,0,.313-5.618,55.718,55.718,0,0,0-1.411-9.45c-.591-2.666-1.137-4.814-1.436-6.319-.153-.751-.243-1.342-.286-1.745a2.493,2.493,0,0,1-.017-.618,2.51,2.51,0,0,1,.13.6c.079.394.2.973.39,1.713.364,1.482.968,3.612,1.612,6.276a52.865,52.865,0,0,1,1.542,9.517,32.582,32.582,0,0,1-.283,5.7c-.21,1.959-.458,3.985-.732,6.057-1.1,8.286-2.548,15.717-3.661,21.074-.563,2.617-1.025,4.761-1.365,6.336-.161.694-.292,1.262-.4,1.716a2.486,2.486,0,0,1-.176.591" transform="translate(134.592 919.45)" fill="#263238"/>
    <path id="Path_23920" data-name="Path 23920" d="M440.843,353.568a73.983,73.983,0,0,1,2.382-12.769,74.194,74.194,0,0,1-2.382,12.769" transform="translate(138.162 922.236)" fill="#263238"/>
    <path id="Path_23921" data-name="Path 23921" d="M444.687,355.167a49.108,49.108,0,0,1-1.145-7.389,49.138,49.138,0,0,1-.577-7.454,49.272,49.272,0,0,1,1.145,7.389,49.128,49.128,0,0,1,.577,7.454" transform="translate(138.363 922.191)" fill="#263238"/>
    <path id="Path_23922" data-name="Path 23922" d="M367.3,422.844c-.158,0-.285-17.609-.285-39.324s.127-39.328.285-39.328.285,17.6.285,39.328-.127,39.324-.285,39.324" transform="translate(131.132 922.56)" fill="#263238"/>
    <g id="Group_6041" data-name="Group 6041" transform="translate(541.476 1234.175)" opacity="0.2">
      <g id="Group_6040" data-name="Group 6040">
        <g id="Group_6039" data-name="Group 6039" clip-path="url(#clip-path-4)">
          <path id="Path_23923" data-name="Path 23923" d="M406.575,314.449c5.37,10.308,10.053,20.566,10.477,32.18.331,9.039-3.288,16.572.446,24.81-.177.146-3.37-6.954-4.779-10.287-2.9-6.86-5.455-12.977-5.455-12.977s1.994-15.483,2.159-18.12-2.848-15.606-2.848-15.606" transform="translate(-406.575 -314.449)"/>
        </g>
      </g>
    </g>
    <g id="Group_6044" data-name="Group 6044" transform="translate(406.877 1231.902)" opacity="0.2">
      <g id="Group_6043" data-name="Group 6043">
        <g id="Group_6042" data-name="Group 6042" clip-path="url(#clip-path-5)">
          <path id="Path_23924" data-name="Path 23924" d="M285.174,367.015c0,5.167-3.216-11.895-.206-16.095,2.1-2.937,5.728-4.349,9.23-5.239s7.174-1.446,10.286-3.283c4.016-2.372,6.553-6.536,9.381-10.246s6.563-19.446,11.215-19.778v22.97c-10.946,6.889-22.524,13.813-34.629,19.422a16.106,16.106,0,0,0-5.277,12.248" transform="translate(-283.683 -312.374)"/>
        </g>
      </g>
    </g>
    <g id="Group_6047" data-name="Group 6047" transform="translate(454.532 1268.86)" opacity="0.2">
      <g id="Group_6046" data-name="Group 6046">
        <g id="Group_6045" data-name="Group 6045" clip-path="url(#clip-path-6)">
          <path id="Path_23925" data-name="Path 23925" d="M327.193,370.793c7.5-4.212,12.976-9.816,21.452-11.312,8.163-1.441,16.559.046,24.826-.563q-.683-6.268-1.368-12.536l-23.635-.265Z" transform="translate(-327.193 -346.117)"/>
        </g>
      </g>
    </g>
    <path id="Path_23926" data-name="Path 23926" d="M321.5,312.117c.158,0,.285,5.119.285,11.432s-.127,11.433-.285,11.433-.285-5.118-.285-11.433.127-11.432.285-11.432" transform="translate(126.769 919.504)" fill="#263238"/>
    <path id="Path_23927" data-name="Path 23927" d="M285.031,363.214a5.146,5.146,0,0,1-.124-2.033,14.608,14.608,0,0,1,3.838-8.91,5.144,5.144,0,0,1,1.563-1.306c.137.125-2.252,2.183-3.719,5.658-1.518,3.454-1.372,6.6-1.557,6.59" transform="translate(123.308 923.204)" fill="#263238"/>
    <path id="Path_23928" data-name="Path 23928" d="M289.329,353.324a10.619,10.619,0,0,0,1.726-.631c1.1-.439,2.665-1.119,4.585-2,3.838-1.756,9.053-4.374,14.6-7.624s10.368-6.516,13.758-9c1.7-1.239,3.048-2.269,3.959-3.009a10.2,10.2,0,0,0,1.381-1.189,10.52,10.52,0,0,0-1.529,1l-4.071,2.849c-3.45,2.387-8.291,5.579-13.821,8.823s-10.7,5.909-14.475,7.759l-4.492,2.17a10.5,10.5,0,0,0-1.625.847" transform="translate(123.731 921.195)" fill="#263238"/>
    <path id="Path_23929" data-name="Path 23929" d="M431.555,228.262c-1.878-2.465-4.87-4.338-5.438-7.385-.754-4.045,3.243-7.833,2.545-11.887-.478-2.773-3.035-4.717-5.635-5.794s-5.442-1.594-7.866-3.022a15.91,15.91,0,0,1-6.275-7.737,27.653,27.653,0,0,1-.935-2.655,28.387,28.387,0,0,0-1.325-5.69c-.091-.483-.184-.966-.273-1.449l.119,1.061a11.576,11.576,0,0,0-1.421-2.573c-2-2.67-6.014-4.158-8.772-2.278l1.309-.886a25.291,25.291,0,0,0-19.521-15.3,23.731,23.731,0,0,0-4.955-.17c-5.9-.3-14.434,1.421-18.036,3.7-4.6,2.916-9.313,6.921-11.617,11.856-1.243,2.665-2.081,5.735-4.427,7.509-3.131,2.369-7.53,1.45-11.433,1.892-6.446.727-12.028,5.67-14.24,11.768s-1.274,13.089,1.792,18.806c.679,1.265,1.48,2.717.943,4.048a5.072,5.072,0,0,1-2.46,2.151,13.313,13.313,0,0,0-5.966,6.238c-1.093,2.721-.676,6.173,1.533,8.1a6.7,6.7,0,0,0,6.691.958,14.5,14.5,0,0,0-1.027,5.174c-.01,3.866,1.947,7.844,5.376,9.631s8.23.843,10.248-2.456A13.465,13.465,0,0,0,351.3,263.251c1.625-1.059,3.291-2.544,5.206-2.239,1.875.3,3,2.161,4.314,3.528,3.508,3.643,9.484,4.069,14.094,1.991s8.007-6.2,10.453-10.632a8.146,8.146,0,0,0,14.535-2.033,13.616,13.616,0,0,0,24.386-7.742,11.188,11.188,0,0,0,7.264-17.863m-110.138,3.387c0-.022.008-.044.01-.065l.116-.049c-.042.039-.085.076-.126.114" transform="translate(125.423 905.245)" fill="#263238"/>
    <path id="Path_23930" data-name="Path 23930" d="M387.82,257.285s14.024-2.329,16.93-20.625c1.445-9.1.988-24.019.219-36.214a19.321,19.321,0,0,0-21.311-18.014l-31.743,3.358a6.436,6.436,0,0,0-5.759,6.527l3.336,79.5c-2.312.494-7.559,1.638-10.129,2.383,0,0,24.557,54.878,30.568,54.242s30.043-52.566,30.043-52.566a124.865,124.865,0,0,0-12.726-3.12,152.063,152.063,0,0,1,.572-15.466" transform="translate(128.498 907.139)" fill="#ffad9d"/>
    <path id="Path_23931" data-name="Path 23931" d="M393.191,208.118a2.348,2.348,0,0,1-2.263,2.368,2.244,2.244,0,0,1-2.418-2.116A2.348,2.348,0,0,1,390.77,206a2.246,2.246,0,0,1,2.422,2.117" transform="translate(133.18 909.395)" fill="#263238"/>
    <path id="Path_23932" data-name="Path 23932" d="M397.115,206.17c-.291.306-2.069-1.01-4.594-1-2.522-.028-4.376,1.269-4.649.961-.135-.137.161-.689.968-1.276a6.43,6.43,0,0,1,3.722-1.148,6.189,6.189,0,0,1,3.657,1.181c.777.6,1.039,1.149.9,1.286" transform="translate(133.116 909.176)" fill="#263238"/>
    <path id="Path_23933" data-name="Path 23933" d="M370.937,208.548a2.346,2.346,0,0,1-2.263,2.367,2.243,2.243,0,0,1-2.418-2.115,2.347,2.347,0,0,1,2.261-2.369,2.246,2.246,0,0,1,2.421,2.117" transform="translate(131.06 909.436)" fill="#263238"/>
    <path id="Path_23934" data-name="Path 23934" d="M374.453,206.6c-.291.306-2.071-1.01-4.595-1-2.522-.031-4.376,1.269-4.649.959-.135-.137.159-.689.969-1.276a6.427,6.427,0,0,1,3.721-1.148,6.186,6.186,0,0,1,3.657,1.181c.774.6,1.039,1.149.9,1.286" transform="translate(130.957 909.217)" fill="#263238"/>
    <path id="Path_23935" data-name="Path 23935" d="M382.116,225.313c-.012-.143,1.557-.415,4.1-.74.644-.066,1.255-.194,1.364-.634a3.291,3.291,0,0,0-.43-1.911q-.91-2.341-1.907-4.91c-2.648-6.99-4.565-12.738-4.282-12.843s2.658,5.477,5.305,12.468q.956,2.586,1.827,4.94a3.725,3.725,0,0,1,.334,2.53,1.617,1.617,0,0,1-1.06.943,4.4,4.4,0,0,1-1.094.152c-2.56.138-4.148.149-4.158.005" transform="translate(132.458 909.23)" fill="#263238"/>
    <path id="Path_23936" data-name="Path 23936" d="M385.737,251.334a46.545,46.545,0,0,1-24.5-6.537s5.945,12.569,24.258,10.856Z" transform="translate(130.581 913.091)" fill="#ed9482"/>
    <path id="Path_23937" data-name="Path 23937" d="M375.723,227.161a4.827,4.827,0,0,1,1.855-.8,1.649,1.649,0,0,1,1.72.808,3.474,3.474,0,0,0,.264.633c.365.5,1.145.324,1.743.5a1.839,1.839,0,0,1,.969,2.417,3.7,3.7,0,0,1-2.142,1.884,7.877,7.877,0,0,1-3.923.538,3.346,3.346,0,0,1-2.426-1.2,2.858,2.858,0,0,1,.193-3.132,8.408,8.408,0,0,1,2.5-2.165" transform="translate(131.74 911.333)" fill="#ed9482"/>
    <path id="Path_23938" data-name="Path 23938" d="M375.264,225.077c.411-.023.416,2.718,2.762,4.664s5.263,1.644,5.285,2.027c.038.172-.651.532-1.884.565a6.826,6.826,0,0,1-4.412-1.537,5.941,5.941,0,0,1-2.14-3.909c-.105-1.147.2-1.825.389-1.81" transform="translate(131.879 911.212)" fill="#263238"/>
    <path id="Path_23939" data-name="Path 23939" d="M375.685,202.514c-.249.687-2.77.361-5.733.718-2.969.3-5.359,1.164-5.751.549-.175-.295.24-.941,1.207-1.606a10.045,10.045,0,0,1,8.749-.965c1.088.438,1.635.977,1.528,1.3" transform="translate(130.86 908.882)" fill="#263238"/>
    <path id="Path_23940" data-name="Path 23940" d="M396.208,200.972c-.445.573-2.184-.022-4.276-.049-2.09-.1-3.863.384-4.27-.215-.179-.291.1-.866.875-1.409a6.191,6.191,0,0,1,6.885.213c.739.589.982,1.18.786,1.46" transform="translate(133.094 908.667)" fill="#263238"/>
    <path id="Path_23941" data-name="Path 23941" d="M395.329,180.66A24.81,24.81,0,0,1,365.3,199.685a23.56,23.56,0,0,1-13.905,18.5,50.217,50.217,0,0,1,5.908,30.13c-.532,4.433-1.821,9.064-5.147,12.045-5.078,4.551-13.65,3.447-18.536-1.311-4.68-4.557-6.335-11.708-5.011-18.106s5.338-12.029,10.39-16.173a11.6,11.6,0,0,1-5.982-19.886c1.442-1.356,3.253-2.366,4.339-4.022,1.025-1.563,1.268-3.494,1.894-5.255,1.636-4.61,5.759-7.8,9.679-10.731,3.319-2.479,6.959-5.068,11.1-5.057,2.21.005,4.406.769,6.6.473,3.013-.407,5.36-2.69,7.856-4.424,3.518-2.444,7.869-3.947,12.1-3.285s8.188,3.828,8.987,8.036" transform="translate(127.432 906.197)" fill="#263238"/>
    <path id="Path_23942" data-name="Path 23942" d="M388.061,181.663c-.647,3.532,1.141,7.158,3.744,9.633s5.933,4.014,9.2,5.51a41.567,41.567,0,0,0-4.736-9.913c-2.142-2.983-5.258-5.454-8.89-6.006" transform="translate(133.072 907.003)" fill="#263238"/>
    <path id="Path_23943" data-name="Path 23943" d="M314.529,224.607a2.374,2.374,0,0,1-.1-1.147,4.413,4.413,0,0,1,1.642-2.828,7.258,7.258,0,0,1,4.992-1.365c2.05.03,4.324.68,6.831.528a8.644,8.644,0,0,0,6.661-4.123,8.838,8.838,0,0,0,1.245-4.3c.1-1.572-.034-3.215.054-4.924a8.843,8.843,0,0,1,1.6-5,10.448,10.448,0,0,1,4.382-3.292c3.448-1.559,7.382-1.586,11.152-2.289A15.747,15.747,0,0,0,358.307,194a14.121,14.121,0,0,0,3.959-3.747c2.137-2.936,3.567-6.217,5.53-9.006a19.265,19.265,0,0,1,15.358-8.335,18.792,18.792,0,0,1,6.811,1.161,18.982,18.982,0,0,1,4.611,2.442,14.443,14.443,0,0,1,3.227,3.039,1.163,1.163,0,0,1-.219-.194l-.6-.6a20.462,20.462,0,0,0-2.532-2.062,19.178,19.178,0,0,0-11.284-3.382,18.914,18.914,0,0,0-14.936,8.232c-1.914,2.74-3.331,6.022-5.511,9.038a14.671,14.671,0,0,1-4.117,3.9,16.252,16.252,0,0,1-5.5,1.936c-3.852.713-7.713.741-11.035,2.242a9.908,9.908,0,0,0-4.166,3.1,8.317,8.317,0,0,0-1.514,4.707c-.094,1.659.037,3.31-.078,4.929a9.3,9.3,0,0,1-1.344,4.518,9.055,9.055,0,0,1-7.036,4.277c-2.612.125-4.865-.559-6.871-.612a7.079,7.079,0,0,0-4.841,1.219,4.374,4.374,0,0,0-1.667,2.671,5.2,5.2,0,0,0-.016,1.13" transform="translate(126.121 906.243)" fill="#fafafa"/>
    <path id="Path_23944" data-name="Path 23944" d="M339.364,297.3l1.154,29.18,2.943,27.927,31.024-1.322-2.232-55.156Z" transform="translate(128.498 918.093)" fill="#263238"/>
    <path id="Path_23945" data-name="Path 23945" d="M335.2,297.21l1.158,29.282,2.943,27.927,31.024-1.323-2.234-55.243Z" transform="translate(128.102 918.084)" fill="#455a64"/>
    <path id="Path_23946" data-name="Path 23946" d="M333.336,356.288c8.311-.157,19.387-1.8,24.559-2.631,9.624-1.539,9.52-2.411,9.178-3.51-.921-2.956-17.017,2.059-14.13-1.037s20.34-3.83,19.251-6.877c-1.417-3.968-18.181,1.592-19.633,1.957-1.409.355-1.974-1.733-.647-1.991,1.906-.373,21.834-4.784,20.478-8.7-.75-2.17-4.5-.353-4.5-.353s-18.377,5.511-18.956,3.642c-.587-1.9,10.1-5.5,13.787-6.459,3.64-.946,4.714-3.074,3-4.348-1.17-.87-12.515,1.8-16.138,2.83s-13.514,4.045-9.74-1.428c.059-.087.1-.173.162-.258,3.862-5.289,5.086-10.644,4.387-12.433-.683-1.746-3.142-1.632-4.071.012a2.319,2.319,0,0,0-.372.876c-.026.14-.1.321-.138.475a32.646,32.646,0,0,1-3.336,5.821,17.626,17.626,0,0,1-4.166,4.305c-1.881,1.368-6.619,6.377-8.049,7.268" transform="translate(127.059 919.629)" fill="#ffad9d"/>
    <path id="Path_23947" data-name="Path 23947" d="M326.973,330.2l16.414,24.494-27.042,27.582.915-44.734Z" transform="translate(126.305 921.226)" fill="#e8505b"/>
  </g>
</svg>
