<svg xmlns="http://www.w3.org/2000/svg" xmlns:xlink="http://www.w3.org/1999/xlink" width="218" height="218" viewBox="0 0 218 218">
  <defs>
    <clipPath id="clip-path">
      <rect id="Rectangle_2458" data-name="Rectangle 2458" width="189.289" height="181.844" fill="none"/>
    </clipPath>
  </defs>
  <g id="Group_6501" data-name="Group 6501" transform="translate(-833 -1935)">
    <rect id="Rectangle_2486" data-name="Rectangle 2486" width="218" height="218" transform="translate(833 1935)" fill="none"/>
    <g id="Group_6498" data-name="Group 6498" transform="translate(847 1953)">
      <rect id="Rectangle_2389" data-name="Rectangle 2389" width="18.511" height="0.803" transform="translate(129.289 21.402)" fill="#cdcdcd"/>
      <rect id="Rectangle_2390" data-name="Rectangle 2390" width="20.199" height="1.13" transform="translate(63.755 113.861)" fill="#60a4c2"/>
      <path id="Path_26871" data-name="Path 26871" d="M214.583,515.068H184.4l-7.554-6.771.754-.841,7.232,6.482h29.751Z" transform="translate(-141.788 -406.857)" fill="#9900a6"/>
      <rect id="Rectangle_2391" data-name="Rectangle 2391" width="1.13" height="50.8" transform="translate(36.155 44.768) rotate(-51.877)" fill="#eebd3a"/>
      <rect id="Rectangle_2392" data-name="Rectangle 2392" width="0.565" height="43.523" transform="matrix(0.614, -0.789, 0.789, 0.614, 43.135, 54.603)" fill="#cacaca"/>
      <path id="Path_26872" data-name="Path 26872" d="M570.12,302.367l-.415-.384,4.68-5.051V286.749h.565v10.4Z" transform="translate(-456.766 -229.904)" fill="#c84b2a"/>
      <path id="Path_26873" data-name="Path 26873" d="M572.1,218.426l-.83-.766,6.63-7.183v-31.7h-2.709v-1.13h3.839v33.274Z" transform="translate(-458.024 -142.428)" fill="#cdcdcd"/>
      <rect id="Rectangle_2393" data-name="Rectangle 2393" width="18.787" height="1.13" transform="translate(120.009 86.35)" fill="#cdcdcd"/>
      <rect id="Rectangle_2394" data-name="Rectangle 2394" width="30.934" height="1.13" transform="translate(122.833 89.74)" fill="#cdcdcd"/>
      <g id="Group_6454" data-name="Group 6454">
        <g id="Group_6453" data-name="Group 6453" clip-path="url(#clip-path)">
          <path id="Path_26874" data-name="Path 26874" d="M698.812,430.419a2.4,2.4,0,1,1,2.4-2.4,2.4,2.4,0,0,1-2.4,2.4m0-3.743a1.346,1.346,0,1,0,1.346,1.346,1.348,1.348,0,0,0-1.346-1.346" transform="translate(-558.357 -341.249)" fill="#cdcdcd"/>
          <path id="Path_26875" data-name="Path 26875" d="M933.056,434.7a2.4,2.4,0,1,1,2.4-2.4,2.4,2.4,0,0,1-2.4,2.4m0-3.743A1.346,1.346,0,1,0,934.4,432.3a1.348,1.348,0,0,0-1.346-1.346" transform="translate(-746.164 -344.681)" fill="#cdcdcd"/>
          <path id="Path_26876" data-name="Path 26876" d="M232.893,761.091a2.4,2.4,0,1,1,2.4-2.4,2.4,2.4,0,0,1-2.4,2.4m0-3.743a1.346,1.346,0,1,0,1.346,1.346,1.348,1.348,0,0,0-1.346-1.346" transform="translate(-184.802 -606.368)" fill="#cdcdcd"/>
          <path id="Path_26877" data-name="Path 26877" d="M442.375,897.9a2.4,2.4,0,1,1,2.4-2.4,2.4,2.4,0,0,1-2.4,2.4m0-3.743a1.346,1.346,0,1,0,1.346,1.346,1.348,1.348,0,0,0-1.346-1.346" transform="translate(-352.756 -716.053)" fill="#cdcdcd"/>
          <path id="Path_26878" data-name="Path 26878" d="M630.408,36.628a2.4,2.4,0,1,1,2.4-2.4,2.4,2.4,0,0,1-2.4,2.4m0-3.743a1.346,1.346,0,1,0,1.346,1.346,1.348,1.348,0,0,0-1.346-1.346" transform="translate(-503.513 -25.523)" fill="#cdcdcd"/>
          <path id="Path_26879" data-name="Path 26879" d="M168.691,210.961a2.4,2.4,0,1,1,2.4-2.4,2.4,2.4,0,0,1-2.4,2.4m0-3.743a1.346,1.346,0,1,0,1.346,1.346,1.348,1.348,0,0,0-1.346-1.346" transform="translate(-133.328 -165.296)" fill="#eebd3a"/>
          <path id="Path_26880" data-name="Path 26880" d="M248.494,439.86a2.4,2.4,0,1,1,2.4-2.4,2.4,2.4,0,0,1-2.4,2.4m0-3.743a1.346,1.346,0,1,0,1.346,1.346,1.348,1.348,0,0,0-1.346-1.346" transform="translate(-197.311 -348.818)" fill="#cdcdcd"/>
          <path id="Path_26881" data-name="Path 26881" d="M347.357,657a2.4,2.4,0,1,1,2.4-2.4,2.4,2.4,0,0,1-2.4,2.4m0-3.743a1.346,1.346,0,1,0,1.346,1.346,1.348,1.348,0,0,0-1.346-1.346" transform="translate(-276.575 -522.915)" fill="#cdcdcd"/>
          <path id="Path_26882" data-name="Path 26882" d="M663.185,649.879a2.4,2.4,0,1,1,2.4-2.4,2.4,2.4,0,0,1-2.4,2.4m0-3.743a1.346,1.346,0,1,0,1.346,1.346,1.348,1.348,0,0,0-1.346-1.346" transform="translate(-529.793 -517.203)" fill="#cdcdcd"/>
          <path id="Path_26883" data-name="Path 26883" d="M347.357,31.4a2.4,2.4,0,1,1,2.4-2.4,2.4,2.4,0,0,1-2.4,2.4m0-3.743a1.346,1.346,0,1,0,1.346,1.346,1.348,1.348,0,0,0-1.346-1.346" transform="translate(-276.575 -21.334)" fill="#cdcdcd"/>
          <rect id="Rectangle_2395" data-name="Rectangle 2395" width="28.062" height="0.565" transform="translate(122.469 102.218)" fill="#60a4c2"/>
          <rect id="Rectangle_2396" data-name="Rectangle 2396" width="23.448" height="1.13" transform="translate(123.505 99.486)" fill="#eebd3a"/>
          <rect id="Rectangle_2397" data-name="Rectangle 2397" width="18.787" height="0.565" transform="translate(65.264 86.915)" fill="#cdcdcd"/>
          <rect id="Rectangle_2398" data-name="Rectangle 2398" width="18.787" height="0.565" transform="translate(64.699 92.282)" fill="#cdcdcd"/>
          <rect id="Rectangle_2399" data-name="Rectangle 2399" width="22.555" height="0.565" transform="translate(55.982 96.095)" fill="#cdcdcd"/>
          <path id="Path_26884" data-name="Path 26884" d="M68.151,271.995,61.068,265.2v-4.664h1.051v4.216l6.76,6.484Z" transform="translate(-48.962 -208.888)" fill="#cdcdcd"/>
          <path id="Path_26885" data-name="Path 26885" d="M590.805,298.219l-.829-.768,18.366-19.815h20.01v1.13H608.836Z" transform="translate(-473.019 -222.597)" fill="#cdcdcd"/>
          <path id="Path_26886" data-name="Path 26886" d="M556.6,365.672l-.829-.768,18.366-19.815h7.768v1.13h-7.275Z" transform="translate(-445.598 -276.678)" fill="#cdcdcd"/>
          <path id="Path_26887" data-name="Path 26887" d="M593.337,312.469l-.414-.384L611.2,292.361h19.887v.565h-19.64Z" transform="translate(-475.381 -234.403)" fill="#cdcdcd"/>
          <rect id="Rectangle_2400" data-name="Rectangle 2400" width="12.103" height="1.051" transform="translate(60.647 90.156)" fill="#cdcdcd"/>
          <rect id="Rectangle_2401" data-name="Rectangle 2401" width="20.764" height="1.051" transform="translate(49.912 98.771)" fill="#cdcdcd"/>
          <rect id="Rectangle_2402" data-name="Rectangle 2402" width="1.051" height="18.363" transform="translate(70.151 9.085)" fill="#cdcdcd"/>
          <path id="Path_26888" data-name="Path 26888" d="M748.631,692.282h-16.22l-20.9-13.646.575-.88,20.636,13.475h15.907Z" transform="translate(-570.462 -543.397)" fill="#a9c732"/>
          <path id="Path_26889" data-name="Path 26889" d="M365.961,63.262H364.91V49.586l8.056-8.439.76.725-7.765,8.135Z" transform="translate(-292.57 -32.99)" fill="#cdcdcd"/>
          <rect id="Rectangle_2403" data-name="Rectangle 2403" width="13.842" height="0.565" transform="translate(20.673 124.158)" fill="#cdcdcd"/>
          <path id="Path_26890" data-name="Path 26890" d="M524.283,795.783l-.817-.781,6.24-6.531h13.236v1.13H530.189Z" transform="translate(-419.693 -632.164)" fill="#cdcdcd"/>
          <rect id="Rectangle_2404" data-name="Rectangle 2404" width="10.029" height="0.565" transform="translate(113.784 153.483)" fill="#cacaca"/>
          <path id="Path_26891" data-name="Path 26891" d="M372.077,618.212h-1.13V587h8.192v1.13h-7.062Z" transform="translate(-297.41 -470.629)" fill="#cdcdcd"/>
          <rect id="Rectangle_2405" data-name="Rectangle 2405" width="1.13" height="15.538" transform="translate(70.147 133.457)" fill="#cdcdcd"/>
          <rect id="Rectangle_2406" data-name="Rectangle 2406" width="1.13" height="16.727" transform="translate(73.866 158.259)" fill="#cdcdcd"/>
          <rect id="Rectangle_2407" data-name="Rectangle 2407" width="0.565" height="26.67" transform="translate(111.346 107.199) rotate(-56.925)" fill="#cdcdcd"/>
          <rect id="Rectangle_2408" data-name="Rectangle 2408" width="0.565" height="21.753" transform="translate(104.163 120.768)" fill="#cacaca"/>
          <rect id="Rectangle_2409" data-name="Rectangle 2409" width="1.13" height="13.56" transform="translate(101.243 120.674)" fill="#cdcdcd"/>
          <path id="Path_26892" data-name="Path 26892" d="M240.861,169.511l-37.6-29.583V118.979h.565v20.674l37.383,29.414Z" transform="translate(-162.967 -95.393)" fill="#eebd3a"/>
          <rect id="Rectangle_2410" data-name="Rectangle 2410" width="1.13" height="20.623" transform="translate(87.344 53.438)" fill="#cdcdcd"/>
          <path id="Path_26893" data-name="Path 26893" d="M118.7,291.925H106.413L86.289,274.9l.73-.863,19.808,16.76H118.7Z" transform="translate(-69.183 -219.71)" fill="#cdcdcd"/>
          <path id="Path_26894" data-name="Path 26894" d="M716,260.575h-7.5l-20.124-17.027.73-.863,19.808,16.76H716Z" transform="translate(-551.911 -194.575)" fill="#cdcdcd"/>
          <path id="Path_26895" data-name="Path 26895" d="M726.511,251.189H714.331l-.079-.067-19.966-16.894.365-.431,19.887,16.827h11.974Z" transform="translate(-556.65 -187.449)" fill="#cdcdcd"/>
          <rect id="Rectangle_2411" data-name="Rectangle 2411" width="0.565" height="26.154" transform="translate(138.578 45.084) rotate(-49.764)" fill="#cdcdcd"/>
          <rect id="Rectangle_2412" data-name="Rectangle 2412" width="10.417" height="1.051" transform="translate(163.091 145.009)" fill="#cdcdcd"/>
          <rect id="Rectangle_2413" data-name="Rectangle 2413" width="1.13" height="53.817" transform="translate(100.506 14.372)" fill="#cdcdcd"/>
          <rect id="Rectangle_2414" data-name="Rectangle 2414" width="0.565" height="16.103" transform="translate(82.73 60.218)" fill="#cacaca"/>
          <rect id="Rectangle_2415" data-name="Rectangle 2415" width="1.051" height="12.571" transform="translate(84.276 63.749)" fill="#cdcdcd"/>
          <rect id="Rectangle_2416" data-name="Rectangle 2416" width="10.871" height="0.401" transform="translate(129.155 23.61)" fill="#cdcdcd"/>
          <rect id="Rectangle_2417" data-name="Rectangle 2417" width="15.255" height="0.565" transform="translate(10.032 93.46)" fill="#cdcdcd"/>
          <path id="Path_26896" data-name="Path 26896" d="M191.393,373.242a1.387,1.387,0,1,1-1.424-1.349,1.387,1.387,0,0,1,1.424,1.349" transform="translate(-151.227 -298.168)" fill="#cdcdcd"/>
          <rect id="Rectangle_2418" data-name="Rectangle 2418" width="0.565" height="12.067" transform="matrix(0.62, -0.784, 0.784, 0.62, 28.434, 67.282)" fill="#cdcdcd"/>
          <rect id="Rectangle_2419" data-name="Rectangle 2419" width="1.13" height="29.458" transform="matrix(0.631, -0.776, 0.776, 0.631, 26.558, 69.334)" fill="#cdcdcd"/>
          <path id="Path_26897" data-name="Path 26897" d="M57.952,251.826a2.154,2.154,0,1,1-2.154-2.154,2.154,2.154,0,0,1,2.154,2.154" transform="translate(-43.01 -200.177)" fill="#828282"/>
          <path id="Path_26898" data-name="Path 26898" d="M313.446,569.07a2.213,2.213,0,1,1-2.213-2.213,2.213,2.213,0,0,1,2.213,2.213" transform="translate(-247.76 -454.483)" fill="#60a4c2"/>
          <path id="Path_26899" data-name="Path 26899" d="M570.011,171.572a2,2,0,1,1-2-2,2,2,0,0,1,2,2" transform="translate(-453.81 -135.959)" fill="#bdc2c5"/>
          <path id="Path_26900" data-name="Path 26900" d="M564.091,170.615a2.967,2.967,0,1,1,2.967-2.967,2.97,2.97,0,0,1-2.967,2.967m0-5.485a2.519,2.519,0,1,0,2.519,2.518,2.521,2.521,0,0,0-2.519-2.518" transform="translate(-449.887 -132.035)" fill="#bdc2c5"/>
          <path id="Path_26901" data-name="Path 26901" d="M569.719,705.375a2,2,0,1,1-2-2,2,2,0,0,1,2,2" transform="translate(-453.576 -563.94)" fill="#bdc2c5"/>
          <path id="Path_26902" data-name="Path 26902" d="M563.8,704.419a2.966,2.966,0,1,1,2.966-2.966,2.97,2.97,0,0,1-2.966,2.966m0-5.485a2.519,2.519,0,1,0,2.519,2.519,2.522,2.522,0,0,0-2.519-2.519" transform="translate(-449.653 -560.018)" fill="#bdc2c5"/>
          <path id="Path_26903" data-name="Path 26903" d="M162.332,490.921a2,2,0,1,1-2-2,2,2,0,0,1,2,2" transform="translate(-126.95 -392)" fill="#9900a6"/>
          <path id="Path_26904" data-name="Path 26904" d="M156.411,489.963A2.966,2.966,0,1,1,159.377,487a2.969,2.969,0,0,1-2.966,2.966m0-5.485A2.519,2.519,0,1,0,158.93,487a2.522,2.522,0,0,0-2.519-2.519" transform="translate(-123.025 -388.075)" fill="#9900a6"/>
          <path id="Path_26905" data-name="Path 26905" d="M251.034,149.075l-37.225-29.127-.036-24.725,2.543,0,.034,23.488L252.6,147.072Z" transform="translate(-171.394 -76.343)" fill="#979797"/>
          <path id="Path_26906" data-name="Path 26906" d="M527.929,250.589h-2.543V234.816a7.778,7.778,0,0,1,7.769-7.769h2.731v2.542h-2.731a5.233,5.233,0,0,0-5.226,5.227Z" transform="translate(-421.233 -182.037)" fill="#979797"/>
          <rect id="Rectangle_2420" data-name="Rectangle 2420" width="11.019" height="2.542" transform="translate(121.386 80.982)" fill="#979797"/>
          <path id="Path_26907" data-name="Path 26907" d="M669.119,354.871H662.2v-2.542h6.92a5.232,5.232,0,0,0,5.226-5.227v-8.663h2.543V347.1a7.778,7.778,0,0,1-7.769,7.769" transform="translate(-530.924 -271.347)" fill="#979797"/>
          <rect id="Rectangle_2421" data-name="Rectangle 2421" width="2.543" height="16.61" transform="translate(96.269 49.965)" fill="#979797"/>
          <path id="Path_26908" data-name="Path 26908" d="M456.633,162.909H454.09V147.231A5.232,5.232,0,0,0,448.864,142H446.3v-2.542h2.568a7.778,7.778,0,0,1,7.769,7.769Z" transform="translate(-357.822 -111.815)" fill="#979797"/>
          <rect id="Rectangle_2422" data-name="Rectangle 2422" width="7.931" height="2.542" transform="translate(67.194 109.421)" fill="#979797"/>
          <path id="Path_26909" data-name="Path 26909" d="M264.543,562.552H262v-2.825a7.778,7.778,0,0,1,7.769-7.769h8.616V554.5h-8.616a5.232,5.232,0,0,0-5.226,5.227Z" transform="translate(-210.061 -442.537)" fill="#979797"/>
          <path id="Path_26910" data-name="Path 26910" d="M231.451,603.236h-1.035v-2.542h1.035a5.232,5.232,0,0,0,5.226-5.226v-5.98h2.543v5.98a7.778,7.778,0,0,1-7.769,7.769" transform="translate(-184.738 -472.627)" fill="#979797"/>
          <path id="Path_26911" data-name="Path 26911" d="M388.74,674.091H386.2a7.777,7.777,0,0,1,7.769-7.768h3.889v2.542h-3.889a5.232,5.232,0,0,0-5.226,5.226" transform="translate(-309.637 -534.23)" fill="#979797"/>
          <path id="Path_26912" data-name="Path 26912" d="M435.449,621.922h-3.785V619.38h3.785a5.232,5.232,0,0,0,5.226-5.226v-6.379h2.543v6.379a7.777,7.777,0,0,1-7.769,7.768" transform="translate(-346.091 -487.289)" fill="#979797"/>
          <path id="Path_26913" data-name="Path 26913" d="M571.642,219.653a3.3,3.3,0,1,1-3.3-3.3,3.3,3.3,0,0,1,3.3,3.3" transform="translate(-453.034 -173.466)" fill="#979797"/>
          <path id="Path_26914" data-name="Path 26914" d="M669.972,535.249l4.728.034-3.556,4.547Z" transform="translate(-537.156 -429.141)" fill="#979797"/>
          <path id="Path_26915" data-name="Path 26915" d="M782.631,645.2l-4.728.006,3.518-4.577Z" transform="translate(-623.69 -513.627)" fill="#505050"/>
          <path id="Path_26916" data-name="Path 26916" d="M659.652,566.646l-3.4-2.254,1.406-2.118,3.4,2.254Zm-6.928-4.6-3.531-2.343,1.406-2.118,3.531,2.343Zm-7.062-4.686-3.531-2.343,1.406-2.118,3.531,2.343Zm-7.061-4.687-3.531-2.343,1.406-2.118,3.531,2.343Zm-7.062-4.686-3.531-2.343,1.406-2.118,3.531,2.343Z" transform="translate(-503.511 -435.779)" fill="#505050"/>
          <rect id="Rectangle_2423" data-name="Rectangle 2423" width="2.543" height="36.131" transform="translate(133.733 108.646) rotate(-56.637)" fill="#979797"/>
          <path id="Path_26917" data-name="Path 26917" d="M232.57,468.119h-4.238v-2.542h4.238Zm-8.475,0h-4.238v-2.542h4.238Zm-8.475,0h-2.361a7.782,7.782,0,0,1-2.211-.32l.723-2.438a5.228,5.228,0,0,0,1.489.215h2.361Zm-8.638-3.19a7.71,7.71,0,0,1-1.493-4.579v-.141h2.543v.141a5.185,5.185,0,0,0,1,3.079Zm1.05-8.958h-2.543v-4.237h2.543Z" transform="translate(-164.753 -362.182)" fill="#505050"/>
          <path id="Path_26918" data-name="Path 26918" d="M8.993,374.759H7.769A7.777,7.777,0,0,1,0,366.991V363.6H2.543v3.39a5.232,5.232,0,0,0,5.226,5.226H8.993Z" transform="translate(0 -291.52)" fill="#505050"/>
          <path id="Path_26919" data-name="Path 26919" d="M8.993,374.759H7.769A7.777,7.777,0,0,1,0,366.991V363.6H2.543v3.39a5.232,5.232,0,0,0,5.226,5.226H8.993Z" transform="translate(0 -291.52)" fill="#505050"/>
          <path id="Path_26920" data-name="Path 26920" d="M2.543,328.552H0v-1.224a7.777,7.777,0,0,1,7.769-7.768h.848V322.1H7.769a5.232,5.232,0,0,0-5.226,5.226Z" transform="translate(0 -256.209)" fill="#505050"/>
          <path id="Path_26921" data-name="Path 26921" d="M2.543,328.552H0v-1.224a7.777,7.777,0,0,1,7.769-7.768h.848V322.1H7.769a5.232,5.232,0,0,0-5.226,5.226Z" transform="translate(0 -256.209)" fill="#505050"/>
          <path id="Path_26922" data-name="Path 26922" d="M44.878,310.668,40.033,314.4v-7.468Z" transform="translate(-32.097 -246.087)" fill="#505050"/>
          <path id="Path_26923" data-name="Path 26923" d="M78.214,416.073H75.671v-1.224a5.232,5.232,0,0,0-5.226-5.226H43.58V407.08H70.445a7.778,7.778,0,0,1,7.769,7.768Z" transform="translate(-34.941 -326.38)" fill="#505050"/>
          <rect id="Rectangle_2424" data-name="Rectangle 2424" width="25.426" height="2.542" transform="translate(123.646 93.13)" fill="#979797"/>
          <path id="Path_26924" data-name="Path 26924" d="M705.19,674.371a2.154,2.154,0,1,1,2.154-2.154,2.154,2.154,0,0,1-2.154,2.154" transform="translate(-563.665 -537.229)" fill="#a9c732"/>
          <path id="Path_26925" data-name="Path 26925" d="M290.318,449.686a2.154,2.154,0,1,1,2.154-2.154,2.154,2.154,0,0,1-2.154,2.154" transform="translate(-231.038 -357.086)" fill="#cdcdcd"/>
          <path id="Path_26926" data-name="Path 26926" d="M537.742,601.608h-1.051V584.45l-9.014-5.918.577-.878,9.488,6.229Z" transform="translate(-423.07 -463.139)" fill="#cdcdcd"/>
          <rect id="Rectangle_2425" data-name="Rectangle 2425" width="1.051" height="27.62" transform="translate(108.702 114.261) rotate(-56.472)" fill="#cdcdcd"/>
          <path id="Path_26927" data-name="Path 26927" d="M741.564,820.885a2.4,2.4,0,1,1,2.4-2.4,2.4,2.4,0,0,1-2.4,2.4m0-3.743a1.346,1.346,0,1,0,1.346,1.346,1.348,1.348,0,0,0-1.346-1.346" transform="translate(-592.634 -654.308)" fill="#cdcdcd"/>
          <rect id="Rectangle_2426" data-name="Rectangle 2426" width="1.051" height="7.013" transform="translate(141.466 159.458) rotate(-55.67)" fill="#cdcdcd"/>
          <path id="Path_26928" data-name="Path 26928" d="M410.292,24.927a2,2,0,1,1-2-2,2,2,0,0,1,2,2" transform="translate(-325.754 -18.385)" fill="#a9c732"/>
          <path id="Path_26929" data-name="Path 26929" d="M404.372,23.97A2.967,2.967,0,1,1,407.339,21a2.97,2.97,0,0,1-2.967,2.967m0-5.486A2.519,2.519,0,1,0,406.891,21a2.522,2.522,0,0,0-2.518-2.519" transform="translate(-321.831 -14.461)" fill="#a9c732"/>
          <path id="Path_26930" data-name="Path 26930" d="M509.1,826.283a2,2,0,1,1-2-2,2,2,0,0,1,2,2" transform="translate(-404.971 -660.88)" fill="#bdc2c5"/>
          <path id="Path_26931" data-name="Path 26931" d="M503.177,825.327a2.967,2.967,0,1,1,2.966-2.967,2.97,2.97,0,0,1-2.966,2.967m0-5.486a2.519,2.519,0,1,0,2.518,2.519,2.522,2.522,0,0,0-2.518-2.519" transform="translate(-401.048 -656.956)" fill="#bdc2c5"/>
          <path id="Path_26932" data-name="Path 26932" d="M418.309,846.663l-6.531-6.24V833.2h1.13v6.741l6.182,5.906Z" transform="translate(-330.147 -668.025)" fill="#cdcdcd"/>
          <path id="Path_26933" data-name="Path 26933" d="M590.279,276.74a1.387,1.387,0,1,1-1.424-1.349,1.388,1.388,0,0,1,1.424,1.349" transform="translate(-471.038 -220.797)" fill="#c84b2a"/>
          <path id="Path_26934" data-name="Path 26934" d="M761.286,511.4a1.387,1.387,0,1,1-1.424-1.349,1.387,1.387,0,0,1,1.424,1.349" transform="translate(-608.144 -408.936)" fill="#60a4c2"/>
          <path id="Path_26935" data-name="Path 26935" d="M414.522,293.6a1.387,1.387,0,1,1-1.424-1.349,1.387,1.387,0,0,1,1.424,1.349" transform="translate(-330.123 -234.317)" fill="#60a4c2"/>
          <path id="Path_26936" data-name="Path 26936" d="M853.441,314.263a1.387,1.387,0,1,1-1.424-1.349,1.387,1.387,0,0,1,1.424,1.349" transform="translate(-682.03 -250.881)" fill="#828282"/>
          <path id="Path_26937" data-name="Path 26937" d="M210.917,265.338a1.387,1.387,0,1,1-1.424-1.349,1.387,1.387,0,0,1,1.424,1.349" transform="translate(-166.881 -211.655)" fill="#828282"/>
          <path id="Path_26938" data-name="Path 26938" d="M273.315,480.7a1.387,1.387,0,1,1-1.424-1.349,1.387,1.387,0,0,1,1.424,1.349" transform="translate(-216.909 -384.327)" fill="#828282"/>
          <path id="Path_26939" data-name="Path 26939" d="M523.776,708.4a1.387,1.387,0,1,1-1.424-1.349,1.387,1.387,0,0,1,1.424,1.349" transform="translate(-417.718 -566.883)" fill="#828282"/>
          <rect id="Rectangle_2427" data-name="Rectangle 2427" width="0.565" height="21.753" transform="translate(76.854 150.645)" fill="#cacaca"/>
          <path id="Path_26940" data-name="Path 26940" d="M386.02,859.112a1.387,1.387,0,1,1-1.424-1.349,1.387,1.387,0,0,1,1.424,1.349" transform="translate(-307.271 -687.719)" fill="#828282"/>
          <path id="Path_26941" data-name="Path 26941" d="M570.459,770a1.387,1.387,0,1,1-1.424-1.349A1.387,1.387,0,0,1,570.459,770" transform="translate(-455.147 -616.271)" fill="#828282"/>
          <path id="Path_26942" data-name="Path 26942" d="M673.308,610.872a1.387,1.387,0,1,1,1.007-1.683,1.387,1.387,0,0,1-1.007,1.683" transform="translate(-538.447 -487.581)" fill="#cdcdcd"/>
          <path id="Path_26943" data-name="Path 26943" d="M101.484,621.6a1.387,1.387,0,1,1-1.424-1.349,1.386,1.386,0,0,1,1.424,1.349" transform="translate(-79.142 -497.293)" fill="#636363"/>
          <rect id="Rectangle_2428" data-name="Rectangle 2428" width="1.051" height="17.28" transform="matrix(0.717, -0.697, 0.697, 0.717, 34.653, 139.058)" fill="#cdcdcd"/>
          <path id="Path_26944" data-name="Path 26944" d="M243.381,351.99a2.213,2.213,0,1,1-2.213-2.213,2.213,2.213,0,0,1,2.213,2.213" transform="translate(-191.584 -280.437)" fill="#bdc2c5"/>
          <path id="Path_26945" data-name="Path 26945" d="M368.786,884.309a2.213,2.213,0,1,1-2.213-2.213,2.213,2.213,0,0,1,2.213,2.213" transform="translate(-292.129 -707.229)" fill="#bdc2c5"/>
          <path id="Path_26946" data-name="Path 26946" d="M214.652,696.873H200.06l-.082-.08-10.713-10.43.394-.4,10.63,10.349h14.363Z" transform="translate(-151.745 -549.973)" fill="#cacaca"/>
          <path id="Path_26947" data-name="Path 26947" d="M312.868,733.705a1.387,1.387,0,1,1-1.424-1.349,1.387,1.387,0,0,1,1.424,1.349" transform="translate(-248.621 -587.173)" fill="#828282"/>
          <path id="Path_26948" data-name="Path 26948" d="M120.086,467.773a1.387,1.387,0,1,1,1.424,1.349,1.387,1.387,0,0,1-1.424-1.349" transform="translate(-96.28 -373.899)" fill="#cdcdcd"/>
          <rect id="Rectangle_2429" data-name="Rectangle 2429" width="20.999" height="0.565" transform="translate(163.055 111.728)" fill="#cdcdcd"/>
          <path id="Path_26949" data-name="Path 26949" d="M920.968,559.926a1.387,1.387,0,1,1,1.424,1.349,1.387,1.387,0,0,1-1.424-1.349" transform="translate(-738.394 -447.784)" fill="#cdcdcd"/>
          <rect id="Rectangle_2430" data-name="Rectangle 2430" width="15.255" height="0.565" transform="translate(161.266 113.14)" fill="#cdcdcd"/>
          <rect id="Rectangle_2431" data-name="Rectangle 2431" width="15.726" height="0.565" transform="translate(109.285 7.955)" fill="#cdcdcd"/>
          <path id="Path_26950" data-name="Path 26950" d="M547.528,35.43a1.387,1.387,0,1,1-1.424-1.349,1.387,1.387,0,0,1,1.424,1.349" transform="translate(-436.762 -27.324)" fill="#9900a6"/>
          <rect id="Rectangle_2432" data-name="Rectangle 2432" width="10.406" height="0.565" transform="translate(115.029 9.367)" fill="#cdcdcd"/>
          <path id="Path_26951" data-name="Path 26951" d="M436.888,254.436a2.154,2.154,0,1,1-2.154-2.154,2.154,2.154,0,0,1,2.154,2.154" transform="translate(-346.825 -202.269)" fill="#cdcdcd"/>
          <rect id="Rectangle_2433" data-name="Rectangle 2433" width="16.138" height="1.051" transform="translate(169.235 87.097)" fill="#cdcdcd"/>
          <rect id="Rectangle_2434" data-name="Rectangle 2434" width="0.565" height="10.92" transform="translate(37.108 138.26) rotate(-45.001)" fill="#cdcdcd"/>
          <rect id="Rectangle_2435" data-name="Rectangle 2435" width="0.565" height="41.507" transform="translate(43.982 57.898) rotate(-52.061)" fill="#cdcdcd"/>
          <rect id="Rectangle_2436" data-name="Rectangle 2436" width="0.565" height="6.462" transform="matrix(0.685, -0.729, 0.729, 0.685, 17.915, 58.084)" fill="#cdcdcd"/>
          <rect id="Rectangle_2437" data-name="Rectangle 2437" width="0.565" height="14.314" transform="translate(105.952 115.683)" fill="#cdcdcd"/>
          <rect id="Rectangle_2438" data-name="Rectangle 2438" width="6.215" height="0.565" transform="translate(117.033 151.175)" fill="#cdcdcd"/>
          <rect id="Rectangle_2439" data-name="Rectangle 2439" width="0.565" height="7.192" transform="matrix(0.536, -0.844, 0.844, 0.536, 117.547, 113.313)" fill="#cdcdcd"/>
          <rect id="Rectangle_2440" data-name="Rectangle 2440" width="14.314" height="0.565" transform="translate(167.446 89.222)" fill="#cdcdcd"/>
          <path id="Path_26952" data-name="Path 26952" d="M863.646,209.538a2.4,2.4,0,1,1,2.4-2.4,2.4,2.4,0,0,1-2.4,2.4m0-3.743a1.346,1.346,0,1,0,1.346,1.346,1.348,1.348,0,0,0-1.346-1.346" transform="translate(-690.514 -164.155)" fill="#cdcdcd"/>
          <rect id="Rectangle_2441" data-name="Rectangle 2441" width="15.007" height="1.051" transform="translate(156.606 42.461)" fill="#cdcdcd"/>
          <rect id="Rectangle_2442" data-name="Rectangle 2442" width="13.183" height="0.565" transform="translate(154.817 44.586)" fill="#cdcdcd"/>
          <path id="Path_26953" data-name="Path 26953" d="M178.22,821.2a2.4,2.4,0,1,1,2.4-2.4,2.4,2.4,0,0,1-2.4,2.4m0-3.743a1.346,1.346,0,1,0,1.346,1.346,1.348,1.348,0,0,0-1.346-1.346" transform="translate(-140.968 -654.564)" fill="#cdcdcd"/>
          <rect id="Rectangle_2443" data-name="Rectangle 2443" width="16.138" height="1.051" transform="translate(38.771 163.717)" fill="#cdcdcd"/>
          <rect id="Rectangle_2444" data-name="Rectangle 2444" width="14.314" height="0.565" transform="translate(42.384 166.55)" fill="#cdcdcd"/>
          <rect id="Rectangle_2445" data-name="Rectangle 2445" width="0.565" height="12.053" transform="translate(68.135 14.17)" fill="#cdcdcd"/>
          <rect id="Rectangle_2446" data-name="Rectangle 2446" width="0.565" height="12.053" transform="translate(74.914 17.842)" fill="#cdcdcd"/>
          <rect id="Rectangle_2447" data-name="Rectangle 2447" width="0.565" height="12.948" transform="translate(66.157 18.219)" fill="#cdcdcd"/>
          <path id="Path_26954" data-name="Path 26954" d="M887.275,502.234H884.74l-3.179-2.168.318-.467,3.035,2.069h2.361Z" transform="translate(-706.799 -400.558)" fill="#cdcdcd"/>
          <path id="Path_26955" data-name="Path 26955" d="M861.645,497.083h-3.527l-8.29-5.914.328-.46,8.143,5.809h3.346Z" transform="translate(-681.357 -393.43)" fill="#cdcdcd"/>
          <path id="Path_26956" data-name="Path 26956" d="M697.1,340.755a2,2,0,1,1-2-2,2,2,0,0,1,2,2" transform="translate(-555.702 -271.603)" fill="#60a4c2"/>
          <path id="Path_26957" data-name="Path 26957" d="M691.177,339.8a2.966,2.966,0,1,1,2.966-2.966,2.97,2.97,0,0,1-2.966,2.966m0-5.485a2.519,2.519,0,1,0,2.518,2.519,2.522,2.522,0,0,0-2.518-2.519" transform="translate(-551.779 -267.68)" fill="#60a4c2"/>
          <path id="Path_26958" data-name="Path 26958" d="M753.137,101.881a2,2,0,1,1-2-2,2,2,0,0,1,2,2" transform="translate(-600.633 -80.084)" fill="#bdc2c5"/>
          <path id="Path_26959" data-name="Path 26959" d="M747.218,100.923a2.967,2.967,0,1,1,2.966-2.967,2.97,2.97,0,0,1-2.966,2.967m0-5.485a2.519,2.519,0,1,0,2.519,2.518,2.521,2.521,0,0,0-2.519-2.518" transform="translate(-596.71 -76.159)" fill="#bdc2c5"/>
          <path id="Path_26960" data-name="Path 26960" d="M607.124,69.258h-1.385v-.682h-.3v.682h-2.3v-.682h-.3v.682h-1.385a.294.294,0,0,0-.294.294v3.675a.294.294,0,0,0,.294.294h5.675a.294.294,0,0,0,.294-.294V69.552a.294.294,0,0,0-.294-.294m-4.832,1.459a.541.541,0,1,1,.541.541.541.541,0,0,1-.541-.541m3.814,2.049h-3.64v-.394h3.64Zm-.366-1.508a.541.541,0,1,1,.541-.541.541.541,0,0,1-.541.541" transform="translate(-481.981 -54.981)" fill="#999"/>
          <path id="Path_26961" data-name="Path 26961" d="M592.457,98.533h-1.125V95.368h1.125Z" transform="translate(-474.106 -76.462)" fill="#999"/>
          <path id="Path_26962" data-name="Path 26962" d="M592.457,115.653h-1.125v-3.166h1.125Z" transform="translate(-474.106 -90.188)" fill="#999"/>
          <path id="Path_26963" data-name="Path 26963" d="M589.118,128.817a1.249,1.249,0,0,0-.391,2.434v-.426a.858.858,0,1,1,.782,0v.426a1.249,1.249,0,0,0-.391-2.434" transform="translate(-471.329 -103.28)" fill="#999"/>
          <path id="Path_26964" data-name="Path 26964" d="M638.19,98.533h-1.125V95.368h1.125Z" transform="translate(-510.772 -76.462)" fill="#999"/>
          <path id="Path_26965" data-name="Path 26965" d="M638.19,115.653h-1.125v-3.166h1.125Z" transform="translate(-510.772 -90.188)" fill="#999"/>
          <path id="Path_26966" data-name="Path 26966" d="M634.851,128.817a1.249,1.249,0,0,0-.391,2.434v-.426a.858.858,0,1,1,.782,0v.426a1.249,1.249,0,0,0-.391-2.434" transform="translate(-507.996 -103.28)" fill="#999"/>
          <path id="Path_26967" data-name="Path 26967" d="M605.245,94.508h-6.909a.294.294,0,0,0-.294.294v5.219a.294.294,0,0,0,.294.294h6.909a.294.294,0,0,0,.294-.294V94.8a.294.294,0,0,0-.294-.294m-1.106,4.06A.437.437,0,0,1,603.7,99h-1.37l.929-.929a.273.273,0,0,0-.386-.386L601.56,99h-1.681a.437.437,0,0,1-.437-.437v-1.53a.437.437,0,0,1,.437-.437H603.7a.437.437,0,0,1,.437.437Z" transform="translate(-479.486 -75.773)" fill="#999"/>
          <rect id="Rectangle_2448" data-name="Rectangle 2448" width="1.857" height="2.895" transform="translate(120.022 24.861)" fill="#999"/>
          <rect id="Rectangle_2449" data-name="Rectangle 2449" width="1.857" height="1.373" transform="translate(120.022 28.056)" fill="#999"/>
          <path id="Path_26968" data-name="Path 26968" d="M603.5,150.006a.578.578,0,0,1-.532.615h-2.1a.621.621,0,0,1,0-1.229h2.1a.578.578,0,0,1,.532.615" transform="translate(-481.322 -119.776)" fill="#999"/>
          <rect id="Rectangle_2450" data-name="Rectangle 2450" width="1.857" height="2.895" transform="translate(122.765 24.861)" fill="#999"/>
          <rect id="Rectangle_2451" data-name="Rectangle 2451" width="1.857" height="1.373" transform="translate(122.765 28.056)" fill="#999"/>
          <path id="Path_26969" data-name="Path 26969" d="M617.762,150.006a.578.578,0,0,0,.533.615h2.1a.621.621,0,0,0,0-1.229h-2.1a.578.578,0,0,0-.533.615" transform="translate(-495.296 -119.776)" fill="#999"/>
          <path id="Path_26970" data-name="Path 26970" d="M91.4,529.231c0-1.606-1.565-2.956-3.688-3.347a3.824,3.824,0,0,1,.133,1,3.939,3.939,0,0,1-.593,2.063,5.363,5.363,0,0,1-1.544,1.606,7.8,7.8,0,0,1-2.695,1.171,6.205,6.205,0,0,0,3.433.966q.288,0,.567-.022l3.376,1.565-1.53-1.98a3.5,3.5,0,0,0,2.54-3.023" transform="translate(-66.56 -421.632)" fill="#bdc2c5"/>
          <path id="Path_26971" data-name="Path 26971" d="M52.788,513.012c0-2.447-2.84-4.432-6.343-4.432s-6.343,1.984-6.343,4.432c0,1.862,1.642,3.455,3.97,4.112l-1.043,2.8,3.83-2.484c3.311-.149,5.93-2.072,5.93-4.423" transform="translate(-32.152 -407.759)" fill="#bdc2c5"/>
          <path id="Path_26972" data-name="Path 26972" d="M489.156,732.256a1.622,1.622,0,0,0-.4-1.207,1.3,1.3,0,0,0-.98-.409h-2.3c0-.333,0-.857.019-1.321a3.08,3.08,0,0,0-.711-1.916.975.975,0,0,0-.588-.377,1.578,1.578,0,0,0-.193-.012c-.425,0-.927.17-1.025.542a1.061,1.061,0,0,0,.04.513,2.164,2.164,0,0,1,.053.955,8.522,8.522,0,0,1-1.55,2.741,1.383,1.383,0,0,1-.4.219.712.712,0,0,0-.643-.456h-2.532a.511.511,0,0,0-.521.574l-.027,4.973a.319.319,0,0,0,0,.043.709.709,0,0,0,.68.6h3.231a.512.512,0,0,0,.518-.6l-.022-.165a1.2,1.2,0,0,1,.262.061,9.058,9.058,0,0,0,2.331.658h2.882a1.077,1.077,0,0,0,1.049-.595.976.976,0,0,0-.033-.73c0-.02,0-.038,0-.05s0-.01,0-.015a.839.839,0,0,0,.655-.69,1.155,1.155,0,0,0-.183-.9.95.95,0,0,0,.539-1.015,1.186,1.186,0,0,0-.47-.849.763.763,0,0,0,.322-.57" transform="translate(-382.756 -582.89)" fill="#bdc2c5"/>
          <path id="Path_26973" data-name="Path 26973" d="M295.705,382.448a3.033,3.033,0,0,0-.314.016c.005-.081.009-.162.009-.243a3.535,3.535,0,0,0-7.054-.327A2.7,2.7,0,0,1,289.392,384h.026a2.172,2.172,0,0,1,2.216,2.12,2.1,2.1,0,0,1-.97,1.751h5.056a2.714,2.714,0,1,0-.015-5.422" transform="translate(-231.184 -303.615)" fill="#636363"/>
          <path id="Path_26974" data-name="Path 26974" d="M265.471,398.336a1.789,1.789,0,0,0-1.833-1.737,2,2,0,0,0-.2.011l-.227.024.016-.227c0-.055.005-.108.005-.16a2.322,2.322,0,0,0-4.637-.189l-.016.2-.2-.026a1.972,1.972,0,0,0-.255-.017,1.928,1.928,0,0,0-.01,3.857h5.538a1.79,1.79,0,0,0,1.823-1.737" transform="translate(-205.404 -315.832)" fill="#636363"/>
          <path id="Path_26975" data-name="Path 26975" d="M406.082,617.174h-.26v-.252a.091.091,0,0,0-.091-.091h-1.409a.091.091,0,0,0-.09.091v.252h-1.068l-.453-.687a.115.115,0,0,0-.122-.1h-1.855a.114.114,0,0,0-.122.1l-.454.687h-2.919a.568.568,0,0,0-.568.569v5.47a.568.568,0,0,0,.568.568h8.844a.568.568,0,0,0,.568-.568v-5.47a.568.568,0,0,0-.568-.569m-4.422,5.689a2.386,2.386,0,1,1,2.386-2.386,2.386,2.386,0,0,1-2.386,2.386" transform="translate(-318.034 -494.19)" fill="#cdcdcd"/>
          <path id="Path_26976" data-name="Path 26976" d="M415.411,629.019a1.59,1.59,0,1,0,1.59,1.59,1.59,1.59,0,0,0-1.59-1.59" transform="translate(-331.784 -504.322)" fill="#cdcdcd"/>
          <path id="Path_26977" data-name="Path 26977" d="M790.707,550.967c0,2.576-4.663,5.844-4.663,5.844s-4.663-3.268-4.663-5.844,3.4-2.987,4.663-.791c1.188-2.154,4.663-1.784,4.663.791" transform="translate(-626.479 -439.968)" fill="#999"/>
          <path id="Path_26978" data-name="Path 26978" d="M316.966,838.432h-.5v7.146a2.673,2.673,0,0,0-1.6.144c-1.036.4-1.68,1.229-1.439,1.857s1.276.814,2.312.416a2.1,2.1,0,0,0,1.486-1.536h0v-5.525a2.829,2.829,0,0,1,1.441,2.395c.018,1.109-.282,1.578-.451,1.713-.234.187.02.315.172.2.281-.21.93-.7.93-2.4s-1.024-2.41-1.752-3.2a1.782,1.782,0,0,1-.6-1.216" transform="translate(-251.251 -672.22)" fill="#636363"/>
          <path id="Path_26979" data-name="Path 26979" d="M485.941,9.546l.152-1.206a9.3,9.3,0,0,0,2.72-2.218C491.2,3.234,490.96.867,490.96.867l.7-.867-.944.582s-2.3-.6-5.52,1.32a9.3,9.3,0,0,0-2.6,2.347l-1.221-.034a6.837,6.837,0,0,0-3.583,2.506,4.6,4.6,0,0,1,2.888.361l-.469.748s-.076.447.727,1.384,1.261.934,1.261.934L483,9.8a4.605,4.605,0,0,1-.086,2.906,6.832,6.832,0,0,0,3.023-3.159m1.341-5.772a.8.8,0,1,1,1.132.087.8.8,0,0,1-1.132-.087" transform="translate(-383.07)" fill="#9900a6"/>
          <path id="Path_26980" data-name="Path 26980" d="M111.023,748.247c-1.247,0-2.257,1.527-2.257,3.41,0,.09,0,.18.007.268h3.141a6.7,6.7,0,0,1,.737-2.629,1.991,1.991,0,0,0-1.628-1.048" transform="translate(-87.204 -599.914)" fill="#60a4c2"/>
          <path id="Path_26981" data-name="Path 26981" d="M114.347,733.492a1.372,1.372,0,1,0,1.436,1.371,1.4,1.4,0,0,0-1.436-1.371" transform="translate(-90.528 -588.084)" fill="#60a4c2"/>
          <path id="Path_26982" data-name="Path 26982" d="M133.95,746.224a3.149,3.149,0,0,0-2.658-2.016,3.073,3.073,0,0,0-2.574,1.853,6.52,6.52,0,0,0-.716,2.551c-.015.2-.024.4-.024.6,0,.132,0,.263.01.393H134.6c.007-.13.009-.26.009-.393,0-.1,0-.2-.006-.295a6.691,6.691,0,0,0-.649-2.694" transform="translate(-102.608 -596.675)" fill="#60a4c2"/>
          <path id="Path_26983" data-name="Path 26983" d="M136.176,722.546a2.014,2.014,0,1,0,2.106,2.013,2.062,2.062,0,0,0-2.106-2.013" transform="translate(-107.491 -579.308)" fill="#60a4c2"/>
          <path id="Path_26984" data-name="Path 26984" d="M252.6,667.514a5.736,5.736,0,0,0,8.806,4.848l.674,1.179,1.09-2.059,1.09-2.058-2.327-.1-2.327-.1.647,1.131a3.379,3.379,0,0,1-1.914.586,3.418,3.418,0,1,1,2.554-5.69,1.16,1.16,0,1,0,1.733-1.543,5.738,5.738,0,0,0-10.025,3.814" transform="translate(-202.52 -530.585)" fill="#cdcdcd"/>
          <path id="Path_26985" data-name="Path 26985" d="M34.26,466.046a2.4,2.4,0,1,1,2.4-2.4,2.4,2.4,0,0,1-2.4,2.4m0-3.743a1.346,1.346,0,1,0,1.346,1.346A1.348,1.348,0,0,0,34.26,462.3" transform="translate(-25.546 -369.813)" fill="#c84b2a"/>
          <path id="Path_26986" data-name="Path 26986" d="M875.411,495.927a1.387,1.387,0,1,1,1.918-.41,1.387,1.387,0,0,1-1.918.41" transform="translate(-701.361 -395.568)" fill="#cdcdcd"/>
          <path id="Path_26987" data-name="Path 26987" d="M362.377,728.123a12.148,12.148,0,1,1-12.148-12.148,12.148,12.148,0,0,1,12.148,12.148" transform="translate(-271.059 -574.039)" fill="#c84b2a"/>
          <path id="Path_26988" data-name="Path 26988" d="M249.007,802.25a7.448,7.448,0,1,1-8.2-6.606,7.447,7.447,0,0,1,8.2,6.606" transform="translate(-187.735 -637.88)" fill="#eebd3a"/>
          <path id="Path_26989" data-name="Path 26989" d="M640.9,714.773a13.3,13.3,0,1,1-14.99-11.364,13.3,13.3,0,0,1,14.99,11.364" transform="translate(-492.617 -563.864)" fill="#9900a6"/>
          <path id="Path_26990" data-name="Path 26990" d="M781.62,403.395a11.583,11.583,0,1,1-11.583-11.583,11.583,11.583,0,0,1,11.583,11.583" transform="translate(-608.097 -314.139)" fill="#a9c732"/>
          <path id="Path_26991" data-name="Path 26991" d="M103.383,296.011a7.487,7.487,0,1,1-7.487-7.486,7.487,7.487,0,0,1,7.487,7.486" transform="translate(-70.884 -231.328)" fill="#60a4c2"/>
          <path id="Path_26992" data-name="Path 26992" d="M402.228,358.2a28.391,28.391,0,1,1-28.391-28.391A28.391,28.391,0,0,1,402.228,358.2" transform="translate(-276.964 -264.43)" fill="#60a4c2"/>
          <path id="Path_26993" data-name="Path 26993" d="M137.626,607.31a10.453,10.453,0,1,1-10.452-10.452,10.452,10.452,0,0,1,10.452,10.452" transform="translate(-93.582 -478.536)" fill="#a9c732"/>
          <path id="Path_26994" data-name="Path 26994" d="M670.138,161.194a18.362,18.362,0,1,1-18.362-18.363,18.363,18.363,0,0,1,18.362,18.363" transform="translate(-507.845 -114.516)" fill="#eebd3a"/>
          <path id="Path_26995" data-name="Path 26995" d="M315.689,122.055a15.467,15.467,0,1,1-15.467-15.467,15.467,15.467,0,0,1,15.467,15.467" transform="translate(-228.304 -85.458)" fill="#c84b2a"/>
          <path id="Path_26996" data-name="Path 26996" d="M681.244,195.487l1.085-.686a7.074,7.074,0,0,0-.531-1.622l-1.282.093a5.778,5.778,0,0,0-.417-.637l.6-1.134a7.181,7.181,0,0,0-1.273-1.138l-1.063.72a6,6,0,0,0-.679-.345l-.05-1.28a7.041,7.041,0,0,0-1.672-.349l-.559,1.154c-.186,0-.375.005-.564.021-.066.006-.131.015-.195.022l-.685-1.086a7.085,7.085,0,0,0-1.623.531l.093,1.282a5.727,5.727,0,0,0-.636.417l-1.136-.6a7.133,7.133,0,0,0-1.138,1.273l.721,1.062a5.951,5.951,0,0,0-.345.678l-1.281.05a7.084,7.084,0,0,0-.348,1.673l1.154.559c0,.187,0,.375.021.564.007.066.014.13.022.195l-1.086.685a7.077,7.077,0,0,0,.531,1.623l1.281-.093a5.943,5.943,0,0,0,.417.637l-.6,1.135a7.109,7.109,0,0,0,1.273,1.139l1.062-.72a5.819,5.819,0,0,0,.678.345l.051,1.281a7.086,7.086,0,0,0,1.672.348l.56-1.154c.186,0,.375-.005.564-.021.065-.006.13-.015.194-.023l.685,1.087a7.088,7.088,0,0,0,1.623-.531l-.092-1.282a6.084,6.084,0,0,0,.636-.417l1.135.6a7.2,7.2,0,0,0,1.139-1.273l-.72-1.062a6.22,6.22,0,0,0,.345-.678l1.281-.05a7.046,7.046,0,0,0,.348-1.672l-1.153-.559c0-.186-.005-.375-.022-.564-.005-.065-.014-.129-.022-.194m-2.968.454a2.934,2.934,0,1,1-3.178-2.668,2.935,2.935,0,0,1,3.178,2.668" transform="translate(-535.787 -151.619)" fill="#fff"/>
          <path id="Path_26997" data-name="Path 26997" d="M740.092,227.781a4.574,4.574,0,0,0-.555-.523l.237-.937a5.6,5.6,0,0,0-1.068-.572l-.65.717a4.774,4.774,0,0,0-.74-.174l-.265-.932a5.577,5.577,0,0,0-1.209.04l-.206.944a4.645,4.645,0,0,0-.727.222l-.695-.674a5.406,5.406,0,0,0-.533.29,5.636,5.636,0,0,0-.5.347l.295.923a4.741,4.741,0,0,0-.522.554l-.937-.236a5.608,5.608,0,0,0-.572,1.067l.718.651a4.738,4.738,0,0,0-.174.74l-.931.265a5.54,5.54,0,0,0,.038,1.21l.945.2a4.779,4.779,0,0,0,.221.729l-.674.694a5.275,5.275,0,0,0,.291.531,5.78,5.78,0,0,0,.347.5l.922-.3a4.737,4.737,0,0,0,.554.522l-.236.938a5.573,5.573,0,0,0,1.066.57l.651-.717a4.635,4.635,0,0,0,.74.173l.265.932a5.658,5.658,0,0,0,1.21-.038l.2-.945a4.668,4.668,0,0,0,.729-.222l.7.674a5.415,5.415,0,0,0,.531-.29,5.6,5.6,0,0,0,.5-.348l-.3-.921a4.741,4.741,0,0,0,.521-.554l.938.236a5.549,5.549,0,0,0,.571-1.067l-.717-.652a4.789,4.789,0,0,0,.174-.738l.931-.265a5.66,5.66,0,0,0-.038-1.211l-.945-.2a4.885,4.885,0,0,0-.222-.728l.674-.694a5.627,5.627,0,0,0-.292-.533,5.563,5.563,0,0,0-.347-.5Zm-1.712,2.171a2.108,2.108,0,1,1-2.9-.679,2.109,2.109,0,0,1,2.9.679" transform="translate(-586.121 -180.672)" fill="#fff"/>
          <path id="Path_26998" data-name="Path 26998" d="M431.27,394.047H398.2a1.19,1.19,0,0,0-1.23,1.145v23.049a1.19,1.19,0,0,0,1.23,1.145H431.27a1.191,1.191,0,0,0,1.23-1.145V395.192a1.19,1.19,0,0,0-1.23-1.145m-2.193,21.529a.942.942,0,0,1-.994.881H401.391a.942.942,0,0,1-.994-.881V397.857a.942.942,0,0,1,.994-.88h26.692a.942.942,0,0,1,.994.88Z" transform="translate(-318.277 -315.931)" fill="#fff"/>
          <path id="Path_26999" data-name="Path 26999" d="M385.185,526.628v1.529a1.459,1.459,0,0,0,1.392,1.517h37.416a1.459,1.459,0,0,0,1.392-1.517v-1.529Zm22.868,1.77h-5.537a.392.392,0,0,1,0-.784h5.537a.392.392,0,0,1,0,.784" transform="translate(-308.826 -422.229)" fill="#fff"/>
          <path id="Path_27000" data-name="Path 27000" d="M781.106,433.649v6.586a.855.855,0,0,0,.868.841h12.257a.855.855,0,0,0,.868-.841v-6.579l-7,3.76Z" transform="translate(-626.259 -347.682)" fill="#fff"/>
          <path id="Path_27001" data-name="Path 27001" d="M794.231,427.153H781.974a.868.868,0,0,0-.868.868v.145l7,3.461,7-3.461v-.145a.868.868,0,0,0-.868-.868" transform="translate(-626.259 -342.474)" fill="#fff"/>
          <path id="Path_27002" data-name="Path 27002" d="M720.276,791.042l.469.28a1.17,1.17,0,0,0,1.139-1.913l-.491-.292a5.98,5.98,0,0,1-.508,1.11,4.769,4.769,0,0,1-.609.816" transform="translate(-577.488 -632.681)" fill="#fff"/>
          <path id="Path_27003" data-name="Path 27003" d="M634.983,731.356a6.2,6.2,0,0,0,10,7.25l5.506,3.279a5.09,5.09,0,0,0,1.123-1.922l-5.489-3.269a6.2,6.2,0,0,0-11.138-5.337m9.07,5.4a4.356,4.356,0,1,1-1.514-5.971,4.357,4.357,0,0,1,1.514,5.971" transform="translate(-508.402 -583.942)" fill="#fff"/>
          <rect id="Rectangle_2452" data-name="Rectangle 2452" width="19.036" height="1.144" transform="translate(62.571 30.707)" fill="#fff"/>
          <rect id="Rectangle_2453" data-name="Rectangle 2453" width="19.036" height="1.144" transform="translate(62.571 32.914)" fill="#fff"/>
          <rect id="Rectangle_2454" data-name="Rectangle 2454" width="19.036" height="1.145" transform="translate(62.571 35.121)" fill="#fff"/>
          <rect id="Rectangle_2455" data-name="Rectangle 2455" width="19.036" height="1.145" transform="translate(62.571 37.328)" fill="#fff"/>
          <rect id="Rectangle_2456" data-name="Rectangle 2456" width="19.036" height="1.144" transform="translate(62.571 39.535)" fill="#fff"/>
          <rect id="Rectangle_2457" data-name="Rectangle 2457" width="9.466" height="1.145" transform="translate(62.571 41.742)" fill="#fff"/>
          <path id="Path_27004" data-name="Path 27004" d="M376.98,736.886h-.4V735.6a4.9,4.9,0,1,0-9.793,0v1.286h-.4a1.491,1.491,0,0,0-1.491,1.491v7.073a1.491,1.491,0,0,0,1.491,1.491h10.6a1.49,1.49,0,0,0,1.49-1.491v-7.073a1.49,1.49,0,0,0-1.49-1.491m-8.049-1.286a2.75,2.75,0,1,1,5.5,0v1.286h-5.5Z" transform="translate(-292.555 -585.848)" fill="#fff"/>
          <path id="Path_27005" data-name="Path 27005" d="M253.711,808.965l1.453,2.944,3.249.472-2.351,2.292.555,3.236-2.906-1.528-2.907,1.528.555-3.236-2.351-2.292,3.25-.472Z" transform="translate(-199.645 -648.595)" fill="#fff"/>
          <path id="Path_27006" data-name="Path 27006" d="M110.72,308.9l-.834-.01a6.388,6.388,0,0,0-1.723-1.684,5.342,5.342,0,0,0-3.749-1.058l-.645-.411.47.6A5.34,5.34,0,0,0,105.565,310a6.373,6.373,0,0,0,1.8,1.595l.071.835a4.693,4.693,0,0,0,1.986,2.25,3.155,3.155,0,0,1,.023-2l.547.262s.311.017.888-.6.539-.932.539-.932l-.3-.526a3.162,3.162,0,0,1,1.988-.166,4.691,4.691,0,0,0-2.388-1.818m-4.04-.468a.551.551,0,1,1-.028-.779.551.551,0,0,1,.028.779" transform="translate(-83.198 -245.131)" fill="#fff"/>
          <path id="Path_27007" data-name="Path 27007" d="M165.145,660.719a1.723,1.723,0,1,0,1.745,1.7,1.722,1.722,0,0,0-1.745-1.7" transform="translate(-131.043 -529.738)" fill="#fff"/>
          <path id="Path_27008" data-name="Path 27008" d="M152.535,640.576a5.95,5.95,0,0,0-4.726,2.538l1.786,1.546a3.667,3.667,0,0,1,6.063.031l1.764-1.566a5.969,5.969,0,0,0-4.886-2.549" transform="translate(-118.507 -513.587)" fill="#fff"/>
          <path id="Path_27009" data-name="Path 27009" d="M141.066,620.5a9.387,9.387,0,0,0-7.5,4.074l1.787,1.546a7.014,7.014,0,0,1,11.673,0l1.764-1.568a9.413,9.413,0,0,0-7.724-4.05" transform="translate(-107.089 -497.493)" fill="#fff"/>
        </g>
      </g>
    </g>
  </g>
</svg>
