<svg xmlns="http://www.w3.org/2000/svg" xmlns:xlink="http://www.w3.org/1999/xlink" width="218" height="218" viewBox="0 0 218 218">
  <defs>
    <clipPath id="clip-path">
      <rect id="Rectangle_1200" data-name="Rectangle 1200" width="218" height="218" transform="translate(0 0)" fill="none"/>
    </clipPath>
  </defs>
  <g id="Group_4574" data-name="Group 4574" transform="translate(313 4689)">
    <path id="Path_19178" data-name="Path 19178" d="M195.114,237.543a42.429,42.429,0,1,1,42.429-42.429,42.477,42.477,0,0,1-42.429,42.429m0-83.986a41.557,41.557,0,1,0,41.557,41.557,41.6,41.6,0,0,0-41.557-41.557" transform="translate(-399.114 -4775.114)" fill="#d1d3d4"/>
    <path id="Path_19179" data-name="Path 19179" d="M223.2,79.277a20.72,20.72,0,1,1,20.72-20.72,20.743,20.743,0,0,1-20.72,20.72m0-40.567a19.848,19.848,0,1,0,19.848,19.848A19.87,19.87,0,0,0,223.2,38.71" transform="translate(-427.197 -4710.341)" fill="#d1d3d4"/>
    <rect id="Rectangle_1127" data-name="Rectangle 1127" width="0.872" height="9.507" transform="translate(-204.436 -4631.5)" fill="#d1d3d4"/>
    <path id="Path_19180" data-name="Path 19180" d="M106.792,127.5a20.71,20.71,0,1,1,14.651-6.059,20.653,20.653,0,0,1-14.651,6.059m0-40.557a19.847,19.847,0,1,0,14.034,5.813,19.717,19.717,0,0,0-14.034-5.813" transform="translate(-361.55 -4737.55)" fill="#d1d3d4"/>
    <rect id="Rectangle_1128" data-name="Rectangle 1128" width="0.872" height="9.507" transform="translate(-240.724 -4616.107) rotate(-45.002)" fill="#d1d3d4"/>
    <path id="Path_19181" data-name="Path 19181" d="M58.558,243.918a20.72,20.72,0,1,1,20.72-20.72,20.743,20.743,0,0,1-20.72,20.72m0-40.568A19.848,19.848,0,1,0,78.405,223.2,19.87,19.87,0,0,0,58.558,203.35" transform="translate(-334.341 -4803.198)" fill="#d1d3d4"/>
    <rect id="Rectangle_1129" data-name="Rectangle 1129" width="9.507" height="0.872" transform="translate(-255.5 -4580.436)" fill="#d1d3d4"/>
    <path id="Path_19182" data-name="Path 19182" d="M106.792,360.339a20.71,20.71,0,1,1,14.651-6.059,20.653,20.653,0,0,1-14.651,6.059m0-40.558a19.848,19.848,0,1,0,14.034,5.814,19.717,19.717,0,0,0-14.034-5.814" transform="translate(-361.55 -4868.871)" fill="#d1d3d4"/>
    <rect id="Rectangle_1130" data-name="Rectangle 1130" width="9.507" height="0.872" transform="matrix(0.707, -0.707, 0.707, 0.707, -240.724, -4543.893)" fill="#d1d3d4"/>
    <path id="Path_19183" data-name="Path 19183" d="M223.2,408.557a20.72,20.72,0,1,1,20.72-20.72,20.743,20.743,0,0,1-20.72,20.72m0-40.567a19.848,19.848,0,1,0,19.848,19.847A19.87,19.87,0,0,0,223.2,367.99" transform="translate(-427.197 -4896.055)" fill="#d1d3d4"/>
    <rect id="Rectangle_1131" data-name="Rectangle 1131" width="0.872" height="9.507" transform="translate(-204.436 -4538.007)" fill="#d1d3d4"/>
    <path id="Path_19184" data-name="Path 19184" d="M339.629,360.339a20.71,20.71,0,1,1,14.651-6.059,20.655,20.655,0,0,1-14.651,6.059m0-40.558a19.848,19.848,0,1,0,14.034,5.814,19.717,19.717,0,0,0-14.034-5.814" transform="translate(-492.87 -4868.871)" fill="#d1d3d4"/>
    <rect id="Rectangle_1132" data-name="Rectangle 1132" width="0.872" height="9.507" transform="matrix(0.707, -0.707, 0.707, 0.707, -174.615, -4549.998)" fill="#d1d3d4"/>
    <path id="Path_19185" data-name="Path 19185" d="M387.838,243.918a20.72,20.72,0,1,1,20.72-20.72,20.743,20.743,0,0,1-20.72,20.72m0-40.568A19.848,19.848,0,1,0,407.686,223.2a19.87,19.87,0,0,0-19.848-19.848" transform="translate(-520.055 -4803.198)" fill="#d1d3d4"/>
    <rect id="Rectangle_1133" data-name="Rectangle 1133" width="9.507" height="0.872" transform="translate(-162.007 -4580.436)" fill="#d1d3d4"/>
    <path id="Path_19186" data-name="Path 19186" d="M339.629,127.5a20.71,20.71,0,1,1,14.651-6.059,20.654,20.654,0,0,1-14.651,6.059m0-40.557a19.848,19.848,0,1,0,14.034,5.813,19.716,19.716,0,0,0-14.034-5.813" transform="translate(-492.87 -4737.55)" fill="#d1d3d4"/>
    <rect id="Rectangle_1134" data-name="Rectangle 1134" width="9.507" height="0.872" transform="translate(-174.615 -4610.002) rotate(-45.001)" fill="#d1d3d4"/>
    <path id="Path_19187" data-name="Path 19187" d="M202.611,239.246a36.634,36.634,0,1,1,36.634-36.634,36.676,36.676,0,0,1-36.634,36.634m0-72.832a36.2,36.2,0,1,0,36.2,36.2,36.239,36.239,0,0,0-36.2-36.2" transform="translate(-406.611 -4782.612)" fill="#d1d3d4"/>
    <path id="Path_19188" data-name="Path 19188" d="M313.464,73.2l-4.886-9.618L288.413,59.2l.093-.426L308.872,63.2l4.98,9.8Z" transform="translate(-475.665 -4722.151)" fill="#d1d3d4"/>
    <path id="Path_19189" data-name="Path 19189" d="M304.663,105.88l-15.09-4.725.145-.238,19.565-32.164,41.885,13.815L343.011,92.6l-.338-.275,7.758-9.541L309.476,69.276l-19.24,31.63,14.558,4.559Z" transform="translate(-476.32 -4727.777)" fill="#d1d3d4"/>
    <path id="Path_19190" data-name="Path 19190" d="M293.18,126.132l-3.355-10.375,0-.046L292.1,94.824l.434.047-2.268,20.841L293.594,126Z" transform="translate(-476.461 -4742.48)" fill="#d1d3d4"/>
    <rect id="Rectangle_1135" data-name="Rectangle 1135" width="19.958" height="0.436" transform="translate(-133.56 -4626.832) rotate(-66.871)" fill="#d1d3d4"/>
    <path id="Path_19191" data-name="Path 19191" d="M306.2,59.291l-.627-7.358-21.232.857-.018-.436,21.649-.875.662,7.773Z" transform="translate(-473.36 -4718.035)" fill="#d1d3d4"/>
    <rect id="Rectangle_1136" data-name="Rectangle 1136" width="0.436" height="26.211" transform="matrix(0.555, -0.832, 0.832, 0.555, -167.705, -4666.147)" fill="#d1d3d4"/>
    <path id="Path_19192" data-name="Path 19192" d="M411.625,186.27l-18.613-19.922-4.656,19.268-.424-.1,4.846-20.055,19.166,20.513Z" transform="translate(-531.793 -4782.319)" fill="#d1d3d4"/>
    <path id="Path_19193" data-name="Path 19193" d="M353.544,207.04l-11.126-9.512,2.344-21.153.434.048-2.319,20.923,10.951,9.362Z" transform="translate(-506.124 -4788.475)" fill="#d1d3d4"/>
    <rect id="Rectangle_1137" data-name="Rectangle 1137" width="35.328" height="0.436" transform="translate(-163.62 -4591.178) rotate(-45.974)" fill="#d1d3d4"/>
    <path id="Path_19194" data-name="Path 19194" d="M369.636,325.85l-.432-.06,3.5-25.279-36.9-6.962.081-.428,37.309,7.038Z" transform="translate(-502.393 -4854.32)" fill="#d1d3d4"/>
    <path id="Path_19195" data-name="Path 19195" d="M323.158,302.874l-.06-.432,42.58-5.876,9.383-9.762.314.3-9.487,9.872-.075.01Z" transform="translate(-495.228 -4850.757)" fill="#d1d3d4"/>
    <rect id="Rectangle_1138" data-name="Rectangle 1138" width="0.436" height="12.714" transform="matrix(0.491, -0.871, 0.871, 0.491, -162.114, -4578.211)" fill="#d1d3d4"/>
    <path id="Path_19196" data-name="Path 19196" d="M271.98,379.415l-.04-.434,17.126-1.585-34.137-31.459,4.059,9.774-.4.167-4.82-11.606,36.318,33.469Z" transform="translate(-456.123 -4883.169)" fill="#d1d3d4"/>
    <path id="Path_19197" data-name="Path 19197" d="M283.8,343.905l-19.214-6.641.142-.412,18.5,6.394-2.4-12.393.428-.083Z" transform="translate(-462.226 -4875.555)" fill="#d1d3d4"/>
    <path id="Path_19198" data-name="Path 19198" d="M329.525,402.7l-4.914-14.931.414-.137,4.513,13.714,2.106-5.987.412.145Z" transform="translate(-496.081 -4907.625)" fill="#d1d3d4"/>
    <rect id="Rectangle_1139" data-name="Rectangle 1139" width="0.436" height="5.294" transform="translate(-178.756 -4531.765) rotate(-78.451)" fill="#d1d3d4"/>
    <path id="Path_19199" data-name="Path 19199" d="M333.218,50.66a1.035,1.035,0,1,1-1.035-1.035,1.035,1.035,0,0,1,1.035,1.035" transform="translate(-499.767 -4716.988)" fill="#f9fbfc"/>
    <path id="Path_19200" data-name="Path 19200" d="M331.9,51.632a1.253,1.253,0,1,1,1.254-1.253,1.255,1.255,0,0,1-1.254,1.253m0-2.071a.818.818,0,1,0,.818.818.818.818,0,0,0-.818-.818" transform="translate(-499.485 -4716.707)" fill="#d1d3d4"/>
    <path id="Path_19213" data-name="Path 19213" d="M352.489,286.285a1.035,1.035,0,1,1-1.035-1.035,1.035,1.035,0,0,1,1.035,1.035" transform="translate(-510.636 -4849.881)" fill="#f9fbfc"/>
    <path id="Path_19214" data-name="Path 19214" d="M351.171,287.257A1.253,1.253,0,1,1,352.425,286a1.255,1.255,0,0,1-1.254,1.254m0-2.071a.817.817,0,1,0,.818.817.818.818,0,0,0-.818-.817" transform="translate(-510.354 -4849.599)" fill="#d1d3d4"/>
    <path id="Path_19223" data-name="Path 19223" d="M317.8,337.406a1.036,1.036,0,1,1-1.036-1.035,1.035,1.035,0,0,1,1.036,1.035" transform="translate(-491.072 -4878.713)" fill="#f9fbfc"/>
    <path id="Path_19224" data-name="Path 19224" d="M316.482,338.378a1.253,1.253,0,1,1,1.254-1.253,1.255,1.255,0,0,1-1.254,1.253m0-2.071a.818.818,0,1,0,.818.818.818.818,0,0,0-.818-.818" transform="translate(-490.789 -4878.431)" fill="#d1d3d4"/>
    <path id="Path_19225" data-name="Path 19225" d="M374.489,288.661a1.036,1.036,0,1,1-1.036-1.036,1.035,1.035,0,0,1,1.036,1.036" transform="translate(-523.044 -4851.221)" fill="#f9fbfc"/>
    <path id="Path_19226" data-name="Path 19226" d="M373.172,289.632a1.254,1.254,0,1,1,1.254-1.254,1.255,1.255,0,0,1-1.254,1.254m0-2.071a.818.818,0,1,0,.818.818.818.818,0,0,0-.818-.818" transform="translate(-522.762 -4850.938)" fill="#d1d3d4"/>
    <path id="Path_19227" data-name="Path 19227" d="M265.7,141.444a1.036,1.036,0,1,1-1.035-1.035,1.035,1.035,0,0,1,1.035,1.035" transform="translate(-461.686 -4768.191)" fill="#f9fbfc"/>
    <path id="Path_19228" data-name="Path 19228" d="M264.381,142.416a1.253,1.253,0,1,1,1.254-1.253,1.255,1.255,0,0,1-1.254,1.253m0-2.071a.817.817,0,1,0,.818.818.818.818,0,0,0-.818-.818" transform="translate(-461.404 -4767.909)" fill="#d1d3d4"/>
    <path id="Path_19229" data-name="Path 19229" d="M366.114,220.967a1.035,1.035,0,1,1-1.035-1.035,1.035,1.035,0,0,1,1.035,1.035" transform="translate(-518.32 -4813.042)" fill="#f9fbfc"/>
    <path id="Path_19230" data-name="Path 19230" d="M364.8,221.939a1.253,1.253,0,1,1,1.254-1.253,1.255,1.255,0,0,1-1.254,1.253m0-2.071a.818.818,0,1,0,.818.818.818.818,0,0,0-.818-.818" transform="translate(-518.038 -4812.76)" fill="#d1d3d4"/>
    <path id="Path_19233" data-name="Path 19233" d="M334.7,68.012a1.035,1.035,0,1,1-1.035-1.035,1.035,1.035,0,0,1,1.035,1.035" transform="translate(-500.6 -4726.775)" fill="#f9fbfc"/>
    <path id="Path_19234" data-name="Path 19234" d="M333.378,68.984a1.254,1.254,0,1,1,1.254-1.254,1.255,1.255,0,0,1-1.254,1.254m0-2.071a.818.818,0,1,0,.818.817.818.818,0,0,0-.818-.817" transform="translate(-500.319 -4726.493)" fill="#d1d3d4"/>
    <path id="Path_19235" data-name="Path 19235" d="M429.7,99.346a1.035,1.035,0,1,1-1.035-1.035,1.035,1.035,0,0,1,1.035,1.035" transform="translate(-554.18 -4744.447)" fill="#f9fbfc"/>
    <path id="Path_19236" data-name="Path 19236" d="M428.379,100.318a1.254,1.254,0,1,1,1.253-1.254,1.255,1.255,0,0,1-1.253,1.254m0-2.071a.818.818,0,1,0,.818.817.818.818,0,0,0-.818-.817" transform="translate(-553.898 -4744.165)" fill="#d1d3d4"/>
    <path id="Path_19237" data-name="Path 19237" d="M420.7,308.328a1.035,1.035,0,1,1-1.035-1.036,1.035,1.035,0,0,1,1.035,1.036" transform="translate(-549.104 -4862.313)" fill="#f9fbfc"/>
    <path id="Path_19238" data-name="Path 19238" d="M419.378,309.3a1.253,1.253,0,1,1,1.254-1.253,1.255,1.255,0,0,1-1.254,1.253m0-2.071a.817.817,0,1,0,.817.818.818.818,0,0,0-.817-.818" transform="translate(-548.822 -4862.031)" fill="#d1d3d4"/>
    <path id="Path_19239" data-name="Path 19239" d="M335.592,419.3a1.036,1.036,0,1,1-1.035-1.035,1.035,1.035,0,0,1,1.035,1.035" transform="translate(-501.106 -4924.902)" fill="#f9fbfc"/>
    <path id="Path_19240" data-name="Path 19240" d="M334.276,420.272a1.253,1.253,0,1,1,1.253-1.254,1.255,1.255,0,0,1-1.253,1.254m0-2.071a.817.817,0,1,0,.818.817.818.818,0,0,0-.818-.817" transform="translate(-500.824 -4924.619)" fill="#d1d3d4"/>
    <path id="Path_19241" data-name="Path 19241" d="M307.7,358.8a1.035,1.035,0,1,1-1.035-1.035A1.035,1.035,0,0,1,307.7,358.8" transform="translate(-485.372 -4890.78)" fill="#f9fbfc"/>
    <path id="Path_19242" data-name="Path 19242" d="M306.378,359.773a1.253,1.253,0,1,1,1.254-1.254,1.255,1.255,0,0,1-1.254,1.254m0-2.071a.818.818,0,1,0,.817.818.818.818,0,0,0-.817-.818" transform="translate(-485.09 -4890.498)" fill="#d1d3d4"/>
    <path id="Path_19243" data-name="Path 19243" d="M290.029,141.444a1.036,1.036,0,1,1-1.035-1.035,1.035,1.035,0,0,1,1.035,1.035" transform="translate(-475.408 -4768.191)" fill="#f9fbfc"/>
    <path id="Path_19244" data-name="Path 19244" d="M288.712,142.416a1.253,1.253,0,1,1,1.253-1.253,1.255,1.255,0,0,1-1.253,1.253m0-2.071a.817.817,0,1,0,.818.818.818.818,0,0,0-.818-.818" transform="translate(-475.126 -4767.909)" fill="#d1d3d4"/>
    <path id="Path_19245" data-name="Path 19245" d="M153.917,73.2l-.388-.2,4.98-9.8,20.367-4.419.093.426L158.8,63.579Z" transform="translate(-399.59 -4722.151)" fill="#d1d3d4"/>
    <path id="Path_19246" data-name="Path 19246" d="M115.948,105.88l-.13-.416,14.558-4.559-19.24-31.63L70.181,82.784l7.758,9.541L77.6,92.6,69.443,82.568l41.885-13.815.09.148,19.62,32.254Z" transform="translate(-352.166 -4727.777)" fill="#d1d3d4"/>
    <path id="Path_19247" data-name="Path 19247" d="M202.233,126.132l-.415-.134,3.326-10.286-2.268-20.841.433-.047,2.278,20.933-.014.044Z" transform="translate(-426.826 -4742.48)" fill="#d1d3d4"/>
    <rect id="Rectangle_1140" data-name="Rectangle 1140" width="0.436" height="19.958" transform="translate(-282.554 -4645.016) rotate(-23.126)" fill="#d1d3d4"/>
    <path id="Path_19248" data-name="Path 19248" d="M165.225,59.291l-.434-.037.662-7.773,21.648.875-.018.436-21.231-.857Z" transform="translate(-405.942 -4718.035)" fill="#d1d3d4"/>
    <rect id="Rectangle_1141" data-name="Rectangle 1141" width="26.211" height="0.436" transform="translate(-262.215 -4651.964) rotate(-33.707)" fill="#d1d3d4"/>
    <path id="Path_19249" data-name="Path 19249" d="M57.6,186.27l-.319-.3L76.45,165.458,81.3,185.513l-.424.1-4.656-19.268Z" transform="translate(-345.308 -4782.319)" fill="#d1d3d4"/>
    <path id="Path_19250" data-name="Path 19250" d="M131.985,207.04l-.283-.331,10.951-9.362-2.319-20.923.433-.048,2.344,21.153Z" transform="translate(-387.28 -4788.475)" fill="#d1d3d4"/>
    <rect id="Rectangle_1142" data-name="Rectangle 1142" width="0.436" height="35.328" transform="translate(-269.132 -4616.264) rotate(-44.083)" fill="#d1d3d4"/>
    <path id="Path_19251" data-name="Path 19251" d="M82.286,325.85l-3.557-25.69.2-.038,37.105-7,.081.428-36.9,6.962,3.5,25.279Z" transform="translate(-357.403 -4854.32)" fill="#d1d3d4"/>
    <path id="Path_19252" data-name="Path 19252" d="M109.507,302.874l-42.731-5.9-9.487-9.872.314-.3,9.383,9.762,42.581,5.876Z" transform="translate(-345.311 -4850.757)" fill="#d1d3d4"/>
    <rect id="Rectangle_1143" data-name="Rectangle 1143" width="12.714" height="0.436" transform="translate(-257.05 -4572.35) rotate(-29.412)" fill="#d1d3d4"/>
    <path id="Path_19253" data-name="Path 19253" d="M181.329,379.415l-18.1-1.675,36.318-33.469-4.82,11.606-.4-.167,4.059-9.774L164.243,377.4l17.126,1.585Z" transform="translate(-405.06 -4883.169)" fill="#d1d3d4"/>
    <path id="Path_19254" data-name="Path 19254" d="M191.634,343.905l2.542-13.135.428.083-2.4,12.393,18.5-6.394.142.412Z" transform="translate(-421.081 -4875.555)" fill="#d1d3d4"/>
    <path id="Path_19255" data-name="Path 19255" d="M161.134,402.7l-2.531-7.2.412-.145,2.106,5.987,4.513-13.714.414.137Z" transform="translate(-402.452 -4907.625)" fill="#d1d3d4"/>
    <rect id="Rectangle_1144" data-name="Rectangle 1144" width="5.294" height="0.436" transform="translate(-234.392 -4531.131) rotate(-11.591)" fill="#d1d3d4"/>
    <path id="Path_19256" data-name="Path 19256" d="M164.392,50.66a1.035,1.035,0,1,0,1.035-1.035,1.035,1.035,0,0,0-1.035,1.035" transform="translate(-405.717 -4716.988)" fill="#f9fbfc"/>
    <path id="Path_19257" data-name="Path 19257" d="M165.147,51.632a1.253,1.253,0,1,1,1.253-1.253,1.255,1.255,0,0,1-1.253,1.253m0-2.071a.818.818,0,1,0,.818.818.818.818,0,0,0-.818-.818" transform="translate(-405.436 -4716.707)" fill="#d1d3d4"/>
    <path id="Path_19270" data-name="Path 19270" d="M145.121,286.285a1.036,1.036,0,1,0,1.035-1.035,1.035,1.035,0,0,0-1.035,1.035" transform="translate(-394.848 -4849.881)" fill="#f9fbfc"/>
    <path id="Path_19271" data-name="Path 19271" d="M145.874,287.257A1.253,1.253,0,1,1,147.128,286a1.255,1.255,0,0,1-1.254,1.254m0-2.071a.817.817,0,1,0,.818.817.818.818,0,0,0-.818-.817" transform="translate(-394.566 -4849.599)" fill="#d1d3d4"/>
    <path id="Path_19280" data-name="Path 19280" d="M179.81,337.406a1.036,1.036,0,1,0,1.036-1.035,1.035,1.035,0,0,0-1.036,1.035" transform="translate(-414.413 -4878.713)" fill="#f9fbfc"/>
    <path id="Path_19281" data-name="Path 19281" d="M180.563,338.378a1.253,1.253,0,1,1,1.254-1.253,1.255,1.255,0,0,1-1.254,1.253m0-2.071a.818.818,0,1,0,.818.818.818.818,0,0,0-.818-.818" transform="translate(-414.131 -4878.431)" fill="#d1d3d4"/>
    <path id="Path_19282" data-name="Path 19282" d="M123.121,288.661a1.035,1.035,0,1,0,1.035-1.036,1.035,1.035,0,0,0-1.035,1.036" transform="translate(-382.44 -4851.221)" fill="#f9fbfc"/>
    <path id="Path_19283" data-name="Path 19283" d="M123.875,289.632a1.254,1.254,0,1,1,1.254-1.254,1.255,1.255,0,0,1-1.254,1.254m0-2.071a.818.818,0,1,0,.817.818.818.818,0,0,0-.817-.818" transform="translate(-382.158 -4850.938)" fill="#d1d3d4"/>
    <path id="Path_19284" data-name="Path 19284" d="M231.911,141.444a1.035,1.035,0,1,0,1.036-1.035,1.035,1.035,0,0,0-1.036,1.035" transform="translate(-443.798 -4768.191)" fill="#f9fbfc"/>
    <path id="Path_19285" data-name="Path 19285" d="M232.664,142.416a1.253,1.253,0,1,1,1.253-1.253,1.255,1.255,0,0,1-1.253,1.253m0-2.071a.817.817,0,1,0,.817.818.818.818,0,0,0-.817-.818" transform="translate(-443.516 -4767.909)" fill="#d1d3d4"/>
    <path id="Path_19286" data-name="Path 19286" d="M131.5,220.967a1.035,1.035,0,1,0,1.035-1.035,1.035,1.035,0,0,0-1.035,1.035" transform="translate(-387.164 -4813.042)" fill="#f9fbfc"/>
    <path id="Path_19287" data-name="Path 19287" d="M132.249,221.939a1.253,1.253,0,1,1,1.253-1.253,1.255,1.255,0,0,1-1.253,1.253m0-2.071a.818.818,0,1,0,.817.818.818.818,0,0,0-.817-.818" transform="translate(-386.882 -4812.76)" fill="#d1d3d4"/>
    <path id="Path_19290" data-name="Path 19290" d="M162.914,68.012a1.036,1.036,0,1,0,1.036-1.035,1.035,1.035,0,0,0-1.036,1.035" transform="translate(-404.883 -4726.775)" fill="#f9fbfc"/>
    <path id="Path_19291" data-name="Path 19291" d="M163.668,68.984a1.254,1.254,0,1,1,1.254-1.254,1.255,1.255,0,0,1-1.254,1.254m0-2.071a.818.818,0,1,0,.818.817.818.818,0,0,0-.818-.817" transform="translate(-404.602 -4726.493)" fill="#d1d3d4"/>
    <path id="Path_19292" data-name="Path 19292" d="M67.914,99.346a1.035,1.035,0,1,0,1.035-1.035,1.035,1.035,0,0,0-1.035,1.035" transform="translate(-351.303 -4744.447)" fill="#f9fbfc"/>
    <path id="Path_19293" data-name="Path 19293" d="M68.668,100.318a1.254,1.254,0,1,1,1.253-1.254,1.255,1.255,0,0,1-1.253,1.254m0-2.071a.818.818,0,1,0,.817.817.818.818,0,0,0-.817-.817" transform="translate(-351.021 -4744.165)" fill="#d1d3d4"/>
    <path id="Path_19294" data-name="Path 19294" d="M76.914,308.328a1.035,1.035,0,1,0,1.035-1.036,1.035,1.035,0,0,0-1.035,1.036" transform="translate(-356.38 -4862.313)" fill="#f9fbfc"/>
    <path id="Path_19295" data-name="Path 19295" d="M77.668,309.3a1.253,1.253,0,1,1,1.253-1.253,1.255,1.255,0,0,1-1.253,1.253m0-2.071a.817.817,0,1,0,.817.818.818.818,0,0,0-.817-.818" transform="translate(-356.098 -4862.031)" fill="#d1d3d4"/>
    <path id="Path_19296" data-name="Path 19296" d="M162.018,419.3a1.035,1.035,0,1,0,1.035-1.035,1.035,1.035,0,0,0-1.035,1.035" transform="translate(-404.378 -4924.902)" fill="#f9fbfc"/>
    <path id="Path_19297" data-name="Path 19297" d="M162.771,420.272a1.253,1.253,0,1,1,1.254-1.254,1.255,1.255,0,0,1-1.254,1.254m0-2.071a.817.817,0,1,0,.817.817.818.818,0,0,0-.817-.817" transform="translate(-404.096 -4924.619)" fill="#d1d3d4"/>
    <path id="Path_19298" data-name="Path 19298" d="M189.914,358.8a1.035,1.035,0,1,0,1.035-1.035,1.035,1.035,0,0,0-1.035,1.035" transform="translate(-420.112 -4890.78)" fill="#f9fbfc"/>
    <path id="Path_19299" data-name="Path 19299" d="M190.667,359.773a1.253,1.253,0,1,1,1.254-1.254,1.255,1.255,0,0,1-1.254,1.254m0-2.071a.818.818,0,1,0,.818.818.818.818,0,0,0-.818-.818" transform="translate(-419.829 -4890.498)" fill="#d1d3d4"/>
    <path id="Path_19300" data-name="Path 19300" d="M207.581,141.444a1.036,1.036,0,1,0,1.036-1.035,1.035,1.035,0,0,0-1.036,1.035" transform="translate(-430.076 -4768.191)" fill="#f9fbfc"/>
    <path id="Path_19301" data-name="Path 19301" d="M208.335,142.416a1.253,1.253,0,1,1,1.253-1.253,1.255,1.255,0,0,1-1.253,1.253m0-2.071a.817.817,0,1,0,.817.818.818.818,0,0,0-.817-.818" transform="translate(-429.794 -4767.909)" fill="#d1d3d4"/>
    <rect id="Rectangle_1145" data-name="Rectangle 1145" width="218" height="218" transform="translate(-313 -4689)" fill="none"/>
    <rect id="Rectangle_1146" data-name="Rectangle 1146" width="24.145" height="21.127" transform="translate(-216.072 -4660.838)" fill="#e6e7e8"/>
    <rect id="Rectangle_1147" data-name="Rectangle 1147" width="24.145" height="3.018" transform="translate(-216.072 -4663.856)" fill="#3a4d57"/>
    <rect id="Rectangle_1148" data-name="Rectangle 1148" width="10.186" height="5.407" transform="translate(-214.186 -4658.763)" fill="#fbbe68"/>
    <rect id="Rectangle_1149" data-name="Rectangle 1149" width="20.373" height="1.698" transform="translate(-214.186 -4651.343)" fill="#fa6564"/>
    <rect id="Rectangle_1150" data-name="Rectangle 1150" width="20.373" height="1.698" transform="translate(-214.186 -4647.633)" fill="#fa6564"/>
    <rect id="Rectangle_1151" data-name="Rectangle 1151" width="10.186" height="1.698" transform="translate(-214.186 -4643.924)" fill="#fa6564"/>
    <rect id="Rectangle_1152" data-name="Rectangle 1152" width="8.488" height="1.698" transform="translate(-202.302 -4655.053)" fill="#fa6564"/>
    <rect id="Rectangle_1153" data-name="Rectangle 1153" width="8.488" height="1.698" transform="translate(-202.302 -4658.763)" fill="#fa8b65"/>
    <path id="Path_19302" data-name="Path 19302" d="M272.9,59.533l-.267-.267-.562.562-.562-.562-.266.267.562.562-.562.562.266.267.562-.562.562.562.267-.267-.562-.562Z" transform="translate(-465.983 -4722.426)" fill="#e6e7e8"/>
    <path id="Path_19303" data-name="Path 19303" d="M108.028,345.875h-1.744v-6.754h6.755v1.744h-5.011Z" transform="translate(-372.944 -4880.264)" fill="#fa6564"/>
    <path id="Path_19304" data-name="Path 19304" d="M152.142,345.875H150.4v-5.01h-5.01v-1.744h6.754Z" transform="translate(-394.999 -4880.264)" fill="#fa6564"/>
    <path id="Path_19305" data-name="Path 19305" d="M113.039,384.978h-6.755v-6.755h1.744v5.01h5.01Z" transform="translate(-372.944 -4902.318)" fill="#fa6564"/>
    <path id="Path_19306" data-name="Path 19306" d="M152.142,384.978h-6.754v-1.744h5.01v-5.01h1.744Z" transform="translate(-394.999 -4902.318)" fill="#fa6564"/>
    <g id="Group_4573" data-name="Group 4573" transform="translate(-313 -4689)" clip-path="url(#clip-path)">
      <path id="Path_19307" data-name="Path 19307" d="M130.992,355a8.824,8.824,0,1,1-8.824-8.824A8.824,8.824,0,0,1,130.992,355" transform="translate(-63.926 -195.245)" fill="#fa8b65"/>
      <path id="Path_19308" data-name="Path 19308" d="M124.07,364.259a7.353,7.353,0,1,1,7.353-7.353,7.361,7.361,0,0,1-7.353,7.353" transform="translate(-65.828 -197.148)" fill="#f9fbfc"/>
      <path id="Path_19309" data-name="Path 19309" d="M125.973,364.691a5.883,5.883,0,1,1,5.883-5.883,5.889,5.889,0,0,1-5.883,5.883" transform="translate(-67.731 -199.05)" fill="#fbbe68"/>
      <rect id="Rectangle_1154" data-name="Rectangle 1154" width="1.308" height="3.355" transform="translate(57.588 158.081)" fill="#f9fbfc"/>
      <rect id="Rectangle_1155" data-name="Rectangle 1155" width="3.355" height="1.308" transform="translate(56.564 159.104)" fill="#f9fbfc"/>
      <rect id="Rectangle_1156" data-name="Rectangle 1156" width="7.82" height="1.744" transform="matrix(0.707, -0.707, 0.707, 0.707, 60.362, 156.405)" fill="#3a4d57"/>
      <path id="Path_19310" data-name="Path 19310" d="M142.049,356.721h-4.19v-4.19H139.6v2.446h2.446Z" transform="translate(-77.753 -198.828)" fill="#3a4d57"/>
      <path id="Path_19311" data-name="Path 19311" d="M346.737,129.115A15.215,15.215,0,1,1,361.952,113.9a15.232,15.232,0,0,1-15.215,15.215m0-28.685A13.471,13.471,0,1,0,360.208,113.9a13.486,13.486,0,0,0-13.471-13.471" transform="translate(-186.978 -55.659)" fill="#fbbe68"/>
      <path id="Path_19312" data-name="Path 19312" d="M350.626,130a12.208,12.208,0,1,1,12.208-12.208A12.222,12.222,0,0,1,350.626,130" transform="translate(-190.868 -59.548)" fill="#fa8b65"/>
      <path id="Path_19313" data-name="Path 19313" d="M361.906,132.558a3.488,3.488,0,1,1,3.488-3.488,3.492,3.492,0,0,1-3.488,3.488" transform="translate(-202.148 -70.828)" fill="#e6e7e8"/>
      <rect id="Rectangle_1157" data-name="Rectangle 1157" width="5.232" height="1.744" transform="translate(159.758 57.37)" fill="#3a4d57"/>
      <rect id="Rectangle_1158" data-name="Rectangle 1158" width="1.744" height="6.976" transform="translate(158.886 51.266)" fill="#3a4d57"/>
      <rect id="Rectangle_1159" data-name="Rectangle 1159" width="1.744" height="1.744" transform="translate(158.886 47.778)" fill="#e6e7e8"/>
      <rect id="Rectangle_1160" data-name="Rectangle 1160" width="1.744" height="1.744" transform="translate(168.478 57.37)" fill="#e6e7e8"/>
      <rect id="Rectangle_1161" data-name="Rectangle 1161" width="1.744" height="1.744" transform="translate(149.294 57.37)" fill="#e6e7e8"/>
      <rect id="Rectangle_1162" data-name="Rectangle 1162" width="1.744" height="1.744" transform="translate(158.886 66.962)" fill="#e6e7e8"/>
      <rect id="Rectangle_1163" data-name="Rectangle 1163" width="1.744" height="1.744" transform="translate(151.743 51.459) rotate(-45)" fill="#e6e7e8"/>
      <rect id="Rectangle_1164" data-name="Rectangle 1164" width="1.744" height="1.744" transform="matrix(0.707, -0.707, 0.707, 0.707, 165.308, 51.459)" fill="#e6e7e8"/>
      <rect id="Rectangle_1165" data-name="Rectangle 1165" width="1.744" height="1.744" transform="matrix(0.707, -0.707, 0.707, 0.707, 151.743, 65.024)" fill="#e6e7e8"/>
      <rect id="Rectangle_1166" data-name="Rectangle 1166" width="1.744" height="1.744" transform="translate(165.308 65.024) rotate(-45)" fill="#e6e7e8"/>
      <path id="Path_19314" data-name="Path 19314" d="M364.162,133.07a1.744,1.744,0,1,1,1.744-1.744,1.746,1.746,0,0,1-1.744,1.744" transform="translate(-204.404 -73.084)" fill="#fbbe68"/>
      <rect id="Rectangle_1167" data-name="Rectangle 1167" width="25.288" height="22.127" transform="translate(24.573 97.961)" fill="#e6e7e8"/>
      <rect id="Rectangle_1168" data-name="Rectangle 1168" width="25.288" height="5.334" transform="translate(24.573 97.962)" fill="#fa6564"/>
      <rect id="Rectangle_1169" data-name="Rectangle 1169" width="1.744" height="3.495" transform="translate(36.345 96.214)" fill="#3a4d57"/>
      <rect id="Rectangle_1170" data-name="Rectangle 1170" width="1.744" height="3.495" transform="translate(41.086 96.214)" fill="#3a4d57"/>
      <rect id="Rectangle_1171" data-name="Rectangle 1171" width="1.744" height="3.495" transform="translate(45.828 96.214)" fill="#3a4d57"/>
      <rect id="Rectangle_1172" data-name="Rectangle 1172" width="1.744" height="3.495" transform="translate(31.603 96.214)" fill="#3a4d57"/>
      <rect id="Rectangle_1173" data-name="Rectangle 1173" width="1.744" height="3.495" transform="translate(26.862 96.214)" fill="#3a4d57"/>
      <rect id="Rectangle_1174" data-name="Rectangle 1174" width="3.161" height="3.161" transform="translate(26.943 104.942)" fill="#fbbe68"/>
      <rect id="Rectangle_1175" data-name="Rectangle 1175" width="3.161" height="3.161" transform="translate(32.739 104.942)" fill="#fa8b65"/>
      <rect id="Rectangle_1176" data-name="Rectangle 1176" width="3.161" height="3.161" transform="translate(38.534 104.942)" fill="#fa8b65"/>
      <rect id="Rectangle_1177" data-name="Rectangle 1177" width="3.161" height="3.161" transform="translate(44.329 104.942)" fill="#fa8b65"/>
      <rect id="Rectangle_1178" data-name="Rectangle 1178" width="3.161" height="3.161" transform="translate(26.943 114.623)" fill="#fbbe68"/>
      <rect id="Rectangle_1179" data-name="Rectangle 1179" width="3.161" height="3.161" transform="translate(32.739 114.623)" fill="#fa8b65"/>
      <rect id="Rectangle_1180" data-name="Rectangle 1180" width="3.161" height="3.161" transform="translate(38.534 114.623)" fill="#fa8b65"/>
      <rect id="Rectangle_1181" data-name="Rectangle 1181" width="3.161" height="3.161" transform="translate(44.329 114.623)" fill="#fa8b65"/>
      <rect id="Rectangle_1182" data-name="Rectangle 1182" width="3.161" height="3.161" transform="translate(26.943 109.782)" fill="#fbbe68"/>
      <rect id="Rectangle_1183" data-name="Rectangle 1183" width="3.161" height="3.161" transform="translate(32.739 109.782)" fill="#fa8b65"/>
      <rect id="Rectangle_1184" data-name="Rectangle 1184" width="3.161" height="3.161" transform="translate(38.534 109.782)" fill="#fa8b65"/>
      <rect id="Rectangle_1185" data-name="Rectangle 1185" width="3.161" height="3.161" transform="translate(44.329 109.782)" fill="#fa8b65"/>
      <path id="Path_19315" data-name="Path 19315" d="M378.626,341.394h-1.744v-3.488h-3.488v-1.744a1.744,1.744,0,1,0-3.488,0v1.744h-3.488V348.37h10.464v-3.488h1.744a1.744,1.744,0,1,0,0-3.488" transform="translate(-206.66 -188.612)" fill="#3a4d57"/>
      <path id="Path_19316" data-name="Path 19316" d="M354.626,341.394h-1.744v-3.488h-3.488v-1.744a1.744,1.744,0,0,0-3.488,0v1.744h-3.488v3.488h1.744a1.744,1.744,0,1,1,0,3.488h-1.744v3.488h10.464v-3.488h1.744a1.744,1.744,0,1,0,0-3.488" transform="translate(-193.124 -188.612)" fill="#fbbe68"/>
      <path id="Path_19317" data-name="Path 19317" d="M344.882,361.906v-1.744a1.744,1.744,0,1,0-3.488,0v1.744h-3.488v3.488h-1.744a1.744,1.744,0,0,0,0,3.488h1.744v3.488h3.488v1.744a1.744,1.744,0,1,0,3.488,0V372.37h3.488V361.906Z" transform="translate(-188.612 -202.148)" fill="#fa8b65"/>
      <path id="Path_19318" data-name="Path 19318" d="M370.626,365.394h1.744v-3.488h-3.488v-1.744a1.744,1.744,0,1,0-3.488,0v1.744h-3.488v3.488h-1.744a1.744,1.744,0,0,0,0,3.488h1.744v3.488h3.488v1.744a1.744,1.744,0,1,0,3.488,0V372.37h3.488v-3.488h-1.744a1.744,1.744,0,0,1,0-3.488" transform="translate(-202.148 -202.148)" fill="#fa6564"/>
      <path id="Path_19319" data-name="Path 19319" d="M240.976,396.592h0A6.976,6.976,0,0,1,234,389.616V382.64h13.952v6.976a6.976,6.976,0,0,1-6.976,6.976" transform="translate(-131.976 -215.809)" fill="#fbbe68"/>
      <path id="Path_19320" data-name="Path 19320" d="M243.232,399.36A5.238,5.238,0,0,1,238,394.128V390.64h10.464v3.488a5.238,5.238,0,0,1-5.232,5.232" transform="translate(-134.232 -220.321)" fill="#fa6564"/>
      <path id="Path_19321" data-name="Path 19321" d="M240.976,414.64h0A6.976,6.976,0,0,0,234,421.616v6.976h13.952v-6.976a6.976,6.976,0,0,0-6.976-6.976" transform="translate(-131.976 -233.857)" fill="#fbbe68"/>
      <rect id="Rectangle_1186" data-name="Rectangle 1186" width="10.464" height="3.488" transform="translate(103.768 187.759)" fill="#fa6564"/>
      <rect id="Rectangle_1187" data-name="Rectangle 1187" width="1.744" height="9.592" transform="translate(108.128 178.167)" fill="#fa6564"/>
      <rect id="Rectangle_1188" data-name="Rectangle 1188" width="13.952" height="1.744" transform="translate(102.024 166.831)" fill="#3a4d57"/>
      <rect id="Rectangle_1189" data-name="Rectangle 1189" width="13.952" height="1.744" transform="translate(102.024 192.991)" fill="#3a4d57"/>
      <rect id="Rectangle_1190" data-name="Rectangle 1190" width="1.744" height="10.464" transform="translate(117.72 170.319)" fill="#fa8b65"/>
      <path id="Path_19322" data-name="Path 19322" d="M267.818,411.691l-3.232-3.232,1.233-1.233,2,2,2-2,1.233,1.233Z" transform="translate(-149.227 -229.675)" fill="#fa8b65"/>
      <rect id="Rectangle_1191" data-name="Rectangle 1191" width="1.744" height="10.464" transform="translate(98.536 180.783)" fill="#fa8b65"/>
      <path id="Path_19323" data-name="Path 19323" d="M225.818,416.277l-2-2-2,2-1.233-1.233,3.232-3.233,3.232,3.233Z" transform="translate(-124.41 -232.262)" fill="#fa8b65"/>
      <path id="Path_19324" data-name="Path 19324" d="M412.08,245.9H394.64V218h17.44a3.488,3.488,0,0,1,3.488,3.488v20.928a3.488,3.488,0,0,1-3.488,3.488" transform="translate(-222.577 -122.952)" fill="#fbbe68"/>
      <path id="Path_19325" data-name="Path 19325" d="M402.128,280.976l-1.744-1.744-1.744,1.744V274h3.488Z" transform="translate(-224.833 -154.536)" fill="#fa6564"/>
      <path id="Path_19326" data-name="Path 19326" d="M408.08,245.9H390.64V218h17.44a3.488,3.488,0,0,1,3.488,3.488v20.928a3.488,3.488,0,0,1-3.488,3.488" transform="translate(-220.321 -122.952)" fill="#fa8b65"/>
      <rect id="Rectangle_1192" data-name="Rectangle 1192" width="3.488" height="27.904" transform="translate(170.319 95.048)" fill="#3a4d57"/>
      <rect id="Rectangle_1193" data-name="Rectangle 1193" width="12.372" height="6.708" transform="translate(176.092 98.804)" fill="#e6e7e8"/>
      <rect id="Rectangle_1194" data-name="Rectangle 1194" width="23.544" height="1.471" transform="translate(46.47 68.367)" fill="#3a4d57"/>
      <rect id="Rectangle_1195" data-name="Rectangle 1195" width="3.679" height="8.829" transform="translate(46.47 58.067)" fill="#3a4d57"/>
      <rect id="Rectangle_1196" data-name="Rectangle 1196" width="3.679" height="11.772" transform="translate(53.091 55.124)" fill="#fbbe68"/>
      <rect id="Rectangle_1197" data-name="Rectangle 1197" width="3.679" height="14.715" transform="translate(59.713 52.181)" fill="#fa8b65"/>
      <rect id="Rectangle_1198" data-name="Rectangle 1198" width="3.679" height="20.601" transform="translate(66.335 46.295)" fill="#fa6564"/>
      <rect id="Rectangle_1199" data-name="Rectangle 1199" width="10.405" height="1.744" transform="matrix(0.707, -0.707, 0.707, 0.707, 50.636, 51.881)" fill="#3a4d57"/>
      <path id="Path_19327" data-name="Path 19327" d="M129.587,106.819h-1.744v-3.542H124.3v-1.744h5.287Z" transform="translate(-70.106 -57.264)" fill="#3a4d57"/>
    </g>
    <text id="PMO" transform="translate(-226.922 -4573.905)" font-size="21" font-family="OpenSans-Bold, Open Sans" font-weight="700"><tspan x="0" y="0">PMO</tspan></text>
  </g>
</svg>
