<svg xmlns="http://www.w3.org/2000/svg" xmlns:xlink="http://www.w3.org/1999/xlink" width="218" height="218" viewBox="0 0 218 218">
  <defs>
    <clipPath id="clip-path">
      <rect id="Rectangle_915" data-name="Rectangle 915" width="186" height="168.761" fill="none"/>
    </clipPath>
    <clipPath id="clip-path-3">
      <rect id="Rectangle_870" data-name="Rectangle 870" width="59.17" height="59.171" fill="none"/>
    </clipPath>
    <clipPath id="clip-path-4">
      <rect id="Rectangle_872" data-name="Rectangle 872" width="30.338" height="20.794" fill="none"/>
    </clipPath>
    <clipPath id="clip-path-5">
      <rect id="Rectangle_874" data-name="Rectangle 874" width="30.338" height="20.795" fill="none"/>
    </clipPath>
    <clipPath id="clip-path-6">
      <rect id="Rectangle_875" data-name="Rectangle 875" width="37.58" height="37.579" fill="none"/>
    </clipPath>
    <clipPath id="clip-path-7">
      <rect id="Rectangle_880" data-name="Rectangle 880" width="28.888" height="12.032" fill="none"/>
    </clipPath>
    <clipPath id="clip-path-8">
      <rect id="Rectangle_881" data-name="Rectangle 881" width="36.826" height="36.825" fill="none"/>
    </clipPath>
    <clipPath id="clip-path-9">
      <rect id="Rectangle_883" data-name="Rectangle 883" width="48.106" height="76.971" fill="none"/>
    </clipPath>
    <clipPath id="clip-path-10">
      <rect id="Rectangle_882" data-name="Rectangle 882" width="48.106" height="76.932" fill="none"/>
    </clipPath>
    <clipPath id="clip-path-11">
      <rect id="Rectangle_885" data-name="Rectangle 885" width="64.954" height="21.298" fill="none"/>
    </clipPath>
    <clipPath id="clip-path-12">
      <rect id="Rectangle_886" data-name="Rectangle 886" width="24.675" height="5.282" fill="none"/>
    </clipPath>
    <clipPath id="clip-path-13">
      <rect id="Rectangle_887" data-name="Rectangle 887" width="37.485" height="2.652" fill="none"/>
    </clipPath>
    <clipPath id="clip-path-14">
      <rect id="Rectangle_888" data-name="Rectangle 888" width="9.975" height="9.976" fill="none"/>
    </clipPath>
    <clipPath id="clip-path-15">
      <rect id="Rectangle_889" data-name="Rectangle 889" width="6.525" height="6.525" fill="none"/>
    </clipPath>
    <clipPath id="clip-path-16">
      <rect id="Rectangle_890" data-name="Rectangle 890" width="37.357" height="10.309" fill="none"/>
    </clipPath>
    <clipPath id="clip-path-20">
      <rect id="Rectangle_894" data-name="Rectangle 894" width="37.213" height="10.309" fill="none"/>
    </clipPath>
    <clipPath id="clip-path-21">
      <rect id="Rectangle_895" data-name="Rectangle 895" width="34.633" height="55.391" fill="none"/>
    </clipPath>
    <clipPath id="clip-path-23">
      <rect id="Rectangle_897" data-name="Rectangle 897" width="40.901" height="65.534" fill="none"/>
    </clipPath>
    <clipPath id="clip-path-24">
      <rect id="Rectangle_898" data-name="Rectangle 898" width="40.41" height="14.694" fill="none"/>
    </clipPath>
    <clipPath id="clip-path-25">
      <rect id="Rectangle_899" data-name="Rectangle 899" width="30.956" height="5.25" fill="none"/>
    </clipPath>
    <clipPath id="clip-path-26">
      <rect id="Rectangle_900" data-name="Rectangle 900" width="3.141" height="3.141" fill="none"/>
    </clipPath>
    <clipPath id="clip-path-28">
      <rect id="Rectangle_902" data-name="Rectangle 902" width="3.14" height="3.141" fill="none"/>
    </clipPath>
    <clipPath id="clip-path-29">
      <rect id="Rectangle_903" data-name="Rectangle 903" width="40.902" height="65.534" fill="none"/>
    </clipPath>
    <clipPath id="clip-path-31">
      <rect id="Rectangle_905" data-name="Rectangle 905" width="40.892" height="15.176" fill="none"/>
    </clipPath>
    <clipPath id="clip-path-32">
      <rect id="Rectangle_906" data-name="Rectangle 906" width="18.882" height="0.48" fill="none"/>
    </clipPath>
    <clipPath id="clip-path-33">
      <rect id="Rectangle_907" data-name="Rectangle 907" width="8.703" height="0.48" fill="none"/>
    </clipPath>
  </defs>
  <g id="Group_6500" data-name="Group 6500" transform="translate(-833 -1119)">
    <rect id="Rectangle_2485" data-name="Rectangle 2485" width="218" height="218" transform="translate(833 1119)" fill="none"/>
    <g id="Group_6497" data-name="Group 6497" transform="translate(242 102)">
      <g id="Group_4230" data-name="Group 4230" transform="translate(607 1042)">
        <g id="Group_4229" data-name="Group 4229" clip-path="url(#clip-path)">
          <g id="Group_4228" data-name="Group 4228">
            <g id="Group_4227" data-name="Group 4227" clip-path="url(#clip-path)">
              <g id="Group_4118" data-name="Group 4118" transform="translate(4.39)" opacity="0.73">
                <g id="Group_4117" data-name="Group 4117">
                  <g id="Group_4116" data-name="Group 4116" clip-path="url(#clip-path-3)">
                    <path id="Path_18834" data-name="Path 18834" d="M33.535,59.171a2.675,2.675,0,0,1-.709-.1l-4.033-1.1a2.671,2.671,0,0,1-1.87-3.278l1.348-4.925a22.463,22.463,0,0,1-6.494-5.037l-4.435,2.53a2.668,2.668,0,0,1-3.64-1l-2.072-3.632a2.671,2.671,0,0,1,1-3.64l4.435-2.53a22.459,22.459,0,0,1-1.028-8.154l-4.926-1.348a2.671,2.671,0,0,1-1.869-3.278l1.1-4.033a2.672,2.672,0,0,1,3.278-1.87l4.926,1.348a22.449,22.449,0,0,1,5.036-6.495L21.052,8.2a2.669,2.669,0,0,1,1-3.64L25.68,2.489a2.671,2.671,0,0,1,3.64,1L31.85,7.92A22.446,22.446,0,0,1,40,6.891l1.348-4.926A2.671,2.671,0,0,1,44.629.1l4.033,1.1a2.671,2.671,0,0,1,1.87,3.278L49.184,9.4a22.454,22.454,0,0,1,6.494,5.036l4.435-2.53a2.668,2.668,0,0,1,3.64,1l2.072,3.632a2.668,2.668,0,0,1-1,3.64l-4.435,2.53a22.446,22.446,0,0,1,1.029,8.153l4.926,1.348a2.668,2.668,0,0,1,1.87,3.278l-1.1,4.033a2.671,2.671,0,0,1-3.278,1.869L58.91,40.041a22.449,22.449,0,0,1-5.036,6.494l2.53,4.436a2.668,2.668,0,0,1-1,3.64l-3.632,2.071a2.668,2.668,0,0,1-3.64-1l-2.53-4.435a22.432,22.432,0,0,1-8.153,1.029L36.1,57.206a2.671,2.671,0,0,1-2.569,1.965M22.1,42.891l.387.457a21.057,21.057,0,0,0,6.952,5.392l.539.261-1.662,6.073a1.229,1.229,0,0,0,.861,1.509l4.033,1.1a1.228,1.228,0,0,0,1.509-.86l1.662-6.073.6.05A21.054,21.054,0,0,0,45.7,49.7l.566-.2,3.119,5.468a1.227,1.227,0,0,0,1.675.459l3.632-2.071a1.228,1.228,0,0,0,.459-1.675l-3.119-5.469.457-.386a21.058,21.058,0,0,0,5.392-6.952l.261-.539L64.217,40a1.231,1.231,0,0,0,1.509-.86l1.1-4.033a1.228,1.228,0,0,0-.86-1.509L59.9,31.936l.05-.6a21.055,21.055,0,0,0-1.1-8.728l-.2-.566,5.468-3.119a1.228,1.228,0,0,0,.459-1.675L62.5,13.619a1.228,1.228,0,0,0-1.675-.459L55.358,16.28l-.386-.458a21.054,21.054,0,0,0-6.952-5.391l-.539-.261L49.143,4.1a1.229,1.229,0,0,0-.861-1.509l-4.033-1.1a1.229,1.229,0,0,0-1.509.86L41.079,8.418l-.6-.05a21.036,21.036,0,0,0-8.728,1.1l-.566.2L28.069,4.2a1.228,1.228,0,0,0-1.675-.459L22.762,5.811A1.228,1.228,0,0,0,22.3,7.486l3.119,5.468-.457.386a21.058,21.058,0,0,0-5.392,6.953l-.261.539-6.073-1.662a1.227,1.227,0,0,0-1.509.86l-1.1,4.033a1.229,1.229,0,0,0,.86,1.508l6.073,1.662-.05.6a21.064,21.064,0,0,0,1.1,8.728l.2.566-5.468,3.119a1.228,1.228,0,0,0-.459,1.675l2.072,3.633a1.227,1.227,0,0,0,1.675.458Zm16.65-1.271a12.087,12.087,0,0,1-3.194-.432,11.959,11.959,0,1,1,3.194.432m-.036-22.627a10.622,10.622,0,1,0,2.812.38,10.639,10.639,0,0,0-2.812-.38" transform="translate(-9.143 0)" fill="#fff"/>
                  </g>
                </g>
              </g>
              <g id="Group_4121" data-name="Group 4121" transform="translate(116.598 25.877)" opacity="0.69">
                <g id="Group_4120" data-name="Group 4120">
                  <g id="Group_4119" data-name="Group 4119" clip-path="url(#clip-path-4)">
                    <path id="Path_18835" data-name="Path 18835" d="M271.79,74.2l-27.162.493a1.3,1.3,0,0,1-1.444-1.106l-.327-18.036a1.3,1.3,0,0,1,1.4-1.158l27.163-.493A1.305,1.305,0,0,1,272.866,55l.327,18.036a1.305,1.305,0,0,1-1.4,1.158M244.265,54.728c-.6.011-1.08.376-1.072.815l.327,18.036c.008.438.5.786,1.1.775l27.163-.493c.6-.011,1.08-.376,1.072-.815l-.327-18.036c-.008-.438-.5-.786-1.1-.775Z" transform="translate(-242.855 -53.897)" fill="#fff"/>
                    <rect id="Rectangle_871" data-name="Rectangle 871" width="29.498" height="0.337" transform="translate(0.215 4.192) rotate(-1.041)" fill="#fff"/>
                    <path id="Path_18836" data-name="Path 18836" d="M247.03,59.359a.635.635,0,1,1,.624-.647.635.635,0,0,1-.624.647m-.017-.933a.3.3,0,1,0,.3.292.3.3,0,0,0-.3-.292" transform="translate(-244.69 -56.076)" fill="#fff"/>
                    <path id="Path_18837" data-name="Path 18837" d="M250.675,59.292a.635.635,0,1,1,.624-.647.635.635,0,0,1-.624.647m-.017-.933a.3.3,0,1,0,.3.292.3.3,0,0,0-.3-.292" transform="translate(-246.585 -56.041)" fill="#fff"/>
                    <path id="Path_18838" data-name="Path 18838" d="M254.252,59.228a.635.635,0,1,1,.624-.647.636.636,0,0,1-.624.647m-.017-.933a.3.3,0,1,0,.3.292.3.3,0,0,0-.3-.292" transform="translate(-248.444 -56.008)" fill="#fff"/>
                  </g>
                </g>
              </g>
              <g id="Group_4124" data-name="Group 4124" transform="translate(25.431 133.681)" opacity="0.69">
                <g id="Group_4123" data-name="Group 4123">
                  <g id="Group_4122" data-name="Group 4122" clip-path="url(#clip-path-5)">
                    <path id="Path_18839" data-name="Path 18839" d="M81.9,298.736l-27.162.493a1.305,1.305,0,0,1-1.444-1.106l-.327-18.036a1.3,1.3,0,0,1,1.4-1.158l27.163-.493a1.3,1.3,0,0,1,1.444,1.106l.327,18.036a1.305,1.305,0,0,1-1.4,1.158M54.378,279.266c-.6.011-1.08.376-1.072.815l.327,18.036c.008.438.5.786,1.1.775L81.9,298.4c.6-.011,1.08-.376,1.072-.815l-.327-18.036c-.008-.438-.5-.786-1.1-.775Z" transform="translate(-52.969 -278.435)" fill="#fff"/>
                    <rect id="Rectangle_873" data-name="Rectangle 873" width="29.498" height="0.337" transform="translate(0.215 4.192) rotate(-1.04)" fill="#fff"/>
                    <path id="Path_18840" data-name="Path 18840" d="M57.144,283.9a.635.635,0,1,1,.624-.647.636.636,0,0,1-.624.647m-.017-.933a.3.3,0,1,0,.3.292.3.3,0,0,0-.3-.292" transform="translate(-54.803 -280.614)" fill="#fff"/>
                    <path id="Path_18841" data-name="Path 18841" d="M60.789,283.831a.635.635,0,1,1,.624-.647.636.636,0,0,1-.624.647m-.017-.933a.3.3,0,1,0,.3.292.3.3,0,0,0-.3-.292" transform="translate(-56.698 -280.58)" fill="#fff"/>
                    <path id="Path_18842" data-name="Path 18842" d="M64.366,283.766a.635.635,0,1,1,.624-.646.635.635,0,0,1-.624.646m-.016-.933a.3.3,0,1,0,.3.292.3.3,0,0,0-.3-.292" transform="translate(-58.558 -280.546)" fill="#fff"/>
                  </g>
                </g>
              </g>
              <g id="Group_4127" data-name="Group 4127" transform="translate(133.367 75.349)" opacity="0.55">
                <g id="Group_4126" data-name="Group 4126">
                  <g id="Group_4125" data-name="Group 4125" clip-path="url(#clip-path-6)">
                    <path id="Path_18843" data-name="Path 18843" d="M311.908,184.8l-2.81-2.253a13.824,13.824,0,0,0,1.606-5.521l3.58-.394a1.231,1.231,0,0,0,1.089-1.359l-.289-2.627a1.231,1.231,0,0,0-1.359-1.089l-3.579.394a13.825,13.825,0,0,0-2.769-5.039l2.253-2.811a1.231,1.231,0,0,0-.191-1.731l-2.062-1.653a1.232,1.232,0,0,0-1.731.191l-2.253,2.81a13.832,13.832,0,0,0-5.521-1.606l-.394-3.579a1.231,1.231,0,0,0-1.359-1.089l-2.627.289a1.232,1.232,0,0,0-1.089,1.359l.394,3.579a13.825,13.825,0,0,0-5.039,2.769l-2.811-2.253a1.231,1.231,0,0,0-1.731.191l-1.653,2.062a1.231,1.231,0,0,0,.191,1.731l2.81,2.253a13.832,13.832,0,0,0-1.607,5.521l-3.579.394a1.231,1.231,0,0,0-1.089,1.359l.289,2.627a1.232,1.232,0,0,0,1.359,1.089l3.579-.394a13.831,13.831,0,0,0,2.769,5.039l-2.253,2.81a1.231,1.231,0,0,0,.191,1.731l2.062,1.653a1.231,1.231,0,0,0,1.731-.191l2.253-2.81a13.832,13.832,0,0,0,5.521,1.606l.394,3.579a1.231,1.231,0,0,0,1.359,1.089l2.627-.289a1.232,1.232,0,0,0,1.089-1.359l-.394-3.579a13.83,13.83,0,0,0,5.039-2.769l2.81,2.253a1.231,1.231,0,0,0,1.731-.191l1.653-2.062a1.231,1.231,0,0,0-.191-1.731m-19.548-3.236a7.148,7.148,0,1,1,10.048-1.107,7.148,7.148,0,0,1-10.048,1.107" transform="translate(-278.041 -157.199)" fill="#fff"/>
                    <path id="Path_18844" data-name="Path 18844" d="M297.146,194.519a1.471,1.471,0,0,1-1.46-1.31l-.373-3.382a13.969,13.969,0,0,1-5.24-1.525l-2.129,2.656a1.472,1.472,0,0,1-2.068.229l-2.062-1.654a1.471,1.471,0,0,1-.228-2.068l2.128-2.656a13.994,13.994,0,0,1-2.628-4.783l-3.382.372a1.472,1.472,0,0,1-1.624-1.3l-.29-2.627a1.473,1.473,0,0,1,1.3-1.624l3.382-.373a13.983,13.983,0,0,1,1.525-5.24l-2.656-2.129a1.471,1.471,0,0,1-.228-2.068l1.653-2.063a1.47,1.47,0,0,1,2.068-.228l2.656,2.128a13.989,13.989,0,0,1,4.783-2.629l-.372-3.382a1.473,1.473,0,0,1,1.3-1.624l2.627-.29a1.475,1.475,0,0,1,1.623,1.3l.373,3.382a14,14,0,0,1,5.24,1.525L305.2,160.5a1.474,1.474,0,0,1,2.068-.228l2.062,1.654a1.47,1.47,0,0,1,.228,2.068l-2.129,2.656a13.99,13.99,0,0,1,2.629,4.784l3.382-.373a1.472,1.472,0,0,1,1.624,1.3l.29,2.627a1.471,1.471,0,0,1-1.3,1.623l-3.382.373a13.979,13.979,0,0,1-1.525,5.24l2.655,2.129a1.47,1.47,0,0,1,.228,2.068l-1.652,2.062a1.476,1.476,0,0,1-2.069.229l-2.655-2.129a13.99,13.99,0,0,1-4.784,2.629l.373,3.382a1.472,1.472,0,0,1-1.3,1.624l-2.627.29a1.455,1.455,0,0,1-.164.009m-7.2-6.828.176.094a13.513,13.513,0,0,0,5.425,1.578l.2.015.416,3.778a.992.992,0,0,0,1.094.877l2.627-.29a.991.991,0,0,0,.877-1.094l-.416-3.778.191-.058a13.533,13.533,0,0,0,4.952-2.722l.151-.131,2.966,2.378a.994.994,0,0,0,1.394-.154l1.653-2.062a.99.99,0,0,0-.153-1.393h0l-2.966-2.378.094-.176a13.52,13.52,0,0,0,1.578-5.425l.015-.2,3.778-.416a.991.991,0,0,0,.877-1.094l-.29-2.627a.992.992,0,0,0-1.094-.877l-3.778.416-.058-.191a13.535,13.535,0,0,0-2.722-4.952l-.131-.151,2.378-2.966a.991.991,0,0,0-.154-1.393l-2.062-1.653a.992.992,0,0,0-1.394.153l-2.378,2.966-.176-.095a13.527,13.527,0,0,0-5.425-1.578l-.2-.015-.417-3.778a1,1,0,0,0-1.094-.877l-2.627.289a.991.991,0,0,0-.877,1.094l.415,3.778-.191.058a13.521,13.521,0,0,0-4.952,2.721l-.151.131-2.966-2.378a.992.992,0,0,0-1.393.153l-1.654,2.063a.992.992,0,0,0,.154,1.393l2.966,2.378-.095.176a13.525,13.525,0,0,0-1.578,5.425l-.015.2-3.778.416a.991.991,0,0,0-.877,1.094l.289,2.627a.991.991,0,0,0,1.094.877l3.778-.415.058.191a13.517,13.517,0,0,0,2.721,4.952l.13.151-2.377,2.966a.992.992,0,0,0,.153,1.393l2.062,1.654a.992.992,0,0,0,1.394-.154Zm6.616-4.577a7.385,7.385,0,1,1,5.772-2.764,7.353,7.353,0,0,1-5.772,2.764m.021-14.294a6.909,6.909,0,1,0,4.308,1.519,6.929,6.929,0,0,0-4.308-1.519" transform="translate(-277.781 -156.94)" fill="#fff"/>
                  </g>
                </g>
              </g>
              <g id="Group_4130" data-name="Group 4130" transform="translate(157.112 112.26)" opacity="0.38">
                <g id="Group_4129" data-name="Group 4129">
                  <g id="Group_4128" data-name="Group 4128" clip-path="url(#clip-path-7)">
                    <path id="Path_18845" data-name="Path 18845" d="M355.275,245.851H328.09a.944.944,0,0,1-.851-1.014v-10a.944.944,0,0,1,.851-1.014h27.185a.945.945,0,0,1,.852,1.014v10a.944.944,0,0,1-.852,1.014M328.09,234.3c-.2,0-.371.245-.371.534v10c0,.29.17.533.371.533h27.185c.2,0,.372-.244.372-.533v-10c0-.289-.17-.534-.372-.534Z" transform="translate(-327.239 -233.82)" fill="#fff"/>
                    <rect id="Rectangle_876" data-name="Rectangle 876" width="18.402" height="0.48" transform="translate(5.596 3.869)" fill="#fff"/>
                    <path id="Path_18846" data-name="Path 18846" d="M356.777,242.338h-18.4a.48.48,0,0,1,0-.96h18.4a.48.48,0,0,1,0,.96m0-.48v0Z" transform="translate(-332.779 -237.749)" fill="#fff"/>
                    <rect id="Rectangle_877" data-name="Rectangle 877" width="8.223" height="0.48" transform="translate(5.596 6.052)" fill="#fff"/>
                    <path id="Path_18847" data-name="Path 18847" d="M346.6,246.885h-8.223a.48.48,0,0,1,0-.96H346.6a.48.48,0,0,1,0,.96m0-.48v0Z" transform="translate(-332.779 -240.113)" fill="#fff"/>
                    <rect id="Rectangle_878" data-name="Rectangle 878" width="8.222" height="0.48" transform="translate(15.776 6.052)" fill="#fff"/>
                    <path id="Path_18848" data-name="Path 18848" d="M367.8,246.885h-8.222a.48.48,0,0,1,0-.96H367.8a.48.48,0,1,1,0,.96m0-.48v0Z" transform="translate(-343.802 -240.113)" fill="#fff"/>
                    <rect id="Rectangle_879" data-name="Rectangle 879" width="18.402" height="0.48" transform="translate(5.596 8.336)" fill="#fff"/>
                    <path id="Path_18849" data-name="Path 18849" d="M356.777,251.644h-18.4a.48.48,0,0,1,0-.96h18.4a.48.48,0,0,1,0,.96m0-.48v0Z" transform="translate(-332.779 -242.587)" fill="#fff"/>
                  </g>
                </g>
              </g>
              <g id="Group_4133" data-name="Group 4133" transform="translate(90.488 131.935)" opacity="0.55">
                <g id="Group_4132" data-name="Group 4132">
                  <g id="Group_4131" data-name="Group 4131" clip-path="url(#clip-path-8)">
                    <path id="Path_18850" data-name="Path 18850" d="M207.438,311.626a1.671,1.671,0,0,1-1.656-1.488l-.338-3.069a13.734,13.734,0,0,1-4.775-1.389l-1.931,2.41a1.673,1.673,0,0,1-2.349.259l-1.994-1.6a1.672,1.672,0,0,1-.258-2.348l1.932-2.41a13.758,13.758,0,0,1-2.395-4.358l-3.069.338a1.676,1.676,0,0,1-1.843-1.478l-.28-2.54a1.673,1.673,0,0,1,1.478-1.844l3.069-.338A13.756,13.756,0,0,1,194.417,287l-2.41-1.931a1.673,1.673,0,0,1-.258-2.348l1.6-1.993a1.671,1.671,0,0,1,2.348-.259l2.411,1.931A13.746,13.746,0,0,1,202.463,280l-.338-3.069a1.672,1.672,0,0,1,1.478-1.843l2.54-.279a1.671,1.671,0,0,1,1.843,1.478l.338,3.069a13.754,13.754,0,0,1,4.775,1.389l1.931-2.41a1.672,1.672,0,0,1,2.349-.259l1.994,1.6a1.671,1.671,0,0,1,.259,2.348l-1.932,2.41a13.745,13.745,0,0,1,2.395,4.358l3.069-.338a1.675,1.675,0,0,1,1.844,1.477l.28,2.54a1.674,1.674,0,0,1-1.478,1.844l-3.069.338a13.751,13.751,0,0,1-1.389,4.774l2.41,1.932h0a1.671,1.671,0,0,1,.259,2.348l-1.6,1.993a1.669,1.669,0,0,1-2.349.259l-2.41-1.931a13.757,13.757,0,0,1-4.358,2.395l.338,3.069a1.673,1.673,0,0,1-1.478,1.844l-2.54.279a1.747,1.747,0,0,1-.187.01m-7.023-7.166.351.189a12.825,12.825,0,0,0,5.146,1.5l.4.03.425,3.857a.709.709,0,0,0,.783.628l2.54-.279a.71.71,0,0,0,.628-.784l-.424-3.857.382-.115a12.821,12.821,0,0,0,4.7-2.582l.3-.26,3.028,2.427a.71.71,0,0,0,1-.11l1.6-1.993a.71.71,0,0,0-.109-1h0l-3.028-2.428.189-.351a12.832,12.832,0,0,0,1.5-5.146l.03-.4,3.857-.425a.712.712,0,0,0,.628-.784l-.28-2.54a.713.713,0,0,0-.784-.628l-3.857.424-.115-.382a12.829,12.829,0,0,0-2.581-4.7l-.261-.3,2.428-3.029a.71.71,0,0,0-.11-1l-1.994-1.6a.711.711,0,0,0-1,.11l-2.427,3.029-.352-.189a12.835,12.835,0,0,0-5.146-1.5l-.4-.029-.425-3.857a.71.71,0,0,0-.783-.628l-2.54.28a.709.709,0,0,0-.628.783l.425,3.857-.382.115a12.828,12.828,0,0,0-4.7,2.582l-.3.26-3.029-2.427a.711.711,0,0,0-1,.11l-1.6,1.993a.71.71,0,0,0,.109,1l3.029,2.428-.189.351a12.834,12.834,0,0,0-1.5,5.146l-.029.4-3.857.424a.712.712,0,0,0-.628.784l.28,2.54a.713.713,0,0,0,.784.628l3.857-.424.115.382a12.823,12.823,0,0,0,2.581,4.7l.261.3L194.886,305a.71.71,0,0,0,.11,1l1.994,1.6a.712.712,0,0,0,1-.11Zm6.46-3.86a7.386,7.386,0,1,1,5.774-2.765,7.35,7.35,0,0,1-5.774,2.765m.02-13.819a6.523,6.523,0,0,0-.716.039,6.411,6.411,0,1,0,.716-.039" transform="translate(-188.471 -274.801)" fill="#fff"/>
                  </g>
                </g>
              </g>
              <g id="Group_4139" data-name="Group 4139" transform="translate(0 51.533)" opacity="0.61">
                <g id="Group_4138" data-name="Group 4138">
                  <g id="Group_4137" data-name="Group 4137" clip-path="url(#clip-path-9)">
                    <g id="Group_4136" data-name="Group 4136" transform="translate(0 0.039)" opacity="0.74">
                      <g id="Group_4135" data-name="Group 4135">
                        <g id="Group_4134" data-name="Group 4134" clip-path="url(#clip-path-10)">
                          <path id="Path_18851" data-name="Path 18851" d="M47.218,109.045l.888,73.1a1.649,1.649,0,0,1-1.629,1.669l-43.92.533A1.649,1.649,0,0,1,.888,182.72L0,109.619a1.649,1.649,0,0,1,1.629-1.669l43.92-.533a1.649,1.649,0,0,1,1.669,1.629" transform="translate(0 -107.417)" fill="#6d6cd4"/>
                        </g>
                      </g>
                    </g>
                    <path id="Path_18852" data-name="Path 18852" d="M47.546,108.974l.053,4.343-47.218.574-.054-4.424a1.578,1.578,0,0,1,1.559-1.6l43.98-.534a1.659,1.659,0,0,1,1.679,1.639" transform="translate(-0.17 -107.335)" fill="#3e479b"/>
                    <path id="Path_18853" data-name="Path 18853" d="M6.044,114.382a.972.972,0,1,1,.965-.979.974.974,0,0,1-.965.979m-.012-1.556a.583.583,0,1,0,.588.579.584.584,0,0,0-.588-.579" transform="translate(-2.633 -109.988)" fill="#fff"/>
                    <path id="Path_18854" data-name="Path 18854" d="M12.807,114.331a.972.972,0,1,1,.965-.98.973.973,0,0,1-.965.98m-.012-1.556a.583.583,0,1,0,.588.579.584.584,0,0,0-.588-.579" transform="translate(-6.149 -109.961)" fill="#fff"/>
                    <path id="Path_18855" data-name="Path 18855" d="M19.382,114.281a.972.972,0,1,1,.965-.98.974.974,0,0,1-.965.98m-.012-1.556a.583.583,0,1,0,.588.579.584.584,0,0,0-.588-.579" transform="translate(-9.567 -109.935)" fill="#fff"/>
                    <path id="Path_18856" data-name="Path 18856" d="M30.263,134.2l-21.82.165a.389.389,0,0,1-.006-.778l21.82-.165a.389.389,0,0,1,.006.778" transform="translate(-4.186 -120.897)" fill="#fff"/>
                    <path id="Path_18857" data-name="Path 18857" d="M64.137,134.085l-4.529.034a.389.389,0,1,1-.006-.777l4.529-.035a.389.389,0,0,1,.006.778" transform="translate(-30.786 -120.837)" fill="#3e479b"/>
                    <path id="Path_18858" data-name="Path 18858" d="M30.549,171.93l-21.82.165a.389.389,0,0,1-.006-.778l21.82-.165a.389.389,0,0,1,.006.778" transform="translate(-4.334 -140.513)" fill="#fff"/>
                    <path id="Path_18859" data-name="Path 18859" d="M64.423,171.816l-4.529.034a.389.389,0,1,1-.006-.777l4.529-.035a.389.389,0,0,1,.006.778" transform="translate(-30.934 -140.453)" fill="#599af2"/>
                    <path id="Path_18860" data-name="Path 18860" d="M30.4,152.207l-21.82.165a.389.389,0,0,1-.006-.778l21.82-.165a.389.389,0,0,1,.006.778" transform="translate(-4.257 -130.259)" fill="#599af2"/>
                    <path id="Path_18861" data-name="Path 18861" d="M64.273,152.092l-4.529.034a.389.389,0,1,1-.006-.777l4.529-.035a.389.389,0,1,1,.006.778" transform="translate(-30.856 -130.199)" fill="#fff"/>
                    <path id="Path_18862" data-name="Path 18862" d="M79.8,151.975l-4.529.034a.389.389,0,1,1-.006-.777L79.8,151.2a.389.389,0,0,1,.006.778" transform="translate(-38.931 -130.138)" fill="#3e479b"/>
                    <path id="Path_18863" data-name="Path 18863" d="M23.057,143.175l-14.547.11a.389.389,0,1,1-.006-.777l14.547-.11a.389.389,0,0,1,.006.778" transform="translate(-4.22 -125.563)" fill="#3e479b"/>
                    <path id="Path_18864" data-name="Path 18864" d="M50.763,143.032l-6.382.048a.389.389,0,0,1-.006-.778l6.382-.048a.389.389,0,0,1,.006.778" transform="translate(-22.87 -125.489)" fill="#f7a9b4"/>
                    <path id="Path_18865" data-name="Path 18865" d="M42.066,162.008l-14.547.11a.389.389,0,1,1-.006-.778l14.547-.11a.389.389,0,0,1,.006.778" transform="translate(-14.103 -135.354)" fill="#3e479b"/>
                    <path id="Path_18866" data-name="Path 18866" d="M15.035,162.28l-6.381.048a.389.389,0,0,1-.006-.778l6.382-.048a.389.389,0,0,1,.006.778" transform="translate(-4.295 -135.496)" fill="#f7a9b4"/>
                    <path id="Path_18867" data-name="Path 18867" d="M30.645,184.65l-21.82.165a.389.389,0,0,1-.006-.778l21.82-.165a.389.389,0,0,1,.006.778" transform="translate(-4.384 -147.126)" fill="#f7a9b4"/>
                    <path id="Path_18868" data-name="Path 18868" d="M64.519,184.536l-4.529.034a.389.389,0,1,1-.006-.777l4.529-.035a.389.389,0,1,1,.006.778" transform="translate(-30.984 -147.066)" fill="#3e479b"/>
                    <path id="Path_18869" data-name="Path 18869" d="M30.931,222.381l-21.82.165a.389.389,0,1,1-.006-.778l21.82-.165a.389.389,0,0,1,.006.778" transform="translate(-4.533 -166.741)" fill="#fff"/>
                    <path id="Path_18870" data-name="Path 18870" d="M64.8,222.266l-4.529.034a.389.389,0,1,1-.006-.777l4.529-.035a.389.389,0,1,1,.006.778" transform="translate(-31.132 -166.682)" fill="#599af2"/>
                    <path id="Path_18871" data-name="Path 18871" d="M30.781,202.658l-21.82.165a.389.389,0,1,1-.005-.778l21.82-.165a.389.389,0,0,1,.006.778" transform="translate(-4.455 -156.488)" fill="#599af2"/>
                    <path id="Path_18872" data-name="Path 18872" d="M64.655,202.543l-4.529.034a.389.389,0,1,1-.006-.777l4.529-.035a.389.389,0,1,1,.006.778" transform="translate(-31.055 -156.428)" fill="#fff"/>
                    <path id="Path_18873" data-name="Path 18873" d="M80.185,202.426l-4.529.034a.389.389,0,1,1-.006-.777l4.529-.035a.389.389,0,0,1,.006.778" transform="translate(-39.129 -156.367)" fill="#3e479b"/>
                    <path id="Path_18874" data-name="Path 18874" d="M23.439,193.625l-14.547.11a.389.389,0,1,1-.006-.777l14.547-.11a.389.389,0,0,1,.006.778" transform="translate(-4.419 -151.791)" fill="#3e479b"/>
                    <path id="Path_18875" data-name="Path 18875" d="M51.145,193.483l-6.382.048a.389.389,0,0,1-.006-.778l6.382-.048a.389.389,0,0,1,.006.778" transform="translate(-23.068 -151.718)" fill="#f7a9b4"/>
                    <path id="Path_18876" data-name="Path 18876" d="M42.448,212.458l-14.547.11a.389.389,0,1,1-.006-.777l14.547-.11a.389.389,0,1,1,.006.778" transform="translate(-14.302 -161.583)" fill="#3e479b"/>
                    <path id="Path_18877" data-name="Path 18877" d="M15.417,212.73l-6.381.048A.389.389,0,0,1,9.03,212l6.382-.048a.389.389,0,0,1,.006.778" transform="translate(-4.494 -161.724)" fill="#f7a9b4"/>
                    <path id="Path_18878" data-name="Path 18878" d="M31.019,234.048l-21.82.165a.389.389,0,0,1-.006-.778l21.82-.165a.389.389,0,0,1,.006.778" transform="translate(-4.579 -172.807)" fill="#f7a9b4"/>
                    <path id="Path_18879" data-name="Path 18879" d="M64.893,233.933l-4.529.034a.389.389,0,1,1-.006-.777l4.529-.035a.389.389,0,1,1,.006.778" transform="translate(-31.179 -172.747)" fill="#3e479b"/>
                    <path id="Path_18880" data-name="Path 18880" d="M65.073,257.757l-4.529.034a.389.389,0,1,1-.006-.777l4.529-.035a.389.389,0,1,1,.006.778" transform="translate(-31.272 -185.133)" fill="#fff"/>
                    <path id="Path_18881" data-name="Path 18881" d="M80.6,257.64l-4.529.034a.389.389,0,1,1-.006-.777l4.529-.035a.389.389,0,0,1,.006.778" transform="translate(-39.346 -185.072)" fill="#3e479b"/>
                    <path id="Path_18882" data-name="Path 18882" d="M23.813,243.024l-14.547.11a.389.389,0,1,1-.006-.777l14.547-.11a.389.389,0,1,1,.006.778" transform="translate(-4.613 -177.473)" fill="#3e479b"/>
                    <path id="Path_18883" data-name="Path 18883" d="M51.519,242.881l-6.382.048a.389.389,0,1,1-.006-.778l6.382-.048a.389.389,0,1,1,.006.778" transform="translate(-23.263 -177.399)" fill="#f7a9b4"/>
                  </g>
                </g>
              </g>
              <path id="Path_18884" data-name="Path 18884" d="M85.418,25.691l0,9.665V37.6l.012,26.831.024,52.5.012,26.831v2.245l0,6.529a6.9,6.9,0,0,0,6.881,6.875l4.9,0,53.979-.024a6.882,6.882,0,0,0,6.875-6.881l-.056-126.847a6.885,6.885,0,0,0-6.881-6.875l-58.881.026a6.878,6.878,0,0,0-6.875,6.881" transform="translate(-44.408 -9.766)" fill="#4c65ba"/>
              <path id="Path_18885" data-name="Path 18885" d="M86.468,30.94l0,9.351v2.172l.012,25.958.023,50.794.012,25.958v2.172l0,6.316a6.657,6.657,0,0,0,4.408,6.224,6.866,6.866,0,0,0,2.378.428l4.834,0,53.231-.024a6.838,6.838,0,0,0,3.832-1.168,6.611,6.611,0,0,0,2.948-5.489L158.1,30.908a6.588,6.588,0,0,0-2.425-5.093,6.828,6.828,0,0,0-4.361-1.558l-58.065.025a6.72,6.72,0,0,0-6.78,6.657" transform="translate(-44.954 -12.611)" fill="#3e479b"/>
              <path id="Path_18886" data-name="Path 18886" d="M158.38,57.258l.045,101.943a1.649,1.649,0,0,1-1.648,1.65l-61.746.027a1.649,1.649,0,0,1-1.65-1.648L93.337,57.287a1.649,1.649,0,0,1,1.648-1.65l61.746-.027a1.649,1.649,0,0,1,1.65,1.648" transform="translate(-48.525 -28.911)" fill="#fff"/>
              <path id="Path_18887" data-name="Path 18887" d="M158.38,57.158l0,6.61L93.34,63.8l0-6.69a1.578,1.578,0,0,1,1.578-1.579L156.72,55.5a1.659,1.659,0,0,1,1.66,1.658" transform="translate(-48.525 -28.854)" fill="#599af2"/>
              <path id="Path_18888" data-name="Path 18888" d="M211.829,61.666a.24.24,0,0,1,0-.48l4.878,0a.24.24,0,0,1,0,.48Z" transform="translate(-110.002 -31.809)" fill="#fff"/>
              <path id="Path_18889" data-name="Path 18889" d="M211.829,64.262a.24.24,0,0,1,0-.48l4.879,0a.24.24,0,0,1,0,.48Z" transform="translate(-110.002 -33.158)" fill="#fff"/>
              <path id="Path_18890" data-name="Path 18890" d="M211.83,66.858a.24.24,0,1,1,0-.48l4.879,0a.24.24,0,1,1,0,.48Z" transform="translate(-110.003 -34.508)" fill="#fff"/>
              <path id="Path_18891" data-name="Path 18891" d="M103.223,64.52a.241.241,0,0,1-.17-.07l-1.773-1.771a.393.393,0,0,1,0-.555l1.7-1.7a.24.24,0,0,1,.339.339L101.682,62.4l1.711,1.709a.24.24,0,0,1-.17.41" transform="translate(-52.595 -31.375)" fill="#fff"/>
              <path id="Path_18892" data-name="Path 18892" d="M159.286,39.089a1.761,1.761,0,1,1,0-3.522h0a1.761,1.761,0,0,1,0,3.522Zm0-2.776h0a1.015,1.015,0,0,0,0,2.03h0a1.015,1.015,0,0,0,0-2.03" transform="translate(-81.895 -18.491)" fill="#fff"/>
              <path id="Path_18893" data-name="Path 18893" d="M156.481,295.155a1.131,1.131,0,0,1-1.13-1.129v-3.337a1.131,1.131,0,0,1,1.129-1.13h3.338a1.131,1.131,0,0,1,1.13,1.13v3.337a1.131,1.131,0,0,1-1.129,1.13Zm3.335-5.118h-3.337a.65.65,0,0,0-.649.65v3.337a.65.65,0,0,0,.65.649h3.337a.65.65,0,0,0,.649-.65v-3.337a.651.651,0,0,0-.65-.65" transform="translate(-80.764 -150.537)" fill="#fff"/>
              <path id="Path_18894" data-name="Path 18894" d="M115.576,291.171a.24.24,0,0,1,0-.48h3.212a.24.24,0,1,1,0,.48Z" transform="translate(-59.962 -151.125)" fill="#fff"/>
              <path id="Path_18895" data-name="Path 18895" d="M115.577,294.786a.24.24,0,1,1,0-.48h3.212a.24.24,0,1,1,0,.48Z" transform="translate(-59.962 -153.005)" fill="#fff"/>
              <path id="Path_18896" data-name="Path 18896" d="M115.579,298.444a.24.24,0,1,1,0-.48h3.212a.24.24,0,1,1,0,.48Z" transform="translate(-59.963 -154.906)" fill="#fff"/>
              <path id="Path_18897" data-name="Path 18897" d="M205.3,295.643a.241.241,0,0,1-.17-.07l-2.526-2.524,2.46-2.462a.24.24,0,0,1,.339.339l-2.12,2.122,2.187,2.185a.24.24,0,0,1-.17.41" transform="translate(-105.332 -151.035)" fill="#fff"/>
              <g id="Group_4142" data-name="Group 4142" transform="translate(44.914 35.017)" opacity="0.36">
                <g id="Group_4141" data-name="Group 4141">
                  <g id="Group_4140" data-name="Group 4140" clip-path="url(#clip-path-11)">
                    <rect id="Rectangle_884" data-name="Rectangle 884" width="64.945" height="21.27" transform="translate(0.005 0.014)" fill="#599af2"/>
                  </g>
                </g>
              </g>
              <g id="Group_4145" data-name="Group 4145" transform="translate(50.232 39.327)" opacity="0.43">
                <g id="Group_4144" data-name="Group 4144">
                  <g id="Group_4143" data-name="Group 4143" clip-path="url(#clip-path-12)">
                    <path id="Path_18898" data-name="Path 18898" d="M128.623,87.183l-23.318.01a.677.677,0,0,1-.678-.677l0-3.916a.678.678,0,0,1,.677-.678l23.318-.01a.678.678,0,0,1,.678.677v3.917a.678.678,0,0,1-.677.678" transform="translate(-104.625 -81.911)" fill="#fff"/>
                  </g>
                </g>
              </g>
              <g id="Group_4148" data-name="Group 4148" transform="translate(50.236 47.545)" opacity="0.43">
                <g id="Group_4147" data-name="Group 4147">
                  <g id="Group_4146" data-name="Group 4146" clip-path="url(#clip-path-13)">
                    <path id="Path_18899" data-name="Path 18899" d="M141.439,101.665l-36.129.016a.678.678,0,0,1-.678-.677v-1.28a.678.678,0,0,1,.677-.678l36.129-.016a.677.677,0,0,1,.678.677v1.28a.678.678,0,0,1-.677.678" transform="translate(-104.632 -99.029)" fill="#fff"/>
                  </g>
                </g>
              </g>
              <g id="Group_4151" data-name="Group 4151" transform="translate(96.877 39.771)" opacity="0.43">
                <g id="Group_4150" data-name="Group 4150">
                  <g id="Group_4149" data-name="Group 4149" clip-path="url(#clip-path-14)">
                    <path id="Path_18900" data-name="Path 18900" d="M206.767,92.813a4.988,4.988,0,0,1,0-9.976h0a4.988,4.988,0,0,1,0,9.976Zm0-9.016h0a4.028,4.028,0,0,0,0,8.055h0a4.028,4.028,0,0,0,0-8.055" transform="translate(-201.779 -82.837)" fill="#fff"/>
                  </g>
                </g>
              </g>
              <path id="Path_18901" data-name="Path 18901" d="M118.467,148.452l-10.744,0a2.187,2.187,0,0,1-2.188-2.186l0-10.744a2.187,2.187,0,0,1,2.186-2.188l10.744,0a2.187,2.187,0,0,1,2.188,2.186l0,10.744a2.187,2.187,0,0,1-2.186,2.188" transform="translate(-54.864 -69.318)" fill="#4c65ba"/>
              <g id="Group_4154" data-name="Group 4154" transform="translate(54.965 68.389)" opacity="0.36">
                <g id="Group_4153" data-name="Group 4153">
                  <g id="Group_4152" data-name="Group 4152" clip-path="url(#clip-path-15)">
                    <path id="Path_18902" data-name="Path 18902" d="M121.009,145.7a3.262,3.262,0,1,1-3.264-3.261,3.262,3.262,0,0,1,3.264,3.261" transform="translate(-114.484 -142.443)" fill="#599af2"/>
                  </g>
                </g>
              </g>
              <g id="Group_4157" data-name="Group 4157" transform="translate(67.94 66.367)" opacity="0.26">
                <g id="Group_4156" data-name="Group 4156">
                  <g id="Group_4155" data-name="Group 4155" clip-path="url(#clip-path-16)">
                    <path id="Path_18903" data-name="Path 18903" d="M151.552,140.943l-8.5,0a.546.546,0,0,1-.546-.546v-1.618a.546.546,0,0,1,.546-.547l8.5,0a.546.546,0,0,1,.547.546V140.4a.546.546,0,0,1-.546.547" transform="translate(-142.025 -138.231)" fill="#3e479b"/>
                    <path id="Path_18904" data-name="Path 18904" d="M141.988,151.519a.48.48,0,0,1,0-.96l16.373-.007h0a.48.48,0,0,1,0,.96Z" transform="translate(-141.508 -144.637)" fill="#3e479b"/>
                    <path id="Path_18905" data-name="Path 18905" d="M141.992,158.651a.48.48,0,0,1,0-.96l26.7-.012a.48.48,0,0,1,0,.96l-26.7.012Z" transform="translate(-141.51 -148.342)" fill="#3e479b"/>
                    <path id="Path_18906" data-name="Path 18906" d="M183.694,151.5a.48.48,0,1,1,0-.96l16.373-.007a.48.48,0,0,1,0,.96Z" transform="translate(-163.19 -144.627)" fill="#3e479b"/>
                  </g>
                </g>
              </g>
              <path id="Path_18907" data-name="Path 18907" d="M118.507,240.059l-10.744,0a2.187,2.187,0,0,1-2.188-2.186l0-10.744a2.187,2.187,0,0,1,2.186-2.188l10.744,0a2.187,2.187,0,0,1,2.188,2.186l0,10.744a2.187,2.187,0,0,1-2.186,2.188" transform="translate(-54.884 -116.944)" fill="#599af2"/>
              <g id="Group_4160" data-name="Group 4160" transform="translate(54.985 112.371)" opacity="0.57">
                <g id="Group_4159" data-name="Group 4159">
                  <g id="Group_4158" data-name="Group 4158" clip-path="url(#clip-path-15)">
                    <path id="Path_18908" data-name="Path 18908" d="M121.049,237.311a3.263,3.263,0,1,1-3.264-3.261,3.262,3.262,0,0,1,3.264,3.261" transform="translate(-114.524 -234.05)" fill="#3e479b"/>
                  </g>
                </g>
              </g>
              <g id="Group_4163" data-name="Group 4163" transform="translate(67.96 110.348)" opacity="0.26">
                <g id="Group_4162" data-name="Group 4162">
                  <g id="Group_4161" data-name="Group 4161" clip-path="url(#clip-path-16)">
                    <path id="Path_18909" data-name="Path 18909" d="M151.592,232.55l-8.5,0a.546.546,0,0,1-.546-.546v-1.618a.546.546,0,0,1,.546-.547l8.5,0a.546.546,0,0,1,.547.546V232a.546.546,0,0,1-.546.547" transform="translate(-142.066 -229.838)" fill="#3e479b"/>
                    <path id="Path_18910" data-name="Path 18910" d="M142.029,243.125a.48.48,0,0,1,0-.96l16.373-.007h0a.48.48,0,0,1,0,.96Z" transform="translate(-141.549 -236.243)" fill="#3e479b"/>
                    <path id="Path_18911" data-name="Path 18911" d="M142.032,250.258a.48.48,0,0,1,0-.96l26.7-.012a.48.48,0,1,1,0,.96l-26.7.012Z" transform="translate(-141.551 -239.949)" fill="#3e479b"/>
                    <path id="Path_18912" data-name="Path 18912" d="M183.735,243.106a.48.48,0,0,1,0-.96l16.373-.007a.48.48,0,0,1,0,.96Z" transform="translate(-163.231 -236.233)" fill="#3e479b"/>
                  </g>
                </g>
              </g>
              <path id="Path_18913" data-name="Path 18913" d="M118.487,194.15l-10.744,0a2.187,2.187,0,0,1-2.188-2.186l0-10.744a2.187,2.187,0,0,1,2.186-2.188l10.744,0a2.187,2.187,0,0,1,2.188,2.186l0,10.744a2.187,2.187,0,0,1-2.186,2.188" transform="translate(-54.874 -93.076)" fill="#f7a9b4"/>
              <g id="Group_4166" data-name="Group 4166" transform="translate(54.975 90.329)" opacity="0.43">
                <g id="Group_4165" data-name="Group 4165">
                  <g id="Group_4164" data-name="Group 4164" clip-path="url(#clip-path-15)">
                    <path id="Path_18914" data-name="Path 18914" d="M121.029,191.4a3.262,3.262,0,1,1-3.264-3.261,3.262,3.262,0,0,1,3.264,3.261" transform="translate(-114.504 -188.141)" fill="#fff"/>
                  </g>
                </g>
              </g>
              <g id="Group_4169" data-name="Group 4169" transform="translate(67.95 88.307)" opacity="0.26">
                <g id="Group_4168" data-name="Group 4168">
                  <g id="Group_4167" data-name="Group 4167" clip-path="url(#clip-path-20)">
                    <path id="Path_18915" data-name="Path 18915" d="M151.572,186.64l-8.5,0a.546.546,0,0,1-.546-.546v-1.618a.547.547,0,0,1,.546-.547l8.5,0a.546.546,0,0,1,.547.546v1.618a.546.546,0,0,1-.546.547" transform="translate(-142.046 -183.928)" fill="#3e479b"/>
                    <path id="Path_18916" data-name="Path 18916" d="M142.009,197.221a.48.48,0,0,1,0-.96l7.573,0a.48.48,0,0,1,0,.96l-7.573,0Z" transform="translate(-141.529 -190.338)" fill="#3e479b"/>
                    <path id="Path_18917" data-name="Path 18917" d="M142.012,204.353a.48.48,0,0,1,0-.96l15.539-.007a.48.48,0,0,1,0,.96l-15.539.007Z" transform="translate(-141.531 -194.044)" fill="#3e479b"/>
                    <path id="Path_18918" data-name="Path 18918" d="M164.382,197.207a.48.48,0,0,1,0-.96l15.122-.007a.48.48,0,0,1,0,.96l-15.121.007Z" transform="translate(-153.16 -190.329)" fill="#3e479b"/>
                    <path id="Path_18919" data-name="Path 18919" d="M201.743,197.194a.48.48,0,0,1,0-.96l7.573,0a.48.48,0,1,1,0,.96Z" transform="translate(-172.584 -190.324)" fill="#3e479b"/>
                  </g>
                </g>
              </g>
              <g id="Group_4172" data-name="Group 4172" transform="translate(125.18 99.676)" opacity="0.39">
                <g id="Group_4171" data-name="Group 4171">
                  <g id="Group_4170" data-name="Group 4170" clip-path="url(#clip-path-21)">
                    <path id="Path_18920" data-name="Path 18920" d="M294.734,209.237l.628,51.721a1.648,1.648,0,0,1-1.629,1.668L263.028,263a1.649,1.649,0,0,1-1.669-1.629l-.628-51.72a1.649,1.649,0,0,1,1.629-1.669l30.706-.373a1.649,1.649,0,0,1,1.669,1.629" transform="translate(-260.73 -207.608)" fill="#fff"/>
                  </g>
                </g>
              </g>
              <g id="Group_4175" data-name="Group 4175" transform="translate(125.18 99.676)" opacity="0.39">
                <g id="Group_4174" data-name="Group 4174">
                  <g id="Group_4173" data-name="Group 4173" clip-path="url(#clip-path-21)">
                    <path id="Path_18921" data-name="Path 18921" d="M294.734,209.237l.628,51.721a1.648,1.648,0,0,1-1.629,1.668L263.028,263a1.649,1.649,0,0,1-1.669-1.629l-.628-51.72a1.649,1.649,0,0,1,1.629-1.669l30.706-.373a1.649,1.649,0,0,1,1.669,1.629" transform="translate(-260.73 -207.608)" fill="#f7a9b4"/>
                  </g>
                </g>
              </g>
              <path id="Path_18922" data-name="Path 18922" d="M294.97,209.188l.032,2.663-34,.413-.033-2.745a1.577,1.577,0,0,1,1.559-1.6l30.766-.374a1.659,1.659,0,0,1,1.679,1.639" transform="translate(-135.672 -107.902)" fill="#f7a9b4"/>
              <path id="Path_18923" data-name="Path 18923" d="M265.071,212.613a.7.7,0,1,1,.695-.705.7.7,0,0,1-.695.705m-.009-1.12a.42.42,0,1,0,.423.417.42.42,0,0,0-.423-.417" transform="translate(-137.44 -109.807)" fill="#fff"/>
              <path id="Path_18924" data-name="Path 18924" d="M269.941,212.576a.7.7,0,1,1,.695-.705.7.7,0,0,1-.695.705m-.009-1.12a.42.42,0,1,0,.423.417.421.421,0,0,0-.423-.417" transform="translate(-139.971 -109.787)" fill="#fff"/>
              <path id="Path_18925" data-name="Path 18925" d="M274.677,212.54a.7.7,0,1,1,.695-.705.7.7,0,0,1-.695.705m-.009-1.12a.42.42,0,1,0,.423.417.42.42,0,0,0-.423-.417" transform="translate(-142.434 -109.769)" fill="#fff"/>
              <path id="Path_18926" data-name="Path 18926" d="M282.513,226.884,266.8,227a.28.28,0,0,1,0-.56l15.714-.119a.28.28,0,1,1,0,.56" transform="translate(-138.558 -117.663)" fill="#fff"/>
              <path id="Path_18927" data-name="Path 18927" d="M306.907,226.8l-3.261.024a.28.28,0,1,1,0-.56l3.261-.024a.28.28,0,1,1,0,.56" transform="translate(-157.714 -117.62)" fill="#fff"/>
              <path id="Path_18928" data-name="Path 18928" d="M282.718,254.056,267,254.175a.28.28,0,0,1,0-.56l15.714-.119a.28.28,0,1,1,0,.56" transform="translate(-138.665 -131.789)" fill="#fff"/>
              <path id="Path_18929" data-name="Path 18929" d="M307.112,253.974,303.85,254a.28.28,0,1,1,0-.56l3.261-.025a.28.28,0,1,1,0,.56" transform="translate(-157.821 -131.746)" fill="#fff"/>
              <path id="Path_18930" data-name="Path 18930" d="M282.611,239.853l-15.714.119a.28.28,0,0,1,0-.56l15.714-.119a.28.28,0,1,1,0,.56" transform="translate(-138.609 -124.405)" fill="#fff"/>
              <path id="Path_18931" data-name="Path 18931" d="M307,239.77l-3.261.024a.28.28,0,1,1,0-.56L307,239.21a.28.28,0,1,1,0,.56" transform="translate(-157.765 -124.362)" fill="#fff"/>
              <path id="Path_18932" data-name="Path 18932" d="M318.189,239.684l-3.261.024a.28.28,0,0,1,0-.56l3.261-.025a.28.28,0,0,1,0,.56" transform="translate(-163.58 -124.317)" fill="#fff"/>
              <path id="Path_18933" data-name="Path 18933" d="M277.323,233.348l-10.476.079a.28.28,0,0,1,0-.56l10.476-.079a.28.28,0,1,1,0,.56" transform="translate(-138.583 -121.023)" fill="#fff"/>
              <path id="Path_18934" data-name="Path 18934" d="M297.276,233.244l-4.6.035a.28.28,0,1,1,0-.56l4.6-.035a.28.28,0,1,1,0,.56" transform="translate(-152.014 -120.969)" fill="#fff"/>
              <path id="Path_18935" data-name="Path 18935" d="M291.012,246.91l-10.476.079a.28.28,0,0,1,0-.56l10.476-.08a.28.28,0,0,1,0,.56" transform="translate(-145.7 -128.074)" fill="#fff"/>
              <path id="Path_18936" data-name="Path 18936" d="M271.546,247.105l-4.6.035a.28.28,0,0,1,0-.56l4.6-.035a.28.28,0,1,1,0,.56" transform="translate(-138.638 -128.175)" fill="#fff"/>
              <path id="Path_18937" data-name="Path 18937" d="M282.788,263.216l-15.714.119a.28.28,0,1,1,0-.56l15.714-.119a.28.28,0,1,1,0,.56" transform="translate(-138.701 -136.551)" fill="#fff"/>
              <path id="Path_18938" data-name="Path 18938" d="M307.182,263.134l-3.261.024a.28.28,0,1,1,0-.56l3.261-.024a.28.28,0,1,1,0,.56" transform="translate(-157.857 -136.509)" fill="#fff"/>
              <path id="Path_18939" data-name="Path 18939" d="M282.993,290.387l-15.714.119a.28.28,0,0,1,0-.56l15.714-.119a.28.28,0,1,1,0,.56" transform="translate(-138.808 -150.677)" fill="#fff"/>
              <path id="Path_18940" data-name="Path 18940" d="M307.387,290.3l-3.261.025a.28.28,0,1,1,0-.56l3.261-.024a.28.28,0,1,1,0,.56" transform="translate(-157.964 -150.634)" fill="#fff"/>
              <path id="Path_18941" data-name="Path 18941" d="M282.886,276.184l-15.714.119a.28.28,0,1,1,0-.56l15.714-.119a.28.28,0,1,1,0,.56" transform="translate(-138.752 -143.293)" fill="#fff"/>
              <path id="Path_18942" data-name="Path 18942" d="M307.28,276.1l-3.261.025a.28.28,0,1,1,0-.56l3.261-.025a.28.28,0,1,1,0,.56" transform="translate(-157.908 -143.25)" fill="#fff"/>
              <path id="Path_18943" data-name="Path 18943" d="M318.464,276.018l-3.261.025a.28.28,0,1,1,0-.56l3.261-.024a.28.28,0,1,1,0,.56" transform="translate(-163.722 -143.207)" fill="#fff"/>
              <path id="Path_18944" data-name="Path 18944" d="M277.6,269.68l-10.476.079a.28.28,0,1,1,0-.56l10.476-.079a.28.28,0,1,1,0,.56" transform="translate(-138.726 -139.912)" fill="#fff"/>
              <path id="Path_18945" data-name="Path 18945" d="M297.551,269.577l-4.6.035a.28.28,0,1,1,0-.56l4.6-.035a.28.28,0,1,1,0,.56" transform="translate(-152.157 -139.858)" fill="#fff"/>
              <path id="Path_18946" data-name="Path 18946" d="M291.286,283.242l-10.476.079a.28.28,0,1,1,0-.56l10.476-.079a.28.28,0,1,1,0,.56" transform="translate(-145.843 -146.962)" fill="#fff"/>
              <path id="Path_18947" data-name="Path 18947" d="M271.822,283.437l-4.6.035a.28.28,0,0,1,0-.56l4.6-.035a.28.28,0,1,1,0,.56" transform="translate(-138.78 -147.064)" fill="#fff"/>
              <path id="Path_18948" data-name="Path 18948" d="M283.057,298.79l-15.714.119a.28.28,0,0,1,0-.56l15.714-.119a.28.28,0,1,1,0,.56" transform="translate(-138.841 -155.046)" fill="#fff"/>
              <path id="Path_18949" data-name="Path 18949" d="M307.451,298.707l-3.261.024a.28.28,0,1,1,0-.56l3.261-.025a.28.28,0,1,1,0,.56" transform="translate(-157.997 -155.002)" fill="#fff"/>
              <path id="Path_18950" data-name="Path 18950" d="M307.581,315.864l-3.261.024a.28.28,0,1,1,0-.56l3.261-.025a.28.28,0,1,1,0,.56" transform="translate(-158.065 -163.922)" fill="#fff"/>
              <path id="Path_18951" data-name="Path 18951" d="M318.765,315.779l-3.261.024a.28.28,0,0,1,0-.56l3.261-.025a.28.28,0,0,1,0,.56" transform="translate(-163.879 -163.878)" fill="#fff"/>
              <path id="Path_18952" data-name="Path 18952" d="M277.867,305.254l-10.476.079a.28.28,0,0,1,0-.56l10.476-.079a.28.28,0,1,1,0,.56" transform="translate(-138.866 -158.406)" fill="#fff"/>
              <path id="Path_18953" data-name="Path 18953" d="M297.82,305.151l-4.6.035a.28.28,0,1,1,0-.56l4.6-.035a.28.28,0,1,1,0,.56" transform="translate(-152.296 -158.353)" fill="#fff"/>
              <g id="Group_4178" data-name="Group 4178" transform="translate(128.486 20.796)" opacity="0.22">
                <g id="Group_4177" data-name="Group 4177">
                  <g id="Group_4176" data-name="Group 4176" clip-path="url(#clip-path-23)">
                    <path id="Path_18954" data-name="Path 18954" d="M307.884,44.947l.632,61.859a1.649,1.649,0,0,1-1.632,1.666l-36.972.378a1.649,1.649,0,0,1-1.666-1.632l-.632-61.859a1.648,1.648,0,0,1,1.632-1.666l36.972-.378a1.649,1.649,0,0,1,1.666,1.632" transform="translate(-267.615 -43.315)" fill="#3e479b"/>
                  </g>
                </g>
              </g>
              <path id="Path_18955" data-name="Path 18955" d="M303.3,38.98l.632,61.859A1.649,1.649,0,0,1,302.3,102.5l-36.972.378a1.649,1.649,0,0,1-1.665-1.632l-.632-61.858a1.649,1.649,0,0,1,1.632-1.666l36.972-.377A1.649,1.649,0,0,1,303.3,38.98" transform="translate(-136.745 -19.417)" fill="#fff"/>
              <path id="Path_18956" data-name="Path 18956" d="M303.578,38.92l.036,3.46-40.27.411-.036-3.541a1.578,1.578,0,0,1,1.562-1.594l37.032-.378a1.66,1.66,0,0,1,1.676,1.642" transform="translate(-136.89 -19.38)" fill="#599af2"/>
              <path id="Path_18957" data-name="Path 18957" d="M336.574,41.121a.24.24,0,0,1,0-.48l3.02-.031a.24.24,0,0,1,0,.48l-3.02.031Z" transform="translate(-174.855 -21.112)" fill="#fff"/>
              <path id="Path_18958" data-name="Path 18958" d="M336.59,42.73a.24.24,0,0,1,0-.48l3.02-.031a.261.261,0,0,1,.242.238.24.24,0,0,1-.238.242l-3.02.031Z" transform="translate(-174.864 -21.949)" fill="#fff"/>
              <path id="Path_18959" data-name="Path 18959" d="M336.607,44.337a.24.24,0,0,1,0-.48l3.02-.031h0a.24.24,0,0,1,0,.48l-3.02.031Z" transform="translate(-174.872 -22.785)" fill="#fff"/>
              <path id="Path_18960" data-name="Path 18960" d="M269.363,43.568a.238.238,0,0,1-.168-.069l-1.108-1.086a.335.335,0,0,1-.006-.472l1.045-1.066a.24.24,0,0,1,.343.336l-.942.961,1,.984a.24.24,0,0,1-.168.411" transform="translate(-139.322 -21.213)" fill="#fff"/>
              <g id="Group_4181" data-name="Group 4181" transform="translate(126.668 68.713)" opacity="0.36">
                <g id="Group_4180" data-name="Group 4180">
                  <g id="Group_4179" data-name="Group 4179" clip-path="url(#clip-path-24)">
                    <path id="Path_18961" data-name="Path 18961" d="M302.627,157.6l-37.1.209a1.62,1.62,0,0,1-1.63-1.611l-.073-12.856,40.338-.227.073,12.856a1.62,1.62,0,0,1-1.611,1.63" transform="translate(-263.828 -143.118)" fill="#599af2"/>
                  </g>
                </g>
              </g>
              <path id="Path_18962" data-name="Path 18962" d="M304.141,63.957l-16.2.091a.536.536,0,0,1-.539-.533l-.01-1.775a.537.537,0,0,1,.533-.54l16.2-.091a.537.537,0,0,1,.54.533l.01,1.774a.536.536,0,0,1-.533.54" transform="translate(-149.408 -31.77)" fill="#4c65ba"/>
              <g id="Group_4184" data-name="Group 4184" transform="translate(131.203 38.683)" opacity="0.32">
                <g id="Group_4183" data-name="Group 4183">
                  <g id="Group_4182" data-name="Group 4182" clip-path="url(#clip-path-25)">
                    <path id="Path_18963" data-name="Path 18963" d="M301.972,85.673l-26.409.149a2.272,2.272,0,0,1-2.285-2.259l0-.557a2.272,2.272,0,0,1,2.259-2.285l26.409-.149a2.272,2.272,0,0,1,2.285,2.259l0,.557a2.272,2.272,0,0,1-2.259,2.285" transform="translate(-273.275 -80.571)" fill="#599af2"/>
                  </g>
                </g>
              </g>
              <g id="Group_4187" data-name="Group 4187" transform="translate(132.303 39.83)" opacity="0.43">
                <g id="Group_4186" data-name="Group 4186">
                  <g id="Group_4185" data-name="Group 4185" clip-path="url(#clip-path-26)">
                    <path id="Path_18964" data-name="Path 18964" d="M278.707,84.521a1.57,1.57,0,1,1-1.579-1.561,1.57,1.57,0,0,1,1.579,1.561" transform="translate(-275.566 -82.96)" fill="#fff"/>
                  </g>
                </g>
              </g>
              <path id="Path_18965" data-name="Path 18965" d="M278.785,84.68a.566.566,0,1,1-.569-.563.566.566,0,0,1,.569.563" transform="translate(-144.348 -43.731)" fill="#fff"/>
              <path id="Path_18966" data-name="Path 18966" d="M278.779,87.16l-1.678.01v-.206a.881.881,0,0,1,.876-.886.8.8,0,0,1,.8.792Z" transform="translate(-144.06 -44.75)" fill="#fff"/>
              <g id="Group_4190" data-name="Group 4190" transform="translate(131.25 46.995)" opacity="0.32">
                <g id="Group_4189" data-name="Group 4189">
                  <g id="Group_4188" data-name="Group 4188" clip-path="url(#clip-path-25)">
                    <path id="Path_18967" data-name="Path 18967" d="M302.07,102.983l-26.409.149a2.272,2.272,0,0,1-2.285-2.259l0-.557a2.272,2.272,0,0,1,2.259-2.285l26.409-.149a2.272,2.272,0,0,1,2.285,2.259l0,.557a2.272,2.272,0,0,1-2.259,2.285" transform="translate(-273.373 -97.882)" fill="#599af2"/>
                  </g>
                </g>
              </g>
              <g id="Group_4193" data-name="Group 4193" transform="translate(132.35 48.141)" opacity="0.43">
                <g id="Group_4192" data-name="Group 4192">
                  <g id="Group_4191" data-name="Group 4191" clip-path="url(#clip-path-28)">
                    <path id="Path_18968" data-name="Path 18968" d="M278.8,101.831a1.57,1.57,0,1,1-1.579-1.561,1.57,1.57,0,0,1,1.579,1.561" transform="translate(-275.664 -100.27)" fill="#fff"/>
                  </g>
                </g>
              </g>
              <path id="Path_18969" data-name="Path 18969" d="M278.728,104.242l-1.055.006a.155.155,0,0,1-.156-.154l-.005-.938a.155.155,0,0,1,.154-.156l1.055-.006a.155.155,0,0,1,.157.154l.005.938a.155.155,0,0,1-.155.156" transform="translate(-144.275 -53.545)" fill="#fff"/>
              <path id="Path_18970" data-name="Path 18970" d="M277.787,102.4l0-.388a.384.384,0,0,1,.382-.386l.356,0h0a.344.344,0,0,1,.345.344l0,.426h-.12l0-.427a.225.225,0,0,0-.225-.224h0l-.356,0a.263.263,0,0,0-.263.266l0,.388Z" transform="translate(-144.417 -52.832)" fill="#fff"/>
              <path id="Path_18971" data-name="Path 18971" d="M303.616,122.438l-11.392.064a2.5,2.5,0,0,1-.028-4.994l11.392-.064a2.5,2.5,0,0,1,.028,4.994" transform="translate(-150.618 -61.057)" fill="#f7a9b4"/>
              <path id="Path_18972" data-name="Path 18972" d="M282.415,153.458a.48.48,0,0,1,0-.96l22.046-.124h0a.48.48,0,0,1,0,.96l-22.046.124Z" transform="translate(-146.574 -79.217)" fill="#fff"/>
              <path id="Path_18973" data-name="Path 18973" d="M291.762,160.417a.48.48,0,0,1,0-.96l13.109-.074h0a.48.48,0,0,1,0,.96l-13.109.074Z" transform="translate(-151.433 -82.861)" fill="#fff"/>
              <g id="Group_4196" data-name="Group 4196" transform="translate(100.328 62.792)" opacity="0.22">
                <g id="Group_4195" data-name="Group 4195">
                  <g id="Group_4194" data-name="Group 4194" clip-path="url(#clip-path-29)">
                    <path id="Path_18974" data-name="Path 18974" d="M249.237,132.417l.632,61.859a1.649,1.649,0,0,1-1.632,1.666l-36.972.378a1.649,1.649,0,0,1-1.666-1.632l-.632-61.859a1.649,1.649,0,0,1,1.632-1.666l36.972-.377a1.649,1.649,0,0,1,1.665,1.632" transform="translate(-208.967 -130.785)" fill="#3e479b"/>
                  </g>
                </g>
              </g>
              <path id="Path_18975" data-name="Path 18975" d="M244.65,126.45l.632,61.859a1.649,1.649,0,0,1-1.632,1.666l-36.972.378a1.649,1.649,0,0,1-1.666-1.632l-.632-61.859a1.649,1.649,0,0,1,1.632-1.666l36.972-.377a1.649,1.649,0,0,1,1.666,1.632" transform="translate(-106.255 -64.891)" fill="#fff"/>
              <g id="Group_4199" data-name="Group 4199" transform="translate(98.126 59.927)" opacity="0.42">
                <g id="Group_4198" data-name="Group 4198">
                  <g id="Group_4197" data-name="Group 4197" clip-path="url(#clip-path-23)">
                    <path id="Path_18976" data-name="Path 18976" d="M244.65,126.45l.632,61.859a1.649,1.649,0,0,1-1.632,1.666l-36.972.378a1.649,1.649,0,0,1-1.666-1.632l-.632-61.859a1.649,1.649,0,0,1,1.632-1.666l36.972-.377a1.649,1.649,0,0,1,1.666,1.632" transform="translate(-204.381 -124.818)" fill="#599af2"/>
                  </g>
                </g>
              </g>
              <path id="Path_18977" data-name="Path 18977" d="M244.93,126.39l.036,3.46-40.27.411-.036-3.541a1.578,1.578,0,0,1,1.562-1.594l37.032-.378a1.66,1.66,0,0,1,1.676,1.642" transform="translate(-106.4 -64.855)" fill="#599af2"/>
              <path id="Path_18978" data-name="Path 18978" d="M277.926,128.593a.24.24,0,0,1,0-.48l3.02-.03a.254.254,0,0,1,.242.238.24.24,0,0,1-.238.242l-3.02.03Z" transform="translate(-144.365 -66.589)" fill="#fff"/>
              <path id="Path_18979" data-name="Path 18979" d="M277.943,130.2a.24.24,0,0,1,0-.48l3.02-.031h0a.24.24,0,0,1,0,.48l-3.02.031Z" transform="translate(-144.374 -67.424)" fill="#fff"/>
              <path id="Path_18980" data-name="Path 18980" d="M277.959,131.808a.24.24,0,0,1,0-.48l3.02-.031h0a.24.24,0,0,1,0,.48l-3.02.031Z" transform="translate(-144.382 -68.259)" fill="#fff"/>
              <path id="Path_18981" data-name="Path 18981" d="M210.716,131.038a.238.238,0,0,1-.168-.069l-1.108-1.086a.334.334,0,0,1-.006-.471l1.045-1.067a.24.24,0,0,1,.343.336l-.942.961,1,.984a.24.24,0,0,1-.168.411" transform="translate(-108.833 -66.688)" fill="#fff"/>
              <g id="Group_4202" data-name="Group 4202" transform="translate(98.268 110.467)" opacity="0.36">
                <g id="Group_4201" data-name="Group 4201">
                  <g id="Group_4200" data-name="Group 4200" clip-path="url(#clip-path-31)">
                    <path id="Path_18982" data-name="Path 18982" d="M243.979,245.073l-37.1.209a1.62,1.62,0,0,1-1.63-1.611l-.072-12.856,40.338-.227.072,12.856a1.62,1.62,0,0,1-1.611,1.63" transform="translate(-204.939 -230.347)" fill="#fff"/>
                    <path id="Path_18983" data-name="Path 18983" d="M206.61,245.261a1.86,1.86,0,0,1-1.859-1.85l-.074-13.1,40.818-.23.073,13.1a1.862,1.862,0,0,1-1.85,1.871l-37.1.209Zm-1.45-14.468.071,12.615a1.381,1.381,0,0,0,1.38,1.373h.008l37.1-.209a1.382,1.382,0,0,0,1.372-1.388l-.071-12.615Z" transform="translate(-204.677 -230.085)" fill="#fff"/>
                  </g>
                </g>
              </g>
              <path id="Path_18984" data-name="Path 18984" d="M247.134,150.906l-29.079-.036a.937.937,0,0,1-.936-.938l0-2.9a.936.936,0,0,1,.938-.936l29.079.036a.936.936,0,0,1,.936.938l0,2.9a.937.937,0,0,1-.938.936" transform="translate(-112.877 -75.953)" fill="#fff"/>
              <path id="Path_18985" data-name="Path 18985" d="M247.27,162.065l-29.371-.036a.791.791,0,0,1,0-1.582l29.37.036a.791.791,0,1,1,0,1.582" transform="translate(-112.872 -83.414)" fill="#fff"/>
              <path id="Path_18986" data-name="Path 18986" d="M247.261,169.664l-29.371-.036a.791.791,0,0,1,0-1.582l29.37.036a.791.791,0,1,1,0,1.582" transform="translate(-112.867 -87.365)" fill="#fff"/>
              <path id="Path_18987" data-name="Path 18987" d="M221.066,180.4a1.991,1.991,0,1,1-1.989-1.993,1.991,1.991,0,0,1,1.989,1.993" transform="translate(-112.859 -92.749)" fill="#f7a9b4"/>
              <path id="Path_18988" data-name="Path 18988" d="M221.043,199.2a1.991,1.991,0,1,1-1.989-1.993,1.991,1.991,0,0,1,1.989,1.993" transform="translate(-112.847 -102.523)" fill="#f7a9b4"/>
              <path id="Path_18989" data-name="Path 18989" d="M221.02,217.444a1.992,1.992,0,1,1-1.989-1.993,1.992,1.992,0,0,1,1.989,1.993" transform="translate(-112.834 -112.01)" fill="#f7a9b4"/>
              <path id="Path_18990" data-name="Path 18990" d="M246.522,180.537h0l-19.051-.024a.24.24,0,0,1,0-.48h0l19.051.024a.24.24,0,0,1,0,.48" transform="translate(-118.134 -93.597)" fill="#fff"/>
              <path id="Path_18991" data-name="Path 18991" d="M236.992,184.746h0l-9.525-.012a.24.24,0,0,1,0-.48h0l9.525.012a.24.24,0,0,1,0,.48" transform="translate(-118.132 -95.791)" fill="#fff"/>
              <path id="Path_18992" data-name="Path 18992" d="M246.5,199.954h0l-19.051-.024a.24.24,0,0,1,0-.48h0l19.051.024a.24.24,0,0,1,0,.48" transform="translate(-118.121 -103.691)" fill="#fff"/>
              <path id="Path_18993" data-name="Path 18993" d="M236.968,204.163h0l-9.525-.012a.24.24,0,0,1,0-.48h0l9.525.012a.24.24,0,0,1,0,.48" transform="translate(-118.119 -105.886)" fill="#fff"/>
              <path id="Path_18994" data-name="Path 18994" d="M246.476,217.684h0l-19.051-.024a.24.24,0,0,1,0-.48h0l19.051.024a.24.24,0,0,1,0,.48" transform="translate(-118.11 -112.909)" fill="#fff"/>
              <path id="Path_18995" data-name="Path 18995" d="M236.945,221.894h0l-9.526-.012a.24.24,0,0,1,0-.48h0l9.526.012a.24.24,0,0,1,0,.48" transform="translate(-118.107 -115.104)" fill="#fff"/>
              <path id="Path_18996" data-name="Path 18996" d="M223.768,240.929a.48.48,0,0,1,0-.96l22.046-.124h0a.48.48,0,0,1,0,.96l-22.046.124Z" transform="translate(-116.084 -124.692)" fill="#fff"/>
              <path id="Path_18997" data-name="Path 18997" d="M233.114,247.888a.48.48,0,0,1,0-.96l13.109-.074h0a.48.48,0,0,1,0,.96l-13.108.074Z" transform="translate(-120.943 -128.336)" fill="#fff"/>
              <path id="Path_18998" data-name="Path 18998" d="M73,94.215H38.583a.774.774,0,0,1-.774-.774v-10a.774.774,0,0,1,.774-.774H73a.774.774,0,0,1,.774.774v10a.774.774,0,0,1-.774.774" transform="translate(-19.656 -42.975)" fill="#599af2"/>
              <path id="Path_18999" data-name="Path 18999" d="M46.377,93.928A3.719,3.719,0,1,1,50.1,90.208a3.723,3.723,0,0,1-3.719,3.719" transform="translate(-22.177 -44.964)" fill="#f7a9b4"/>
              <path id="Path_19000" data-name="Path 19000" d="M48.138,91.018l-1.39-1.923a.367.367,0,1,1,.6-.43l.886,1.224,4.422-4.423a.363.363,0,0,1,.259-.108h0a.367.367,0,0,1,.26.627Z" transform="translate(-24.267 -44.377)" fill="#fff"/>
              <line id="Line_83" data-name="Line 83" x2="18.402" transform="translate(31.067 43.556)" fill="#fff"/>
              <g id="Group_4205" data-name="Group 4205" transform="translate(30.827 43.316)" opacity="0.38">
                <g id="Group_4204" data-name="Group 4204">
                  <g id="Group_4203" data-name="Group 4203" clip-path="url(#clip-path-32)">
                    <path id="Path_19001" data-name="Path 19001" d="M82.85,90.7h-18.4a.24.24,0,0,1,0-.48h18.4a.24.24,0,0,1,0,.48" transform="translate(-64.208 -90.22)" fill="#fff"/>
                  </g>
                </g>
              </g>
              <line id="Line_84" data-name="Line 84" x2="8.222" transform="translate(31.067 45.739)" fill="#fff"/>
              <g id="Group_4208" data-name="Group 4208" transform="translate(30.827 45.499)" opacity="0.38">
                <g id="Group_4207" data-name="Group 4207">
                  <g id="Group_4206" data-name="Group 4206" clip-path="url(#clip-path-33)">
                    <path id="Path_19002" data-name="Path 19002" d="M72.671,95.247H64.449a.24.24,0,0,1,0-.48h8.222a.24.24,0,1,1,0,.48" transform="translate(-64.209 -94.767)" fill="#fff"/>
                  </g>
                </g>
              </g>
              <line id="Line_85" data-name="Line 85" x2="8.222" transform="translate(41.247 45.739)" fill="#fff"/>
              <g id="Group_4211" data-name="Group 4211" transform="translate(41.007 45.499)" opacity="0.38">
                <g id="Group_4210" data-name="Group 4210">
                  <g id="Group_4209" data-name="Group 4209" clip-path="url(#clip-path-33)">
                    <path id="Path_19003" data-name="Path 19003" d="M93.873,95.247H85.651a.24.24,0,0,1,0-.48h8.222a.24.24,0,0,1,0,.48" transform="translate(-85.411 -94.767)" fill="#fff"/>
                  </g>
                </g>
              </g>
              <line id="Line_86" data-name="Line 86" x2="18.402" transform="translate(31.067 48.024)" fill="#fff"/>
              <g id="Group_4214" data-name="Group 4214" transform="translate(30.827 47.784)" opacity="0.38">
                <g id="Group_4213" data-name="Group 4213">
                  <g id="Group_4212" data-name="Group 4212" clip-path="url(#clip-path-32)">
                    <path id="Path_19004" data-name="Path 19004" d="M82.85,100.006h-18.4a.24.24,0,0,1,0-.48h18.4a.24.24,0,0,1,0,.48" transform="translate(-64.208 -99.526)" fill="#fff"/>
                  </g>
                </g>
              </g>
              <path id="Path_19005" data-name="Path 19005" d="M347.188,204.769H312.77a.774.774,0,0,1-.774-.774v-10a.774.774,0,0,1,.774-.774h34.418a.774.774,0,0,1,.774.774v10a.774.774,0,0,1-.774.774" transform="translate(-162.202 -100.451)" fill="#599af2"/>
              <path id="Path_19006" data-name="Path 19006" d="M320.564,204.483a3.719,3.719,0,1,1,3.719-3.719,3.724,3.724,0,0,1-3.719,3.719" transform="translate(-164.723 -102.44)" fill="#f7a9b4"/>
              <path id="Path_19007" data-name="Path 19007" d="M322.325,201.573l-1.391-1.923a.368.368,0,0,1,.083-.513.359.359,0,0,1,.273-.065.364.364,0,0,1,.24.149l.885,1.223,4.422-4.422a.367.367,0,1,1,.519.519Zm-1.185-2.072h0Z" transform="translate(-166.813 -101.853)" fill="#fff"/>
              <line id="Line_87" data-name="Line 87" x2="18.402" transform="translate(162.708 96.635)" fill="#fff"/>
              <g id="Group_4217" data-name="Group 4217" transform="translate(162.468 96.395)" opacity="0.38">
                <g id="Group_4216" data-name="Group 4216">
                  <g id="Group_4215" data-name="Group 4215" clip-path="url(#clip-path-32)">
                    <path id="Path_19008" data-name="Path 19008" d="M357.037,201.255h-18.4a.24.24,0,1,1,0-.48h18.4a.24.24,0,0,1,0,.48" transform="translate(-338.395 -200.775)" fill="#fff"/>
                  </g>
                </g>
              </g>
              <line id="Line_88" data-name="Line 88" x2="8.222" transform="translate(162.708 98.818)" fill="#fff"/>
              <g id="Group_4220" data-name="Group 4220" transform="translate(162.468 98.578)" opacity="0.38">
                <g id="Group_4219" data-name="Group 4219">
                  <g id="Group_4218" data-name="Group 4218" clip-path="url(#clip-path-33)">
                    <path id="Path_19009" data-name="Path 19009" d="M346.858,205.8h-8.222a.24.24,0,1,1,0-.48h8.222a.24.24,0,1,1,0,.48" transform="translate(-338.396 -205.322)" fill="#fff"/>
                  </g>
                </g>
              </g>
              <line id="Line_89" data-name="Line 89" x2="8.222" transform="translate(172.888 98.818)" fill="#fff"/>
              <g id="Group_4223" data-name="Group 4223" transform="translate(172.648 98.578)" opacity="0.38">
                <g id="Group_4222" data-name="Group 4222">
                  <g id="Group_4221" data-name="Group 4221" clip-path="url(#clip-path-33)">
                    <path id="Path_19010" data-name="Path 19010" d="M368.061,205.8h-8.222a.24.24,0,0,1,0-.48h8.222a.24.24,0,0,1,0,.48" transform="translate(-359.598 -205.322)" fill="#fff"/>
                  </g>
                </g>
              </g>
              <line id="Line_90" data-name="Line 90" x2="18.402" transform="translate(162.708 101.102)" fill="#fff"/>
              <g id="Group_4226" data-name="Group 4226" transform="translate(162.468 100.862)" opacity="0.38">
                <g id="Group_4225" data-name="Group 4225">
                  <g id="Group_4224" data-name="Group 4224" clip-path="url(#clip-path-32)">
                    <path id="Path_19011" data-name="Path 19011" d="M357.037,210.56h-18.4a.24.24,0,0,1,0-.48h18.4a.24.24,0,1,1,0,.48" transform="translate(-338.395 -210.08)" fill="#fff"/>
                  </g>
                </g>
              </g>
            </g>
          </g>
        </g>
      </g>
    </g>
  </g>
</svg>
