<svg xmlns="http://www.w3.org/2000/svg" width="25" height="25" viewBox="0 0 25 25">
  <g id="email" transform="translate(-904 -5289)">
    <rect id="Rectangle_2478" data-name="Rectangle 2478" width="25" height="25" transform="translate(904 5289)" fill="none"/>
    <g id="envelope" transform="translate(907 5295)">
      <g id="Group_1292" data-name="Group 1292" transform="translate(0 0)">
        <path id="Path_1214" data-name="Path 1214" d="M1.79,59.087q.354.236,2.134,1.4t2.727,1.794q.1.069.442.3t.562.374q.224.142.541.319a3.228,3.228,0,0,0,.6.265,1.736,1.736,0,0,0,.52.088h.021a1.738,1.738,0,0,0,.52-.088,3.231,3.231,0,0,0,.6-.265q.317-.177.541-.319t.562-.374q.338-.231.442-.3l4.871-3.2a4.814,4.814,0,0,0,1.27-1.209,2.5,2.5,0,0,0,.51-1.484,1.467,1.467,0,0,0-.495-1.111,1.657,1.657,0,0,0-1.171-.462H1.665a1.525,1.525,0,0,0-1.233.511A1.913,1.913,0,0,0,0,56.609a2.227,2.227,0,0,0,.572,1.342A5.041,5.041,0,0,0,1.79,59.087Z" transform="translate(0 -54.82)"/>
        <path id="Path_1215" data-name="Path 1215" d="M17.61,185.292q-3.413,2.183-5.183,3.392-.593.413-.963.644a6.081,6.081,0,0,1-.984.472,3.144,3.144,0,0,1-1.145.241H9.315A3.145,3.145,0,0,1,8.17,189.8a6.084,6.084,0,0,1-.984-.472q-.369-.231-.963-.644-1.405-.973-5.173-3.392A5.439,5.439,0,0,1,0,184.437v7.807a1.474,1.474,0,0,0,.489,1.111,1.652,1.652,0,0,0,1.176.462H16.986a1.652,1.652,0,0,0,1.176-.462,1.474,1.474,0,0,0,.489-1.111v-7.807A5.656,5.656,0,0,1,17.61,185.292Z" transform="translate(0 -179.973)"/>
      </g>
    </g>
  </g>
</svg>
