<svg xmlns="http://www.w3.org/2000/svg" width="25" height="25" viewBox="0 0 25 25">
  <g id="phone" transform="translate(-1241 -5216)">
    <rect id="Rectangle_2482" data-name="Rectangle 2482" width="25" height="25" transform="translate(1241 5216)" fill="none"/>
    <g id="old-handphone" transform="translate(1245 5220)">
      <path id="Path_1213" data-name="Path 1213" d="M5.5,5.792,1.455,1.75,3.02.183A.62.62,0,0,1,3.894.176l3.147,3.15a.623.623,0,0,1,0,.879l-.689.688-.642.642A1.767,1.767,0,0,0,5.5,5.792Zm3.324,6.584c-.661-.569-1.3-1.174-1.912-1.788S5.69,9.336,5.12,8.672a1.99,1.99,0,0,1-.314-1.977L.659,2.547C-.306,3.539-.183,6,.875,8.161a15.561,15.561,0,0,0,1.651,2.581A23.135,23.135,0,0,0,4.5,13a22.038,22.038,0,0,0,2.251,1.983A15.566,15.566,0,0,0,9.33,16.629c2.165,1.056,4.626,1.172,5.617.206L10.8,12.688A2,2,0,0,1,8.819,12.376Zm8.5,1.224-3.147-3.148a.627.627,0,0,0-.879,0h0l-.691.69-.638.641A1.935,1.935,0,0,1,11.7,12l4.039,4.041q.784-.785,1.567-1.565A.616.616,0,0,0,17.314,13.6Z" transform="translate(-0.003 0)"/>
    </g>
  </g>
</svg>
