<svg xmlns="http://www.w3.org/2000/svg" xmlns:xlink="http://www.w3.org/1999/xlink" width="631.001" height="335.226" viewBox="0 0 631.001 335.226">
  <defs>
    <clipPath id="clip-path">
      <rect id="Rectangle_1354" data-name="Rectangle 1354" width="631.001" height="335.226" fill="none"/>
    </clipPath>
    <clipPath id="clip-path-2">
      <path id="Path_20154" data-name="Path 20154" d="M271.687,110.648a28.644,28.644,0,1,1,28.644,28.644,28.644,28.644,0,0,1-28.644-28.644m-25.428,0a54.072,54.072,0,1,0,54.072-54.072,54.072,54.072,0,0,0-54.072,54.072" transform="translate(-246.259 -56.576)" fill="none"/>
    </clipPath>
  </defs>
  <g id="Group_4788" data-name="Group 4788" transform="translate(709 -323)">
    <g id="Group_4794" data-name="Group 4794" transform="translate(-709 323)">
      <g id="Group_4789" data-name="Group 4789" transform="translate(0 0)">
        <g id="Group_4788-2" data-name="Group 4788" clip-path="url(#clip-path)">
          <path id="Path_20140" data-name="Path 20140" d="M619.557,1436.005c-100.325-40.8-577.684-22.991-608.654-10.884s6.031,20.257,85.74,15.775,182.266.5,270.355,2.9,317.6,18.662,252.56-7.79" transform="translate(0 -1115.708)" fill="#9bd6e8"/>
          <path id="Path_20141" data-name="Path 20141" d="M1817.308,119.86a71.956,71.956,0,0,0,.45-8.007c0-1.428-.047-2.846-.13-4.254l-13.229-4.28a58.171,58.171,0,0,0-4.685-15.851l8.772-10.795a71.46,71.46,0,0,0-6.948-10.1l-13.231,4.317a58.782,58.782,0,0,0-13.1-10.068l.752-13.9a70.772,70.772,0,0,0-11.55-4.093L1756.24,54.1a58.833,58.833,0,0,0-16.517-.433l-7.565-11.692a70.751,70.751,0,0,0-11.751,3.473l.017,13.922a58.692,58.692,0,0,0-13.613,9.364l-12.98-5.009a71.6,71.6,0,0,0-7.476,9.72l8.192,11.246a58.146,58.146,0,0,0-5.523,15.58l-13.436,3.575a72.069,72.069,0,0,0-.45,8.006c0,1.429.047,2.846.13,4.254l13.23,4.28a58.136,58.136,0,0,0,4.684,15.851l-8.772,10.795a71.488,71.488,0,0,0,6.949,10.1l13.231-4.317a58.811,58.811,0,0,0,13.1,10.068l-.752,13.9a70.776,70.776,0,0,0,11.55,4.093l8.17-11.275a58.811,58.811,0,0,0,16.517.433l7.564,11.692a70.739,70.739,0,0,0,11.752-3.473l-.017-13.922a58.7,58.7,0,0,0,13.613-9.364l12.981,5.009a71.582,71.582,0,0,0,7.475-9.719l-8.191-11.245a58.175,58.175,0,0,0,5.522-15.58Zm-70.86,19.963a27.969,27.969,0,1,1,27.969-27.969,27.969,27.969,0,0,1-27.969,27.969" transform="translate(-1324.908 -33.2)" fill="#9ec8ff"/>
          <path id="Path_20142" data-name="Path 20142" d="M2194.714,344.627a1.045,1.045,0,0,1-.8-1.714,47.317,47.317,0,0,0,8.337-45.576,1.045,1.045,0,1,1,1.976-.681,49.408,49.408,0,0,1-8.706,47.594,1.042,1.042,0,0,1-.8.377" transform="translate(-1735.026 -234.075)" fill="#fff"/>
          <path id="Path_20143" data-name="Path 20143" d="M2112.46,166.369a1.042,1.042,0,0,1-.717-.284,46.963,46.963,0,0,0-16.263-10.02,1.045,1.045,0,1,1,.713-1.965,49.051,49.051,0,0,1,16.983,10.463,1.046,1.046,0,0,1-.717,1.807" transform="translate(-1656.821 -121.831)" fill="#fff"/>
          <path id="Path_20144" data-name="Path 20144" d="M1960.368,143.812a1.046,1.046,0,0,1-.255-2.059,49.515,49.515,0,0,1,12.11-1.5,1.045,1.045,0,1,1,0,2.091,47.425,47.425,0,0,0-11.6,1.434,1.043,1.043,0,0,1-.257.032" transform="translate(-1549.677 -110.93)" fill="#fff"/>
          <path id="Path_20145" data-name="Path 20145" d="M2431.7,297.61a49.932,49.932,0,0,0,.312-5.546c0-.99-.032-1.971-.09-2.946l-9.164-2.965a40.287,40.287,0,0,0-3.244-10.979l6.075-7.477a49.452,49.452,0,0,0-4.812-7l-9.165,2.99a40.743,40.743,0,0,0-9.073-6.974l.521-9.629a49.016,49.016,0,0,0-8-2.835l-5.659,7.809a40.759,40.759,0,0,0-11.44-.3l-5.24-8.1a49.051,49.051,0,0,0-8.14,2.405l.012,9.643a40.645,40.645,0,0,0-9.429,6.486l-8.99-3.469a49.533,49.533,0,0,0-5.178,6.732l5.674,7.789a40.294,40.294,0,0,0-3.825,10.791l-9.306,2.477a49.87,49.87,0,0,0-.312,5.545c0,.989.033,1.971.09,2.946l9.163,2.965a40.3,40.3,0,0,0,3.244,10.979l-6.076,7.477a49.508,49.508,0,0,0,4.813,7l9.165-2.99a40.734,40.734,0,0,0,9.072,6.973l-.521,9.629a49.069,49.069,0,0,0,8,2.836l5.659-7.809a40.741,40.741,0,0,0,11.44.3l5.24,8.1a49.037,49.037,0,0,0,8.14-2.405l-.012-9.643a40.645,40.645,0,0,0,9.429-6.486l8.991,3.469a49.562,49.562,0,0,0,5.178-6.732l-5.674-7.789a40.277,40.277,0,0,0,3.825-10.791Zm-49.08,13.827A19.373,19.373,0,1,1,2402,292.065a19.372,19.372,0,0,1-19.373,19.373" transform="translate(-1845.41 -192.72)" fill="#9ec8ff"/>
          <path id="Path_20146" data-name="Path 20146" d="M2691.895,452.4a1.045,1.045,0,0,1-.8-1.714,32.452,32.452,0,0,0,5.718-31.258,1.045,1.045,0,1,1,1.976-.681,34.544,34.544,0,0,1-6.086,33.275,1.044,1.044,0,0,1-.805.377" transform="translate(-2128.259 -330.638)" fill="#fff"/>
          <path id="Path_20147" data-name="Path 20147" d="M2634.925,328.93a1.042,1.042,0,0,1-.716-.284,32.208,32.208,0,0,0-11.153-6.872,1.045,1.045,0,0,1,.713-1.966,34.289,34.289,0,0,1,11.874,7.315,1.046,1.046,0,0,1-.717,1.807" transform="translate(-2074.094 -252.894)" fill="#fff"/>
          <path id="Path_20148" data-name="Path 20148" d="M2529.579,313.306a1.046,1.046,0,0,1-.255-2.059,34.627,34.627,0,0,1,8.467-1.047,1.045,1.045,0,1,1,0,2.091,32.524,32.524,0,0,0-7.955.983,1.048,1.048,0,0,1-.257.032" transform="translate(-1999.88 -245.344)" fill="#fff"/>
        </g>
      </g>
      <g id="Group_4791" data-name="Group 4791" transform="translate(51.487 11.829)">
        <g id="Group_4790" data-name="Group 4790" clip-path="url(#clip-path-2)">
          <path id="Path_20149" data-name="Path 20149" d="M520.312,345.085,471.442,315.2l-8.84,56.6a57.348,57.348,0,0,0,57.711-26.714" transform="translate(-417.37 -261.128)" fill="#a2dff2"/>
          <path id="Path_20150" data-name="Path 20150" d="M553.805,242.6c.132-.216.3-.512.3-.5a57.288,57.288,0,0,0,1.269-56.39c-17.294,9.061-7,3.556-50.488,27.074,48.951,29.934,41.349,25.318,48.922,29.817" transform="translate(-450.811 -158.709)" fill="#9cd499"/>
          <path id="Path_20151" data-name="Path 20151" d="M247.934,78.936l53.722,19.8,50.4-27.251c-23.573-43.595-87.025-38.366-104.117,7.455" transform="translate(-247.584 -44.659)" fill="#9ec8ff"/>
          <path id="Path_20152" data-name="Path 20152" d="M279.191,296.915l8.84-56.6-53.722-19.8c-12.775,34.249,9.9,70.879,44.882,76.394" transform="translate(-233.958 -186.244)" fill="#f39892"/>
          <path id="Path_20153" data-name="Path 20153" d="M332.391,120.775a59.419,59.419,0,0,0,1.483-55.7l.031-.017-.9-1.672c-.018-.034-.038-.067-.057-.1l-.739-1.376-.028.015a58.493,58.493,0,0,0-23.613-22.9,59.667,59.667,0,0,0-82.44,30.3l-.032-.012-.661,1.774-.667,1.788.032.012a58.449,58.449,0,0,0,5.009,48.292,59.242,59.242,0,0,0,40.123,28.516l0,.033,1.873.3,1.882.3.005-.033a59.235,59.235,0,0,0,56.779-26.352l.038.023.372-.61.01,0,.6-1c.093-.152.2-.342.268-.45l.04-.067.03-.052.6-.985ZM326.66,69.1l3.948-2.065a55.607,55.607,0,0,1-1.426,51.708s-.362-.213-.362-.213c-2-1.183-2.864-1.7-6.843-4.123L284.743,91.638l30.908-16.713c4.539-2.442,6.4-3.415,11.009-5.825m-96.971,1.529a55.423,55.423,0,0,1,99.037-7.1l-14.884,8.048c-3.073,1.654-7.369,3.978-14.56,7.869-4.608,2.493-10.405,5.63-17.831,9.646l-.459.248-1.5-.915-.082.522-23.537-8.673Zm3.4,48.623a54.663,54.663,0,0,1-4.726-45.06l35.388,13.039,15.066,5.552-8.3,53.147a55.458,55.458,0,0,1-37.427-26.678m41.182,27.27,8.1-51.877,21.086,12.9c8.5,5.2,13.364,8.175,16.426,10.042l7.279,4.451a55.163,55.163,0,0,1-52.893,24.487" transform="translate(-226.862 -37.465)" fill="#e7f3fe"/>
        </g>
      </g>
      <g id="Group_4793" data-name="Group 4793" transform="translate(0 0)">
        <g id="Group_4792" data-name="Group 4792" clip-path="url(#clip-path)">
          <path id="Path_20155" data-name="Path 20155" d="M789.572,155.131A155.135,155.135,0,1,1,634.438,0,155.135,155.135,0,0,1,789.572,155.131" transform="translate(-379.092 0.004)" fill="#2e5b9a"/>
          <path id="Path_20156" data-name="Path 20156" d="M871.6,275.735A125.309,125.309,0,1,1,746.294,150.426,125.31,125.31,0,0,1,871.6,275.735" transform="translate(-491.152 -118.975)" fill="#232e4f"/>
          <path id="Path_20157" data-name="Path 20157" d="M890.1,282.058A119.012,119.012,0,1,1,771.086,163.045,119.012,119.012,0,0,1,890.1,282.058" transform="translate(-515.741 -128.956)" fill="#fff"/>
          <path id="Path_20158" data-name="Path 20158" d="M1205.489,622.766a4.182,4.182,0,0,1-2.085-7.809l45.08-25.872a4.182,4.182,0,1,1,4.163,7.254l-45.08,25.872a4.162,4.162,0,0,1-2.078.555" transform="translate(-950.14 -465.482)" fill="#3e6bab"/>
          <path id="Path_20159" data-name="Path 20159" d="M1078.583,493.433a3.136,3.136,0,0,1-2.729-1.586l-34.592-60.83a3.136,3.136,0,1,1,5.452-3.1l34.592,60.83a3.137,3.137,0,0,1-2.723,4.687" transform="translate(-823.235 -337.194)" fill="#f37168"/>
          <path id="Path_20160" data-name="Path 20160" d="M1205.291,710.508a5.755,5.755,0,1,1-5.755-5.755,5.754,5.754,0,0,1,5.755,5.755" transform="translate(-944.191 -557.405)" fill="#212d51"/>
          <path id="Path_20161" data-name="Path 20161" d="M1151.715,257.972h-5.426V239.986h-5.233v-3.832l10.66-1.642Z" transform="translate(-902.489 -185.48)" fill="#212d51"/>
          <path id="Path_20162" data-name="Path 20162" d="M1243.1,256.754h-16.408v-3.543l7.536-7.922a15.89,15.89,0,0,0,2.109-2.931,4.976,4.976,0,0,0,.677-2.238,3.222,3.222,0,0,0-.685-2.158,2.545,2.545,0,0,0-2.053-.8,2.2,2.2,0,0,0-1.924,1.039,4.642,4.642,0,0,0-.7,2.649h-5.314l-.032-.1a7.327,7.327,0,0,1,2.125-5.515,7.8,7.8,0,0,1,5.846-2.262,8.841,8.841,0,0,1,6.03,1.9,6.563,6.563,0,0,1,2.166,5.2,6.859,6.859,0,0,1-1.152,3.929,49.7,49.7,0,0,1-4.243,5.072l-3.172,3.4.048.1h9.146Z" transform="translate(-969.91 -184.262)" fill="#212d51"/>
          <path id="Path_20163" data-name="Path 20163" d="M1191.769,1096.266a11.742,11.742,0,0,1,2.464.233,15.512,15.512,0,0,1,2.383.749l-.9,3.961q-1.126-.339-1.972-.507a9.974,9.974,0,0,0-1.941-.169,3.881,3.881,0,0,0-3.1,1.361,5.767,5.767,0,0,0-1.119,3.969l.048.08a4.7,4.7,0,0,1,1.884-1.256,7.433,7.433,0,0,1,2.674-.451,5.824,5.824,0,0,1,4.887,2.262,9.2,9.2,0,0,1,1.747,5.789,7.851,7.851,0,0,1-2.311,5.789,7.99,7.99,0,0,1-5.9,2.311,8.118,8.118,0,0,1-6.215-2.528,9.728,9.728,0,0,1-2.367-6.924v-4.718a9.264,9.264,0,0,1,9.741-9.951m-1.078,12.157a5.532,5.532,0,0,0-1.94.3,3.056,3.056,0,0,0-1.28.85v1.379a7.5,7.5,0,0,0,.829,3.889,2.579,2.579,0,0,0,2.31,1.355,2.32,2.32,0,0,0,2-1.155,5.479,5.479,0,0,0,.024-5.572,2.286,2.286,0,0,0-1.94-1.05" transform="translate(-934.895 -867.063)" fill="#212d51"/>
          <path id="Path_20164" data-name="Path 20164" d="M736.966,684.553a3.479,3.479,0,0,0,2.689-1.167,4.618,4.618,0,0,0,1.063-3.229v-1.03a5.223,5.223,0,0,1-1.836,1.457,5.165,5.165,0,0,1-2.222.491,6.184,6.184,0,0,1-5.016-2.166,8.941,8.941,0,0,1-1.811-5.917,8.359,8.359,0,0,1,2.286-5.934,7.714,7.714,0,0,1,5.894-2.44,7.493,7.493,0,0,1,5.837,2.56,10.163,10.163,0,0,1,2.295,7.037v5.571a8.5,8.5,0,0,1-2.609,6.505,9.224,9.224,0,0,1-6.57,2.448,12.468,12.468,0,0,1-2.5-.266,13.737,13.737,0,0,1-2.472-.749l.563-3.881a14.64,14.64,0,0,0,2.134.539,13.847,13.847,0,0,0,2.279.169m.886-7.391a4.06,4.06,0,0,0,1.65-.322,3.344,3.344,0,0,0,1.216-.886v-2.416a6.651,6.651,0,0,0-.765-3.518A2.26,2.26,0,0,0,738,668.8a2.223,2.223,0,0,0-1.989,1.272,5.733,5.733,0,0,0-.733,2.915,6.127,6.127,0,0,0,.644,3.051,2.092,2.092,0,0,0,1.932,1.119" transform="translate(-577.242 -525.662)" fill="#212d51"/>
          <path id="Path_20165" data-name="Path 20165" d="M1637.345,674.408h2.56a3.05,3.05,0,0,0,2.254-.789,2.96,2.96,0,0,0,.789-2.19,2.63,2.63,0,0,0-.708-1.868,2.688,2.688,0,0,0-2.061-.757,3,3,0,0,0-1.868.612,1.9,1.9,0,0,0-.805,1.578h-5.282l-.032-.1a5.186,5.186,0,0,1,2.206-4.541,9,9,0,0,1,5.587-1.739,9.8,9.8,0,0,1,6.1,1.747,5.866,5.866,0,0,1,2.286,4.952,4.847,4.847,0,0,1-.99,2.939,6.633,6.633,0,0,1-2.649,2.1,6.3,6.3,0,0,1,2.947,2.1,5.441,5.441,0,0,1,1.063,3.373,5.98,5.98,0,0,1-2.464,5.064,10.226,10.226,0,0,1-6.3,1.844,9.805,9.805,0,0,1-5.772-1.731,5.562,5.562,0,0,1-2.391-5.016l.032-.1h5.313a2.412,2.412,0,0,0,.878,1.892,3.133,3.133,0,0,0,2.134.765,3.2,3.2,0,0,0,2.287-.805,2.672,2.672,0,0,0,.854-2.029,3.141,3.141,0,0,0-.894-2.488,3.711,3.711,0,0,0-2.52-.781h-2.56Z" transform="translate(-1290.646 -525.662)" fill="#212d51"/>
          <path id="Path_20166" data-name="Path 20166" d="M2429.254,759.893a17.537,17.537,0,1,1,17.536-17.537,17.556,17.556,0,0,1-17.536,17.537m0-30.892a13.355,13.355,0,1,0,13.354,13.355A13.371,13.371,0,0,0,2429.254,729" transform="translate(-1907.486 -573.276)" fill="#9bd6e8"/>
          <path id="Path_20167" data-name="Path 20167" d="M2324.047,759.893a17.537,17.537,0,1,1,17.536-17.537,17.557,17.557,0,0,1-17.536,17.537m0-30.892a13.355,13.355,0,1,0,13.355,13.355A13.37,13.37,0,0,0,2324.047,729" transform="translate(-1824.275 -573.276)" fill="#9bd6e8"/>
          <path id="Path_20168" data-name="Path 20168" d="M2209.934,759.893a17.537,17.537,0,1,1,17.537-17.537,17.557,17.557,0,0,1-17.537,17.537m0-30.892a13.355,13.355,0,1,0,13.355,13.355A13.37,13.37,0,0,0,2209.934,729" transform="translate(-1734.021 -573.276)" fill="#9bd6e8"/>
          <path id="Path_20169" data-name="Path 20169" d="M2104.728,759.893a17.537,17.537,0,1,1,17.537-17.537,17.557,17.557,0,0,1-17.537,17.537m0-30.892a13.355,13.355,0,1,0,13.355,13.355A13.37,13.37,0,0,0,2104.728,729" transform="translate(-1650.811 -573.276)" fill="#9bd6e8"/>
          <path id="Path_20170" data-name="Path 20170" d="M1995.417,759.893a17.537,17.537,0,1,1,17.537-17.537,17.557,17.557,0,0,1-17.537,17.537m0-30.892a13.355,13.355,0,1,0,13.355,13.355A13.37,13.37,0,0,0,1995.417,729" transform="translate(-1564.354 -573.276)" fill="#9bd6e8"/>
          <path id="Path_20171" data-name="Path 20171" d="M1890.209,759.893a17.537,17.537,0,1,1,17.537-17.537,17.557,17.557,0,0,1-17.537,17.537m0-30.892a13.355,13.355,0,1,0,13.355,13.355A13.371,13.371,0,0,0,1890.209,729" transform="translate(-1481.143 -573.276)" fill="#9bd6e8"/>
          <path id="Path_20172" data-name="Path 20172" d="M1772.655,759.893a17.537,17.537,0,1,1,17.537-17.537,17.557,17.557,0,0,1-17.537,17.537m0-30.892a13.355,13.355,0,1,0,13.355,13.355A13.37,13.37,0,0,0,1772.655,729" transform="translate(-1388.166 -573.276)" fill="#9bd6e8"/>
          <path id="Path_20173" data-name="Path 20173" d="M1642.755,959.914H1399.016a4.067,4.067,0,0,1-4.1-5.046L1421.4,813.742a6.371,6.371,0,0,1,5.992-5.045H1671.13a4.067,4.067,0,0,1,4.1,5.045l-26.481,141.127a6.371,6.371,0,0,1-5.992,5.046" transform="translate(-1103.204 -639.617)" fill="#212d51"/>
          <path id="Path_20174" data-name="Path 20174" d="M1664.567,959.914H1420.828a4.067,4.067,0,0,1-4.1-5.046l26.482-141.127a6.371,6.371,0,0,1,5.992-5.045h243.739a4.067,4.067,0,0,1,4.1,5.045l-26.481,141.127a6.371,6.371,0,0,1-5.992,5.046" transform="translate(-1120.455 -639.617)" fill="#2e5b9a"/>
          <path id="Path_20175" data-name="Path 20175" d="M1798.736,959.914H1555a6.281,6.281,0,0,1-5.935-5.046l-24.884-141.127a4.118,4.118,0,0,1,4.156-5.045h243.739a6.28,6.28,0,0,1,5.935,5.045l24.885,141.127a4.118,4.118,0,0,1-4.156,5.046" transform="translate(-1205.447 -639.617)" fill="#212d51"/>
          <path id="Path_20176" data-name="Path 20176" d="M1823.039,959.914H1579.3a6.28,6.28,0,0,1-5.935-5.046L1548.48,813.742a4.117,4.117,0,0,1,4.156-5.045h243.739a6.279,6.279,0,0,1,5.934,5.045l24.885,141.127a4.117,4.117,0,0,1-4.156,5.046" transform="translate(-1224.669 -639.617)" fill="#3e6bab"/>
          <path id="Path_20177" data-name="Path 20177" d="M2525.73,858.552c.841,2.347.106,4.249-1.64,4.249s-3.844-1.9-4.685-4.249-.106-4.249,1.641-4.249,3.843,1.9,4.684,4.249" transform="translate(-1992.384 -675.688)" fill="#212d51"/>
          <path id="Path_20178" data-name="Path 20178" d="M2418.974,858.552c.84,2.347.106,4.249-1.64,4.249s-3.844-1.9-4.685-4.249-.106-4.249,1.641-4.249,3.844,1.9,4.684,4.249" transform="translate(-1907.949 -675.688)" fill="#212d51"/>
          <path id="Path_20179" data-name="Path 20179" d="M2300.445,858.552c.84,2.347.106,4.249-1.641,4.249s-3.843-1.9-4.684-4.249-.106-4.249,1.64-4.249,3.844,1.9,4.685,4.249" transform="translate(-1814.201 -675.688)" fill="#212d51"/>
          <path id="Path_20180" data-name="Path 20180" d="M2193.686,858.552c.841,2.347.106,4.249-1.641,4.249s-3.844-1.9-4.684-4.249-.106-4.249,1.641-4.249,3.843,1.9,4.684,4.249" transform="translate(-1729.761 -675.688)" fill="#212d51"/>
          <path id="Path_20181" data-name="Path 20181" d="M2090.5,860.458c.841,2.347.106,4.249-1.641,4.249s-3.844-1.9-4.684-4.249-.106-4.249,1.641-4.249,3.844,1.9,4.684,4.249" transform="translate(-1648.151 -677.195)" fill="#212d51"/>
          <path id="Path_20182" data-name="Path 20182" d="M1989.3,860.458c.841,2.347.106,4.249-1.641,4.249s-3.844-1.9-4.684-4.249-.106-4.249,1.641-4.249,3.844,1.9,4.684,4.249" transform="translate(-1568.11 -677.195)" fill="#212d51"/>
          <path id="Path_20183" data-name="Path 20183" d="M1876.538,860.458c.841,2.347.106,4.249-1.64,4.249s-3.844-1.9-4.684-4.249-.106-4.249,1.64-4.249,3.844,1.9,4.684,4.249" transform="translate(-1478.922 -677.195)" fill="#212d51"/>
          <path id="Path_20184" data-name="Path 20184" d="M2495.061,758.021a2.091,2.091,0,0,1-1-3.927A13.358,13.358,0,0,0,2487.686,729a2.091,2.091,0,1,1,0-4.182,17.539,17.539,0,0,1,8.374,32.948,2.08,2.08,0,0,1-1,.255" transform="translate(-1965.917 -573.275)" fill="#9bd6e8"/>
          <path id="Path_20185" data-name="Path 20185" d="M2392.553,758.139a2.091,2.091,0,0,1-.989-3.934,13.358,13.358,0,0,0-5.656-25.122,2.091,2.091,0,1,1,.2-4.177,17.539,17.539,0,0,1,7.434,32.985,2.085,2.085,0,0,1-.986.248" transform="translate(-1885.497 -573.343)" fill="#9bd6e8"/>
          <path id="Path_20186" data-name="Path 20186" d="M2277.671,758.491a2.091,2.091,0,0,1-.892-3.983,13.358,13.358,0,0,0-5.055-25.431,2.091,2.091,0,1,1,.192-4.177,17.54,17.54,0,0,1,6.643,33.392,2.087,2.087,0,0,1-.889.2" transform="translate(-1795.185 -573.338)" fill="#9bd6e8"/>
          <path id="Path_20187" data-name="Path 20187" d="M2172.015,758.69a2.091,2.091,0,0,1-.831-4.01,13.358,13.358,0,0,0-4.673-25.6,2.091,2.091,0,0,1,.192-4.177,17.54,17.54,0,0,1,6.141,33.62,2.085,2.085,0,0,1-.829.172" transform="translate(-1711.969 -573.337)" fill="#9bd6e8"/>
          <path id="Path_20188" data-name="Path 20188" d="M2063.864,758.313a2.091,2.091,0,0,1-.946-3.956,13.358,13.358,0,0,0-5.329-25.259,2.091,2.091,0,0,1,.214-4.176,17.54,17.54,0,0,1,7,33.166,2.084,2.084,0,0,1-.943.226" transform="translate(-1625.829 -573.355)" fill="#9bd6e8"/>
          <path id="Path_20189" data-name="Path 20189" d="M1961.866,758.1a2.091,2.091,0,0,1-1.046-3.9,13.358,13.358,0,0,0-5.39-24.878,2.091,2.091,0,1,1,.39-4.163,17.539,17.539,0,0,1,7.087,32.664,2.079,2.079,0,0,1-1.041.28" transform="translate(-1545.098 -573.532)" fill="#9bd6e8"/>
          <path id="Path_20190" data-name="Path 20190" d="M1847.1,757.853a2.091,2.091,0,0,1-1.149-3.839,13.358,13.358,0,0,0-5.588-24.42,2.091,2.091,0,0,1,.535-4.147,17.539,17.539,0,0,1,7.347,32.063,2.08,2.08,0,0,1-1.145.343" transform="translate(-1454.148 -573.759)" fill="#9bd6e8"/>
          <path id="Path_20191" data-name="Path 20191" d="M1860.347,1047.274H1630.868a5.472,5.472,0,0,1-5.171-4.4L1605.689,929.4a3.587,3.587,0,0,1,3.621-4.4h229.479a5.471,5.471,0,0,1,5.171,4.4l20.009,113.474a3.587,3.587,0,0,1-3.621,4.4" transform="translate(-1269.924 -731.611)" fill="#fff"/>
          <path id="Path_20192" data-name="Path 20192" d="M1888.7,1067.852H1666.958l-.03-.173-18.921-107.3h221.741l.031.173Zm-221.391-.418H1888.2l-18.8-106.64H1648.5Z" transform="translate(-1303.449 -759.584)" fill="#9ec8ff"/>
          <rect id="Rectangle_1355" data-name="Rectangle 1355" width="221.317" height="0.418" transform="translate(359.908 286.438)" fill="#9ec8ff"/>
          <rect id="Rectangle_1356" data-name="Rectangle 1356" width="221.317" height="0.418" transform="translate(356.134 265.027)" fill="#9ec8ff"/>
          <rect id="Rectangle_1357" data-name="Rectangle 1357" width="221.317" height="0.418" transform="translate(352.358 243.615)" fill="#9ec8ff"/>
          <rect id="Rectangle_1358" data-name="Rectangle 1358" width="221.317" height="0.418" transform="translate(348.582 222.204)" fill="#9ec8ff"/>
          <rect id="Rectangle_1359" data-name="Rectangle 1359" width="0.418" height="108.71" transform="translate(534.302 201.037) rotate(-10)" fill="#9ec8ff"/>
          <rect id="Rectangle_1360" data-name="Rectangle 1360" width="0.418" height="108.71" transform="translate(502.685 201.037) rotate(-10)" fill="#9ec8ff"/>
          <rect id="Rectangle_1361" data-name="Rectangle 1361" width="0.418" height="108.71" transform="translate(471.068 201.037) rotate(-10)" fill="#9ec8ff"/>
          <rect id="Rectangle_1362" data-name="Rectangle 1362" width="0.418" height="108.71" transform="translate(439.451 201.037) rotate(-10)" fill="#9ec8ff"/>
          <rect id="Rectangle_1363" data-name="Rectangle 1363" width="0.418" height="108.71" transform="translate(407.835 201.037) rotate(-10)" fill="#9ec8ff"/>
          <rect id="Rectangle_1364" data-name="Rectangle 1364" width="0.418" height="108.71" transform="translate(376.218 201.037) rotate(-10)" fill="#9ec8ff"/>
          <path id="Path_20193" data-name="Path 20193" d="M2628.132,987h-7.441a6.445,6.445,0,0,1-6.071-5.161,4.222,4.222,0,0,1,4.25-5.161h7.441a6.446,6.446,0,0,1,6.071,5.161,4.222,4.222,0,0,1-4.251,5.161" transform="translate(-2067.904 -772.474)" fill="#f39892"/>
          <path id="Path_20194" data-name="Path 20194" d="M2665.628,1193.654h-12.842a3.073,3.073,0,0,1-2.894-2.46l-.952-5.4a2.013,2.013,0,0,1,2.027-2.46h12.842a3.073,3.073,0,0,1,2.895,2.46l.952,5.4a2.013,2.013,0,0,1-2.027,2.46" transform="translate(-2095.081 -935.926)" fill="#f39892"/>
          <path id="Path_20195" data-name="Path 20195" d="M1862.092,1093.522h-17.463a4.384,4.384,0,0,1-4.129-3.51l-1.45-8.222a2.872,2.872,0,0,1,2.891-3.51H1859.4a4.384,4.384,0,0,1,4.129,3.51l1.45,8.222a2.872,2.872,0,0,1-2.892,3.51" transform="translate(-1454.507 -852.836)" fill="#9ec8ff"/>
          <path id="Path_20196" data-name="Path 20196" d="M1873.13,1099.5h-12.544a3.149,3.149,0,0,1-2.966-2.521l-1.041-5.906a2.063,2.063,0,0,1,2.077-2.521H1871.2a3.149,3.149,0,0,1,2.966,2.521l1.041,5.906a2.063,2.063,0,0,1-2.077,2.521" transform="translate(-1468.382 -860.959)" fill="#fff"/>
          <path id="Path_20197" data-name="Path 20197" d="M2522.342,1400.066h-17.463a4.383,4.383,0,0,1-4.129-3.51l-1.45-8.222a2.872,2.872,0,0,1,2.891-3.51h17.464a4.384,4.384,0,0,1,4.129,3.51l1.449,8.222a2.872,2.872,0,0,1-2.891,3.51" transform="translate(-1976.714 -1095.291)" fill="#9ec8ff"/>
          <path id="Path_20198" data-name="Path 20198" d="M2533.38,1406.041h-12.544a3.149,3.149,0,0,1-2.966-2.521l-1.041-5.906a2.063,2.063,0,0,1,2.077-2.522h12.544a3.15,3.15,0,0,1,2.967,2.522l1.041,5.906a2.063,2.063,0,0,1-2.077,2.521" transform="translate(-1990.59 -1103.411)" fill="#fff"/>
          <path id="Path_20199" data-name="Path 20199" d="M2194.021,1086.807h-13.682a2.1,2.1,0,0,1-1.977-1.68,1.375,1.375,0,0,1,1.385-1.68h13.682a2.1,2.1,0,0,1,1.977,1.68,1.375,1.375,0,0,1-1.385,1.68" transform="translate(-1722.9 -856.924)" fill="#9ec8ff"/>
          <path id="Path_20200" data-name="Path 20200" d="M2198.476,1112.066h-13.683a2.1,2.1,0,0,1-1.977-1.68,1.375,1.375,0,0,1,1.385-1.68h13.682a2.1,2.1,0,0,1,1.977,1.68,1.374,1.374,0,0,1-1.383,1.68" transform="translate(-1726.422 -876.902)" fill="#9ec8ff"/>
          <path id="Path_20201" data-name="Path 20201" d="M2103.109,1391.628h-13.682a2.1,2.1,0,0,1-1.977-1.68,1.375,1.375,0,0,1,1.384-1.68h13.682a2.1,2.1,0,0,1,1.976,1.68,1.374,1.374,0,0,1-1.384,1.68" transform="translate(-1650.994 -1098.014)" fill="#9ec8ff"/>
          <path id="Path_20202" data-name="Path 20202" d="M2107.561,1416.886h-13.682a2.1,2.1,0,0,1-1.977-1.68,1.375,1.375,0,0,1,1.384-1.68h13.682a2.1,2.1,0,0,1,1.976,1.68,1.374,1.374,0,0,1-1.384,1.68" transform="translate(-1654.516 -1117.992)" fill="#9ec8ff"/>
          <path id="Path_20203" data-name="Path 20203" d="M1730.138,1200.469h-13.682a2.1,2.1,0,0,1-1.977-1.68,1.375,1.375,0,0,1,1.384-1.68h13.682a2.1,2.1,0,0,1,1.977,1.68,1.375,1.375,0,0,1-1.384,1.68" transform="translate(-1356.002 -946.822)" fill="#9ec8ff"/>
          <path id="Path_20204" data-name="Path 20204" d="M1734.592,1225.728h-13.683a2.1,2.1,0,0,1-1.977-1.68,1.375,1.375,0,0,1,1.384-1.681H1734a2.1,2.1,0,0,1,1.977,1.681,1.375,1.375,0,0,1-1.384,1.68" transform="translate(-1359.526 -966.799)" fill="#9ec8ff"/>
          <path id="Path_20205" data-name="Path 20205" d="M1899.24,1301h-20.268a3.982,3.982,0,0,1-3.75-3.188l-1.6-9.1a2.609,2.609,0,0,1,2.626-3.188h20.268a3.982,3.982,0,0,1,3.751,3.188l1.6,9.1a2.608,2.608,0,0,1-2.626,3.188" transform="translate(-1481.851 -1016.752)" fill="#9cd499"/>
          <path id="Path_20206" data-name="Path 20206" d="M1918.742,1308.583a.417.417,0,0,1-.287-.115l-4.551-4.308a.418.418,0,0,1,.575-.607l4.23,4,6.415-7.589a.418.418,0,0,1,.639.54l-6.7,7.927a.419.419,0,0,1-.3.148h-.023" transform="translate(-1513.651 -1028.059)" fill="#fff"/>
          <path id="Path_20207" data-name="Path 20207" d="M2297.2,989.292h-20.269a3.981,3.981,0,0,1-3.75-3.188l-1.605-9.1a2.609,2.609,0,0,1,2.626-3.188h20.268a3.981,3.981,0,0,1,3.75,3.188l1.605,9.1a2.608,2.608,0,0,1-2.626,3.188" transform="translate(-1796.609 -770.213)" fill="#9cd499"/>
          <path id="Path_20208" data-name="Path 20208" d="M2316.706,996.873a.419.419,0,0,1-.288-.115l-4.551-4.308a.418.418,0,1,1,.575-.607l4.229,4,6.416-7.589a.418.418,0,1,1,.639.54l-6.7,7.927a.42.42,0,0,1-.3.148h-.023" transform="translate(-1828.409 -781.52)" fill="#fff"/>
          <path id="Path_20209" data-name="Path 20209" d="M2369.922,1292.715a5.876,5.876,0,0,1-5.931,7.2,8.964,8.964,0,0,1-8.471-7.2,5.876,5.876,0,0,1,5.932-7.2,8.963,8.963,0,0,1,8.47,7.2" transform="translate(-1862.949 -1016.744)" fill="#9ec8ff"/>
          <path id="Path_20210" data-name="Path 20210" d="M1942.408,1397.765a5.876,5.876,0,0,1-5.931,7.2,8.964,8.964,0,0,1-8.471-7.2,5.877,5.877,0,0,1,5.932-7.2,8.963,8.963,0,0,1,8.471,7.2" transform="translate(-1524.818 -1099.83)" fill="#9ec8ff"/>
          <path id="Path_20211" data-name="Path 20211" d="M157.209,621.225h32.944a32.944,32.944,0,1,1-32.944-32.944Z" transform="translate(-98.284 -465.285)" fill="#9ec8ff"/>
          <path id="Path_20212" data-name="Path 20212" d="M341.169,599.163a32.944,32.944,0,0,0-32.944-32.944v32.944Z" transform="translate(-243.783 -447.836)" fill="#f39892"/>
          <rect id="Rectangle_1365" data-name="Rectangle 1365" width="20.375" height="43" transform="translate(31.625 267.891)" fill="#9ec8ff"/>
          <rect id="Rectangle_1366" data-name="Rectangle 1366" width="20.375" height="87.929" transform="translate(94.605 222.961)" fill="#9ec8ff"/>
          <rect id="Rectangle_1367" data-name="Rectangle 1367" width="20.375" height="45.222" transform="translate(126.095 265.668)" fill="#9ec8ff"/>
          <rect id="Rectangle_1368" data-name="Rectangle 1368" width="20.375" height="58.022" transform="translate(157.585 252.868)" fill="#9ec8ff"/>
          <rect id="Rectangle_1369" data-name="Rectangle 1369" width="20.375" height="71.391" transform="translate(63.115 239.5)" fill="#9ec8ff"/>
          <rect id="Rectangle_1370" data-name="Rectangle 1370" width="20.375" height="109.685" transform="translate(189.181 201.206)" fill="#9ec8ff"/>
          <rect id="Rectangle_1371" data-name="Rectangle 1371" width="18.292" height="43" transform="translate(33.662 269.928)" fill="#5d9ef5"/>
          <rect id="Rectangle_1372" data-name="Rectangle 1372" width="18.292" height="87.929" transform="translate(96.643 224.998)" fill="#5d9ef5"/>
          <rect id="Rectangle_1373" data-name="Rectangle 1373" width="18.292" height="45.222" transform="translate(128.133 267.706)" fill="#5d9ef5"/>
          <rect id="Rectangle_1374" data-name="Rectangle 1374" width="18.292" height="58.022" transform="translate(159.623 254.905)" fill="#5d9ef5"/>
          <rect id="Rectangle_1375" data-name="Rectangle 1375" width="18.292" height="71.391" transform="translate(65.152 241.537)" fill="#5d9ef5"/>
          <rect id="Rectangle_1376" data-name="Rectangle 1376" width="18.292" height="109.685" transform="translate(191.219 203.243)" fill="#5d9ef5"/>
          <path id="Path_20213" data-name="Path 20213" d="M112.4,890.1a3.136,3.136,0,0,1-1.792-5.712l79.808-55.434a3.136,3.136,0,0,1,4.136.495l29.329,33.075,62.83-60.089a3.136,3.136,0,0,1,4.335,4.533l-65.183,62.34a3.137,3.137,0,0,1-4.514-.186l-29.642-33.427-77.52,53.844a3.121,3.121,0,0,1-1.786.561" transform="translate(-86.419 -633.975)" fill="#f37168"/>
          <path id="Path_20214" data-name="Path 20214" d="M901.608,815.161a3.14,3.14,0,0,1-3.076-3.766l2.254-11.013L888.769,801.6a3.136,3.136,0,1,1-.631-6.24l16.26-1.645a3.136,3.136,0,0,1,3.388,3.749l-3.108,15.191a3.137,3.137,0,0,1-3.069,2.508" transform="translate(-700.218 -627.753)" fill="#f37168"/>
          <path id="Path_20215" data-name="Path 20215" d="M2566.2,626.493c5.62-11.244,20.323-16.343,24.5-3.819s5.62,13.321,11.495,18.56c20.386,18.18-10.615,29.078-21.526,33.854s-15.275-15.465-16.106-31.552c-.65-12.569,0-13.754,1.641-17.044" transform="translate(-2028.172 -486.707)" fill="#303c60"/>
          <path id="Path_20216" data-name="Path 20216" d="M2602.479,1479.91c1.1,4.469-1.072,8.014-3.978,10.6-2.364,2.1-9.63,2.994-9.28,4.044s8.929,1.383,11.819.946,3.677-1.838,7.273-1.836c2.357,0,2.794-1.917,1.744-4.286s-1.418-3.68-.469-5.8-7.109-3.662-7.109-3.662" transform="translate(-2047.868 -1170.496)" fill="#4476bd"/>
          <path id="Path_20217" data-name="Path 20217" d="M2827.9,1467.61c-.175,4.64-.714,8.1.424,10.247,4.4,3.677,8.049,7.854,6.653,8.141-6.653,1.374-9.192-2.614-12.956-3.747-4.62-1.391.437-7.2-1.373-14.642-1.006-4.139,6.975-3.147,6.975-3.147Z" transform="translate(-2230.419 -1158.196)" fill="#4476bd"/>
          <path id="Path_20218" data-name="Path 20218" d="M2663.03,973.422c-2.919,24.513-8.223,42.634-8.813,54.255s-2.955,57.378-2.955,57.378,6.5-.455,7.091-1.439,12.212-26.787,11.621-42.742,11.607-40.213,11.607-40.213l-2.941-23.8Z" transform="translate(-2096.948 -769.903)" fill="#f37168"/>
          <path id="Path_20219" data-name="Path 20219" d="M2689.211,1024.466l-4.565,1.91c-1.24,7.773-2.617,14.762-3.826,20.961,7.264,4.7,11.018,20.344,12.625,29.91.819-10.7,5.87-23.639,9-30.791Z" transform="translate(-2120.325 -810.274)" fill="#d54a41"/>
          <path id="Path_20220" data-name="Path 20220" d="M2748.085,961.6s9.838,12.549,9.53,26.787c-.47,21.674-2.833,27.862,1.279,50.587,1.606,8.876-3.545,37.911-3.545,37.911s-4.4.345-6.765-.832c.2-2.133-2.844-36.837-8.767-52.79-2.868-7.725-6.9-29.361-9.066-41.77s-2.56-14.969-1.772-14.969,19.105-4.924,19.105-4.924" transform="translate(-2158.121 -760.555)" fill="#f37168"/>
          <path id="Path_20221" data-name="Path 20221" d="M2342.838,1086.062l-13.592,1.568a2.1,2.1,0,0,1-2.156-1.443,1.375,1.375,0,0,1,1.182-1.828l13.592-1.568a2.1,2.1,0,0,1,2.156,1.443,1.375,1.375,0,0,1-1.182,1.828" transform="translate(-1840.497 -856.396)" fill="#85baff"/>
          <path id="Path_20222" data-name="Path 20222" d="M2350.156,1110.644l-13.592,1.568a2.1,2.1,0,0,1-2.156-1.443,1.374,1.374,0,0,1,1.183-1.828l13.592-1.568a2.1,2.1,0,0,1,2.156,1.443,1.375,1.375,0,0,1-1.182,1.828" transform="translate(-1846.285 -875.839)" fill="#85baff"/>
          <path id="Path_20223" data-name="Path 20223" d="M2386.452,1061.917a23,23,0,0,1-9.412,1.358c-2.881-.2-4.783,1.495-6.481,2.174s-2.377,1.747.476,1.358a35.435,35.435,0,0,1,4.23-.389,10.809,10.809,0,0,1,3.009,1.138,12.579,12.579,0,0,1,1.5,1.305,2.627,2.627,0,0,1,.084,3.313c-.779,1.008-1.283,2.12-2.086,2.516-1.506.743-.086,1.636,1.414.743a14.77,14.77,0,0,0,3.328-3.26c1.555-1.726,2.989-4.513,4.414-5.754s-.475-4.5-.475-4.5" transform="translate(-1873.771 -839.895)" fill="#f09959"/>
          <path id="Path_20224" data-name="Path 20224" d="M2485.436,829.628c-6.609,13.588-12.857,28.123-21.143,34.914s-21.517,14.042-21.517,14.042,1.821,5.111,2.635,5.246,20.512-6.833,26.217-10.615,17.761-16.576,17.761-16.576Z" transform="translate(-1932.052 -656.172)" fill="#a2dff2"/>
          <path id="Path_20225" data-name="Path 20225" d="M2635.63,845.924c5.429-4.889,10.763-12.94,10.6-13.788-.224-1.137-8.234-22.145-8.234-22.145-1.734,4.077-3.232,7.678-4.526,10.821.8,9.52,4.368,18.915,2.164,25.112" transform="translate(-2082.873 -640.641)" fill="#96cfe0"/>
          <path id="Path_20226" data-name="Path 20226" d="M2655.052,743.075s14.7,1.746,21.407,11.81,3.592,26.613,5.233,34.253-20.622,17.125-23.436,9.33c-2.7-7.473-14.12-21.281-15.257-25.437-2.669-9.753,7-26.371,7-26.371Z" transform="translate(-2090.044 -587.715)" fill="#a2dff2"/>
          <path id="Path_20227" data-name="Path 20227" d="M2632.177,680.882l11.294,14.551s-4.116,6.464-10.057,20.584c-2.167-7.186.965-17,.965-17l-9.662-14.1Z" transform="translate(-2075.954 -538.525)" fill="#f09959"/>
          <path id="Path_20228" data-name="Path 20228" d="M2637.445,687.669l-5.268-6.787-7.459,4.028,9.662,14.1s-.168.771-.392,1.971a20.2,20.2,0,0,0,3.458-13.315" transform="translate(-2075.954 -538.525)" fill="#e38540"/>
          <path id="Path_20229" data-name="Path 20229" d="M2592.846,666.542c.452,5.765-4.087,10.667-8.447,11.009s-6.89-4.006-7.341-9.771,2.716-10.715,7.076-11.057,8.261,4.054,8.713,9.819" transform="translate(-2038.224 -519.402)" fill="#f09959"/>
          <path id="Path_20230" data-name="Path 20230" d="M2683.85,897.172c1.841,11.659-4.991,36.6-4.991,36.6s4.074.925,16.286-.256,17.6-13.37,19.435-13.71,2.783,11.343,3.689,12.266,1.044-14.754-1.326-20.917c-4.2-10.925-3.379-15.559-1.809-22.178,2.793-11.769-31.285,8.193-31.285,8.193" transform="translate(-2118.775 -700.177)" fill="#a2dff2"/>
          <path id="Path_20231" data-name="Path 20231" d="M2748.083,814.8a21.926,21.926,0,0,0-.993-3.8c-4.2-10.925-3.379-15.559-1.809-22.178.123-.522-9.755-16.393-9.755-16.393l-12.838-13.8c-12.321,20,2.56,29.472,1.4,37.22s-7.118,13.641-7.118,13.641l.421,2.749a6.979,6.979,0,0,0,7.85,5.866c5.322-.739,12.3-2.223,15.411-5.106,3.007-2.79,5.669-.631,7.428,1.8" transform="translate(-2148.92 -600.016)" fill="#96cfe0"/>
          <path id="Path_20232" data-name="Path 20232" d="M2689.205,1010.934s-5.357,2.519-5.97,2.984-.672,2.386-.672,2.386-2.747,3.336-1.348,4.118,4.023,2.916,6.737,1.261c1.666-1.016,1.946-7.813,3.108-8.063s-1.855-2.686-1.855-2.686" transform="translate(-2120.324 -799.571)" fill="#f09959"/>
          <path id="Path_20233" data-name="Path 20233" d="M2723.256,753.778c6.046-.843,13.325,9.076,16.809,18.157s7.735,22.11,7.735,22.11-8.646,9.548-18.111,13.507c-8.257,3.453-12.513,4.976-12.513,4.976l-2.57-4.613,18.53-15.541s-9.959-12.971-12.521-23.593-1.954-14.364,2.641-15" transform="translate(-2147.048 -596.141)" fill="#a2dff2"/>
          <path id="Path_20234" data-name="Path 20234" d="M2572.09,653.245c4.034,10.178,15.771,5.048,18.835,3.224s3.831,23.162,10.57,22.186c4.949-.717,2.351-6.835,7.2-9.358a5.754,5.754,0,0,1,6.384.716,7.431,7.431,0,0,0-3.411-2.966c-2.291-.933-11.374-7.047-15.034-13.451s-13.325-7.911-15.762-7.185-7.3,5.554-7.3,5.554Z" transform="translate(-2034.329 -511.131)" fill="#303c60"/>
          <path id="Path_20235" data-name="Path 20235" d="M2673.378,717.109c-4.479,0-6.431-8.8-8.68-18.934-.448-2.02-.912-4.109-1.4-6.116a.509.509,0,1,1,.99-.24c.489,2.017.953,4.111,1.4,6.135,2.034,9.167,4.138,18.64,8.039,18.111,2.359-.325,2.814-5.455,2.454-10.149a.509.509,0,0,1,1.016-.078c.247,3.206.414,10.721-3.331,11.236a3.623,3.623,0,0,1-.493.034" transform="translate(-2106.458 -546.867)" fill="#303c60"/>
          <path id="Path_20236" data-name="Path 20236" d="M2670.759,720.8a2.847,2.847,0,0,1-1.291-.325c-5.747-2.9-9.559-26.187-9.719-27.177a.509.509,0,1,1,1.006-.162c1.063,6.6,4.784,24.219,9.171,26.429a1.73,1.73,0,0,0,1.673-.007c1.931-1,2.114-4.273,2.275-7.162.163-2.918.317-5.674,2.221-6.286a.509.509,0,0,1,.313.97c-1.238.4-1.373,2.815-1.516,5.373-.177,3.16-.376,6.743-2.824,8.01a2.825,2.825,0,0,1-1.31.337" transform="translate(-2103.655 -547.88)" fill="#303c60"/>
          <path id="Path_20237" data-name="Path 20237" d="M2653.2,691.75c-.453,1.4-1.64,2.265-2.652,1.937s-1.465-1.727-1.012-3.124,1.64-2.265,2.653-1.937,1.465,1.727,1.012,3.125" transform="translate(-2095.445 -544.595)" fill="#f09959"/>
          <path id="Path_20238" data-name="Path 20238" d="M851.242,1387.2s-38.865-26.995-55.3-11.43c-13.127,12.429,10.174,27.03,39.984,23.1,20.982-2.764,23.36,1.25,27.035,1.164,27.348-2.1,64.2-10.278,46.265-23.132-24.43-17.511-40.954,1.053-49.467,5.674Z" transform="translate(-626.563 -1083.194)" fill="#232e4f"/>
          <path id="Path_20239" data-name="Path 20239" d="M925.475,1383.929c-10.215-2.108-49.129,12.323-49.129,12.323s-33.888-10.215-41.995-11.188-11.836,2.108-11.836,2.108,3.825-4.31,8.269-4.7,10.864-1.459,10.864-1.459,64.857-3.08,73.45-1.135,10.377,4.054,10.377,4.054" transform="translate(-650.547 -1090.867)" fill="#1b243d"/>
          <path id="Path_20240" data-name="Path 20240" d="M953.757,1150.444c-1.541.243-25.5,10.693-25.793,15.071s6.564,39.892,19.826,44.513,28.1,0,28.1,0,15.565-38.426,10.944-45.722-25.536-13.863-25.536-13.863Z" transform="translate(-733.942 -909.914)" fill="#ffd24f"/>
          <path id="Path_20241" data-name="Path 20241" d="M873.627,1183.166c-22.888,12.264-28.509,34.407-22.456,39.288,4.242,3.42,20.235,10.984,34.1,10.5a226.151,226.151,0,0,1,26.882.819s23.781-4.839,28.523-11.965-8.415-30.277-20.214-36.969-46.833-1.671-46.833-1.671" transform="translate(-671.421 -934.364)" fill="#ffd24f"/>
          <path id="Path_20242" data-name="Path 20242" d="M1049.748,1099.9a5.773,5.773,0,0,1-5.757-5.756v-19.374a5.756,5.756,0,0,1,11.513,0v19.374a5.773,5.773,0,0,1-5.756,5.756" transform="translate(-825.719 -845.512)" fill="#f09959"/>
          <path id="Path_20243" data-name="Path 20243" d="M1049.748,1069.017a5.773,5.773,0,0,0-5.757,5.756v15.842c3.394,2.836,6.68,1.35,11.513-2.4v-13.447a5.773,5.773,0,0,0-5.756-5.756" transform="translate(-825.719 -845.511)" fill="#e38540"/>
          <path id="Path_20244" data-name="Path 20244" d="M1116.271,1082.241c-.946,1.931-2.482,3-3.431,2.392s-.952-2.67-.006-4.6,2.482-3,3.431-2.392.952,2.67.006,4.6" transform="translate(-879.608 -852.196)" fill="#f09959"/>
          <path id="Path_20245" data-name="Path 20245" d="M1010.285,1082.912c1.094,1.757,1.3,3.88.469,4.742s-2.4.137-3.492-1.62-1.3-3.88-.469-4.742,2.4-.137,3.492,1.62" transform="translate(-795.893 -854.932)" fill="#f09959"/>
          <path id="Path_20246" data-name="Path 20246" d="M1045.213,1051.48c0,7.04-4.432,12.747-9.9,12.747s-9.9-5.707-9.9-12.747,4.432-12.747,9.9-12.747,9.9,5.707,9.9,12.747" transform="translate(-811.025 -821.558)" fill="#f09959"/>
          <path id="Path_20247" data-name="Path 20247" d="M1150.736,1250.6c6.486,3.46,12.138,16.567,12.138,16.567s-14.593,2.27-17.62,4.54.432-.865,2.162-7.134,3.32-13.973,3.32-13.973" transform="translate(-904.862 -989.128)" fill="#edc055"/>
          <path id="Path_20248" data-name="Path 20248" d="M904.016,1246.082c1.514,6.918,8.756,26.232,8.756,26.232s-6.708-7.64-13.836-8.072-9.774-.541-9.729,1.189c.009.342,1.189-7.675,6.7-12.647a83.107,83.107,0,0,1,8.107-6.7" transform="translate(-703.295 -985.556)" fill="#edc055"/>
          <path id="Path_20249" data-name="Path 20249" d="M989.74,1323.344H950.577a3.23,3.23,0,0,1-3.186-2.7l-4.722-28.182a3.23,3.23,0,0,1,3.185-3.764h48.606a3.23,3.23,0,0,1,3.186,3.764l-4.722,28.182a3.23,3.23,0,0,1-3.186,2.7" transform="translate(-745.545 -1019.264)" fill="#2a66c6"/>
          <path id="Path_20250" data-name="Path 20250" d="M989.74,1328.071H950.577a3.2,3.2,0,0,1-3.186-2.6l-4.722-27.166a3.151,3.151,0,0,1,3.185-3.628h48.606a3.151,3.151,0,0,1,3.186,3.628l-4.722,27.166a3.2,3.2,0,0,1-3.186,2.6" transform="translate(-745.545 -1023.992)" fill="#63acc2"/>
          <path id="Path_20251" data-name="Path 20251" d="M979.07,1494.678c-.234-.04-25.293-6.312-30.886-1.691s18.726,4.7,23.1,3.688,7.782-2,7.782-2" transform="translate(-749.285 -1179.496)" fill="#1b243d"/>
          <path id="Path_20252" data-name="Path 20252" d="M1125.81,1500.051a19.162,19.162,0,0,1,12.4-3.3c7.053.729,13.133,2.267,7.053,4.174a44.713,44.713,0,0,1-15.322,1.906,5.3,5.3,0,0,1-4.135-2.778" transform="translate(-890.43 -1183.745)" fill="#1b243d"/>
          <path id="Path_20253" data-name="Path 20253" d="M1043.339,1011.324c-6.43,1.951-4.192,20.053,3.159,19.456s7.65-8.423,7.128-13.493-3.653-7.976-10.288-5.964" transform="translate(-822.21 -799.371)" fill="#0f2d5c"/>
          <path id="Path_20254" data-name="Path 20254" d="M1019.67,1029.128c-1.789-1.715-4.249,3.681-3.28,6.052s-.386,3.751.925,6.3-2.416-1.622-2.938-4.678-.82-8.349-1.565-10.735.038-6.522,3.359-7.38,4.1-2.385,5.362-2.46,7.306.522,10.288,2.161a7.753,7.753,0,0,1,4.4,7.828c-.224,3.727-1.193,13.269-2.087,14.835s-1.358,1.195-1.089.3,1.238-6.263.492-8.2-.373-6.709-2.311-7.082-1.491,2.932-3.8,3.181a66.841,66.841,0,0,1-7.753-.124" transform="translate(-800.853 -803.756)" fill="#0f2d5c"/>
        </g>
      </g>
    </g>
  </g>
</svg>
