<svg xmlns="http://www.w3.org/2000/svg" xmlns:xlink="http://www.w3.org/1999/xlink" width="194" height="114" viewBox="0 0 194 114">
  <defs>
    <clipPath id="clip-path">
      <rect id="Rectangle_437" data-name="Rectangle 437" width="194" height="114" transform="translate(586 2426)" fill="#fff" stroke="#707070" stroke-width="1"/>
    </clipPath>
  </defs>
  <g id="Mask_Group_26" data-name="Mask Group 26" transform="translate(-586 -2426)" clip-path="url(#clip-path)">
    <g id="react" transform="translate(619.227 2425.609)">
      <path id="Path_12250" data-name="Path 12250" d="M.376,57.186c0,9.576,9.35,18.515,24.092,23.554-2.944,14.82-.528,26.765,7.543,31.419,8.3,4.784,20.654,1.473,32.383-8.78,11.434,9.839,22.99,13.711,31.052,9.044,8.287-4.8,10.808-17.553,7.783-32.835,15.354-5.076,23.943-12.7,23.943-22.4,0-9.353-9.368-17.445-23.91-22.452,3.257-15.914.5-27.569-7.907-32.416-8.1-4.672-19.793-.6-31.394,9.5C51.89,1.1,40.315-2.173,31.919,2.687c-8.095,4.686-10.4,16.847-7.451,31.942C10.224,39.6.376,47.87.376,57.186Z" fill="#fff"/>
      <path id="Path_12251" data-name="Path 12251" d="M100.181,39.706q-1.752-.6-3.625-1.142.307-1.254.56-2.472c2.744-13.32.95-24.05-5.177-27.583-5.874-3.388-15.481.145-25.184,8.589q-1.4,1.218-2.8,2.573-.935-.894-1.866-1.723C51.917,8.917,41.724,5.112,35.6,8.656c-5.869,3.4-7.607,13.485-5.137,26.108q.358,1.829.833,3.73c-1.443.409-2.835.846-4.168,1.31C15.21,43.961,7.6,50.475,7.6,57.232c0,6.979,8.173,13.978,20.591,18.223q1.47.5,3.045.952-.51,2.053-.884,4.02c-2.355,12.4-.516,22.253,5.337,25.629,6.046,3.486,16.192-.1,26.073-8.734q1.171-1.024,2.35-2.166,1.526,1.47,3.044,2.777c9.57,8.235,19.022,11.561,24.87,8.175,6.04-3.5,8-14.077,5.454-26.95q-.292-1.475-.675-3.01,1.069-.316,2.094-.654C111.8,71.219,120.2,64.3,120.2,57.232c0-6.781-7.859-13.339-20.021-17.526Z" fill="#53c1de"/>
      <path id="Path_12252" data-name="Path 12252" d="M97.381,70.93c-.615.2-1.247.4-1.891.592a112.828,112.828,0,0,0-5.7-14.265A112.873,112.873,0,0,0,95.268,43.2c1.152.333,2.27.685,3.347,1.056,10.42,3.587,16.777,8.891,16.777,12.978,0,4.353-6.865,10-18.011,13.7Zm-4.625,9.164A40.734,40.734,0,0,1,93.3,94.956c-.671,3.615-2.019,6.025-3.687,6.99-3.549,2.054-11.138-.616-19.322-7.659q-1.408-1.211-2.832-2.582A113,113,0,0,0,76.9,79.721,112.3,112.3,0,0,0,92.147,77.37q.345,1.39.609,2.724Zm-46.77,21.5c-3.467,1.224-6.229,1.259-7.9.3-3.552-2.049-5.029-9.957-3.014-20.565q.346-1.822.822-3.739a113.139,113.139,0,0,0,15.175,2.2,117.126,117.126,0,0,0,9.667,11.943q-1.077,1.04-2.145,1.975a40.74,40.74,0,0,1-12.606,7.891ZM29.743,70.9A40.742,40.742,0,0,1,16.61,63.925c-2.793-2.392-4.2-4.766-4.2-6.693,0-4.1,6.113-9.33,16.309-12.885,1.237-.431,2.532-.838,3.876-1.22A115.306,115.306,0,0,0,38.08,57.349a117.222,117.222,0,0,0-5.557,14.424q-1.437-.413-2.779-.87ZM35.188,33.84c-2.116-10.815-.711-18.974,2.826-21.021,3.767-2.181,12.1.929,20.877,8.725q.842.747,1.69,1.559a115.269,115.269,0,0,0-9.593,11.871,117.571,117.571,0,0,0-15.026,2.335q-.44-1.768-.774-3.469ZM83.761,45.834Q82.09,42.947,80.337,40.2C83.93,40.657,87.372,41.259,90.6,42a102.592,102.592,0,0,1-3.6,9.7q-1.532-2.909-3.239-5.86ZM63.953,26.541a102.924,102.924,0,0,1,6.627,8q-3.3-.156-6.68-.158-3.34,0-6.629.155c2.188-2.885,4.429-5.565,6.682-8ZM44.018,45.867q-1.67,2.9-3.179,5.823c-1.4-3.322-2.6-6.589-3.578-9.744,3.213-.719,6.639-1.307,10.209-1.752q-1.774,2.767-3.452,5.673Zm3.555,28.746A102.41,102.41,0,0,1,37.2,72.945c.995-3.21,2.219-6.547,3.65-9.941q1.512,2.921,3.192,5.827h0q1.711,2.956,3.535,5.783ZM64.086,88.263c-2.28-2.46-4.554-5.181-6.775-8.108q3.234.127,6.588.128,3.443,0,6.8-.151a102.386,102.386,0,0,1-6.611,8.132Zm22.96-25.432a102.032,102.032,0,0,1,3.782,9.906,102.088,102.088,0,0,1-10.5,1.791q1.754-2.779,3.457-5.73,1.72-2.983,3.266-5.966Zm-7.433,3.563c-1.76,3.052-3.567,5.966-5.4,8.716-3.342.239-6.794.362-10.312.362s-6.913-.109-10.2-.322c-1.908-2.786-3.755-5.709-5.5-8.73h0c-1.744-3.013-3.35-6.052-4.8-9.073,1.454-3.028,3.056-6.07,4.79-9.078h0c1.739-3.016,3.569-5.924,5.46-8.692,3.349-.253,6.783-.385,10.254-.385h0c3.486,0,6.925.133,10.273.388,1.862,2.749,3.68,5.647,5.426,8.663,1.766,3.05,3.388,6.071,4.854,9.035-1.462,3.015-3.08,6.066-4.839,9.115Zm9.924-53.718c3.771,2.175,5.237,10.944,2.868,22.445-.151.734-.321,1.481-.506,2.239a115.215,115.215,0,0,0-15.056-2.378A112.962,112.962,0,0,0,67.324,23.1q1.3-1.249,2.59-2.375C78.227,13.491,86,10.634,89.537,12.676Z" fill="#fff"/>
      <path id="Path_12253" data-name="Path 12253" d="M63.9,47.177A10.055,10.055,0,1,1,53.844,57.232,10.055,10.055,0,0,1,63.9,47.177" fill="#53c1de"/>
    </g>
  </g>
</svg>
