<svg xmlns="http://www.w3.org/2000/svg" width="318" height="55" viewBox="0 0 318 55">
	<g fill="none" fill-rule="evenodd">
		<path fill="#6DC8BD" d="M74.97 21.56c-.663-1.125-1.457-1.772-2.869-1.772-1.478 0-2.757 1.037-2.757 2.527 0 1.405 1.477 2.053 2.603 2.55l1.103.475c2.161.929 3.993 1.988 3.993 4.58 0 2.852-2.338 5.034-5.229 5.034-2.67 0-4.655-1.685-5.185-4.213l1.81-.496c.243 1.663 1.544 3.024 3.331 3.024s3.42-1.34 3.42-3.176c0-1.901-1.523-2.55-3.067-3.24l-1.015-.433c-1.941-.864-3.618-1.836-3.618-4.17 0-2.528 2.184-4.148 4.655-4.148 1.853 0 3.42.93 4.302 2.528l-1.478.93zM84.88 28.084c0 1.21-.045 2.592.727 3.63.728.993 2.14 1.555 3.353 1.555 1.191 0 2.493-.54 3.266-1.447.883-1.038.816-2.464.816-3.738v-9.7h1.853V28.58c0 1.771-.132 3.176-1.456 4.515-1.147 1.21-2.801 1.858-4.479 1.858-1.566 0-3.177-.583-4.302-1.664-1.456-1.36-1.632-2.851-1.632-4.71V18.384h1.853v9.7zM101.607 17.692L114.58 31V18.384h1.854v17.023L103.46 22.121v12.552h-1.854zM130.757 21.56c-.661-1.125-1.456-1.772-2.868-1.772-1.478 0-2.757 1.037-2.757 2.527 0 1.405 1.478 2.053 2.603 2.55l1.104.475c2.161.929 3.992 1.988 3.992 4.58 0 2.852-2.338 5.034-5.228 5.034-2.67 0-4.656-1.685-5.185-4.213l1.81-.496c.242 1.663 1.543 3.024 3.33 3.024 1.787 0 3.42-1.34 3.42-3.176 0-1.901-1.523-2.55-3.066-3.24l-1.015-.433c-1.942-.864-3.62-1.836-3.62-4.17 0-2.528 2.186-4.148 4.656-4.148 1.853 0 3.42.93 4.302 2.528l-1.478.93zM138.858 18.383h8.627v1.685h-6.773v4.84h6.574v1.685h-6.574v6.395h6.773v1.685h-8.627zM153.953 18.383h8.627v1.685h-6.773v4.84h6.574v1.685h-6.574v6.395h6.773v1.685h-8.627zM177.984 18.383h2.492l-7.81 7.583 8.075 8.707h-2.56l-6.816-7.475-.465.454v7.021h-1.853v-16.29h1.853v6.979zM185.84 18.383h8.628v1.685h-6.774v4.84h6.575v1.685h-6.575v6.395h6.774v1.685h-8.627zM202.79 25.923h.573c2.096 0 4.214-.389 4.214-2.916 0-2.68-2.007-2.939-4.235-2.939h-.553v5.855zm0 8.75h-1.854v-16.29h2.406c3.154 0 6.088.821 6.088 4.494 0 2.506-1.61 4.278-4.17 4.494l5.296 7.302h-2.273l-5.03-7.15h-.464v7.15zM228.167 25.923h.574c2.096 0 4.214-.389 4.214-2.916 0-2.68-2.008-2.939-4.236-2.939h-.552v5.855zm0 8.75h-1.853v-16.29h2.405c3.155 0 6.09.821 6.09 4.494 0 2.506-1.61 4.278-4.17 4.494l5.294 7.302h-2.272l-5.03-7.15h-.464v7.15zM241.585 18.383h8.627v1.685h-6.773v4.84h6.574v1.685h-6.574v6.395h6.773v1.685h-8.627zM264.226 21.56c-.663-1.125-1.456-1.772-2.868-1.772-1.479 0-2.758 1.037-2.758 2.527 0 1.405 1.477 2.053 2.603 2.55l1.103.475c2.162.929 3.994 1.988 3.994 4.58 0 2.852-2.339 5.034-5.23 5.034-2.67 0-4.654-1.685-5.185-4.213l1.81-.496c.243 1.663 1.545 3.024 3.332 3.024s3.42-1.34 3.42-3.176c0-1.901-1.523-2.55-3.068-3.24l-1.014-.433c-1.942-.864-3.618-1.836-3.618-4.17 0-2.528 2.183-4.148 4.655-4.148 1.853 0 3.42.93 4.302 2.528l-1.478.93zM273.34 26.528c0 3.673 3.045 6.741 6.819 6.741 3.772 0 6.817-3.068 6.817-6.74 0-3.695-3.001-6.741-6.817-6.741-3.817 0-6.818 3.046-6.818 6.74m15.488.021c0 4.69-3.927 8.405-8.67 8.405-4.744 0-8.672-3.716-8.672-8.405 0-4.666 3.928-8.447 8.672-8.447 4.743 0 8.67 3.781 8.67 8.447M296.513 25.923h.574c2.096 0 4.213-.389 4.213-2.916 0-2.68-2.008-2.939-4.236-2.939h-.551v5.855zm0 8.75h-1.854v-16.29h2.405c3.156 0 6.09.821 6.09 4.494 0 2.506-1.61 4.278-4.17 4.494l5.295 7.302h-2.272l-5.03-7.15h-.464v7.15zM313.902 34.673h-1.854V20.068h-4.015v-1.685h9.928v1.685h-4.06z"/>
		<path fill="#58585B" d="M221.122 44.823c-.064 1.805-3.321 3.626-4.91 3.766-.51.047-.35-.45.079-.482 1.653-.14 3.194-1.012 3.972-2.475.382-.716.446-1.587-.428-1.727-1.669-.25-5.754 2.661-6.915 6.226-.682 2.038.35 2.972 2.035 2.988 1.892.062 4.641-.872 6.12-2.91.111-.156.301.014.222.14-1.654 2.224-4.291 3.19-6.342 3.159-1.94-.016-3.433-1.136-2.813-3.657.81-3.238 4.593-6.787 7.709-6.32.873.125 1.287.67 1.271 1.292M227.874 44.667c.398-.747.159-1.198-.636-.607-1.43 1.074-2.336 2.585-3.163 4.374 1.272-.81 3.084-2.444 3.8-3.767zm-4.767 3.938c.094-.125.174-.265.238-.389.27-.56 2.384-5.214 4.466-4.794.906.171.827.887.461 1.526-.842 1.447-3.02 3.003-4.514 4.186-.493 1.074-.763 1.93-.922 2.413.668-.81 2.05-2.272 2.925-2.942.73-.544 1.319-.576 1.35-.093.048.513-.477 1.213-.715 1.65-.301.607-.477 1.198-.508 1.54-.112.67.207 1.027.73.763.509-.28 1.701-1.261 2.369-2.163.095-.11.27-.016.19.124-.302.545-1.271 1.572-2.05 2.132-.509.373-1.701.748-2.018-.187-.064-.186-.064-.45-.016-.746.08-.654.524-1.463.842-2.04.286-.513.207-.871-.953.11-.907.808-2.241 2.863-2.544 3.034-.158.079-1 .452-.842.156.096-.233.81-2.287 1.272-3.44a30.55 30.55 0 0 1-1.304 1.479c-.158.172-.158-.186-.015-.389.46-.576.922-1.09 1.272-1.557-.304-.155-.112-.576.205-.404l.08.031zM229.287 52.247c-1.177-1.463 2.447-3.798 3.639-4.078.477-.124 1.176-.156 1.59.125.158.108.27.265.27.42 0 .11-.016.11-.096.078-.174-.265-.493-.296-.794-.296-.827 0-1.94.623-2.767 1.338-.444.406-1.763 1.883-1.271 2.569.223.31 1.002-.249 1.224-.42.413-.343 1.129-.934 1.542-1.37.223-.233 1.43-1.541 1.573-1.541.16 0 .78.124.636.373-.572.795-.89 1.76-.953 2.257-.096.67.222 1.028.73.763.526-.28 1.717-1.26 2.369-2.163.08-.11.27-.016.191.124-.286.545-1.271 1.572-2.067 2.132-.508.374-1.685.748-2.002-.186-.143-.42.047-1.354.255-1.9-.271.126-1.781 2.304-3.053 2.304-.334 0-.779-.218-1.016-.53M237.405 50.675a12.733 12.733 0 0 0 1.479-2.195c-.239-.03-.398-.186-.334-.373.143-.467.81-1.105 1.287-1.323.462-.202.795-.374.366.39l-.62.964c.54.032 1.096.062 1.669.032.953-.048.572.482.015 1.105-.715.808-1.24 1.82-1.43 2.318-.254.7-.016 1.137.509.872.509-.28 1.7-1.26 2.352-2.163.08-.11.286-.016.207.124-.302.545-1.272 1.572-2.066 2.132-.287.218-.795.436-1.24.436-.35 0-.652-.14-.763-.576-.286-1.01.763-2.148 1.35-2.739.239-.264.97-.95-.126-1.12a3.87 3.87 0 0 0-.716-.08c-.572.796-1.112 1.604-1.748 2.367-.16.203-.428.125-.19-.17M244.254 49.99c1.558-1.043 3.655-3.735 4.499-5.323.428-.762.063-1.12-.637-.607-.97.732-1.78 1.852-2.463 3.051a99.184 99.184 0 0 0-.954 1.806c-.175.358-.318.73-.445 1.074m-.445 1.337c-.096.763.127 1.604 1.049 1.09.62-.327 1.796-1.37 2.337-2.116.079-.11.27-.016.174.156-.317.544-1.32 1.57-2.114 2.147a1.714 1.714 0 0 1-.986.343c-.953 0-1.239-.53-1.207-1.245.095-1.557 2.019-5.276 3.052-6.616.604-.762 1.318-1.696 2.4-1.696.715 0 1.24.546.667 1.557-1.303 2.225-3.179 4.047-5.165 5.665-.112.31-.19.56-.207.715M250.594 51.391c-.095-.327.127-.576.397-.498.43-.84.303-1.168.223-1.354-.175-.436.524-.592.651-.171.223.638-.333 1.603-.683 2.086.016.295.19.42.398.42.508 0 1.033-.576 1.35-.903.192-.218.398-.451.557-.669.079-.11.27-.016.19.124-.095.187-.302.435-.54.716-.35.42-.986 1.09-1.605 1.09-.27 0-.54-.156-.652-.39-.206.219-.413.421-.62.608-.715.591-1.573.638-2.098.311-.525-.311-.715-1.043-.429-2.008.159-.591.683-1.417 1.398-2.04.589-.513 1.304-.762 1.78-.59.287.093.526.357.462.746-.032.25-.27.234-.27.11.032-.171 0-.42-.303-.42-.699 0-2.225 1.587-2.479 3.003-.111.607.08 1.137.667 1.137.494 0 1.177-.515 1.654-1.215-.017-.03-.048-.046-.048-.093M257.903 48.402c-.238.078-1.048.187-1.795.266-.208.373-.398.638-.446.777-.476.935-.906 1.759-.953 2.258-.112.668.206 1.026.73.762.51-.28 1.7-1.261 2.37-2.163.078-.11.269-.016.19.124-.302.545-1.272 1.572-2.067 2.132-.508.373-1.684.748-2.002-.187-.127-.357.143-1.198.477-1.913-.143.17-.286.404-.62.778-.159.17-.318-.032-.176-.218a20.86 20.86 0 0 0 1.225-1.603c0-.031.143-.28.35-.655-.16.032-.286.032-.366.032-.16 0-.318-.14-.223-.343.127-.264.54-.264.843-.28.016-.03.032-.03.063-.03l.795-1.449c.397-.668.43-.825.652-.855.238-.032.54.015.635.155.144.187-.048.498-.142.638-.08.156-.24.14-.334.327l-.763 1.308.206-.016c.493-.047.89-.125 1.494-.109.192 0 .525.11-.143.264M262.225 48.402c-.238.078-1.05.187-1.795.266-.207.373-.398.638-.446.777-.477.935-.906 1.759-.954 2.258-.11.668.208 1.026.731.762.509-.28 1.701-1.261 2.368-2.163.08-.11.271-.016.192.124-.303.545-1.272 1.572-2.066 2.132-.51.373-1.686.748-2.003-.187-.127-.357.143-1.198.477-1.913-.143.17-.286.404-.62.778-.16.17-.319-.032-.175-.218.556-.67.985-1.245 1.224-1.603 0-.031.143-.28.35-.655-.16.032-.287.032-.366.032-.16 0-.318-.14-.223-.343.127-.264.541-.264.842-.28.017-.03.033-.03.064-.03l.795-1.449c.397-.668.43-.825.652-.855.238-.032.54.015.636.155.142.187-.048.498-.144.638-.08.156-.238.14-.333.327l-.763 1.308.206-.016c.493-.047.89-.125 1.494-.109.191 0 .524.11-.143.264M264.147 51.049c-.238.015-.35-.202-.112-.218.51-.047 1.4-.545 1.988-1.012.269-.203.747-.67.715-1.011-.017-.437-.588-.203-.811-.094-.937.42-2.304 1.712-2.654 2.848-.398 1.308.826 1.323 1.86.919 1.176-.467 2.193-1.308 2.765-2.164.063-.078.143-.078.175-.046.08.031.08.109.016.186a5.944 5.944 0 0 1-2.75 2.335c-1.62.637-3.655 0-2.781-1.961.476-1.058 2.94-3.098 4.132-2.708.651.217.557 1.011.254 1.447-.572.825-2.082 1.417-2.797 1.479M278.448 43.811c.048-.233 1.065-.295 1.002 0-.414.981-1.002 2.646-1.765 4.359 1.287.249 2.607.59 3.83.731.43-.888.875-1.79 1.256-2.708.175-.405.128-.544.08-.638.048-.499 1.08-1.853 1.907-1.853.206 0 1.018.203.969.685-.048-.015-.127-.078-.19-.078-1.16 0-2.877 3.642-3.339 4.654.462 0 .97-.062 1.352-.218a1.03 1.03 0 0 0 .477-.343c.095-.155.27 0 .159.172-.128.186-.334.343-.604.451-.429.171-1.002.202-1.51.202-.636 1.463-1.701 4.857 1 2.834a9.626 9.626 0 0 0 1.75-1.775c.063-.062.27-.046.19.14-.048.109-.763 1.136-1.876 2.024a2.625 2.625 0 0 1-1.557.544c-1.526 0-.795-2.225-.509-3.004.096-.265.207-.529.334-.794-1.335-.124-2.622-.358-3.942-.513-1.223 2.724-2.813 5.494-4.688 6.054-.508.171-.954.171-1.32.063-.444-.14-.746-.436-.874-.903-.079-.265.112-.654.271-.078a.805.805 0 0 0 .604.577c.255.046.731.108 1.065 0 1.875-.577 3.306-3.192 4.339-5.79l-.843-.047c-1.113-.063-2.463.077-2.893 1.26-.111.234-.111.451 0 .607.127.202-.142.343-.285.125-.112-.203-.191-.576-.16-.95.175-1.883 1.829-1.883 3.417-1.696.318.03.652.077.97.14.366-.95.668-1.884.922-2.677-.62.544-1.415.793-2.067.856-.237.015-.222-.234.017-.265.922-.093 2.003-1.043 2.511-2.148M285.104 52.247c-1.177-1.463 2.447-3.798 3.64-4.078.476-.124 1.175-.156 1.589.125.158.108.27.265.27.42 0 .11-.016.11-.096.078-.174-.265-.492-.296-.794-.296-.827 0-1.94.623-2.766 1.338-.445.406-1.764 1.883-1.272 2.569.223.31 1.002-.249 1.224-.42.413-.343 1.129-.934 1.542-1.37.223-.233 1.43-1.541 1.574-1.541.158 0 .778.124.635.373-.571.795-.89 1.76-.953 2.257-.096.67.222 1.028.73.763.526-.28 1.717-1.26 2.37-2.163.079-.11.27-.016.19.124-.286.545-1.27 1.572-2.066 2.132-.509.374-1.685.748-2.003-.186-.142-.42.048-1.354.255-1.9-.271.126-1.78 2.304-3.052 2.304-.334 0-.78-.218-1.017-.53M293.223 50.675a12.699 12.699 0 0 0 1.478-2.195c-.238-.03-.398-.186-.334-.373.143-.467.81-1.105 1.288-1.323.46-.202.794-.374.366.39l-.62.964c.54.032 1.096.062 1.669.032.953-.048.571.482.015 1.105-.715.808-1.24 1.82-1.43 2.318-.254.7-.016 1.137.51.872.508-.28 1.699-1.26 2.35-2.163.08-.11.287-.016.207.124-.301.545-1.271 1.572-2.066 2.132-.286.218-.795.436-1.24.436-.35 0-.651-.14-.762-.576-.287-1.01.762-2.148 1.35-2.739.24-.264.97-.95-.126-1.12a3.867 3.867 0 0 0-.716-.08c-.572.796-1.113 1.604-1.748 2.367-.159.203-.43.125-.19-.17M303.997 44.138c-1.35 1.012-2.368 2.833-3.18 4.623 1.448-.934 3.069-2.537 3.832-3.767.445-.7.301-1.603-.652-.856m-3.353 5.246c-.224.389-.397.964-.493 1.463a8.746 8.746 0 0 1 1.43-1.557c.684-.576 1.24-.887 1.923-.887.35 0 1.065.466 1.128.855.16 1.183-1.382 2.507-2.256 3.066-.795.53-1.717.904-2.686.904-.493 0-1.637-.266-.223-.266.795 0 1.892-.668 2.511-1.12.636-.435 1.432-1.213 1.701-2.07.096-.248.302-1.058-.175-1.058-.651 0-1.415.592-1.875.98-.476.39-1.621 1.634-1.51 2.335.064.14-.207.763-.636.187-.207-.296-.016-1.447.127-1.992-.207.233-.286.482-.778 1.011-.16.172-.318-.03-.175-.217.778-.95 1.303-1.65 1.446-1.961.317-.873 1.24-2.942 1.955-4.032.524-.81 1.398-1.82 2.495-1.525l.318.108c.62.359.54.935.207 1.573-.604 1.198-2.925 3.175-4.434 4.203M308.875 51.391c-.096-.327.126-.576.397-.498.43-.84.302-1.168.222-1.354-.175-.436.525-.592.652-.171.222.638-.334 1.603-.683 2.086.016.295.19.42.397.42.508 0 1.033-.576 1.35-.903.191-.218.398-.451.558-.669.079-.11.27-.016.19.124-.096.187-.302.435-.54.716-.35.42-.986 1.09-1.606 1.09-.27 0-.54-.156-.651-.39-.207.219-.414.421-.62.608-.716.591-1.574.638-2.098.311-.524-.311-.716-1.043-.43-2.008.16-.591.684-1.417 1.4-2.04.588-.513 1.303-.762 1.78-.59.286.093.524.357.46.746-.032.25-.27.234-.27.11.032-.171 0-.42-.301-.42-.7 0-2.226 1.587-2.48 3.003-.112.607.08 1.137.667 1.137.492 0 1.176-.515 1.653-1.215-.016-.03-.047-.046-.047-.093M312.194 50.675a12.76 12.76 0 0 0 1.48-2.195c-.24-.03-.399-.186-.335-.373.143-.467.81-1.105 1.287-1.323.461-.202.795-.374.366.39l-.62.964c.54.032 1.096.062 1.669.032.953-.048.572.482.016 1.105-.715.808-1.24 1.82-1.43 2.318-.255.7-.017 1.137.508.872.509-.28 1.701-1.26 2.353-2.163.079-.11.285-.016.206.124-.302.545-1.271 1.572-2.066 2.132-.286.218-.795.436-1.24.436-.35 0-.651-.14-.763-.576-.286-1.01.764-2.148 1.351-2.739.238-.264.969-.95-.127-1.12a3.865 3.865 0 0 0-.715-.08c-.573.796-1.113 1.604-1.75 2.367-.158.203-.427.125-.19-.17"/>
		<g fill="#6DC8BD">
			<path d="M27.662 17.963l1.32-.03C26.302 8.37 28.557.53 28.557.53L23.938.348c-.882 13.631 3.724 17.615 3.724 17.615"/>
			<path d="M25.007 17.954l1.247-.434c-5.53-8.272-5.83-16.419-5.83-16.419l-4.448 1.24c3.41 13.236 9.031 15.613 9.031 15.613"/>
			<path d="M22.48 18.759l1.05-.795c-7.837-6.172-10.66-13.83-10.66-13.83L9.024 6.678C16.393 18.22 22.48 18.76 22.48 18.76"/>
			<path d="M20.327 20.299l.752-1.078C11.701 15.752 6.63 9.335 6.63 9.335L3.765 12.93C14.37 21.651 20.327 20.3 20.327 20.3"/>
			<path d="M18.76 22.423l.38-1.256c-10.001-.425-16.825-4.974-16.825-4.974L.713 20.49c12.803 5.043 18.047 1.932 18.047 1.932"/>
			<path d="M17.931 24.923l-.03-1.31c-9.644 2.66-17.552.423-17.552.423l-.184 4.58c13.749.873 17.766-3.693 17.766-3.693"/>
			<path d="M17.923 27.555l-.439-1.237c-8.342 5.484-16.56 5.78-16.56 5.78l1.252 4.412c13.349-3.381 15.747-8.955 15.747-8.955"/>
			<path d="M18.734 30.061l-.802-1.043C11.707 36.79 3.985 39.59 3.985 39.59l2.565 3.812C18.19 36.096 18.734 30.06 18.734 30.06"/>
			<path d="M20.288 32.195l-1.089-.746c-3.497 9.299-9.97 14.328-9.97 14.328l3.627 2.84c8.796-10.515 7.432-16.422 7.432-16.422"/>
			<path d="M22.43 33.749l-1.268-.376c-.428 9.915-5.016 16.681-5.016 16.681l4.335 1.59c5.087-12.695 1.949-17.895 1.949-17.895"/>
			<path d="M28.675 52.187c.882-13.632-3.723-17.617-3.723-17.617l-1.323.032c2.682 9.56.427 17.4.427 17.4l4.619.185z"/>
			<path d="M36.637 50.192c-3.41-13.235-9.031-15.613-9.031-15.613l-1.249.435c5.53 8.271 5.83 16.418 5.83 16.418l4.45-1.24z"/>
			<path d="M39.742 48.399l3.846-2.543C36.22 34.313 30.133 33.774 30.133 33.774l-1.051.796c7.837 6.172 10.66 13.829 10.66 13.829"/>
			<path d="M48.847 39.602c-10.605-8.72-16.562-7.368-16.562-7.368l-.751 1.08c9.377 3.468 14.448 9.885 14.448 9.885l2.865-3.597z"/>
			<path d="M50.296 36.342l1.604-4.3C39.097 27 33.852 30.11 33.852 30.11l-.378 1.258c9.999.425 16.822 4.974 16.822 4.974"/>
			<path d="M34.68 27.61l.033 1.312c9.642-2.66 17.549-.424 17.549-.424l.185-4.58C38.7 23.044 34.681 27.61 34.681 27.61"/>
			<path d="M34.69 24.978l.439 1.238c8.341-5.483 16.557-5.78 16.557-5.78l-1.25-4.412c-13.348 3.38-15.747 8.954-15.747 8.954"/>
			<path d="M33.878 22.472l.803 1.043c6.225-7.77 13.946-10.57 13.946-10.57l-2.565-3.813c-11.64 7.305-12.184 13.34-12.184 13.34"/>
			<path d="M32.324 20.338l1.09.746c3.497-9.297 9.968-14.326 9.968-14.326l-3.627-2.84c-8.794 10.514-7.43 16.42-7.43 16.42"/>
			<path d="M31.451 19.16c.429-9.914 5.016-16.679 5.016-16.679L32.132.891c-5.087 12.694-1.95 17.893-1.95 17.893l1.27.376zM25.825 30.846c-.032.004-.064.009-.097.012l-.099.005c-.13.005-.271.017-.4.004a4.292 4.292 0 0 1-1.654-.394 4.372 4.372 0 0 1-1.512-1.156 4.191 4.191 0 0 1-.898-1.838l-.028-.13c-.01-.042-.013-.087-.02-.132l-.031-.264c-.012-.088-.008-.178-.012-.267 0-.088-.007-.18.001-.266.016-.173.025-.346.05-.519l.048-.258.025-.13a4.964 4.964 0 0 1 .977-2.008 5.01 5.01 0 0 1 1.63-1.321 4.827 4.827 0 0 1 1.98-.521c.167 0 .335-.007.498.001.081.005.162.01.242.017l.24.028c.318.045.627.11.924.2a5.852 5.852 0 0 1 1.6.77 5.8 5.8 0 0 1 1.178 1.075 5.535 5.535 0 0 1 1.12 2.235c.04.16.066.314.09.454.017.142.037.271.043.388l.012.165c0 .053.002.1.003.147.003.09.003.165 0 .227l-.006.188-.015-.187a10.825 10.825 0 0 0-.044-.368l-.03-.161c-.018-.114-.052-.238-.083-.374a5.338 5.338 0 0 0-.605-1.413 5.414 5.414 0 0 0-.806-1.014 5.246 5.246 0 0 0-2.645-1.405 5.437 5.437 0 0 0-1.226-.091c-.138.006-.271.026-.407.038a3.822 3.822 0 0 0-1.522.557 3.87 3.87 0 0 0-1.146 1.116 3.69 3.69 0 0 0-.587 1.525l-.009.094-.02.186c-.007.125-.002.25-.005.372-.002.062.011.118.015.176.008.058.007.115.02.171l.035.167c.006.028.01.056.018.083l.026.08c.129.43.353.81.642 1.102.286.295.62.51.957.643.337.134.676.187.986.186.08.007.144-.007.213-.008l.05-.003.048-.01.096-.014a1.997 1.997 0 0 0 1.33-.932 2.05 2.05 0 0 0 .228-.583c.008-.05.024-.1.029-.152a3.88 3.88 0 0 1 .015-.154c.004-.05 0-.092.003-.14.001-.045-.008-.089-.01-.133a1.49 1.49 0 0 0-.474-.913 1.492 1.492 0 0 0-.416-.278 1.796 1.796 0 0 0-.463-.136 1.343 1.343 0 0 0-.415.002c-.032.008-.067.009-.099.019a3.03 3.03 0 0 1-.095.026c-.06.024-.123.043-.18.073-.059.025-.109.061-.163.09-.047.036-.102.067-.143.107l-.066.054-.06.058c-.041.037-.072.079-.107.116-.133.155-.218.305-.294.413-.068.108-.133.175-.198.175-.064 0-.125-.068-.175-.216a1.33 1.33 0 0 1 .006-.67c.02-.071.04-.15.073-.226l.051-.12c.02-.04.042-.079.065-.12.043-.085.103-.162.163-.247.067-.077.135-.163.22-.237.081-.08.176-.15.276-.222l.16-.097c.056-.033.116-.057.176-.086.24-.107.523-.18.82-.198a2.885 2.885 0 0 1 1.802.502 2.985 2.985 0 0 1 1.225 1.82c.017.099.04.198.05.299.007.1.019.203.019.302-.002.097-.004.194-.008.292-.004.098-.021.197-.032.295-.06.394-.187.79-.383 1.158a3.691 3.691 0 0 1-1.912 1.682c-.209.081-.44.146-.689.19l-.19.027m8.34-4.58c0-4.249-3.474-7.693-7.76-7.693-4.285 0-7.759 3.444-7.759 7.693s3.474 7.694 7.76 7.694c4.285 0 7.758-3.445 7.758-7.694"/>
		</g>
	</g>
</svg>
