<svg xmlns="http://www.w3.org/2000/svg" xmlns:xlink="http://www.w3.org/1999/xlink" width="218" height="218" viewBox="0 0 218 218">
  <defs>
    <clipPath id="clip-path">
      <rect id="Rectangle_953" data-name="Rectangle 953" width="182.217" height="148.944" fill="none"/>
    </clipPath>
  </defs>
  <g id="Group_6499" data-name="Group 6499" transform="translate(-111 -1539)">
    <rect id="Rectangle_2484" data-name="Rectangle 2484" width="218" height="218" transform="translate(111 1539)" fill="none"/>
    <g id="Group_6496" data-name="Group 6496" transform="translate(31 382.026)">
      <g id="Group_4238" data-name="Group 4238" transform="translate(98 1191.974)">
        <g id="Group_4233" data-name="Group 4233">
          <g id="Group_4232" data-name="Group 4232" clip-path="url(#clip-path)">
            <path id="Path_19012" data-name="Path 19012" d="M306.642,39.083A39.083,39.083,0,1,1,267.558,0a39.084,39.084,0,0,1,39.083,39.084" transform="translate(-124.425 0.001)" fill="#e5f1ff"/>
            <path id="Path_19013" data-name="Path 19013" d="M88.7,239.419a22.843,22.843,0,1,1-22.843-22.843A22.844,22.844,0,0,1,88.7,239.419" transform="translate(-23.424 -117.945)" fill="#e5f1ff"/>
            <path id="Path_19014" data-name="Path 19014" d="M67.53,28.61A20.884,20.884,0,1,0,88.413,49.494,20.884,20.884,0,0,0,67.53,28.61m0,34.236A13.352,13.352,0,1,1,80.882,49.494,13.352,13.352,0,0,1,67.53,62.846" transform="translate(-25.403 -15.581)" fill="#a9ccea"/>
            <path id="Path_19015" data-name="Path 19015" d="M187.556,312.375a2.4,2.4,0,0,1-2.4,2.4h-60.6a2.4,2.4,0,0,1,0-4.793h21.511l2.967-5.478h11.64l2.967,5.478H185.16a2.4,2.4,0,0,1,2.4,2.4" transform="translate(-66.531 -165.827)" fill="#0f3157"/>
            <rect id="Rectangle_916" data-name="Rectangle 916" width="9.928" height="2.91" transform="translate(82.867 133.709)" fill="#ff4d6b"/>
            <rect id="Rectangle_917" data-name="Rectangle 917" width="9.928" height="2.91" transform="translate(82.867 128.916)" fill="#ff4d6b"/>
            <path id="Path_19016" data-name="Path 19016" d="M341.22,225.547a15.515,15.515,0,1,1,8.568-8.059" transform="translate(-174.34 -106.479)" fill="none" stroke="#ff4d6b" stroke-linecap="round" stroke-linejoin="round" stroke-width="1.128" stroke-dasharray="0 5.638"/>
            <path id="Path_19017" data-name="Path 19017" d="M214.119,45.981h-2.479a20.42,20.42,0,0,0-2.541-6.135l1.752-1.752a1.935,1.935,0,0,0,0-2.736l-3.894-3.894a1.934,1.934,0,0,0-2.736,0l-1.752,1.752a20.412,20.412,0,0,0-6.135-2.541V28.2a1.935,1.935,0,0,0-1.935-1.935h-5.506a1.935,1.935,0,0,0-1.935,1.935v2.478a20.412,20.412,0,0,0-6.135,2.541l-1.752-1.752a1.935,1.935,0,0,0-2.736,0l-3.893,3.894a1.935,1.935,0,0,0,0,2.736l1.752,1.752a20.407,20.407,0,0,0-2.54,6.135h-2.479a1.935,1.935,0,0,0-1.935,1.935v5.506a1.935,1.935,0,0,0,1.935,1.935h2.479a20.407,20.407,0,0,0,2.54,6.135l-1.752,1.752a1.935,1.935,0,0,0,0,2.736l3.893,3.894a1.936,1.936,0,0,0,2.736,0l1.752-1.752a20.412,20.412,0,0,0,6.135,2.541V73.14a1.935,1.935,0,0,0,1.935,1.935H194.4a1.935,1.935,0,0,0,1.935-1.935V70.662a20.412,20.412,0,0,0,6.135-2.541l1.752,1.752a1.935,1.935,0,0,0,2.736,0l3.894-3.894a1.935,1.935,0,0,0,0-2.736L209.1,61.492a20.42,20.42,0,0,0,2.541-6.135h2.479a1.935,1.935,0,0,0,1.935-1.935V47.915a1.935,1.935,0,0,0-1.935-1.935m-22.472,14.51a9.822,9.822,0,1,1,9.822-9.822,9.822,9.822,0,0,1-9.822,9.822" transform="translate(-91.077 -14.302)" fill="#289df2"/>
            <path id="Rectangle_918" data-name="Rectangle 918" d="M11.468,0H135.4a11.468,11.468,0,0,1,11.468,11.468v69.24A11.467,11.467,0,0,1,135.4,92.175H11.467A11.467,11.467,0,0,1,0,80.708V11.468A11.468,11.468,0,0,1,11.468,0Z" transform="translate(14.899 35.433)" fill="#0f3775"/>
            <rect id="Rectangle_919" data-name="Rectangle 919" width="15.149" height="3.338" transform="translate(25.608 46.836)" fill="#284d89"/>
            <rect id="Rectangle_920" data-name="Rectangle 920" width="15.149" height="3.338" transform="translate(43.838 46.836)" fill="#284d89"/>
            <rect id="Rectangle_921" data-name="Rectangle 921" width="15.149" height="3.338" transform="translate(90.056 46.836)" fill="#284d89"/>
            <rect id="Rectangle_922" data-name="Rectangle 922" width="15.149" height="3.338" transform="translate(136.274 46.836)" fill="#284d89"/>
            <rect id="Rectangle_923" data-name="Rectangle 923" width="27.089" height="3.338" transform="translate(61.042 46.836)" fill="#ff4d6b"/>
            <rect id="Rectangle_924" data-name="Rectangle 924" width="27.089" height="3.338" transform="translate(107.003 46.836)" fill="#2889db"/>
            <rect id="Rectangle_925" data-name="Rectangle 925" width="2.653" height="1.626" transform="translate(25.694 44.184)" fill="#2889db"/>
            <rect id="Rectangle_926" data-name="Rectangle 926" width="27.688" height="1.626" transform="translate(25.694 52.913)" fill="#fff"/>
            <rect id="Rectangle_927" data-name="Rectangle 927" width="8.217" height="1.626" transform="translate(25.694 55.781)" fill="#fff"/>
            <path id="Path_19018" data-name="Path 19018" d="M85.938,190.645H60.261a3.466,3.466,0,0,1-3.466-3.466V140.7a3.466,3.466,0,0,1,3.466-3.466H85.938A3.466,3.466,0,0,1,89.4,140.7v46.475a3.466,3.466,0,0,1-3.466,3.466" transform="translate(-30.93 -74.738)" fill="#284d89"/>
            <rect id="Rectangle_928" data-name="Rectangle 928" width="10.913" height="1.669" transform="translate(29.973 70.331)" fill="#fff"/>
            <rect id="Rectangle_929" data-name="Rectangle 929" width="10.913" height="1.669" transform="translate(29.973 74.054)" fill="#fff"/>
            <rect id="Rectangle_930" data-name="Rectangle 930" width="10.913" height="1.669" transform="translate(29.973 77.777)" fill="#fff"/>
            <rect id="Rectangle_931" data-name="Rectangle 931" width="6.676" height="1.669" transform="translate(29.973 93.311)" fill="#fff"/>
            <rect id="Rectangle_932" data-name="Rectangle 932" width="6.676" height="1.669" transform="translate(29.973 97.034)" fill="#fff"/>
            <rect id="Rectangle_933" data-name="Rectangle 933" width="6.676" height="1.669" transform="translate(41.442 97.034)" fill="#fff"/>
            <rect id="Rectangle_934" data-name="Rectangle 934" width="4.194" height="1.669" transform="translate(29.973 89.075)" fill="#fff"/>
            <rect id="Rectangle_935" data-name="Rectangle 935" width="2.225" height="1.669" transform="translate(47.947 89.075)" fill="#fff"/>
            <rect id="Rectangle_936" data-name="Rectangle 936" width="11.469" height="1.669" transform="translate(35.622 89.075)" fill="#ff4d6b"/>
            <rect id="Rectangle_937" data-name="Rectangle 937" width="1.605" height="1.669" transform="translate(29.973 82.784)" fill="#2889db"/>
            <rect id="Rectangle_938" data-name="Rectangle 938" width="1.605" height="1.669" transform="translate(29.973 85.737)" fill="#ff4d6b"/>
            <path id="Path_19019" data-name="Path 19019" d="M84.644,214.928h-.6l1.434-2.14h.6Z" transform="translate(-45.77 -115.882)" fill="#fff"/>
            <rect id="Rectangle_939" data-name="Rectangle 939" width="24.778" height="1.412" transform="translate(29.973 101.913)" fill="#282e5c"/>
            <rect id="Rectangle_940" data-name="Rectangle 940" width="24.778" height="1.412" transform="translate(29.973 105.123)" fill="#282e5c"/>
            <path id="Path_19020" data-name="Path 19020" d="M296.772,156.249H228.643a3.081,3.081,0,0,1-3.081-3.081V134.68a3.081,3.081,0,0,1,3.081-3.081h68.129a3.081,3.081,0,0,1,3.081,3.081v18.487a3.081,3.081,0,0,1-3.081,3.081" transform="translate(-122.838 -71.667)" fill="#289df2"/>
            <path id="Path_19021" data-name="Path 19021" d="M274.049,157.749a12.55,12.55,0,0,1,14.55-7.018c10.784,2.225,16.262,14.379,30.127,4.451" transform="translate(-149.244 -81.898)" fill="none" stroke="#fff" stroke-miterlimit="10" stroke-width="1.128"/>
            <rect id="Rectangle_941" data-name="Rectangle 941" width="1.541" height="1.541" transform="translate(158.185 76.365)" fill="#289df2"/>
            <rect id="Rectangle_942" data-name="Rectangle 942" width="1.541" height="1.541" transform="translate(158.185 76.365)" fill="none" stroke="#fff" stroke-miterlimit="10" stroke-width="1.128"/>
            <line id="Line_91" data-name="Line 91" x2="19.514" transform="translate(126.688 68.405)" fill="#289df2"/>
            <line id="Line_92" data-name="Line 92" x2="19.514" transform="translate(126.688 68.405)" fill="none" stroke="#fff" stroke-miterlimit="10" stroke-width="0.564"/>
            <line id="Line_93" data-name="Line 93" x2="19.514" transform="translate(149.198 77.563)" fill="#289df2"/>
            <line id="Line_94" data-name="Line 94" x2="19.514" transform="translate(149.198 77.563)" fill="none" stroke="#fff" stroke-miterlimit="10" stroke-width="0.564"/>
            <rect id="Rectangle_943" data-name="Rectangle 943" width="1.541" height="1.541" transform="translate(134.905 67.635)" fill="#289df2"/>
            <rect id="Rectangle_944" data-name="Rectangle 944" width="1.541" height="1.541" transform="translate(134.905 67.635)" fill="none" stroke="#fff" stroke-miterlimit="10" stroke-width="1.128"/>
            <path id="Path_19022" data-name="Path 19022" d="M233.863,167.9H219.142a2.226,2.226,0,0,1-2.226-2.225V143.6a2.225,2.225,0,0,1,2.226-2.225h14.721a2.225,2.225,0,0,1,2.225,2.225v22.082a2.225,2.225,0,0,1-2.225,2.225" transform="translate(-118.13 -76.989)" fill="#284d89"/>
            <rect id="Rectangle_945" data-name="Rectangle 945" width="10.913" height="1.505" transform="translate(101.782 68.148)" fill="#fff"/>
            <rect id="Rectangle_946" data-name="Rectangle 946" width="10.913" height="1.505" transform="translate(101.782 71.504)" fill="#fff"/>
            <rect id="Rectangle_947" data-name="Rectangle 947" width="4.108" height="1.505" transform="translate(101.782 74.861)" fill="#fff"/>
            <rect id="Rectangle_948" data-name="Rectangle 948" width="7.104" height="1.505" transform="translate(101.782 78.333)" fill="#289df2"/>
            <rect id="Rectangle_949" data-name="Rectangle 949" width="4.793" height="1.505" transform="translate(101.782 81.689)" fill="#289df2"/>
            <rect id="Rectangle_950" data-name="Rectangle 950" width="4.793" height="1.505" transform="translate(101.782 85.045)" fill="#fff"/>
            <line id="Line_95" data-name="Line 95" x2="7.703" transform="translate(165.032 56.594)" fill="none" stroke="#284d89" stroke-linecap="round" stroke-linejoin="round" stroke-width="2.255"/>
            <path id="Path_19023" data-name="Path 19023" d="M225.454,218.327l-2.659,2.081-3.814.694s-3.584-.231-3.93-.231a19.2,19.2,0,0,1-2.774-1.965l-4.508-1.618-3.121,1.156-3.7-.809-5.548-.347-5.317,2.08-4.392.694-3.93,1.271-4.392.347-4.739-3.7-4.392-.809-4.508,2.543-3.584,1.156-4.068-.116-5.127,3.121h-3.057l-5.163,1.811" transform="translate(-77.73 -118.269)" fill="none" stroke="#ff5c66" stroke-miterlimit="10" stroke-width="1.015"/>
            <line id="Line_96" data-name="Line 96" x2="82.762" transform="translate(65.078 107.494)" fill="none" stroke="#f7f7f7" stroke-miterlimit="10" stroke-width="0.254"/>
            <rect id="Rectangle_951" data-name="Rectangle 951" width="0.848" height="2.081" transform="translate(64.269 106.454)" fill="#f7f7f7"/>
            <rect id="Rectangle_952" data-name="Rectangle 952" width="0.848" height="2.081" transform="translate(147.339 106.454)" fill="#f7f7f7"/>
            <line id="Line_97" data-name="Line 97" y1="6.974" transform="translate(147.763 100.521)" fill="none" stroke="#f7f7f7" stroke-miterlimit="10" stroke-width="0.254"/>
            <path id="Path_19024" data-name="Path 19024" d="M323.909,219.179a.655.655,0,1,1-.655-.655.655.655,0,0,1,.655.655" transform="translate(-175.683 -119.005)" fill="#f7f7f7"/>
          </g>
        </g>
        <text id="beta_test" data-name="beta test" transform="translate(65.194 111.732)" fill="#f7f7f7" font-size="3" font-family="BebasNeue-Regular, Bebas Neue"><tspan x="0" y="0" letter-spacing="0.059em">b</tspan><tspan y="0" letter-spacing="0.06em">e</tspan><tspan y="0" letter-spacing="0.022em">t</tspan><tspan y="0" letter-spacing="0.059em">a </tspan><tspan y="0" letter-spacing="0.06em">te</tspan><tspan y="0" letter-spacing="0.059em">s</tspan><tspan y="0">t</tspan></text>
        <g id="Group_4235" data-name="Group 4235">
          <g id="Group_4234" data-name="Group 4234" clip-path="url(#clip-path)">
            <rect id="Rectangle_954" data-name="Rectangle 954" width="51.476" height="0.925" transform="translate(84.189 110.499)" fill="#28385e"/>
            <rect id="Rectangle_955" data-name="Rectangle 955" width="31.594" height="0.925" transform="translate(84.189 110.499)" fill="#ff4d6b"/>
            <rect id="Rectangle_956" data-name="Rectangle 956" width="25.314" height="0.925" transform="translate(84.189 112.271)" fill="#28385e"/>
            <path id="Path_19025" data-name="Path 19025" d="M146.308,251.54h3.121l.4-.867h-6.3v1.445h2.2Z" transform="translate(-78.167 -136.514)" fill="#ff4d6b"/>
            <rect id="Rectangle_957" data-name="Rectangle 957" width="0.347" height="0.347" transform="translate(74.262 114.151)" fill="#f7f7f7"/>
            <rect id="Rectangle_958" data-name="Rectangle 958" width="0.347" height="0.347" transform="translate(76.416 114.151)" fill="#f7f7f7"/>
            <rect id="Rectangle_959" data-name="Rectangle 959" width="0.347" height="0.347" transform="translate(78.568 114.151)" fill="#f7f7f7"/>
          </g>
        </g>
        <text id="_500" data-name="500" transform="translate(143.716 96.764)" fill="#f7f7f7" font-size="3" font-family="BebasNeue-Regular, Bebas Neue"><tspan x="0" y="0" letter-spacing="0.06em">50</tspan><tspan y="0">0</tspan></text>
        <g id="Group_4237" data-name="Group 4237">
          <g id="Group_4236" data-name="Group 4236" clip-path="url(#clip-path)">
            <path id="Path_19026" data-name="Path 19026" d="M303.62,245.411h-.771l-1.233-2.774h.771Z" transform="translate(-164.257 -132.137)" fill="#28385e"/>
            <path id="Path_19027" data-name="Path 19027" d="M308.019,245.411h-.771l-1.233-2.774h.771Z" transform="translate(-166.653 -132.137)" fill="#28385e"/>
            <path id="Path_19028" data-name="Path 19028" d="M312.419,245.411h-.771l-1.233-2.774h.771Z" transform="translate(-169.048 -132.137)" fill="#28385e"/>
            <path id="Path_19029" data-name="Path 19029" d="M316.818,245.411h-.771l-1.233-2.774h.771Z" transform="translate(-171.444 -132.137)" fill="#28385e"/>
            <path id="Path_19030" data-name="Path 19030" d="M321.133,245.411h-.771l-1.233-2.774h.771Z" transform="translate(-173.794 -132.137)" fill="#28385e"/>
            <rect id="Rectangle_961" data-name="Rectangle 961" width="12.53" height="2.244" transform="translate(131.464 17.762)" fill="#a9ccea"/>
            <rect id="Rectangle_962" data-name="Rectangle 962" width="18.892" height="2.244" transform="translate(131.464 21.778)" fill="#a9ccea"/>
            <rect id="Rectangle_963" data-name="Rectangle 963" width="23.298" height="2.244" transform="translate(131.464 25.794)" fill="#a9ccea"/>
            <rect id="Rectangle_964" data-name="Rectangle 964" width="8.908" height="2.244" transform="translate(131.464 29.809)" fill="#a9ccea"/>
            <rect id="Rectangle_965" data-name="Rectangle 965" width="12.53" height="2.244" transform="translate(0 44.808)" fill="#2889db"/>
            <rect id="Rectangle_966" data-name="Rectangle 966" width="18.892" height="2.244" transform="translate(0 48.824)" fill="#a9ccea"/>
            <rect id="Rectangle_967" data-name="Rectangle 967" width="23.298" height="2.244" transform="translate(0 52.84)" fill="#a9ccea"/>
            <rect id="Rectangle_968" data-name="Rectangle 968" width="8.908" height="2.244" transform="translate(0 56.856)" fill="#a9ccea"/>
            <rect id="Rectangle_969" data-name="Rectangle 969" width="53.407" height="6.933" transform="translate(31.257 123.61)" fill="none" stroke="#289df2" stroke-miterlimit="10" stroke-width="1.128"/>
            <rect id="Rectangle_970" data-name="Rectangle 970" width="2.568" height="15.748" transform="translate(57.019 69.005)" fill="none" stroke="#289df2" stroke-miterlimit="10" stroke-width="1.128"/>
            <path id="Path_19031" data-name="Path 19031" d="M352.491,219.03a8.85,8.85,0,1,1-8.85-8.85,8.85,8.85,0,0,1,8.85,8.85" transform="translate(-182.323 -114.461)" fill="#ff4d6b"/>
            <path id="Path_19032" data-name="Path 19032" d="M346.807,226.225l-3.515,1.288,3.515,1.277v1.32l-5.025-1.91v-1.373l5.025-1.91Z" transform="translate(-186.13 -122.487)" fill="#f9fbfc"/>
            <path id="Path_19033" data-name="Path 19033" d="M355.336,224.917l5.025,1.91V228.2l-5.025,1.911v-1.32l3.515-1.277-3.515-1.287Z" transform="translate(-193.512 -122.487)" fill="#f9fbfc"/>
            <circle id="Ellipse_489" data-name="Ellipse 489" cx="1.155" cy="1.155" r="1.155" transform="translate(173.762 110.643)" fill="none" stroke="#ff4d6b" stroke-miterlimit="10" stroke-width="1.128"/>
            <rect id="Rectangle_971" data-name="Rectangle 971" width="41.853" height="4.365" transform="translate(28.433 28.093)" fill="none" stroke="#289df2" stroke-miterlimit="10" stroke-width="1.128"/>
            <rect id="Rectangle_972" data-name="Rectangle 972" width="25.933" height="1.284" transform="translate(30.23 29.505)" fill="#289df2"/>
            <rect id="Rectangle_973" data-name="Rectangle 973" width="30.641" height="1.541" transform="translate(64.038 62.157)" fill="#284d89"/>
            <rect id="Rectangle_974" data-name="Rectangle 974" width="13.887" height="1.541" transform="translate(64.037 62.157)" fill="#2889db"/>
            <rect id="Rectangle_975" data-name="Rectangle 975" width="30.641" height="1.541" transform="translate(64.038 66.137)" fill="#284d89"/>
            <rect id="Rectangle_976" data-name="Rectangle 976" width="21.333" height="1.541" transform="translate(64.038 66.137)" fill="#ff4d6b"/>
            <rect id="Rectangle_977" data-name="Rectangle 977" width="30.641" height="1.541" transform="translate(64.038 70.117)" fill="#284d89"/>
            <rect id="Rectangle_978" data-name="Rectangle 978" width="6.248" height="1.541" transform="translate(64.038 70.117)" fill="#1ae5ff"/>
            <rect id="Rectangle_979" data-name="Rectangle 979" width="0.599" height="0.599" transform="translate(64.166 59.461)" fill="#284d89"/>
            <rect id="Rectangle_980" data-name="Rectangle 980" width="0.599" height="0.599" transform="translate(66.22 59.461)" fill="#284d89"/>
            <rect id="Rectangle_981" data-name="Rectangle 981" width="0.599" height="0.599" transform="translate(68.275 59.461)" fill="#284d89"/>
            <rect id="Rectangle_982" data-name="Rectangle 982" width="0.999" height="0.999" transform="translate(121.182 80.445)" fill="#fff"/>
            <rect id="Rectangle_983" data-name="Rectangle 983" width="0.999" height="0.999" transform="translate(124.605 80.445)" fill="#fff"/>
            <rect id="Rectangle_984" data-name="Rectangle 984" width="0.999" height="0.999" transform="translate(128.029 80.445)" fill="#fff"/>
            <rect id="Rectangle_985" data-name="Rectangle 985" width="1.872" height="1.872" transform="translate(135.595 40.765)" fill="#fff"/>
            <rect id="Rectangle_986" data-name="Rectangle 986" width="1.872" height="1.872" transform="translate(142.014 40.765)" fill="#fff"/>
            <rect id="Rectangle_987" data-name="Rectangle 987" width="1.872" height="1.872" transform="translate(148.434 40.765)" fill="#fff"/>
            <rect id="Rectangle_988" data-name="Rectangle 988" width="1.872" height="1.872" transform="translate(109.063 118.138)" fill="#fff"/>
            <rect id="Rectangle_989" data-name="Rectangle 989" width="1.872" height="1.872" transform="translate(115.482 118.138)" fill="#fff"/>
            <rect id="Rectangle_990" data-name="Rectangle 990" width="1.872" height="1.872" transform="translate(121.901 118.138)" fill="#fff"/>
            <rect id="Rectangle_991" data-name="Rectangle 991" width="0.998" height="0.999" transform="translate(30.516 66.294)" fill="#fff"/>
            <rect id="Rectangle_992" data-name="Rectangle 992" width="0.999" height="0.999" transform="translate(33.939 66.294)" fill="#fff"/>
            <rect id="Rectangle_993" data-name="Rectangle 993" width="0.999" height="0.999" transform="translate(37.362 66.294)" fill="#fff"/>
            <rect id="Rectangle_994" data-name="Rectangle 994" width="16.604" height="1.626" transform="translate(153.905 65.067)" fill="#fff"/>
            <rect id="Rectangle_995" data-name="Rectangle 995" width="4.928" height="1.626" transform="translate(153.905 67.934)" fill="#287dd1"/>
            <path id="Path_19034" data-name="Path 19034" d="M31.238,145.906H27.644v-3.595H24.306v3.595H20.711v3.338h3.595v3.6h3.338v-3.6h3.595Z" transform="translate(-11.279 -77.501)" fill="#1ae5ff"/>
            <path id="Path_19035" data-name="Path 19035" d="M15.029,169.572H12.837V167.38H10.8v2.192H8.61v2.035H10.8V173.8h2.035v-2.192h2.192Z" transform="translate(-4.689 -91.153)" fill="#2889db"/>
            <path id="Path_19036" data-name="Path 19036" d="M147.718,167.991a5.622,5.622,0,1,0,5.622,5.622,5.622,5.622,0,0,0-5.622-5.622m0,8.551a2.93,2.93,0,1,1,2.93-2.93,2.93,2.93,0,0,1-2.93,2.93" transform="translate(-77.384 -91.486)" fill="#284d89"/>
            <path id="Path_19037" data-name="Path 19037" d="M144.413,173.058a1.376,1.376,0,0,0,1.218-.776,2.928,2.928,0,0,1,5.219,0,1.375,1.375,0,0,0,1.217.776,1.344,1.344,0,0,0,1.224-1.915,5.622,5.622,0,0,0-10.1,0,1.344,1.344,0,0,0,1.224,1.914" transform="translate(-77.906 -91.486)" fill="#289df2"/>
            <path id="Path_19038" data-name="Path 19038" d="M175.172,173.613a5.622,5.622,0,1,0,5.622-5.622,5.622,5.622,0,0,0-5.622,5.622m8.551,0a2.929,2.929,0,1,1-2.93-2.93,2.929,2.929,0,0,1,2.93,2.93" transform="translate(-95.396 -91.486)" fill="#284d89"/>
            <path id="Path_19039" data-name="Path 19039" d="M180.24,177.962a1.376,1.376,0,0,0-.776-1.218,2.928,2.928,0,0,1,0-5.219,1.376,1.376,0,0,0,.776-1.217,1.344,1.344,0,0,0-1.915-1.224,5.622,5.622,0,0,0,0,10.1,1.344,1.344,0,0,0,1.915-1.224" transform="translate(-95.397 -92.008)" fill="#ff4d6b"/>
            <rect id="Rectangle_996" data-name="Rectangle 996" width="10.27" height="24.65" transform="translate(44.01 59.932)" fill="none" stroke="#289df2" stroke-miterlimit="10" stroke-width="1.128"/>
            <rect id="Rectangle_997" data-name="Rectangle 997" width="2.996" height="0.885" transform="translate(45.465 64.682)" fill="#1ae5ff"/>
            <rect id="Rectangle_998" data-name="Rectangle 998" width="2.996" height="0.885" transform="translate(45.465 66.657)" fill="#1ae5ff"/>
            <rect id="Rectangle_999" data-name="Rectangle 999" width="2.996" height="0.885" transform="translate(45.465 68.632)" fill="#1ae5ff"/>
            <rect id="Rectangle_1000" data-name="Rectangle 1000" width="2.996" height="0.885" transform="translate(45.465 78.903)" fill="#1ae5ff"/>
            <rect id="Rectangle_1001" data-name="Rectangle 1001" width="4.365" height="0.885" transform="translate(45.465 71.529)" fill="#1ae5ff"/>
            <rect id="Rectangle_1002" data-name="Rectangle 1002" width="4.365" height="0.885" transform="translate(45.465 73.504)" fill="#fff"/>
            <rect id="Rectangle_1003" data-name="Rectangle 1003" width="4.365" height="0.885" transform="translate(45.465 75.48)" fill="#fff"/>
            <rect id="Rectangle_1004" data-name="Rectangle 1004" width="13.009" height="13.009" transform="translate(7.207 90.744)" fill="#289df2"/>
            <rect id="Rectangle_1005" data-name="Rectangle 1005" width="13.009" height="13.009" transform="translate(0.36 93.825)" fill="none" stroke="#289df2" stroke-miterlimit="10" stroke-width="1.128"/>
            <rect id="Rectangle_1006" data-name="Rectangle 1006" width="5.478" height="5.478" transform="translate(161.951 128.403)" fill="none" stroke="#289df2" stroke-miterlimit="10" stroke-width="1.128"/>
            <path id="Path_19040" data-name="Path 19040" d="M211.279,261.124H215.9l2.568,2.568h26.7l4.108-4.108h14.379" transform="translate(-115.06 -141.366)" fill="none" stroke="#fff" stroke-miterlimit="10" stroke-width="1.128"/>
            <circle id="Ellipse_490" data-name="Ellipse 490" cx="1.348" cy="1.348" r="1.348" transform="translate(93.523 118.475)" fill="none" stroke="#fff" stroke-miterlimit="10" stroke-width="1.128"/>
            <circle id="Ellipse_491" data-name="Ellipse 491" cx="1.348" cy="1.348" r="1.348" transform="translate(148.642 116.806)" fill="none" stroke="#fff" stroke-miterlimit="10" stroke-width="1.128"/>
            <path id="Path_19041" data-name="Path 19041" d="M365.051,101.738a1.712,1.712,0,1,1-1.712-1.712,1.712,1.712,0,0,1,1.712,1.712" transform="translate(-196.938 -54.473)" fill="#289df2"/>
            <path id="Path_19042" data-name="Path 19042" d="M17.744,248.328a1.712,1.712,0,1,1-1.712-1.712,1.712,1.712,0,0,1,1.712,1.712" transform="translate(-7.799 -134.304)" fill="#ff4d6b"/>
            <path id="Path_19043" data-name="Path 19043" d="M31.964,260.7a3,3,0,1,1-3-3,3,3,0,0,1,3,3" transform="translate(-14.145 -140.342)" fill="#ff4d6b"/>
            <rect id="Rectangle_1007" data-name="Rectangle 1007" width="11.982" height="2.739" transform="translate(107.859 130.457)" fill="none" stroke="#289df2" stroke-miterlimit="10" stroke-width="1.128"/>
            <rect id="Rectangle_1008" data-name="Rectangle 1008" width="26.276" height="2.739" transform="translate(107.859 135.592)" fill="none" stroke="#289df2" stroke-miterlimit="10" stroke-width="1.128"/>
            <line id="Line_98" data-name="Line 98" x1="2.904" y2="2.904" transform="translate(31.549 133.08)" fill="none" stroke="#289df2" stroke-linecap="round" stroke-linejoin="round" stroke-width="1.128"/>
            <line id="Line_99" data-name="Line 99" x1="2.904" y2="2.904" transform="translate(34.342 133.08)" fill="none" stroke="#289df2" stroke-linecap="round" stroke-linejoin="round" stroke-width="1.128"/>
            <line id="Line_100" data-name="Line 100" x1="2.904" y2="2.904" transform="translate(37.134 133.08)" fill="none" stroke="#289df2" stroke-linecap="round" stroke-linejoin="round" stroke-width="1.128"/>
            <line id="Line_101" data-name="Line 101" x1="2.904" y2="2.904" transform="translate(39.927 133.08)" fill="none" stroke="#289df2" stroke-linecap="round" stroke-linejoin="round" stroke-width="1.128"/>
            <line id="Line_102" data-name="Line 102" x1="2.904" y2="2.904" transform="translate(42.719 133.08)" fill="none" stroke="#289df2" stroke-linecap="round" stroke-linejoin="round" stroke-width="1.128"/>
          </g>
        </g>
      </g>
    </g>
  </g>
</svg>
