<svg id="check_box_black_24dp" xmlns="http://www.w3.org/2000/svg" width="34" height="34" viewBox="0 0 34 34">
  <path id="Path_18324" data-name="Path 18324" d="M0,0H34V34H0Z" fill="none"/>
  <path id="Path_18325" data-name="Path 18325" d="M25.667,3H5.833A2.842,2.842,0,0,0,3,5.833V25.667A2.842,2.842,0,0,0,5.833,28.5H25.667A2.842,2.842,0,0,0,28.5,25.667V5.833A2.842,2.842,0,0,0,25.667,3Zm0,22.667H5.833V5.833H25.667ZM24.236,11.5l-2-2.012L12.9,18.824,9.247,15.183l-2.012,2L12.9,22.833Z" transform="translate(1.25 1.25)" fill="#fe6258"/>
</svg>
