<svg xmlns="http://www.w3.org/2000/svg" width="192.705" height="49.999" viewBox="0 0 192.705 49.999">
  <g id="monsterjob-newpages" transform="translate(0 -0.001)">
    <g id="splash" transform="translate(-91 -309)">
      <g id="logo" transform="translate(91 309)">
        <g id="Group-3">
          <path id="Fill-1" d="M157.352,11.606c0-3.592-4.834-6.355-9.256-6.355-7.185,0-12.019,4.975-12.019,10.914,0,5.664,5.25,11.052,12.295,11.052,3.04,0,6.356-1.106,8.013-3.316l-.968-.83a9.2,9.2,0,0,1-6.077,2.348c-3.179,0-6.494-2.76-6.494-5.524V18.375c0-1.243,1.381-2.347,2.9-2.347h5.523C154.449,16.028,157.352,14.369,157.352,11.606Zm24.589-6.355h-1.795a9.31,9.31,0,0,0-6.078,1.8L171.027,9.4a2.534,2.534,0,0,1-2.07.83.8.8,0,0,1-.83-.83V9.118c0-1.8-1.519-2.9-3.729-2.9h-2.486v4.144h.136V26.387H167.3l.691-4.418c.552-4.283,1.66-8.153,5.252-11.33l1.933-1.521a7.464,7.464,0,0,1,4.973-2.071h1.795Zm-52.219,1.52H132.9V5.251h-7.184c-2.073,0-3.178-.138-4.007-1.935-.552-.966,0-3.314-3.039-3.314V22.66c0,2.9,2.763,4.558,6.079,4.558a9.374,9.374,0,0,0,7.875-4.282l-.829-.555a6.512,6.512,0,0,1-4.561,2.764,1.885,1.885,0,0,1-1.933-1.934V10.086C125.3,7.739,127.1,6.771,129.722,6.771ZM32.05,26.387V11.606c0-1.243-.553-3.73-2.21-3.73-2.763,0-4.421,6.631-4.7,8.426l-1.8,10.085H19.617V12.021c0-1.245-.276-4.145-2.211-4.145-2.9,0-4.558,6.77-4.835,8.564l-1.658,9.947H6.63l.139-15.747c0-1.659-.691-4.144-3.592-4.144H0V4.975H9.809c2.625,0,3.592,2.348,3.592,4.143,1.519-1.657,4.42-3.867,7.322-3.867a4.374,4.374,0,0,1,4.7,4.006c1.934-1.934,4.7-4.006,8.152-4.006s4.283,2.625,4.283,4.975V26.387ZM112.177,9.533c-1.1-1.106-3.316-2.762-5.387-2.762-1.658,0-4.006,1.243-4.006,3.04,0,4.282,9.945,5.94,9.945,11.052,0,3.316-3.731,6.076-7.874,6.076-3.316,0-5.525-.826-7.461-2.76l1.1-.831c1.243,1.107,2.211,1.937,4.285,1.937a3.093,3.093,0,0,0,3.314-2.9c0-3.592-10.361-6.079-10.361-11.189,0-3.592,4.836-5.94,8.842-5.94,3.039,0,6.907,1.381,8.566,3.315ZM85.1,5.251a13.185,13.185,0,0,0-9.257,3.867c0-1.8-1.382-2.9-3.592-2.9H69.213V26.387h4.7l1.935-9.116c.83-3.594,3.038-10.5,6.77-10.5,2.624,0,3.315,2.9,3.315,4.559V26.387h5.525V11.468C91.454,8.151,89.521,5.251,85.1,5.251ZM63.963,15.337c-1.243-3.731-4.7-5.664-6.907-4.7a8.153,8.153,0,0,1,1.935,5.526,9.037,9.037,0,0,1-.693,3.454,4.852,4.852,0,0,1-4.834,2.9c-3.039,0-5.111-2.624-5.527-5.113v-.136c0-.276-.137-.691-.137-1.106a1.516,1.516,0,0,1,.137-.691c0-4.144,3.592-8.426,7.738-8.426a8.71,8.71,0,0,1,6.631,3.178l.415-.278a11.221,11.221,0,0,0-20.447,6.217,10.859,10.859,0,0,0,11.19,11.052,10.8,10.8,0,0,0,10.085-6.355,9.6,9.6,0,0,0,.414-5.388Zm88.14-3.731c0,1.382-1.66,2.486-3.04,2.486h-5.94a10.407,10.407,0,0,1,.275-2.21c.416-2.208,2.073-5.111,4.56-5.111C150.307,6.771,152.1,9.533,152.1,11.606Z" fill="#5d4da8" fill-rule="evenodd"/>
        </g>
        <path id="Fill-4" d="M188.087,5.728h1.1a.863.863,0,0,0,.643-.216.73.73,0,0,0,.211-.533.584.584,0,0,0-.224-.5.9.9,0,0,0-.562-.169h-1.173Zm2.684,2.312h-.694l-.819-1.814h-1.171V8.04h-.627V3.785h1.8a1.45,1.45,0,0,1,1.089.374,1.15,1.15,0,0,1,.161,1.48,1.07,1.07,0,0,1-.619.442Zm1.415-2.13a3.029,3.029,0,0,0-.921-2.219,3.125,3.125,0,0,0-4.435,0,3.021,3.021,0,0,0-.924,2.216,3.028,3.028,0,0,0,.918,2.219,3.128,3.128,0,0,0,4.438,0A3.021,3.021,0,0,0,192.186,5.91Zm.519,0a3.523,3.523,0,0,1-1.076,2.583,3.641,3.641,0,0,1-5.167,0,3.526,3.526,0,0,1-1.075-2.583,3.529,3.529,0,0,1,1.075-2.581,3.636,3.636,0,0,1,5.167,0A3.526,3.526,0,0,1,192.705,5.91Z" fill="#5d4da8" fill-rule="evenodd"/>
        <path id="Fill-5" d="M45.774,49.625H44.042V35.795h8.47v1.52H45.774v4.367h5.583v1.4H45.774v6.545" fill="#5d4da8" fill-rule="evenodd"/>
        <path id="Fill-6" d="M54.438,49.625h1.59V39.391h-1.59Zm-.071-12.056h1.712V35.795H54.366Z" fill="#5d4da8" fill-rule="evenodd"/>
        <path id="Fill-7" d="M67.181,49.625h-1.49V43.049a2.656,2.656,0,0,0-.618-2,2.117,2.117,0,0,0-1.5-.577,2.576,2.576,0,0,0-2.042.972,3.823,3.823,0,0,0-.826,2.563v5.613H59.116V39.391H60.6v1.885a3.682,3.682,0,0,1,3.232-2.168,3.2,3.2,0,0,1,1.95.592,3.15,3.15,0,0,1,1.1,1.333,8.108,8.108,0,0,1,.3,2.675v5.917" fill="#5d4da8" fill-rule="evenodd"/>
        <path id="Fill-8" d="M76.766,43.343a2.9,2.9,0,0,0-.821-2.158,2.643,2.643,0,0,0-1.915-.811,2.32,2.32,0,0,0-1.95,1.054,4.963,4.963,0,0,0-.765,2.958,5.728,5.728,0,0,0,.7,3.131,2.195,2.195,0,0,0,1.93,1.074,2.594,2.594,0,0,0,1.966-.933,3.141,3.141,0,0,0,.851-2.188Zm1.59-7.549v13.83H76.917V47.872a3.461,3.461,0,0,1-3.236,2.036A3.569,3.569,0,0,1,70.729,48.4a6.071,6.071,0,0,1-1.157-3.808,6.467,6.467,0,0,1,1.145-3.919,3.583,3.583,0,0,1,3.039-1.567,3.525,3.525,0,0,1,3.01,1.681v-5Z" fill="#5d4da8" fill-rule="evenodd"/>
        <path id="Fill-9" d="M88.538,48.105h3.708a3.051,3.051,0,0,0,2.1-.659,2.187,2.187,0,0,0,.74-1.712,2.9,2.9,0,0,0-.334-1.373,2.375,2.375,0,0,0-.942-.978,3.771,3.771,0,0,0-1.813-.345H88.538Zm0-6.383h3.009a3.309,3.309,0,0,0,2.5-.714,2.458,2.458,0,0,0,.628-1.677A1.946,1.946,0,0,0,94,37.791a2.987,2.987,0,0,0-2.011-.588H88.538Zm-1.672,7.9V35.795h5.471A4.137,4.137,0,0,1,95.4,36.807a3.246,3.246,0,0,1,1,2.348,3.07,3.07,0,0,1-2.452,3.119,3.726,3.726,0,0,1,2.168,1.338,3.585,3.585,0,0,1,.71,2.18,3.713,3.713,0,0,1-1.1,2.733,4.616,4.616,0,0,1-3.389,1.1Z" fill="#5d4da8" fill-rule="evenodd"/>
        <path id="Fill-10" d="M105.935,43.465a4.442,4.442,0,0,0-.284-1.53,2.609,2.609,0,0,0-.892-1.14,2.443,2.443,0,0,0-1.509-.471,2.7,2.7,0,0,0-2.011.851,3.517,3.517,0,0,0-.927,2.29Zm.091,3.11,1.48.3a4.167,4.167,0,0,1-1.582,2.17,4.556,4.556,0,0,1-2.765.859,4.3,4.3,0,0,1-3.394-1.476,5.646,5.646,0,0,1-1.3-3.869,5.7,5.7,0,0,1,1.348-3.95,4.35,4.35,0,0,1,3.385-1.506,4.087,4.087,0,0,1,3.226,1.387,6.235,6.235,0,0,1,1.251,4.155h-7.436q0,2.32.973,3.131a3.169,3.169,0,0,0,2.057.81A2.81,2.81,0,0,0,106.026,46.575Z" fill="#5d4da8" fill-rule="evenodd"/>
        <path id="Fill-11" d="M129.045,43.465a4.442,4.442,0,0,0-.283-1.53,2.624,2.624,0,0,0-.892-1.14,2.446,2.446,0,0,0-1.51-.471,2.691,2.691,0,0,0-2.01.851,3.523,3.523,0,0,0-.928,2.29Zm.092,3.11,1.479.3a4.171,4.171,0,0,1-1.581,2.17,4.562,4.562,0,0,1-2.765.859,4.3,4.3,0,0,1-3.395-1.476,5.644,5.644,0,0,1-1.3-3.869,5.7,5.7,0,0,1,1.347-3.95,4.352,4.352,0,0,1,3.385-1.506,4.089,4.089,0,0,1,3.227,1.387,6.246,6.246,0,0,1,1.251,4.155h-7.436q0,2.32.972,3.131a3.171,3.171,0,0,0,2.057.81A2.811,2.811,0,0,0,129.137,46.575Z" fill="#5d4da8" fill-rule="evenodd"/>
        <path id="Fill-12" d="M134.77,49.625h-1.59V39.391h1.4v2.392a5.13,5.13,0,0,1,1.485-2.194,2.7,2.7,0,0,1,1.525-.5,6.223,6.223,0,0,1,.627.041v1.52h-.323a2.8,2.8,0,0,0-2.189.983,4,4,0,0,0-.932,2.584v5.41" fill="#5d4da8" fill-rule="evenodd"/>
        <path id="Fill-13" d="M149.094,40.132h-.615V36.958l-1.267,3.174h-.444l-1.283-3.174v3.174h-.559v-3.99h.877l1.228,3.026,1.2-3.026h.866Zm-5.844,0h-.641V36.645h-1.2v-.5h3.044v.5h-1.2Z" fill="#5d4da8" fill-rule="evenodd"/>
        <path id="Fill-14" d="M114.646,48.632v1.256a11.282,11.282,0,0,1-1.459.111q-2.97,0-2.969-3.1V40.729H108.4V39.483h1.814l.071-2.574,1.479-.141v2.715h1.809v1.246h-1.809v6.431q0,1.583,1.642,1.583a7.866,7.866,0,0,0,1.236-.111" fill="#5d4da8" fill-rule="evenodd"/>
        <path id="Fill-15" d="M121.1,48.629v1.256a11.349,11.349,0,0,1-1.459.111q-2.969,0-2.968-3.1V40.725h-1.827V39.479h1.827l.071-2.573,1.478-.142v2.715h2.29v1.246h-2.29v6.432q0,1.583,1.642,1.583a7.861,7.861,0,0,0,1.236-.111" fill="#5d4da8" fill-rule="evenodd"/>
        <path id="Fill-16" d="M138.772,49.632h1.6v-1.6h-1.6Z" fill="#5d4da8" fill-rule="evenodd"/>
      </g>
    </g>
  </g>
</svg>
