<svg xmlns="http://www.w3.org/2000/svg" width="25" height="25" viewBox="0 0 25 25">
  <g id="location01" transform="translate(-901 -5114)">
    <rect id="Rectangle_2480" data-name="Rectangle 2480" width="25" height="25" transform="translate(901 5114)" fill="none"/>
    <g id="maps-and-flags" transform="translate(907 5117.836)">
      <g id="Group_1293" data-name="Group 1293" transform="translate(0)">
        <path id="Path_1216" data-name="Path 1216" d="M77.064,0a6.5,6.5,0,0,0-6.491,6.491c0,4.442,5.809,10.963,6.057,11.239a.585.585,0,0,0,.87,0c.247-.275,6.057-6.8,6.057-11.239A6.5,6.5,0,0,0,77.064,0Zm0,9.757A3.266,3.266,0,1,1,80.33,6.491,3.27,3.27,0,0,1,77.064,9.757Z" transform="translate(-70.573)"/>
      </g>
    </g>
  </g>
</svg>
