<svg xmlns="http://www.w3.org/2000/svg" width="30" height="27" viewBox="0 0 30 27">
  <g id="twitter" transform="translate(-215 -5279)">
    <rect id="Rectangle_2476" data-name="Rectangle 2476" width="30" height="27" transform="translate(215 5279)" fill="none"/>
    <g id="_001-twitter-logo-silhouette" data-name="001-twitter-logo-silhouette" transform="translate(217 5283)">
      <g id="Group_1280" data-name="Group 1280" transform="translate(0 0)">
        <path id="Path_1202" data-name="Path 1202" d="M25.291,59.807a10.581,10.581,0,0,1-2.979.8,5.1,5.1,0,0,0,2.28-2.793,10.633,10.633,0,0,1-3.3,1.226,5.24,5.24,0,0,0-3.786-1.6,5.121,5.121,0,0,0-5.188,5.05,4.937,4.937,0,0,0,.134,1.151A14.865,14.865,0,0,1,1.763,58.364a4.912,4.912,0,0,0-.7,2.539,5.015,5.015,0,0,0,2.307,4.2,5.3,5.3,0,0,1-2.35-.634v.063A5.092,5.092,0,0,0,5.18,69.488a5.389,5.389,0,0,1-1.367.177,5.111,5.111,0,0,1-.977-.094,5.175,5.175,0,0,0,4.845,3.508,10.59,10.59,0,0,1-6.443,2.159A11.322,11.322,0,0,1,0,75.169a14.955,14.955,0,0,0,7.952,2.272,14.456,14.456,0,0,0,14.76-14.37l-.017-.654A10.214,10.214,0,0,0,25.291,59.807Z" transform="translate(-0.001 -57.441)" fill="#42495b"/>
      </g>
    </g>
  </g>
</svg>
