<svg xmlns="http://www.w3.org/2000/svg" xmlns:xlink="http://www.w3.org/1999/xlink" width="576.806" height="406.314" viewBox="0 0 576.806 406.314">
  <defs>
    <clipPath id="clip-path">
      <rect id="Rectangle_1642" data-name="Rectangle 1642" width="47.729" height="22.433" fill="none"/>
    </clipPath>
    <clipPath id="clip-path-2">
      <rect id="Rectangle_1643" data-name="Rectangle 1643" width="23.189" height="18.4" fill="none"/>
    </clipPath>
    <clipPath id="clip-path-3">
      <rect id="Rectangle_1644" data-name="Rectangle 1644" width="22.466" height="83.211" fill="none"/>
    </clipPath>
    <clipPath id="clip-path-4">
      <rect id="Rectangle_1645" data-name="Rectangle 1645" width="20.308" height="99.59" fill="none"/>
    </clipPath>
  </defs>
  <g id="Group_5745" data-name="Group 5745" transform="translate(-106.194 -813.062)">
    <path id="Path_22443" data-name="Path 22443" d="M356.537,211.8l-.017,7.012c0,.086,0,.18-.009.265s-.009.188-.017.274c-.009.154-.017.308-.034.462-.009.137-.034.274-.051.411-.017.154-.043.308-.068.462a.926.926,0,0,0-.026.163c-.017.077-.043.163-.06.24-.034.154-.068.3-.111.454-.034.137-.077.265-.12.4-.043.154-.094.3-.146.445-.026.068-.043.128-.06.188a2.323,2.323,0,0,0-.094.214c-.06.154-.128.308-.2.462-.051.128-.12.265-.18.394-.077.154-.154.308-.24.462-.034.069-.068.146-.111.223a1.4,1.4,0,0,0-.094.146c-.1.188-.223.368-.334.548-.077.111-.146.223-.223.334-.137.2-.283.394-.428.591-.06.077-.1.146-.163.223l-.034.034c-.248.317-.514.625-.8.933-.077.077-.154.154-.231.24q-.334.347-.694.694l-.154.154-.18.154c-.146.128-.3.257-.445.385s-.283.24-.428.36-.317.248-.48.377c-.154.111-.3.231-.462.342s-.342.24-.514.368c-.163.111-.325.223-.5.334s-.368.231-.557.351c-.111.068-.223.146-.342.214s-.248.146-.368.223c-.668.385-1.37.745-2.081,1.087-.188.094-.377.18-.565.265q-.963.449-1.978.848l-.257.1c-.616.231-1.241.454-1.875.659-.111.043-.223.068-.334.1-.522.163-1.053.308-1.593.454-.4.1-.8.223-1.207.325-.556.128-1.13.248-1.7.36-.334.069-.651.154-.993.214-.077.017-.163.026-.248.043l-.522.077c-.7.12-1.413.214-2.132.308-.206.017-.411.051-.625.069l-.394.051c-.7.068-1.4.12-2.106.163-.154.009-.308.009-.462.017-.283.017-.565.034-.848.043s-.565,0-.848.009c-.556.009-1.122.017-1.687.009-.205-.009-.411.009-.625,0-.257-.009-.522-.034-.779-.043-.522-.017-1.045-.043-1.567-.086-.223-.009-.454-.017-.685-.034-.248-.017-.488-.06-.736-.086-.514-.043-1.027-.1-1.541-.171-.24-.026-.48-.043-.719-.077-.223-.034-.437-.077-.659-.111-.548-.086-1.087-.18-1.627-.283-.257-.051-.514-.086-.771-.137-.308-.068-.616-.137-.925-.214-.137-.026-.274-.051-.4-.086-.634-.154-1.267-.308-1.884-.488-.146-.043-.291-.094-.437-.137-.223-.06-.437-.137-.651-.205-.634-.2-1.259-.411-1.875-.634-.171-.068-.36-.128-.531-.2-.086-.034-.171-.06-.248-.094-.479-.188-.933-.394-1.4-.6-.051-.026-.111-.051-.171-.077l-10.2,5.925a.488.488,0,0,1-.009.111c0,.077-.009.146-.009.214,0,.026-.009.034-.009.051v.051c-.009.043-.009.086-.017.12a1.725,1.725,0,0,1-.034.223.374.374,0,0,1-.017.086c0,.017-.009.034-.009.051-.009.034-.009.06-.017.086-.017.086-.043.163-.06.24a.415.415,0,0,0-.026.06.265.265,0,0,1-.017.068c-.017.034-.026.077-.043.111a1.6,1.6,0,0,1-.086.214c-.009.009-.009.026-.017.034v.017a2.642,2.642,0,0,1-.18.308v.009a2.89,2.89,0,0,1-.317.394.812.812,0,0,0-.086.086,2.128,2.128,0,0,1-.394.291l-33.365,19.35a3.258,3.258,0,0,1-3.279-.325,10.1,10.1,0,0,1-4.589-7.945,3.248,3.248,0,0,1,1.344-2.954l33.365-19.35a1.86,1.86,0,0,1,.351-.163c.009,0,.017-.009.026-.009.086-.034.171-.051.257-.077.017,0,.034-.009.06-.009.086-.017.18-.034.265-.043h.077a.189.189,0,0,1,.068-.009h.094a1.794,1.794,0,0,1,.214.009h.043a.077.077,0,0,1,.043.009.566.566,0,0,1,.12.009,1.719,1.719,0,0,1,.205.034c.017,0,.034.009.06.009a.051.051,0,0,0,.034.009l.094.026c.06.017.12.034.188.051a.753.753,0,0,1,.128.043.031.031,0,0,1,.026.009c.009,0,.017.009.026.009a1.223,1.223,0,0,1,.188.068c.06.026.12.051.188.077a.044.044,0,0,0,.034.017c.009.009.017.009.026.017.043.017.086.034.12.051.068.034.128.069.188.1s.1.051.146.077a.18.18,0,0,1,.051.034c.06.034.128.077.2.12.034.017.068.043.111.068l6.242-3.63a12.453,12.453,0,0,1-3.776-8.588l.017-7.012c.017-4.529,3-9.058,8.947-12.526,12-6.969,31.49-6.969,43.563,0,6.25,3.613,9.272,8.382,9.076,13.108.009-.137.017-.265.017-.4" transform="translate(60.781 774.292)" fill="#ccc"/>
    <path id="Path_22444" data-name="Path 22444" d="M363.392,208.413c0,.181-.014.361-.024.543-.009.155-.017.309-.033.464-.014.135-.033.271-.051.4-.021.154-.045.308-.073.461-.025.136-.054.271-.085.407-.033.151-.069.3-.11.45s-.077.271-.119.406-.094.3-.147.446c-.047.133-.1.265-.15.4q-.094.235-.2.467-.087.2-.181.389-.114.232-.239.462c-.068.125-.135.249-.208.372-.106.183-.22.366-.337.547-.071.11-.14.22-.215.33-.137.2-.285.4-.436.6-.065.086-.125.173-.193.258q-.374.471-.8.932c-.073.079-.152.157-.226.235q-.335.351-.7.694c-.11.1-.221.209-.336.312-.145.131-.294.26-.445.389s-.279.236-.424.353-.319.253-.483.378-.3.23-.457.343-.344.244-.52.365-.325.224-.493.334-.369.236-.556.353c-.236.146-.469.295-.715.437-.667.388-1.366.747-2.077,1.091q-.281.136-.567.267c-.642.3-1.3.579-1.97.841-.089.035-.175.074-.265.108-.72.275-1.462.522-2.211.759-.52.164-1.052.307-1.585.452-.4.11-.8.227-1.211.326-.561.135-1.133.248-1.7.364-.414.084-.823.179-1.241.252-.174.031-.35.056-.525.084q-1.057.173-2.13.3c-.208.025-.415.052-.624.074q-1.244.134-2.5.209c-.154.009-.309.015-.463.023-.563.028-1.127.037-1.69.047s-1.126.015-1.688.008c-.47-.006-.94-.021-1.41-.039-.521-.021-1.042-.047-1.562-.083q-.714-.05-1.424-.119-.772-.076-1.537-.172-.692-.087-1.378-.194c-.548-.086-1.091-.182-1.632-.284-.569-.108-1.137-.216-1.7-.343l-.4-.09c-.785-.188-1.558-.4-2.32-.623-.219-.065-.435-.134-.652-.2q-.95-.3-1.871-.639c-.178-.066-.36-.128-.537-.2-.558-.216-1.1-.455-1.635-.7-.264-.117-.538-.223-.8-.347-.777-.369-1.534-.76-2.26-1.18-6.072-3.506-9.1-8.108-9.092-12.7l-.02,7.009c-.013,4.6,3.02,9.2,9.091,12.7.727.42,1.484.811,2.261,1.181.258.122.531.229.794.345.461.205.915.419,1.391.606.081.032.166.059.247.09.176.068.357.13.535.2q.921.34,1.871.639c.217.068.433.138.652.2.146.044.289.093.436.135.62.177,1.249.337,1.884.488.133.032.267.06.4.09.31.071.618.146.931.211.253.052.513.085.766.133.541.1,1.083.2,1.632.284.22.034.435.082.656.114.239.034.483.05.723.08q.765.1,1.537.172c.246.024.489.062.735.082.229.019.46.021.688.037.52.036,1.039.062,1.562.084.262.01.522.035.784.041.209.006.417-.005.626,0,.563.008,1.125,0,1.688-.008.281-.005.561.006.841,0s.567-.029.85-.043c.154-.008.309-.015.463-.024.7-.041,1.405-.092,2.1-.161.134-.014.265-.033.4-.048.209-.022.416-.05.624-.075q1.074-.128,2.13-.3c.175-.028.35-.053.524-.084.083-.015.169-.025.252-.039.334-.061.658-.145.989-.211.572-.116,1.144-.229,1.7-.365.409-.1.807-.216,1.211-.326.533-.145,1.064-.289,1.585-.452.111-.035.229-.061.341-.1.634-.205,1.258-.427,1.871-.661.088-.033.173-.072.26-.106.674-.263,1.33-.545,1.973-.842.19-.087.379-.175.567-.266.711-.345,1.409-.7,2.077-1.091q.19-.11.376-.223c.116-.07.223-.143.338-.214.188-.117.376-.234.557-.354s.331-.221.492-.332.351-.243.52-.366.307-.228.458-.343.326-.25.483-.378.285-.235.424-.353.3-.258.444-.388c.06-.054.124-.105.182-.159s.1-.1.154-.153q.363-.343.7-.694c.074-.078.152-.156.225-.235q.424-.46.8-.932c.011-.014.024-.027.034-.04.057-.073.105-.147.161-.22.15-.2.3-.395.434-.6.074-.11.143-.219.214-.33.117-.181.232-.363.338-.546.029-.051.064-.1.092-.149.042-.074.075-.15.116-.224.082-.153.163-.307.238-.461.063-.129.123-.259.181-.39q.1-.232.2-.467c.027-.069.062-.139.088-.209s.04-.127.063-.189q.078-.222.147-.444c.042-.136.082-.271.119-.408s.075-.3.11-.449c.018-.081.043-.162.059-.243.011-.055.015-.11.026-.164.028-.154.051-.308.073-.462.019-.134.038-.27.051-.4.015-.155.025-.31.033-.465.005-.091.017-.182.02-.272s0-.18,0-.271Z" transform="translate(53.927 772.226)" fill="#58ace8"/>
    <path id="Path_22445" data-name="Path 22445" d="M354.3,192.723c-12.066-6.967-31.568-6.967-43.556,0s-11.924,18.262.142,25.229,31.573,6.969,43.561,0,11.925-18.263-.147-25.233" transform="translate(53.923 775.208)" fill="#d4edff"/>
    <path id="Path_22446" data-name="Path 22446" d="M357.657,207.471c-.533,3.061-2.829,6.036-6.861,8.383-9.363,5.434-24.591,5.434-34.023-.009-4.093-2.364-6.423-5.373-6.974-8.46-.713-4.016,1.574-8.169,6.861-11.238,9.364-5.443,24.591-5.443,34.024-.009,5.356,3.1,7.687,7.291,6.973,11.332" transform="translate(52.791 774.551)" fill="#00a4ad"/>
    <path id="Path_22447" data-name="Path 22447" d="M357.673,207.95a7.643,7.643,0,0,1-.31,1.221,8.084,8.084,0,0,1-.49,1.178,12.317,12.317,0,0,1-2.923,3.74,18.954,18.954,0,0,1-3.139,2.244c-.4.241-.825.465-1.255.671a23.957,23.957,0,0,1-2.906,1.255c-.783.292-1.6.551-2.425.783-8.934,2.485-19.991,1.582-27.437-2.718a17.077,17.077,0,0,1-4.764-3.9,10.523,10.523,0,0,1-1.049-1.5,9.708,9.708,0,0,1-.911-2.038,8.941,8.941,0,0,1-.25-1.023,8.852,8.852,0,0,1,.929-2.658,12.7,12.7,0,0,1,3.061-3.714c.4-.344.834-.679,1.3-1.006q.735-.516,1.573-1.006c.232-.138.465-.266.705-.387a29.065,29.065,0,0,1,6.483-2.485c8.821-2.287,19.553-1.333,26.835,2.872a17.64,17.64,0,0,1,4.488,3.569,10.4,10.4,0,0,1,2.355,4.307q.078.3.129.593" transform="translate(52.77 774.072)" fill="#57dee6"/>
    <path id="Path_22448" data-name="Path 22448" d="M312.595,229.33c0-.051,0-.1-.007-.153s-.008-.1-.013-.155-.01-.1-.017-.155-.015-.106-.022-.159V228.7c-.008-.051-.016-.1-.027-.153s-.021-.11-.033-.165-.025-.111-.039-.166-.029-.112-.045-.168-.025-.086-.038-.13l0-.01-.008-.027c-.016-.055-.034-.109-.052-.164s-.037-.108-.057-.161-.038-.1-.058-.155-.04-.1-.062-.154l-.05-.116,0-.009-.011-.026c-.022-.051-.045-.1-.069-.153s-.053-.111-.08-.167-.064-.126-.1-.189-.075-.134-.113-.2l-.02-.034-.024-.043c-.074-.127-.152-.252-.235-.373-.064-.1-.131-.193-.2-.286-.045-.062-.092-.123-.14-.184s-.08-.1-.122-.151-.08-.1-.122-.143-.081-.092-.123-.136a.359.359,0,0,0-.025-.027l-.01-.011-.094-.1c-.044-.045-.088-.089-.134-.132s-.092-.087-.14-.13-.093-.082-.14-.122c-.024-.021-.049-.039-.073-.059l-.015-.013-.053-.044-.14-.106c-.045-.033-.092-.066-.138-.1s-.089-.061-.134-.089-.09-.056-.134-.082l-.032-.019-.1-.056c-.044-.024-.086-.046-.129-.068l-.083-.039-.021-.01-.025-.011-.127-.054c-.043-.017-.085-.033-.128-.048l-.021-.007-.019-.006c-.028-.01-.057-.02-.086-.028s-.087-.026-.13-.036l-.062-.014-.028-.006-.04-.009c-.046-.009-.092-.016-.138-.023l-.084-.009-.028,0-.028,0q-.076-.005-.149-.005l-.063,0-.05,0-.051,0a1.769,1.769,0,0,0-.182.027h0l-.038.01a1.5,1.5,0,0,0-.18.05l-.014.006a1.486,1.486,0,0,0-.242.112l-20.959,12.18a1.546,1.546,0,0,1,.437-.168c.013,0,.024-.008.038-.01a1.744,1.744,0,0,1,.236-.03l.049,0a2.068,2.068,0,0,1,.241.005l.029,0a2.441,2.441,0,0,1,.262.04l.027.007a2.446,2.446,0,0,1,.279.078l.018.006a3.086,3.086,0,0,1,.3.12l.021.009c.1.048.207.1.313.163a4.938,4.938,0,0,1,.631.438l.015.013a6.241,6.241,0,0,1,.58.542l.01.011a7.445,7.445,0,0,1,.991,1.342l.02.034a7.7,7.7,0,0,1,.372.736l0,.009a7.1,7.1,0,0,1,.286.777l0,.01a6.128,6.128,0,0,1,.181.783v0a4.761,4.761,0,0,1,.063.77c0,.12-.007.235-.016.347,0,.01,0,.02,0,.03-.01.1-.025.2-.043.3l-.008.037c-.019.092-.042.18-.068.264l-.015.045c-.027.079-.056.154-.088.226,0,.008-.007.017-.01.025a2.153,2.153,0,0,1-.126.228,1.719,1.719,0,0,1-.219.271c-.019.02-.039.039-.059.057a1.6,1.6,0,0,1-.266.2l20.958-12.18a1.593,1.593,0,0,0,.267-.2l.059-.057a1.723,1.723,0,0,0,.218-.271l0,0a1.931,1.931,0,0,0,.119-.217l0-.008.01-.025c.022-.048.043-.1.062-.147.009-.025.017-.052.026-.078l.015-.046c0-.015.009-.027.014-.042.015-.052.029-.106.042-.161,0-.02.008-.04.012-.06l.008-.038c0-.02.009-.038.012-.057.009-.05.015-.1.022-.152,0-.027.006-.057.009-.086l0-.031,0-.035c0-.049.008-.1.009-.15s0-.1,0-.152v-.009c0-.047,0-.1,0-.143" transform="translate(56.162 770.02)" fill="#3a7199"/>
    <path id="Path_22449" data-name="Path 22449" d="M288.326,238.231c-1.747-1.009-3.168-.2-3.174,1.813a6.952,6.952,0,0,0,3.153,5.462c1.75,1.01,3.171.2,3.177-1.807a6.949,6.949,0,0,0-3.157-5.468" transform="translate(56.317 767.974)" fill="#3a7199"/>
    <path id="Path_22450" data-name="Path 22450" d="M296.912,238.076q0-.112-.01-.223c-.005-.074-.011-.149-.018-.224s-.015-.151-.025-.226-.021-.154-.033-.232v-.009q-.018-.112-.039-.223c-.015-.08-.032-.16-.049-.241s-.037-.161-.057-.241-.041-.164-.064-.245c-.017-.062-.036-.126-.055-.188l0-.015c0-.013-.008-.027-.012-.039-.024-.08-.05-.159-.076-.238s-.054-.157-.082-.235-.055-.15-.084-.224-.059-.15-.09-.223c-.024-.057-.049-.114-.073-.17l-.006-.014-.016-.038c-.033-.074-.067-.149-.1-.223s-.077-.162-.117-.242-.093-.184-.142-.276-.109-.2-.164-.293l-.028-.05c-.012-.021-.023-.041-.034-.062-.109-.185-.223-.366-.342-.545q-.141-.211-.292-.415c-.067-.091-.135-.18-.2-.268s-.116-.147-.176-.219-.118-.14-.178-.208-.119-.134-.179-.2l-.037-.038-.015-.016c-.045-.049-.091-.1-.137-.144-.064-.065-.128-.129-.194-.192s-.134-.128-.2-.188-.135-.121-.2-.179c-.035-.03-.07-.057-.105-.086l-.022-.018c-.026-.021-.051-.043-.078-.063-.067-.053-.134-.1-.2-.155s-.134-.1-.2-.142-.13-.088-.2-.13-.13-.08-.2-.119l-.045-.027-.146-.082c-.063-.034-.126-.067-.188-.1l-.121-.057-.03-.015-.036-.016c-.062-.028-.123-.054-.184-.079s-.124-.048-.186-.069l-.032-.01-.026-.009-.126-.041c-.063-.019-.127-.037-.19-.052-.03-.008-.06-.013-.09-.02l-.04-.009-.058-.013c-.068-.013-.135-.024-.2-.033-.041-.005-.081-.008-.122-.012l-.042,0-.041,0c-.074-.005-.146-.008-.217-.007-.032,0-.062,0-.092,0l-.071,0c-.025,0-.051,0-.074,0a2.64,2.64,0,0,0-.265.039h-.005c-.019,0-.036.011-.055.015a2.348,2.348,0,0,0-.261.072l-.02.009a2.246,2.246,0,0,0-.354.163l-33.366,19.346a2.23,2.23,0,0,1,.353-.163,2.323,2.323,0,0,1,.282-.081c.019,0,.036-.011.055-.015a2.631,2.631,0,0,1,.344-.043l.071,0a2.828,2.828,0,0,1,.35.007l.042,0a3.442,3.442,0,0,1,.382.058l.04.009a4.06,4.06,0,0,1,.4.113l.027.009a4.631,4.631,0,0,1,.437.175l.03.014c.15.07.3.148.456.237a7.024,7.024,0,0,1,.918.636l.023.019a8.76,8.76,0,0,1,.844.789l.015.015a10.715,10.715,0,0,1,1.443,1.954c.01.016.019.033.029.051a11.185,11.185,0,0,1,.541,1.07l.005.014a10.216,10.216,0,0,1,.417,1.13l0,.015a8.7,8.7,0,0,1,.264,1.139v0a7.01,7.01,0,0,1,.091,1.121c0,.176-.009.343-.024.505,0,.015,0,.028,0,.043-.015.149-.037.292-.063.43l-.01.054c-.028.134-.061.261-.1.384-.007.022-.015.045-.022.067a3.233,3.233,0,0,1-.128.328c-.005.012-.009.025-.015.037a2.913,2.913,0,0,1-.183.331,2.45,2.45,0,0,1-.319.394c-.028.029-.056.056-.086.084a2.222,2.222,0,0,1-.388.3l33.367-19.346a2.216,2.216,0,0,0,.388-.3c.029-.027.058-.054.087-.083a2.552,2.552,0,0,0,.318-.394l0-.006a2.828,2.828,0,0,0,.173-.314l.005-.011c.006-.012.01-.025.015-.037.032-.069.063-.14.09-.213.014-.037.026-.076.038-.115l.023-.068c.006-.021.014-.039.02-.06.022-.076.043-.155.062-.235.006-.028.011-.057.017-.086l.011-.055c.005-.028.012-.055.016-.083.013-.072.024-.146.033-.22.005-.041.009-.083.013-.125,0-.015,0-.03,0-.045s0-.034.005-.051c.006-.071.011-.143.014-.217s.005-.147.005-.223v-.014c0-.068,0-.138,0-.208" transform="translate(60.555 769.139)" fill="#d4edff"/>
    <path id="Path_22451" data-name="Path 22451" d="M258.73,252.925c-2.542-1.467-4.609-.289-4.617,2.638a10.109,10.109,0,0,0,4.587,7.945c2.547,1.471,4.615.293,4.623-2.628a10.117,10.117,0,0,0-4.593-7.956" transform="translate(60.781 765.889)" fill="#3a7199"/>
    <g id="Group_5735" data-name="Group 5735" transform="translate(362.586 970.681)" opacity="0.42">
      <g id="Group_5734" data-name="Group 5734">
        <g id="Group_5733" data-name="Group 5733" clip-path="url(#clip-path)">
          <path id="Path_22452" data-name="Path 22452" d="M353.95,215.737a18.924,18.924,0,0,1-3.139,2.244c-.4.241-.825.464-1.255.67l-39.491-8.117a8.671,8.671,0,0,1-.249-1.023,8.845,8.845,0,0,1,.928-2.657Z" transform="translate(-309.816 -198.256)" fill="#fff"/>
          <path id="Path_22453" data-name="Path 22453" d="M346.846,220.867c-.783.292-1.6.551-2.425.783l-32.2-6.621a10.453,10.453,0,0,1-1.049-1.5Z" transform="translate(-310.011 -199.217)" fill="#fff"/>
          <path id="Path_22454" data-name="Path 22454" d="M358.816,207.56,318.653,199.3a29.072,29.072,0,0,1,6.484-2.485l31.323,6.44a10.4,10.4,0,0,1,2.356,4.307" transform="translate(-311.087 -196.812)" fill="#fff"/>
          <path id="Path_22455" data-name="Path 22455" d="M358.034,210.025a8.168,8.168,0,0,1-.49,1.178l-43.069-8.856c.4-.344.834-.679,1.3-1.006Z" transform="translate(-310.486 -197.463)" fill="#fff"/>
        </g>
      </g>
    </g>
    <path id="Path_22456" data-name="Path 22456" d="M522.644,324.443l-97.034-55.368c-8.059-4.653-21.092-4.658-29.108,0l-2.5,1.453-1.468.853c-8.016,4.659-7.974,12.213.086,16.866l97.035,55.37c8.07,4.658,21.109,4.658,29.126,0l3.969-2.307c8.016-4.658,7.964-12.207-.1-16.866" transform="translate(41.734 763.978)" fill="#ccc"/>
    <path id="Path_22457" data-name="Path 22457" d="M527.99,95.268c0-.114-.008-.229-.016-.346,0-.052-.009-.1-.013-.157l-.005-.069c0-.04-.006-.08-.009-.122-.011-.116-.024-.233-.039-.35s-.032-.24-.051-.359l0-.01,0-.012c-.018-.114-.038-.226-.058-.339s-.049-.25-.076-.373c-.009-.044-.021-.088-.031-.132l-.018-.078c-.013-.055-.025-.11-.039-.165-.031-.126-.064-.253-.1-.378-.026-.092-.053-.183-.081-.276l-.015-.052c-.005-.017-.009-.033-.015-.051-.038-.122-.077-.247-.118-.37s-.083-.243-.128-.364c-.008-.022-.016-.043-.025-.065l-.021-.057c-.028-.075-.056-.152-.086-.228-.045-.116-.092-.232-.14-.347-.034-.084-.07-.165-.106-.247l-.02-.047c-.007-.015-.014-.033-.021-.049-.051-.116-.1-.232-.158-.347s-.119-.251-.182-.376l-.029-.056-.038-.073c-.05-.1-.1-.2-.154-.3-.066-.123-.136-.244-.206-.366-.035-.063-.069-.127-.105-.189-.015-.023-.027-.048-.041-.074-.062-.106-.132-.207-.2-.313-.094-.152-.188-.307-.288-.458-.015-.023-.03-.049-.045-.074-.146-.217-.3-.43-.449-.64l0,0c-.1-.142-.21-.28-.318-.417-.087-.111-.176-.221-.266-.33l-.005-.005,0-.006c-.091-.108-.182-.216-.276-.322s-.184-.207-.278-.309l-.046-.048-.05-.052c-.065-.069-.13-.138-.2-.2q-.149-.153-.3-.3c-.031-.03-.063-.059-.1-.088l-.072-.067c-.049-.047-.1-.092-.147-.139-.105-.093-.211-.186-.318-.277l-.142-.115-.072-.059c-.034-.027-.069-.058-.1-.086-.1-.081-.209-.162-.314-.24l-.229-.163-.042-.03c-.014-.009-.026-.018-.039-.028-.1-.069-.2-.136-.3-.2s-.2-.126-.3-.186l-.07-.042L417.345,23.48c-.076-.044-.152-.087-.227-.128-.1-.052-.2-.1-.293-.152l-.188-.089-.045-.021-.056-.026c-.1-.044-.191-.083-.286-.122s-.193-.074-.289-.108c-.016-.007-.032-.011-.049-.017l-.045-.013c-.064-.022-.128-.045-.193-.063-.1-.031-.2-.058-.3-.081-.047-.013-.094-.021-.141-.033-.02,0-.04-.009-.061-.014s-.061-.015-.091-.019c-.105-.021-.21-.038-.313-.052-.063-.009-.126-.014-.188-.019a.594.594,0,0,0-.066-.007c-.021,0-.043-.006-.063-.007-.114-.008-.225-.011-.336-.011-.049,0-.1,0-.145.007l-.111.005c-.039,0-.077,0-.115.006a3.8,3.8,0,0,0-.413.059l-.008,0c-.029.006-.056.017-.086.024a4.076,4.076,0,0,0-.405.111c-.011,0-.021.011-.031.015a3.4,3.4,0,0,0-.549.254L402.9,28.419a3.463,3.463,0,0,1,.548-.253,3.553,3.553,0,0,1,.437-.126c.03-.007.057-.018.086-.023a4.011,4.011,0,0,1,.534-.068l.112-.005a4.648,4.648,0,0,1,.544.011l.065.008a5.356,5.356,0,0,1,.593.09l.061.014a6.006,6.006,0,0,1,.629.176l.044.015c.223.075.449.167.679.271l.045.021c.234.108.469.229.709.368l103.524,59.77c.241.139.48.292.716.455a.339.339,0,0,1,.042.03c.22.152.436.317.649.488l.071.058q.31.254.608.531l.072.067c.2.189.4.388.593.592l.049.051q.31.331.6.685l.005.007q.3.362.584.746h0l0,0c.171.233.336.473.5.713.1.151.192.3.286.457.081.129.163.258.24.39.036.061.069.123.1.186.125.221.247.443.361.668l.037.07q.207.41.39.83l.019.042q.179.412.332.826l.021.052c.1.283.2.568.285.852.005.018.01.033.015.051q.123.41.219.819l.018.079c.064.283.121.563.165.843l0,.012c.045.283.078.564.1.842l.005.068c.021.278.034.555.033.827l-.553,194.922c0,.271-.014.533-.037.784l-.008.068q-.035.347-.1.667c-.006.029-.011.057-.017.086q-.064.31-.153.594c-.011.035-.023.07-.035.105a5.109,5.109,0,0,1-.2.509c-.008.019-.015.039-.024.057a4.521,4.521,0,0,1-.287.521c-.014.021-.03.039-.044.061a4.138,4.138,0,0,1-.277.366c-.036.042-.074.081-.11.121a3.328,3.328,0,0,1-.268.259c-.039.033-.076.068-.116.1a3.342,3.342,0,0,1-.414.288l9.355-5.437a3.391,3.391,0,0,0,.413-.288c.04-.032.077-.066.116-.1a3.5,3.5,0,0,0,.269-.26c.037-.039.074-.079.11-.12a4.022,4.022,0,0,0,.278-.368c.014-.021.029-.039.043-.06l.009-.014a4.443,4.443,0,0,0,.27-.489l.008-.018c.009-.018.015-.039.024-.056.049-.108.1-.217.14-.331.021-.057.039-.119.059-.178.012-.035.024-.069.035-.105s.021-.061.031-.093c.035-.118.067-.241.1-.365.01-.045.018-.091.027-.136.006-.028.012-.057.017-.086s.019-.085.026-.128q.03-.168.051-.342c.009-.064.014-.131.021-.2,0-.023.005-.045.007-.068s.006-.053.009-.08c.009-.11.015-.223.021-.337s.008-.229.009-.346v-.021l.552-194.923c0-.107,0-.215,0-.323" transform="translate(39.382 798.938)" fill="#ff860d"/>
    <path id="Path_22458" data-name="Path 22458" d="M511.072,89.6,407.547,29.829c-3.945-2.277-7.159-.451-7.172,4.087l-.552,194.923a15.707,15.707,0,0,0,7.125,12.341l103.524,59.77c3.95,2.28,7.159.45,7.171-4.087L518.2,101.94A15.7,15.7,0,0,0,511.072,89.6" transform="translate(39.825 798.025)" fill="#b85a00"/>
    <path id="Path_22459" data-name="Path 22459" d="M512,96.607,408.476,36.837c-.826-.476-1.5-.089-1.5.86L406.6,171.214l-.175,39.505a3.287,3.287,0,0,0,1.491,2.583L455.3,240.657l56.142,32.414c.826.477,1.5.1,1.505-.853l.365-106.751L513.5,99.2A3.3,3.3,0,0,0,512,96.607" transform="translate(38.876 796.905)" fill="#fff"/>
    <path id="Path_22460" data-name="Path 22460" d="M452.715,112.056l56.239,32.47c1.569.906,2.849.177,2.854-1.63a6.249,6.249,0,0,0-2.835-4.911l-12.257-7.077-43.982-25.393c-1.57-.906-2.849-.181-2.855,1.627a6.256,6.256,0,0,0,2.836,4.914" transform="translate(32.626 787.055)" fill="#57dee6"/>
    <path id="Path_22461" data-name="Path 22461" d="M452.68,124.65l56.239,32.47c1.569.906,2.849.177,2.854-1.63a6.247,6.247,0,0,0-2.836-4.911L452.7,118.109c-1.57-.906-2.849-.181-2.855,1.627a6.256,6.256,0,0,0,2.836,4.914" transform="translate(32.631 785.244)" fill="#57dee6"/>
    <path id="Path_22462" data-name="Path 22462" d="M452.613,148.156l56.239,32.471c1.569.906,2.848.179,2.854-1.627a6.252,6.252,0,0,0-2.836-4.914l-56.238-32.47c-1.57-.907-2.849-.177-2.854,1.628v0a6.247,6.247,0,0,0,2.836,4.91" transform="translate(32.641 781.863)" fill="#57dee6"/>
    <path id="Path_22463" data-name="Path 22463" d="M452.577,160.751l56.239,32.47c1.569.906,2.848.18,2.854-1.627a6.254,6.254,0,0,0-2.836-4.914L452.6,154.21c-1.57-.906-2.849-.177-2.855,1.629a6.25,6.25,0,0,0,2.836,4.912" transform="translate(32.646 780.051)" fill="#57dee6"/>
    <path id="Path_22464" data-name="Path 22464" d="M508.768,210.189l-56.239-32.47c-1.569-.906-2.849-.177-2.854,1.627a6.254,6.254,0,0,0,2.836,4.914l56.238,32.47c1.57.906,2.849.177,2.855-1.629h0a6.255,6.255,0,0,0-2.836-4.911" transform="translate(32.655 776.67)" fill="#57dee6"/>
    <path id="Path_22465" data-name="Path 22465" d="M508.733,222.783l-56.239-32.47c-1.569-.906-2.849-.177-2.854,1.627a6.254,6.254,0,0,0,2.836,4.914l56.238,32.47c1.57.906,2.849.177,2.854-1.63a6.255,6.255,0,0,0-2.836-4.911" transform="translate(32.661 774.859)" fill="#57dee6"/>
    <path id="Path_22466" data-name="Path 22466" d="M452.408,220.365l56.239,32.47c1.569.906,2.849.177,2.854-1.63a6.254,6.254,0,0,0-2.836-4.914l-56.238-32.47c-1.57-.906-2.849-.177-2.855,1.63a6.256,6.256,0,0,0,2.836,4.914" transform="translate(32.67 771.478)" fill="#57dee6"/>
    <path id="Path_22467" data-name="Path 22467" d="M511.465,263.8a6.256,6.256,0,0,0-2.836-4.914l-56.239-32.47c-1.569-.906-2.849-.177-2.854,1.629h0a6.255,6.255,0,0,0,2.836,4.914l46.471,26.83,9.768,5.639c1.569.907,2.849.177,2.854-1.629" transform="translate(32.675 769.667)" fill="#57dee6"/>
    <path id="Path_22468" data-name="Path 22468" d="M433.436,96.494a23.135,23.135,0,0,0-3.456-5.987,17.006,17.006,0,0,0-4.751-4.22,8,8,0,0,0-4.756-1.269A4.693,4.693,0,0,0,416.993,87a7.882,7.882,0,0,0-1.3,4.722h0a16.845,16.845,0,0,0,1.269,6.2,23.107,23.107,0,0,0,3.457,5.988,17,17,0,0,0,4.748,4.218,8,8,0,0,0,4.759,1.27,4.688,4.688,0,0,0,3.48-1.983,7.877,7.877,0,0,0,1.3-4.719,16.851,16.851,0,0,0-1.269-6.2m-2.289,1.812-7.076,4.033c-.1.088-.242.079-.422-.025a1.047,1.047,0,0,1-.42-.461l-3.973-6.885a1.052,1.052,0,0,1-.192-.6c0-.205.067-.328.194-.372l.845-.526a.426.426,0,0,1,.443.033,1.253,1.253,0,0,1,.438.475l2.676,4.631,5.768-3.287a.424.424,0,0,1,.442.033,1.268,1.268,0,0,1,.441.476l.839,1.5a1.043,1.043,0,0,1,.189.594c0,.206-.063.33-.192.374" transform="translate(37.543 789.95)" fill="#57dee6"/>
    <path id="Path_22469" data-name="Path 22469" d="M433.438,136.021a23.127,23.127,0,0,0-3.456-5.988,17.005,17.005,0,0,0-4.751-4.22,8,8,0,0,0-4.756-1.269,4.693,4.693,0,0,0-3.48,1.983,7.881,7.881,0,0,0-1.3,4.722h0a16.844,16.844,0,0,0,1.269,6.2,23.1,23.1,0,0,0,3.457,5.988,17,17,0,0,0,4.748,4.218,8,8,0,0,0,4.759,1.27,4.688,4.688,0,0,0,3.48-1.983,7.877,7.877,0,0,0,1.3-4.719,16.844,16.844,0,0,0-1.269-6.2m-2.289,1.811-7.076,4.033c-.1.088-.242.079-.422-.025a1.047,1.047,0,0,1-.42-.461l-3.973-6.885a1.051,1.051,0,0,1-.192-.6c0-.205.067-.328.194-.372L420.1,133a.426.426,0,0,1,.443.033,1.253,1.253,0,0,1,.438.475l2.676,4.631,5.768-3.287a.424.424,0,0,1,.442.033,1.264,1.264,0,0,1,.441.477l.839,1.5a1.043,1.043,0,0,1,.189.594c0,.206-.063.33-.192.374" transform="translate(37.543 784.266)" fill="#57dee6"/>
    <path id="Path_22470" data-name="Path 22470" d="M433.44,174.563a23.129,23.129,0,0,0-3.456-5.988,17.006,17.006,0,0,0-4.751-4.22,8,8,0,0,0-4.756-1.269,4.693,4.693,0,0,0-3.48,1.983,7.882,7.882,0,0,0-1.3,4.722h0a16.846,16.846,0,0,0,1.269,6.2,23.1,23.1,0,0,0,3.457,5.988,17,17,0,0,0,4.747,4.218,8,8,0,0,0,4.759,1.27,4.688,4.688,0,0,0,3.48-1.983,7.877,7.877,0,0,0,1.3-4.719,16.845,16.845,0,0,0-1.269-6.2m-2.289,1.811-7.076,4.033c-.1.088-.242.079-.422-.025a1.047,1.047,0,0,1-.42-.462l-3.973-6.885a1.051,1.051,0,0,1-.192-.6c0-.205.067-.328.194-.372l.845-.526a.426.426,0,0,1,.443.033,1.252,1.252,0,0,1,.438.475l2.676,4.631,5.768-3.287a.424.424,0,0,1,.442.033,1.267,1.267,0,0,1,.441.476l.839,1.5a1.043,1.043,0,0,1,.189.594c0,.206-.063.33-.192.374" transform="translate(37.542 778.723)" fill="#57dee6"/>
    <path id="Path_22471" data-name="Path 22471" d="M433.442,210.394a23.125,23.125,0,0,0-3.456-5.988,16.994,16.994,0,0,0-4.751-4.22,8,8,0,0,0-4.756-1.269A4.694,4.694,0,0,0,417,200.9a7.881,7.881,0,0,0-1.3,4.722h0a16.862,16.862,0,0,0,1.269,6.2,23.106,23.106,0,0,0,3.457,5.988,17.025,17.025,0,0,0,4.748,4.218,8,8,0,0,0,4.759,1.27,4.686,4.686,0,0,0,3.48-1.983,7.877,7.877,0,0,0,1.3-4.719,16.826,16.826,0,0,0-1.269-6.2m-2.289,1.811-7.077,4.033c-.1.088-.241.079-.422-.025a1.047,1.047,0,0,1-.42-.461l-3.973-6.885a1.051,1.051,0,0,1-.192-.6c0-.205.068-.328.194-.372l.845-.526a.426.426,0,0,1,.443.033,1.253,1.253,0,0,1,.438.475l2.676,4.631,5.768-3.287a.426.426,0,0,1,.443.033,1.269,1.269,0,0,1,.44.477l.839,1.5a1.051,1.051,0,0,1,.19.594c0,.206-.064.33-.192.374" transform="translate(37.542 773.57)" fill="#57dee6"/>
    <path id="Path_22472" data-name="Path 22472" d="M446.286,35.612l-.114-.059-.153-.08-.119-.062c-.064-.032-.128-.06-.191-.09l-.135-.063-.057-.027c-.127-.057-.253-.11-.378-.16s-.254-.1-.38-.143l-.05-.016c-.045-.016-.09-.03-.134-.045-.065-.021-.13-.044-.194-.063l-.1-.026-.166-.046c-.043-.011-.086-.025-.128-.035s-.088-.02-.133-.03-.111-.026-.166-.037l-.088-.02c-.052-.01-.1-.016-.154-.026s-.128-.022-.191-.031c-.022,0-.045-.009-.068-.011-.053-.008-.1-.01-.156-.016-.068-.008-.137-.015-.2-.021-.02,0-.039-.005-.059-.006-.046,0-.091,0-.136-.005-.081,0-.161-.007-.24-.008-.022,0-.045,0-.068,0s-.068,0-.1,0c-.1,0-.2.007-.3.015-.029,0-.06,0-.089,0s-.043.007-.064.009c-.151.015-.3.036-.443.064l-.037.005-.01,0-.088.021c-.09.02-.179.041-.266.066-.044.012-.085.027-.128.039s-.112.033-.167.053c-.015,0-.027.011-.041.016-.086.031-.169.067-.252.1-.039.017-.08.032-.118.051-.121.057-.239.116-.354.183l-2.641,1.535c.115-.066.233-.127.353-.183.039-.018.08-.033.119-.051.083-.036.166-.071.252-.1.068-.025.138-.047.207-.069.043-.013.085-.027.128-.039.087-.025.177-.046.266-.066l.089-.021.046-.008c.145-.028.293-.049.443-.064.051-.006.1-.01.154-.014.1-.008.2-.012.3-.015l.17,0c.08,0,.159,0,.24.009.065,0,.13.005.2.01s.135.013.2.021.148.016.224.027.128.021.191.031c.081.015.161.028.242.045.056.011.11.024.166.037.086.021.174.042.261.065l.167.046c.1.027.192.057.289.089l.135.045q.425.146.863.346l.136.064c.1.048.206.1.31.152l.153.079c.137.073.275.147.414.227l9.28,5.358,2.642-1.535-9.281-5.358c-.1-.058-.2-.114-.3-.168" transform="translate(34.445 797.214)" fill="#fcee21"/>
    <path id="Path_22473" data-name="Path 22473" d="M507.411,78.819c0-.027,0-.054,0-.081,0-.057-.006-.114-.009-.171s-.005-.135-.009-.2c0-.052-.009-.1-.012-.157s-.009-.122-.015-.182c0-.04-.006-.08-.01-.121-.008-.087-.019-.176-.029-.264-.005-.049-.01-.1-.016-.148,0-.016,0-.033-.006-.051q-.03-.236-.067-.474l0-.01c0-.023-.008-.046-.012-.068-.021-.133-.044-.265-.069-.4,0-.023-.009-.047-.015-.071-.012-.063-.026-.127-.039-.191s-.03-.153-.047-.23c-.009-.043-.02-.086-.03-.128-.015-.069-.032-.138-.048-.207-.013-.053-.024-.105-.037-.158s-.033-.128-.05-.191-.036-.139-.055-.208c-.009-.034-.017-.068-.027-.1-.025-.091-.052-.181-.079-.271-.018-.059-.034-.119-.052-.178-.005-.016-.009-.033-.015-.05q-.074-.244-.157-.488l0-.005-.015-.045q-.073-.216-.15-.43l-.026-.068c-.02-.055-.041-.109-.062-.164-.029-.077-.056-.154-.086-.231l-.06-.148c-.023-.06-.047-.119-.072-.179l-.053-.132c-.036-.086-.074-.173-.11-.259-.021-.048-.04-.1-.062-.143-.007-.016-.014-.033-.021-.051q-.1-.23-.208-.457l-.009-.017-.057-.119c-.057-.12-.115-.241-.175-.36-.009-.018-.019-.036-.027-.054-.047-.094-.1-.188-.146-.282-.039-.076-.078-.153-.119-.229-.007-.014-.015-.027-.022-.04q-.2-.367-.408-.728c-.012-.021-.022-.042-.034-.062s-.029-.045-.043-.068q-.3-.5-.623-.992c-.011-.018-.021-.036-.033-.054s-.042-.058-.062-.088c-.175-.259-.352-.514-.536-.764l0,0q-.2-.266-.4-.526l-.017-.023c-.1-.123-.2-.245-.3-.366-.021-.027-.042-.053-.064-.08l0,0q-.18-.217-.365-.427l-.018-.02c-.038-.043-.076-.084-.114-.126-.078-.087-.156-.176-.235-.261l-.045-.047-.162-.17c-.06-.063-.119-.127-.18-.188l-.067-.066c-.059-.06-.119-.118-.179-.176s-.1-.1-.152-.151c-.028-.028-.058-.054-.087-.081l-.194-.181c-.044-.041-.089-.084-.134-.124s-.071-.061-.105-.092c-.065-.058-.13-.115-.2-.171l-.118-.1-.128-.105c-.064-.053-.128-.105-.192-.157-.033-.027-.066-.055-.1-.08-.054-.043-.108-.082-.162-.124l-.18-.137-.073-.055c-.072-.054-.146-.1-.219-.156-.051-.036-.1-.073-.152-.108l-.039-.028q-.2-.136-.4-.265l0,0-.028-.017q-.182-.116-.367-.225l-.092-.054-9.284-5.36c0-.051,0-.1,0-.153-.008-.236-.019-.473-.033-.711v0l0-.039c-.015-.223-.033-.449-.054-.674,0-.033-.008-.065-.011-.1-.009-.087-.019-.175-.029-.263-.014-.122-.025-.242-.04-.364-.009-.065-.019-.131-.028-.2-.014-.1-.028-.2-.043-.3-.012-.079-.021-.157-.033-.235-.016-.1-.036-.2-.053-.3s-.034-.2-.052-.306c-.009-.047-.016-.1-.025-.142-.027-.147-.059-.294-.09-.441-.017-.086-.033-.172-.052-.259l-.013-.063q-.085-.388-.181-.777l0,0-.013-.051c-.061-.241-.123-.482-.19-.723-.007-.024-.015-.048-.021-.073-.027-.093-.055-.188-.082-.282-.041-.141-.081-.283-.124-.426-.015-.048-.032-.1-.047-.146-.033-.1-.066-.206-.1-.31s-.064-.2-.1-.306c-.026-.079-.055-.157-.081-.235-.036-.1-.072-.208-.11-.313-.024-.068-.046-.136-.071-.2-.044-.122-.091-.243-.136-.365-.033-.086-.064-.173-.1-.259-.013-.033-.025-.066-.038-.1q-.139-.357-.286-.711l0,0c-.006-.014-.012-.027-.017-.04q-.139-.334-.285-.665c-.016-.036-.033-.072-.049-.107-.038-.086-.079-.172-.118-.258-.051-.115-.1-.229-.155-.342-.032-.066-.065-.132-.1-.2q-.085-.177-.171-.354c-.039-.078-.075-.157-.114-.235s-.082-.159-.122-.238q-.1-.194-.2-.385c-.034-.064-.066-.13-.1-.194s-.06-.105-.089-.159q-.261-.485-.538-.965c-.024-.041-.045-.083-.069-.124l-.026-.044q-.266-.455-.545-.9c-.026-.041-.052-.08-.078-.122-.162-.255-.325-.509-.493-.76l-.041-.063c-.027-.039-.055-.076-.081-.116q-.365-.539-.748-1.064c-.03-.04-.057-.082-.087-.122l-.054-.07c-.14-.19-.284-.376-.427-.562-.057-.073-.111-.147-.168-.219l-.028-.035c-.069-.086-.138-.17-.206-.255-.109-.134-.216-.27-.325-.4L481,38.685c-.077-.092-.157-.183-.235-.275-.093-.11-.186-.22-.281-.328-.027-.033-.056-.062-.085-.1-.082-.092-.165-.183-.248-.275s-.16-.18-.242-.268c-.039-.043-.081-.084-.121-.127-.09-.1-.182-.191-.273-.286-.069-.072-.137-.146-.207-.217-.05-.051-.1-.1-.15-.148q-.145-.145-.29-.287c-.061-.06-.121-.121-.182-.18s-.117-.108-.176-.163c-.1-.1-.2-.192-.307-.287-.055-.05-.109-.1-.163-.152s-.133-.115-.2-.174c-.1-.091-.206-.182-.31-.271-.05-.042-.1-.086-.147-.128-.076-.064-.153-.125-.23-.188-.1-.082-.2-.164-.3-.245l-.124-.1c-.092-.073-.186-.141-.279-.212s-.185-.144-.278-.213c-.03-.022-.06-.046-.091-.068-.122-.091-.247-.176-.371-.264-.074-.053-.148-.107-.223-.158l-.046-.033q-.311-.213-.626-.414l-.013-.008-.1-.058c-.171-.107-.343-.214-.515-.315l-.145-.085q-.235-.136-.469-.262c-.059-.033-.117-.061-.176-.092-.081-.043-.16-.084-.24-.124-.062-.032-.125-.067-.188-.1-.1-.05-.2-.093-.3-.14-.07-.033-.141-.068-.211-.1l-.087-.042q-.3-.132-.589-.249h0q-.3-.119-.593-.223l-.077-.025c-.07-.025-.14-.046-.211-.069-.1-.033-.2-.068-.3-.1l-.149-.041-.261-.072c-.066-.017-.134-.039-.2-.055s-.138-.03-.207-.046c-.087-.02-.175-.04-.261-.058l-.139-.031c-.082-.015-.162-.026-.243-.039-.1-.017-.2-.034-.292-.049-.035,0-.07-.012-.105-.017-.081-.011-.161-.015-.242-.025-.108-.012-.216-.024-.323-.033-.031,0-.063-.008-.094-.009-.074-.005-.145,0-.217-.008-.122-.005-.242-.011-.362-.012-.034,0-.069,0-.1,0-.055,0-.107.007-.162.008-.157,0-.313.01-.466.021-.045,0-.092,0-.138.007-.066.006-.13.015-.2.023l-.143.016c-.173.023-.344.05-.512.083l-.018,0c-.047.009-.092.023-.139.033-.139.031-.277.063-.414.1-.067.019-.131.041-.2.062-.085.027-.171.051-.255.08-.023.008-.045.019-.068.027-.133.049-.263.1-.392.159-.063.027-.128.051-.189.08-.188.088-.374.183-.554.288l-2.641,1.535c.18-.1.365-.2.554-.288.062-.029.126-.053.188-.08.129-.056.259-.11.393-.159.106-.039.215-.074.324-.108.065-.02.13-.043.2-.061.135-.039.274-.071.414-.1l.138-.033c.174-.035.351-.063.53-.087l.144-.016c.11-.013.221-.021.333-.03.153-.011.309-.018.466-.021.088,0,.176-.005.264,0,.12,0,.241.007.363.012.1.005.206.009.312.017s.214.021.322.033.231.026.348.042c.1.015.194.032.292.049.127.021.254.044.382.07.087.018.175.039.262.058.134.032.27.065.407.1l.26.072c.149.044.3.091.45.14.07.023.14.045.211.069q.664.23,1.349.54c.07.032.14.066.211.1.16.076.322.154.484.237.08.04.16.081.24.124.214.113.429.229.646.354s.443.263.662.4c.032.019.063.037.093.057q.344.22.685.455c.075.051.149.106.224.159.154.109.307.218.46.331.093.07.186.142.279.213.134.1.269.206.4.313.1.08.2.163.3.245.126.1.252.209.377.316.1.089.207.18.31.271.122.108.242.216.362.326.1.094.206.189.307.286q.18.17.357.342c.1.1.194.19.29.287.12.12.239.242.358.366l.273.286c.122.13.242.263.363.4.082.091.166.182.247.274q.185.209.366.423c.079.092.158.182.235.275.128.153.253.31.379.466.068.086.139.169.206.255s.131.17.2.254c.144.186.288.372.428.562.047.063.092.128.14.193q.384.524.749,1.064c.04.06.082.119.122.18q.249.374.489.754c.027.043.056.085.082.128q.279.446.544.9c.033.056.064.112.1.169q.276.478.538.965c.063.117.127.235.188.353s.134.256.2.385q.121.235.236.473c.058.117.115.235.171.354q.128.27.252.54c.039.086.079.171.117.258.116.259.229.518.336.778.005.011.01.022.015.033.113.271.221.544.326.816.033.086.064.172.1.258.071.19.14.379.208.569.037.1.073.209.109.313.062.181.122.36.18.541.033.1.068.207.1.31q.089.286.17.571c.027.094.057.188.082.282.075.265.146.532.211.8l.014.051c.07.283.135.564.2.845.018.086.034.171.052.256.039.2.079.39.114.585.019.1.036.2.053.306q.046.27.086.539c.015.1.03.2.044.3.025.188.047.374.068.561.009.088.021.176.029.263.026.259.048.516.064.772l0,.039c.019.291.031.58.038.868l9.283,5.36q.233.135.462.281l.026.015c.149.094.3.193.443.295l.152.108c.1.069.2.139.291.211.061.045.121.092.18.138.087.067.175.134.261.2.064.051.128.1.192.157.083.068.165.138.247.208.065.057.13.113.2.171.081.071.16.143.24.216l.194.181c.08.076.16.154.24.232.06.058.119.116.178.176q.125.126.247.254c.054.057.109.112.162.17.094.1.188.2.281.308.038.042.076.083.113.126.131.148.259.3.387.451l.063.078c.106.129.211.259.315.39.135.173.27.348.4.526v0c.184.25.362.506.536.764.033.047.064.094.1.142q.324.487.622.992l.078.13c.14.24.277.482.408.727.049.091.1.182.143.273s.1.186.144.279c.069.137.136.275.2.414.019.039.039.08.057.119q.123.262.239.525l.061.143q.083.194.164.39l.072.18q.075.189.146.378c.021.055.041.109.061.164.061.165.12.331.175.5.005.015.011.03.016.045q.09.271.173.544l.051.175c.037.126.073.251.107.377.019.068.037.138.055.206.03.117.059.234.087.351.016.069.033.137.048.205.027.121.052.241.077.362.013.063.027.125.039.188q.045.238.084.474c0,.021.008.043.011.063.028.18.053.358.075.536.007.05.011.1.017.148.015.128.027.257.039.384.005.061.01.121.015.182.009.121.016.241.022.36,0,.057.006.115.008.171.006.17.01.339.009.507l-.04,14.212,2.642-1.535.04-14.212c0-.141,0-.283-.006-.426" transform="translate(31.037 797.767)" fill="#fcee21"/>
    <path id="Path_22474" data-name="Path 22474" d="M491.493,64.743l-9.283-5.36c-.209-9.251-6.69-20.314-14.681-24.928s-14.511-1.057-14.773,7.922l-9.281-5.358c-5.212-3.009-9.45-.592-9.467,5.4l-.04,14.212,66.89,38.619.04-14.212c.017-5.989-4.2-13.285-9.405-16.293" transform="translate(34.915 797.509)" fill="#fc9b00"/>
    <path id="Path_22475" data-name="Path 22475" d="M287.835,179.92,195.1,233.457l-68.88-40.018,92.733-53.546Z" transform="translate(79.174 782.054)" fill="#ccc"/>
    <path id="Path_22476" data-name="Path 22476" d="M291.576,170.618c1.879-1.086,3.408-.214,3.414,1.946a7.478,7.478,0,0,1-3.392,5.875c-1.88,1.085-3.411.216-3.417-1.944a7.482,7.482,0,0,1,3.395-5.877" transform="translate(55.881 777.703)" fill="#070f1a"/>
    <path id="Path_22477" data-name="Path 22477" d="M291.34,168.731c2.641-1.526,4.793-.3,4.8,2.735a10.517,10.517,0,0,1-4.771,8.263c-2.644,1.526-4.793.3-4.8-2.736a10.509,10.509,0,0,1,4.771-8.262m.027,9.409a7.478,7.478,0,0,0,3.392-5.875c-.006-2.16-1.534-3.031-3.414-1.946a7.482,7.482,0,0,0-3.395,5.877c.006,2.16,1.538,3.03,3.417,1.944" transform="translate(56.113 778.002)" fill="#ffda54"/>
    <path id="Path_22478" data-name="Path 22478" d="M294.352,128.321l.092,24.1-5.652,3.263-.092-24.1Z" transform="translate(55.806 783.719)" fill="#ffda54"/>
    <path id="Path_22479" data-name="Path 22479" d="M287.9,99.232l-12.342,7.124-54.6-31.734,2.7-1.557,6.922-4L233.3,67.5Z" transform="translate(65.549 792.466)" fill="#4794ff"/>
    <path id="Path_22480" data-name="Path 22480" d="M282.945,99.488l-2.007,1.158-4.915,2.839L224.113,73.328l4.916-2.839,2.007-1.158Z" transform="translate(65.095 792.203)" fill="#e6e6e6"/>
    <path id="Path_22481" data-name="Path 22481" d="M280.938,100.841l-4.916,2.839L224.113,73.523l4.916-2.839Z" transform="translate(65.095 792.008)" fill="#fff"/>
    <path id="Path_22482" data-name="Path 22482" d="M284.735,111.687l12.338-7.124.217,67.666-12.339,7.124Zm3.4,16.48.092,24.1L293.875,149l-.092-24.1-5.652,3.263m2.976,42.428a10.516,10.516,0,0,0,4.771-8.262c-.009-3.039-2.16-4.261-4.8-2.736a10.512,10.512,0,0,0-4.771,8.262c.009,3.039,2.158,4.263,4.8,2.736" transform="translate(56.377 787.135)" fill="#3976cc"/>
    <path id="Path_22483" data-name="Path 22483" d="M275.778,175.219l-54.6-31.733-.216-67.666,54.6,31.733Z" transform="translate(65.549 791.269)" fill="#2f61a8"/>
    <path id="Path_22484" data-name="Path 22484" d="M267.247,185.213c1.879-1.086,3.408-.214,3.414,1.946a7.478,7.478,0,0,1-3.392,5.875c-1.88,1.085-3.411.216-3.417-1.944a7.483,7.483,0,0,1,3.395-5.877" transform="translate(59.38 775.604)" fill="#070f1a"/>
    <path id="Path_22485" data-name="Path 22485" d="M267.011,183.326c2.641-1.526,4.793-.3,4.8,2.735a10.517,10.517,0,0,1-4.771,8.263c-2.644,1.526-4.793.3-4.8-2.736a10.509,10.509,0,0,1,4.771-8.262m.027,9.409a7.478,7.478,0,0,0,3.392-5.875c-.006-2.16-1.534-3.031-3.414-1.946a7.482,7.482,0,0,0-3.395,5.877c.006,2.16,1.538,3.03,3.417,1.944" transform="translate(59.612 775.902)" fill="#ffda54"/>
    <path id="Path_22486" data-name="Path 22486" d="M270.024,142.915l.092,24.1-5.652,3.263-.092-24.1Z" transform="translate(59.306 781.62)" fill="#ffda54"/>
    <path id="Path_22487" data-name="Path 22487" d="M263.574,113.826l-12.342,7.124-54.6-31.734,2.7-1.557,6.922-4,2.716-1.569Z" transform="translate(69.048 790.367)" fill="#4794ff"/>
    <path id="Path_22488" data-name="Path 22488" d="M258.616,114.082l-2.007,1.158-4.915,2.839L199.785,87.922l4.916-2.839,2.007-1.158Z" transform="translate(68.594 790.104)" fill="#e6e6e6"/>
    <path id="Path_22489" data-name="Path 22489" d="M256.61,115.435l-4.916,2.839L199.785,88.117l4.916-2.839Z" transform="translate(68.595 789.909)" fill="#fff"/>
    <path id="Path_22490" data-name="Path 22490" d="M260.407,126.281l12.338-7.124.217,67.666-12.339,7.124Zm3.4,16.48.092,24.1,5.652-3.263-.092-24.1-5.652,3.263m2.976,42.428a10.515,10.515,0,0,0,4.771-8.262c-.009-3.039-2.16-4.261-4.8-2.736a10.512,10.512,0,0,0-4.771,8.262c.009,3.039,2.158,4.263,4.8,2.736" transform="translate(59.876 785.037)" fill="#3976cc"/>
    <path id="Path_22491" data-name="Path 22491" d="M251.45,189.813l-54.6-31.733-.216-67.666,54.6,31.733Z" transform="translate(69.048 789.17)" fill="#2f61a8"/>
    <path id="Path_22492" data-name="Path 22492" d="M242.919,199.807c1.879-1.086,3.408-.214,3.414,1.946a7.478,7.478,0,0,1-3.392,5.875c-1.88,1.085-3.411.216-3.417-1.944a7.482,7.482,0,0,1,3.395-5.877" transform="translate(62.879 773.505)" fill="#070f1a"/>
    <path id="Path_22493" data-name="Path 22493" d="M242.683,197.92c2.641-1.526,4.793-.3,4.8,2.736a10.517,10.517,0,0,1-4.771,8.263c-2.644,1.526-4.793.3-4.8-2.736a10.509,10.509,0,0,1,4.771-8.262m.027,9.409a7.478,7.478,0,0,0,3.392-5.875c-.006-2.16-1.534-3.031-3.414-1.946a7.482,7.482,0,0,0-3.395,5.877c.006,2.16,1.538,3.03,3.417,1.944" transform="translate(63.111 773.804)" fill="#ffda54"/>
    <path id="Path_22494" data-name="Path 22494" d="M245.7,157.509l.092,24.1-5.652,3.263-.092-24.1Z" transform="translate(62.804 779.521)" fill="#ffda54"/>
    <path id="Path_22495" data-name="Path 22495" d="M239.246,128.42,226.9,135.545,172.3,103.81l2.7-1.557,6.922-4,2.716-1.569Z" transform="translate(72.546 788.268)" fill="#4794ff"/>
    <path id="Path_22496" data-name="Path 22496" d="M234.288,128.676l-2.007,1.158-4.915,2.839-51.909-30.157,4.916-2.839,2.007-1.158Z" transform="translate(72.093 788.005)" fill="#e6e6e6"/>
    <path id="Path_22497" data-name="Path 22497" d="M232.281,130.029l-4.916,2.839-51.909-30.157,4.916-2.839Z" transform="translate(72.093 787.81)" fill="#fff"/>
    <path id="Path_22498" data-name="Path 22498" d="M236.078,140.875l12.338-7.124.217,67.666-12.339,7.124Zm3.4,16.48.092,24.1,5.652-3.263-.092-24.1-5.652,3.263m2.976,42.428a10.516,10.516,0,0,0,4.771-8.262c-.009-3.039-2.16-4.261-4.8-2.736a10.511,10.511,0,0,0-4.771,8.262c.009,3.039,2.158,4.263,4.8,2.736" transform="translate(63.375 782.938)" fill="#3976cc"/>
    <path id="Path_22499" data-name="Path 22499" d="M227.121,204.408l-54.6-31.733-.216-67.666,54.6,31.733Z" transform="translate(72.547 787.071)" fill="#2f61a8"/>
    <path id="Path_22500" data-name="Path 22500" d="M218.591,214.4c1.879-1.086,3.408-.214,3.414,1.946a7.478,7.478,0,0,1-3.392,5.875c-1.88,1.085-3.411.216-3.417-1.944a7.482,7.482,0,0,1,3.395-5.877" transform="translate(66.378 771.406)" fill="#070f1a"/>
    <path id="Path_22501" data-name="Path 22501" d="M218.355,212.514c2.641-1.526,4.793-.3,4.8,2.736a10.517,10.517,0,0,1-4.771,8.263c-2.644,1.526-4.793.3-4.8-2.736a10.509,10.509,0,0,1,4.771-8.262m.027,9.409a7.478,7.478,0,0,0,3.392-5.875c-.006-2.16-1.534-3.031-3.414-1.946a7.483,7.483,0,0,0-3.395,5.877c.006,2.16,1.538,3.03,3.417,1.944" transform="translate(66.61 771.705)" fill="#ffda54"/>
    <path id="Path_22502" data-name="Path 22502" d="M221.367,172.1l.092,24.1-5.652,3.263-.092-24.1Z" transform="translate(66.303 777.422)" fill="#ffda54"/>
    <path id="Path_22503" data-name="Path 22503" d="M214.918,143.014l-12.342,7.124-54.6-31.734,2.7-1.557,6.922-4,2.716-1.569Z" transform="translate(76.046 786.169)" fill="#4794ff"/>
    <path id="Path_22504" data-name="Path 22504" d="M209.959,143.27l-2.007,1.158-4.915,2.839-51.909-30.157,4.916-2.839,2.007-1.158Z" transform="translate(75.592 785.906)" fill="#e6e6e6"/>
    <path id="Path_22505" data-name="Path 22505" d="M207.953,144.623l-4.916,2.839-51.909-30.157,4.916-2.839Z" transform="translate(75.592 785.711)" fill="#fff"/>
    <path id="Path_22506" data-name="Path 22506" d="M211.75,155.469l12.338-7.124.217,67.666-12.339,7.124Zm3.4,16.48.092,24.1,5.652-3.263-.092-24.1-5.652,3.263m2.976,42.428a10.516,10.516,0,0,0,4.771-8.262c-.009-3.039-2.16-4.261-4.8-2.736a10.511,10.511,0,0,0-4.771,8.262c.009,3.039,2.158,4.263,4.8,2.736" transform="translate(66.873 780.839)" fill="#3976cc"/>
    <path id="Path_22507" data-name="Path 22507" d="M202.793,219l-54.6-31.733-.216-67.666,54.6,31.733Z" transform="translate(76.046 784.972)" fill="#2f61a8"/>
    <path id="Path_22533" data-name="Path 22533" d="M597.477,416.552c.024-.161.055-.324.09-.487s.081-.348.127-.524c.021-.079.039-.157.061-.235.067-.241.138-.483.209-.725s.151-.509.221-.764c.021-.076.038-.152.058-.229.046-.178.091-.357.128-.534.008-.038.02-.076.027-.115.026-.128.045-.253.063-.379.005-.036.013-.072.018-.107.023-.179.04-.357.045-.533,0-.043,0-.085,0-.127l.009-3.313a5.264,5.264,0,0,1-.048.659c-.005.035-.013.071-.018.106-.025.164-.056.329-.091.495s-.082.355-.128.533c-.021.077-.038.152-.058.229-.07.253-.145.509-.22.763s-.143.485-.211.727c-.021.078-.039.154-.059.231-.046.176-.09.353-.128.527-.008.039-.021.079-.028.118-.025.123-.043.246-.062.367-.005.036-.013.072-.018.108-.023.177-.04.352-.045.525,0,.042,0,.083,0,.124l-.009,3.313a5.093,5.093,0,0,1,.048-.649c.005-.035.013-.07.018-.105" transform="translate(11.408 743.427)" fill="#b34100"/>
    <path id="Path_22538" data-name="Path 22538" d="M551.927,405.447l-2.258-1.3-9.691,5.632,2.259,1.3Z" transform="translate(19.668 744.051)" fill="#fff"/>
    <path id="Path_22539" data-name="Path 22539" d="M553.12,414.361c-.593.345-1.581.288-2.916-.483A4.6,4.6,0,0,1,548,411.433l-2.46.539a5.872,5.872,0,0,0,2.852,2.944c2.788,1.609,5.52,1.585,7.139.644,3.558-2.068-3.343-4.624-1.553-5.664.609-.354,1.617-.344,2.957.429a4.726,4.726,0,0,1,1.941,2l2.4-.585a5.807,5.807,0,0,0-2.533-2.455c-2.772-1.6-5.478-1.574-7.123-.617-3.6,2.092,3.317,4.64,1.5,5.694" transform="translate(18.869 743.495)" fill="#fff"/>
    <path id="Path_22540" data-name="Path 22540" d="M560.621,421.885a11.007,11.007,0,0,0,10.35.168c2.893-1.682,2.734-4.223-.329-5.992a11,11,0,0,0-10.344-.17c-2.883,1.676-2.754,4.217.324,5.994m1.961-4.676a6.464,6.464,0,0,1,6.152-.039c1.739,1,1.794,2.494-.047,3.564a6.485,6.485,0,0,1-6.157.042c-1.744-1.008-1.789-2.5.052-3.567" transform="translate(17.045 742.535)" fill="#fff"/>
    <path id="Path_22541" data-name="Path 22541" d="M528.606,414.349a7.277,7.277,0,0,0-6.92-.255c-1.825,1.062-1.538,2.608.342,3.693a6.608,6.608,0,0,0,3.3.893,5.586,5.586,0,0,1-5.568.054,2.727,2.727,0,0,1-1.337-1.333l-2.485.476a4.644,4.644,0,0,0,2.033,1.945,10.18,10.18,0,0,0,10.193-.162c3.13-1.819,3.151-3.749.446-5.311m-1.272,2.874a3.285,3.285,0,0,1-3.126-.12c-1.007-.581-1.094-1.289-.206-1.8a3.152,3.152,0,0,1,3.069.1c1.074.621,1.094,1.336.264,1.819" transform="translate(23.126 742.728)" fill="#fff"/>
    <path id="Path_22545" data-name="Path 22545" d="M348.559,140.1l7.127,2.923-2.212,1.286-7.127-2.923Z" transform="translate(47.516 782.025)" fill="#fcee21"/>
    <path id="Path_22546" data-name="Path 22546" d="M367.794,166.12l-2.212,1.286-1.194-8.855,2.212-1.286Z" transform="translate(44.922 779.556)" fill="#fcee21"/>
    <path id="Path_22547" data-name="Path 22547" d="M363.792,146.252l7.12,5.3L368.7,152.84l-7.12-5.3-3.164-9.255L360.629,137Z" transform="translate(45.78 782.471)" fill="#fcee21"/>
    <path id="Path_22548" data-name="Path 22548" d="M346.347,141.152l7.127,2.923,3.206-5.577,3.164,9.255,7.121,5.3-5.171,2.8,1.194,8.855-6.359-7.528-6.383.171,1.24-7.45Z" transform="translate(47.516 782.255)" fill="#fc9b00"/>
    <path id="Path_22549" data-name="Path 22549" d="M348.559,109.027l7.127,2.923-2.212,1.286-7.127-2.923Z" transform="translate(47.516 786.494)" fill="#fcee21"/>
    <path id="Path_22550" data-name="Path 22550" d="M367.794,135.05l-2.212,1.286-1.194-8.855L366.6,126.2Z" transform="translate(44.922 784.024)" fill="#fcee21"/>
    <path id="Path_22551" data-name="Path 22551" d="M363.792,115.182l7.12,5.3L368.7,121.77l-7.12-5.3-3.164-9.255,2.212-1.286Z" transform="translate(45.78 786.939)" fill="#fcee21"/>
    <path id="Path_22552" data-name="Path 22552" d="M346.347,110.082l7.127,2.923,3.206-5.577,3.164,9.255,7.121,5.3-5.171,2.8,1.194,8.855-6.359-7.528-6.383.171,1.24-7.45Z" transform="translate(47.516 786.723)" fill="#fc9b00"/>
    <path id="Path_22553" data-name="Path 22553" d="M348.559,77.957l7.127,2.923-2.212,1.286-7.127-2.923Z" transform="translate(47.516 790.962)" fill="#fcee21"/>
    <path id="Path_22554" data-name="Path 22554" d="M367.794,103.98l-2.212,1.286-1.194-8.855,2.212-1.286Z" transform="translate(44.922 788.493)" fill="#fcee21"/>
    <path id="Path_22555" data-name="Path 22555" d="M363.792,84.112l7.12,5.3L368.7,90.7l-7.12-5.3-3.164-9.255,2.212-1.286Z" transform="translate(45.78 791.408)" fill="#fcee21"/>
    <path id="Path_22556" data-name="Path 22556" d="M346.347,79.013l7.127,2.923,3.206-5.577,3.164,9.255,7.121,5.3-5.171,2.8,1.194,8.855-6.359-7.528-6.383.171,1.24-7.45Z" transform="translate(47.516 791.192)" fill="#fc9b00"/>
    <path id="Path_22557" data-name="Path 22557" d="M348.559,46.887l7.127,2.923L353.474,51.1l-7.127-2.923Z" transform="translate(47.516 795.43)" fill="#fcee21"/>
    <path id="Path_22558" data-name="Path 22558" d="M367.794,72.911,365.581,74.2l-1.194-8.855,2.212-1.286Z" transform="translate(44.922 792.961)" fill="#fcee21"/>
    <path id="Path_22559" data-name="Path 22559" d="M363.792,53.042l7.12,5.3L368.7,59.631l-7.12-5.3-3.164-9.255,2.212-1.286Z" transform="translate(45.78 795.876)" fill="#fcee21"/>
    <path id="Path_22560" data-name="Path 22560" d="M346.347,47.943l7.127,2.923,3.206-5.577,3.164,9.255,7.121,5.3-5.171,2.8,1.194,8.855-6.359-7.528-6.383.171,1.24-7.45Z" transform="translate(47.516 795.66)" fill="#fc9b00"/>
    <path id="Path_22561" data-name="Path 22561" d="M348.559,15.817l7.127,2.923-2.212,1.286L346.347,17.1Z" transform="translate(47.516 799.899)" fill="#fcee21"/>
    <path id="Path_22562" data-name="Path 22562" d="M367.794,41.841l-2.212,1.286-1.194-8.855,2.212-1.286Z" transform="translate(44.922 797.43)" fill="#fcee21"/>
    <path id="Path_22563" data-name="Path 22563" d="M363.792,21.973l7.12,5.3L368.7,28.561l-7.12-5.3L358.416,14l2.212-1.286Z" transform="translate(45.78 800.345)" fill="#fcee21"/>
    <path id="Path_22564" data-name="Path 22564" d="M346.347,16.873l7.127,2.923,3.206-5.577,3.164,9.255,7.121,5.3-5.171,2.8,1.194,8.855L356.628,32.9l-6.383.171,1.24-7.45Z" transform="translate(47.516 800.129)" fill="#fc9b00"/>
    <path id="Path_22565" data-name="Path 22565" d="M489.578,370.751l-4.812-.95-1.173-.24-11.858-2.32a2.624,2.624,0,0,1-1.592-.308L357.323,301.375a3.414,3.414,0,0,1-1.421-3.125c0-.18.009-.36.017-.539a1.159,1.159,0,0,0,.017-.171c.009-.086.017-.163.026-.24a.587.587,0,0,0,.017-.111c.017-.128.043-.257.068-.385a1.337,1.337,0,0,1,.034-.18.366.366,0,0,1,.017-.094c.017-.077.043-.163.06-.24a2.307,2.307,0,0,1,.06-.231c.009-.034.026-.077.034-.12.017-.069.043-.137.06-.205.017-.051.034-.111.051-.171s.051-.146.077-.214a1.257,1.257,0,0,0,.06-.163.3.3,0,0,1,.034-.077c.051-.146.111-.291.171-.437a.027.027,0,0,0,.009-.017c.009-.026.026-.043.034-.069.051-.111.1-.223.154-.342a.944.944,0,0,1,.068-.128c.017-.043.043-.094.068-.146s.051-.094.077-.137c.051-.1.1-.2.163-.3a.268.268,0,0,0,.043-.086c.009-.009.017-.017.017-.026.086-.137.163-.274.257-.411a.372.372,0,0,0,.034-.06,1.32,1.32,0,0,0,.094-.137c.051-.077.1-.154.154-.223.026-.043.06-.086.086-.128.051-.06.094-.12.137-.18a1.212,1.212,0,0,0,.094-.128l.128-.154c.06-.077.12-.154.188-.231a.905.905,0,0,1,.086-.1,1.161,1.161,0,0,1,.1-.1c.1-.12.214-.24.325-.351a1.209,1.209,0,0,1,.1-.111c.034-.034.068-.06.1-.094.051-.051.1-.1.163-.154a3.64,3.64,0,0,1,.274-.24c.06-.043.111-.094.163-.137l.308-.231c.051-.034.1-.077.146-.1a5.46,5.46,0,0,1,.471-.3c.146-.086.3-.163.445-.231.034-.017.077-.034.111-.051s.086-.043.12-.06c.1-.043.205-.077.3-.111a.031.031,0,0,0,.026-.009c.086-.026.171-.051.248-.077.043-.009.077-.009.111-.017a1.63,1.63,0,0,1,.2-.043.758.758,0,0,1,.12-.026c.051-.009.094-.009.137-.017s.1-.009.146-.017.06-.009.086-.009a2.082,2.082,0,0,1,.231.009c.026,0,.051-.009.069,0h.026a1.688,1.688,0,0,1,.291.034c.017,0,.026.009.043.009.034.009.06.009.086.017a.894.894,0,0,1,.146.034c.043.009.086.034.128.043a.306.306,0,0,1,.077.034.122.122,0,0,1,.051.017,1.253,1.253,0,0,1,.24.12c.009,0,.026.009.034.009L476.88,354.98l.1.06a2.4,2.4,0,0,1,.762.651c.017.017.026.043.051.06l8.082,10.291.668.839Z" transform="translate(46.142 760.585)" fill="#ccc"/>
    <path id="Path_22566" data-name="Path 22566" d="M468.757,356.829c.011-.116.026-.233.042-.349s.042-.259.067-.389c.017-.089.033-.177.052-.266s.04-.166.061-.249c.029-.116.059-.231.092-.347.02-.067.041-.134.062-.2q.062-.2.131-.39c.019-.053.038-.106.057-.159.067-.179.138-.357.215-.534l.029-.063c.07-.158.145-.314.222-.47.024-.049.049-.1.074-.146q.114-.222.238-.439c.015-.027.03-.056.046-.083.1-.169.2-.335.306-.5.031-.048.063-.094.1-.141.078-.117.158-.234.241-.348.044-.062.089-.122.134-.183.072-.1.146-.187.219-.28s.126-.156.19-.231.122-.14.185-.21c.106-.118.215-.234.324-.346.068-.069.137-.14.207-.206.054-.052.109-.1.164-.153.091-.083.182-.163.275-.241.056-.046.11-.093.167-.138.1-.08.2-.156.306-.23.049-.035.1-.073.147-.107.153-.1.307-.2.464-.294s.3-.163.447-.232l.116-.053c.141-.063.283-.121.42-.168l.025-.008c.121-.041.239-.072.356-.1.067-.016.134-.03.2-.043.087-.016.173-.03.258-.039.05-.005.1-.011.146-.015a2.956,2.956,0,0,1,.313-.006h.071a2.71,2.71,0,0,1,.36.045l.086.02a2.7,2.7,0,0,1,.268.077l.082.029a2.324,2.324,0,0,1,.319.152L364.22,283.232l-.027-.015a2.387,2.387,0,0,0-.245-.119c-.015-.007-.033-.011-.048-.017s-.055-.02-.082-.029c-.043-.015-.084-.032-.127-.045s-.094-.022-.141-.033c-.029-.007-.057-.015-.086-.02s-.03-.009-.046-.011a2.707,2.707,0,0,0-.294-.034h-.02c-.023,0-.048,0-.071,0-.077,0-.153-.005-.232,0-.027,0-.054.006-.081.008-.049,0-.1.009-.146.015s-.09.006-.136.013-.082.019-.122.027c-.066.012-.132.027-.2.043-.037.009-.071.013-.108.022-.082.022-.165.049-.248.077l-.026.008c-.1.034-.2.071-.3.114-.04.016-.08.037-.121.055l-.116.052c-.147.07-.3.145-.446.232s-.312.19-.464.3c-.05.033-.1.071-.147.106-.1.074-.206.151-.307.231-.056.045-.11.091-.166.137-.093.079-.185.158-.276.241-.055.05-.11.1-.164.153-.033.033-.069.063-.1.1s-.069.074-.1.11c-.11.112-.218.227-.324.346-.033.038-.069.072-.1.11s-.054.066-.081.1c-.065.076-.128.153-.19.231-.041.051-.084.1-.124.152s-.063.086-.1.129c-.046.06-.091.122-.135.183-.031.043-.063.083-.094.127-.05.072-.1.147-.147.22l-.094.141c-.013.021-.027.039-.04.059q-.13.2-.252.412c-.005.009-.009.019-.015.027l-.047.084c-.056.1-.113.2-.166.3-.025.046-.047.094-.071.14s-.05.1-.074.146l-.065.128c-.054.113-.105.228-.157.342l-.028.062-.008.017c-.063.146-.122.291-.179.438-.01.027-.019.053-.029.08-.02.054-.038.107-.057.16-.026.074-.054.146-.079.219-.019.057-.034.114-.051.171s-.042.134-.062.2c-.012.042-.027.083-.038.125-.021.074-.037.149-.055.223s-.043.165-.061.247c-.007.029-.015.058-.021.087-.013.06-.02.12-.031.18-.025.129-.049.259-.067.388-.005.036-.014.072-.019.108-.01.081-.015.161-.024.241-.005.058-.012.116-.016.173-.014.182-.022.361-.022.539a3.41,3.41,0,0,0,1.42,3.122l112.818,65.563a3.409,3.409,0,0,1-1.42-3.123c0-.177.008-.357.021-.538,0-.057.011-.116.017-.173" transform="translate(46.142 761.487)" fill="#b85a00"/>
    <path id="Path_22567" data-name="Path 22567" d="M508.532,375.489l-4.816-.95-1.175-.235-11.855-2.32a2.6,2.6,0,0,1-1.6-.313l-.059-.029a3.445,3.445,0,0,1-1.36-3.093,10.692,10.692,0,0,1,4.846-8.4,3.689,3.689,0,0,1,3.113-.509,2.3,2.3,0,0,1,1.067.793c.02.02.029.039.049.059l8.086,10.288.666.842Z" transform="translate(27.191 750.474)" fill="#ff860d"/>
    <path id="Path_22568" data-name="Path 22568" d="M511.03,377.387l-4.816-.95-1.175-.235a7.649,7.649,0,0,1,2.29-3.525l.666.842Z" transform="translate(24.693 748.576)" fill="#b85a00"/>
    <path id="Path_22569" data-name="Path 22569" d="M171.519,293.532,125.667,267.06,77.5,295.053l45.851,26.472Z" transform="translate(86.182 763.766)" fill="#ccc"/>
    <path id="Path_22570" data-name="Path 22570" d="M131.039,291.8l-.064,22.561,48.171-27.995.064-22.56Z" transform="translate(78.49 764.234)" fill="#db8700"/>
    <path id="Path_22571" data-name="Path 22571" d="M77.485,265.58l-.064,22.561,45.852,26.472.063-22.561Z" transform="translate(86.192 763.978)" fill="#ab6900"/>
    <path id="Path_22572" data-name="Path 22572" d="M171.519,259.356l-45.851-26.472L77.5,260.878l45.851,26.472Z" transform="translate(86.182 768.681)" fill="#fc9b00"/>
    <path id="Path_22573" data-name="Path 22573" d="M171.519,259.356l-45.851-26.472L77.5,260.878l45.851,26.472Z" transform="translate(86.182 768.681)" fill="#fc9b00"/>
    <path id="Path_22574" data-name="Path 22574" d="M155.661,266.409l-3.151,1.833-33.252-19.195,3.159-1.834Z" transform="translate(80.175 766.62)" fill="#fcbe5b"/>
    <path id="Path_22575" data-name="Path 22575" d="M163.783,261.694l-3.159,1.833-33.252-19.195,3.168-1.834Z" transform="translate(79.009 767.298)" fill="#fcbe5b"/>
    <path id="Path_22576" data-name="Path 22576" d="M147.548,271.124l-3.159,1.833-33.243-19.195,3.151-1.834Z" transform="translate(81.342 765.942)" fill="#fcbe5b"/>
    <path id="Path_22577" data-name="Path 22577" d="M139.433,275.839l-3.168,1.842-33.243-19.195,3.159-1.842Z" transform="translate(82.51 765.264)" fill="#fcbe5b"/>
    <path id="Path_22578" data-name="Path 22578" d="M131.311,280.554l-3.159,1.842L94.909,263.2l3.159-1.842Z" transform="translate(83.677 764.585)" fill="#fcbe5b"/>
    <path id="Path_22579" data-name="Path 22579" d="M146.587,282.208a45.31,45.31,0,0,1-15.152,2.63c-8.011-.127-29.222-4.118-31.969-6.573,0,0,11.2,6.509,20.4,8.88,10.763,2.776,23.056-2.1,26.725-4.938" transform="translate(83.022 762.154)" fill="#db8700"/>
    <path id="Path_22580" data-name="Path 22580" d="M146.587,281.369s-13.75,4.459-20.143-8.938c0,0-12.756,11.874-26.977,4.995,0,0,21.924,14.088,47.121,3.943" transform="translate(83.022 762.993)" fill="#fcd23a"/>
    <path id="Path_22581" data-name="Path 22581" d="M305.579,370.342l-77.657-44.836a10.128,10.128,0,0,0-9.195,0l-29.966,17.415c-2.53,1.471-2.517,3.853.034,5.325l77.657,44.836a10.121,10.121,0,0,0,9.19,0l29.966-17.415c2.53-1.47,2.517-3.853-.03-5.323" transform="translate(70.451 755.519)" fill="#ccc"/>
    <path id="Path_22582" data-name="Path 22582" d="M307.476,354.929c-.006.068-.011.136-.023.2s-.027.111-.042.166-.033.13-.056.194-.044.106-.067.159-.059.134-.1.2c-.026.049-.057.1-.087.145-.047.076-.1.152-.152.227-.033.044-.069.087-.1.131a3.833,3.833,0,0,1-.276.3c-.036.036-.069.072-.108.106-.062.056-.131.11-.2.164s-.118.1-.183.145-.154.1-.233.155-.16.108-.247.159L275.637,374.8a6.535,6.535,0,0,1-.613.31c-.061.027-.123.053-.186.08-.166.069-.336.134-.51.193-.062.021-.124.044-.187.064-.11.034-.223.065-.335.1-.085.022-.169.047-.254.068-.119.028-.241.052-.362.077-.08.016-.161.035-.242.049-.243.044-.491.077-.739.1-.077.008-.154.013-.231.019-.146.013-.293.023-.44.029-.093,0-.187.006-.28.009-.119,0-.238,0-.356,0-.1,0-.2,0-.3-.009s-.219-.01-.33-.018-.2-.015-.3-.025-.217-.022-.324-.036-.194-.026-.29-.041c-.116-.018-.23-.039-.345-.06-.09-.017-.18-.035-.269-.055-.136-.03-.271-.063-.4-.1-.074-.02-.15-.039-.223-.06-.238-.07-.472-.148-.7-.236-.032-.012-.061-.026-.092-.039a7.088,7.088,0,0,1-.881-.423L188.789,329.96a3.257,3.257,0,0,1-1.922-2.683L186.836,338a3.258,3.258,0,0,0,1.923,2.683l77.657,44.836a7.042,7.042,0,0,0,.882.423c.02.008.037.019.057.027s.024.008.035.012c.226.088.459.166.7.235l.056.02c.054.015.111.026.166.04.134.036.267.069.4.1.037.008.072.019.109.026.053.01.108.018.161.027.114.022.229.042.344.06.046.008.092.018.139.024s.1.011.152.017c.107.014.215.026.324.037.052,0,.1.013.155.017s.1,0,.146.008c.11.008.219.013.33.018.055,0,.11.007.165.009s.088,0,.132,0c.119,0,.238,0,.356,0,.059,0,.118,0,.177,0,.034,0,.068-.005.1-.007.147-.006.293-.017.439-.029.059-.005.118-.006.177-.012l.054-.008q.374-.039.739-.1l.036-.005c.069-.012.137-.03.207-.044.121-.025.242-.049.361-.078.086-.021.17-.045.255-.068.112-.031.224-.061.335-.1.023-.008.048-.013.071-.021.04-.013.076-.031.116-.044q.262-.09.511-.194c.063-.026.124-.052.186-.08.211-.1.418-.2.613-.31L305.573,368.1l.08-.047c.06-.036.111-.075.168-.112.079-.051.16-.1.233-.156s.123-.1.183-.145.137-.108.2-.164l.041-.033c.025-.024.043-.049.068-.073a3.677,3.677,0,0,0,.275-.3c.018-.021.043-.043.061-.064s.027-.045.044-.067a2.685,2.685,0,0,0,.153-.227c.02-.032.046-.062.064-.1.009-.016.015-.033.023-.049.036-.067.065-.134.094-.2.017-.039.041-.079.056-.118.005-.014.007-.027.012-.04.022-.065.039-.129.056-.194.011-.044.028-.087.038-.131,0-.012,0-.023,0-.035.013-.069.017-.136.024-.2,0-.045.014-.089.015-.134,0-.019,0-.038,0-.056l.031-10.72c0,.064-.01.128-.016.191" transform="translate(70.457 755.105)" fill="#855800"/>
    <path id="Path_22583" data-name="Path 22583" d="M305.579,348.5l-77.657-44.836a10.128,10.128,0,0,0-9.195,0l-29.966,17.415c-2.53,1.471-2.517,3.853.034,5.325l77.657,44.836a10.122,10.122,0,0,0,9.19,0l29.966-17.415c2.53-1.47,2.517-3.853-.03-5.323" transform="translate(70.451 758.659)" fill="#c48200"/>
    <path id="Path_22584" data-name="Path 22584" d="M272.07,368.7a5.117,5.117,0,0,1-2.409-.515l-75.718-43.716,28-16.273a5.037,5.037,0,0,1,2.384-.509,5.131,5.131,0,0,1,2.415.517l75.714,43.713-28,16.273a5.03,5.03,0,0,1-2.386.51" transform="translate(69.435 757.923)" fill="#ffb729"/>
    <path id="Path_22585" data-name="Path 22585" d="M274.186,330.832c0,.119-.009.237-.015.355-.006.1-.012.2-.022.306s-.021.177-.033.266-.029.2-.047.3-.036.177-.056.266-.046.2-.073.3-.05.177-.077.265-.062.2-.1.294-.064.174-.1.26c-.04.1-.084.2-.129.307-.038.086-.077.171-.119.256q-.074.153-.157.3c-.044.082-.089.164-.136.245-.07.12-.145.24-.222.359-.047.072-.092.145-.14.216-.09.131-.187.261-.285.39-.044.057-.083.115-.128.171-.164.206-.339.41-.524.611-.048.052-.1.1-.148.154q-.22.23-.458.456c-.073.068-.146.137-.221.2q-.143.128-.292.254c-.091.078-.183.156-.278.232s-.21.167-.318.249-.2.15-.3.224-.227.161-.343.241-.212.146-.322.218-.243.155-.367.232c-.154.1-.307.193-.468.287-.437.254-.9.49-1.363.716-.123.06-.247.117-.372.176-.421.194-.851.379-1.292.551-.058.023-.116.049-.175.071-.473.181-.959.343-1.451.5-.342.108-.691.2-1.04.3-.265.073-.527.15-.8.214-.366.089-.741.163-1.115.239-.272.055-.542.117-.818.166-.112.02-.226.035-.339.054q-.695.114-1.4.2c-.137.017-.273.034-.411.05-.27.029-.542.045-.813.068-.454.038-.908.071-1.366.092-.291.012-.583.019-.876.024-.368.007-.737.01-1.106.005-.309,0-.618-.014-.927-.026-.342-.014-.682-.031-1.023-.055q-.469-.032-.934-.078-.506-.049-1.008-.113-.455-.056-.9-.128-.538-.083-1.069-.186c-.282-.054-.562-.109-.839-.17-.424-.093-.84-.2-1.254-.307-.268-.071-.539-.138-.8-.216-.143-.043-.284-.088-.426-.133q-.623-.2-1.228-.419c-.116-.043-.235-.083-.351-.128-.366-.141-.719-.3-1.072-.455-.174-.077-.354-.146-.523-.227-.509-.242-1.005-.5-1.482-.774-3.238-1.869-5.159-4.213-5.761-6.644a6.988,6.988,0,0,1-.206-1.692h0l-.054,10.877c-.009,3.015,1.982,6.034,5.968,8.336.476.275.972.532,1.481.773.17.081.35.151.524.228.3.134.6.273.908.4.053.021.11.039.163.06.116.045.235.086.353.128q.6.223,1.226.42c.142.044.283.09.427.133.1.028.188.061.284.088.169.048.347.081.517.127.415.11.832.215,1.257.308.112.024.22.058.333.081.165.034.336.056.5.087.356.068.712.131,1.073.187.144.022.283.054.428.074s.317.033.474.053c.336.043.671.08,1.009.113.161.015.319.04.48.053s.3.014.453.025c.342.023.682.041,1.026.055.17.007.341.023.512.027.137,0,.274,0,.412,0,.37.005.739,0,1.109-.005.182,0,.366,0,.549,0,.109,0,.217-.016.326-.021.457-.02.911-.053,1.366-.091.182-.015.367-.019.55-.037.088-.009.175-.022.263-.032.139-.015.275-.033.413-.049q.7-.085,1.4-.2c.114-.019.229-.035.342-.055l.163-.026c.22-.04.432-.1.651-.14.375-.076.75-.15,1.118-.239.268-.065.529-.142.794-.214.35-.095.7-.189,1.043-.3.073-.023.149-.04.222-.063q.624-.2,1.229-.434c.059-.023.116-.049.175-.072.441-.172.871-.357,1.292-.551q.186-.086.372-.175c.467-.227.926-.461,1.364-.717.083-.048.165-.1.247-.146s.146-.093.219-.14c.125-.077.25-.155.371-.234s.215-.145.32-.217.231-.159.342-.241.2-.15.3-.225.213-.165.317-.248.187-.154.277-.231.2-.17.293-.256c.039-.035.081-.068.12-.1s.065-.067.1-.1q.239-.226.459-.457c.049-.051.1-.1.147-.153q.279-.3.524-.611l.023-.027c.038-.048.069-.1.106-.146.1-.129.194-.259.284-.39.049-.072.094-.144.14-.216.077-.119.152-.239.223-.36.019-.033.042-.065.06-.1.027-.049.05-.1.076-.146.054-.1.106-.2.156-.3.042-.086.081-.17.12-.257s.088-.2.128-.306c.019-.045.041-.091.058-.137s.027-.083.041-.124c.034-.1.066-.194.1-.292s.054-.178.078-.267.05-.2.072-.3c.012-.053.028-.106.039-.159.008-.035.01-.071.017-.107.019-.1.033-.2.048-.3s.025-.176.033-.265.016-.2.021-.306c0-.059.011-.119.013-.178s0-.118,0-.177Z" transform="translate(63.715 754.61)" fill="#855800"/>
    <path id="Path_22586" data-name="Path 22586" d="M268.232,320.544c-7.92-4.573-20.714-4.573-28.584,0s-7.826,11.984.093,16.557,20.71,4.569,28.578,0,7.827-11.984-.088-16.553" transform="translate(63.706 756.567)" fill="#c48200"/>
    <path id="Path_22587" data-name="Path 22587" d="M266.248,322.416c-6.472-3.736-16.928-3.736-23.358,0s-6.4,9.793.076,13.53,16.924,3.734,23.354,0,6.4-9.793-.072-13.528" transform="translate(63.086 756.207)" fill="#ffb729"/>
    <path id="Path_22588" data-name="Path 22588" d="M267,303.576c0,.048,0,.1,0,.149a.212.212,0,0,0,0,.052.747.747,0,0,1,0,.1c0,.057-.014.11-.022.166,0,.022,0,.044,0,.062s-.009.061-.013.1c-.009.052-.022.11-.035.162,0,.027-.009.048-.013.07a.836.836,0,0,1-.018.087c-.013.052-.031.109-.048.162a.4.4,0,0,1-.022.074.509.509,0,0,1-.021.079,1.716,1.716,0,0,1-.062.162c-.009.027-.017.053-.026.074s-.018.052-.031.079a1.639,1.639,0,0,1-.074.162c-.013.031-.026.057-.039.083s-.017.044-.03.07c-.027.052-.062.1-.088.161-.017.027-.03.057-.048.083s-.021.039-.035.062c-.034.056-.069.11-.1.162-.022.035-.044.069-.07.1-.009.014-.013.027-.021.039-.039.053-.079.105-.122.162,0,.009-.014.018-.018.027-.026.031-.048.065-.074.1-.005,0-.005.009-.009.013-.044.053-.092.105-.135.158s-.074.092-.118.14-.1.1-.148.152-.083.092-.127.131c-.053.057-.114.11-.17.162-.022.022-.045.039-.066.062l-.066.061c-.061.053-.127.105-.192.158-.022.022-.044.039-.07.062a.763.763,0,0,0-.066.057c-.069.052-.14.1-.214.158-.021.017-.048.039-.074.057s-.045.035-.07.052c-.087.062-.179.122-.276.184-.013.009-.021.017-.035.026s-.048.031-.069.049c-.131.083-.267.166-.411.249-.17.1-.35.2-.533.288-.048.027-.105.053-.158.079-.14.07-.284.14-.428.205l-.145.066c-.192.079-.384.158-.581.236-.03.009-.065.021-.1.034-.166.062-.336.122-.507.18l-.21.065c-.092.031-.188.057-.28.087l-.241.066c-.1.031-.193.052-.289.079s-.162.044-.245.061-.2.049-.293.07l-.249.052c-.1.022-.2.039-.3.062-.079.013-.153.026-.232.044-.218.035-.437.074-.655.1-.031.005-.062.005-.1.009-.188.026-.38.048-.577.069-.074.009-.148.014-.218.022-.127.013-.249.021-.376.031-.074,0-.153.013-.232.017-.131.009-.262.013-.389.017-.074.005-.149.009-.223.009-.114,0-.223.009-.336.009-.079,0-.158,0-.241,0-.118,0-.236,0-.359,0-.07,0-.144,0-.214,0l-.328-.014c-.079,0-.158,0-.236-.009L254,310.2l-.205-.014-.42-.039-.136-.013c-.187-.022-.372-.044-.555-.07l-.087-.013c-.162-.027-.319-.048-.472-.074l-.2-.039-.359-.065c-.061-.014-.122-.031-.183-.044-.131-.027-.263-.057-.394-.087l-.214-.053c-.118-.03-.236-.061-.349-.1l-.2-.052-.551-.17c-.031-.014-.066-.022-.1-.035-.205-.07-.411-.145-.611-.223-.083-.03-.162-.065-.245-.1l-.193-.079c-.092-.039-.179-.083-.271-.122l-.175-.079c-.1-.048-.192-.1-.284-.144-.048-.027-.1-.048-.148-.074-.14-.074-.28-.149-.415-.227s-.28-.166-.415-.254c-.044-.026-.087-.056-.131-.087-.087-.056-.176-.113-.253-.17-.053-.035-.1-.075-.145-.109-.074-.053-.148-.105-.218-.162-.048-.035-.1-.079-.14-.118-.065-.052-.131-.105-.192-.158s-.092-.083-.14-.127-.113-.105-.166-.158-.087-.087-.131-.131-.1-.1-.152-.158-.074-.092-.114-.135-.1-.11-.14-.162a1.66,1.66,0,0,1-.1-.14c-.044-.053-.087-.105-.127-.162s-.061-.1-.092-.14-.074-.109-.105-.166-.056-.1-.083-.144-.065-.11-.092-.166-.048-.1-.07-.149-.052-.109-.078-.166a1.607,1.607,0,0,1-.057-.152c-.021-.053-.044-.11-.061-.162s-.031-.105-.048-.158-.035-.11-.049-.166a1.562,1.562,0,0,1-.03-.153c-.014-.057-.027-.109-.035-.166s-.014-.1-.022-.157-.013-.11-.017-.166-.009-.105-.009-.158-.009-.11-.009-.166v-.018c.009-1.709,1.128-3.409,3.371-4.712,4.51-2.622,11.85-2.622,16.387,0,2.286,1.315,3.422,3.051,3.422,4.782" transform="translate(62.261 759.484)" fill="#c1272d"/>
    <path id="Path_22589" data-name="Path 22589" d="M267,304.7l-.009,8.047-.014,14.678v.03c0,.057,0,.114-.009.17s-.009.118-.013.18-.013.1-.018.148-.017.118-.03.176a.2.2,0,0,1-.009.048c-.005.035-.014.069-.022.1-.013.057-.027.114-.039.17s-.031.1-.048.153-.035.11-.052.166c-.009.022-.018.044-.027.062s-.021.061-.031.087c-.026.061-.048.117-.074.179s-.044.1-.069.144-.057.118-.087.175a.55.55,0,0,0-.044.079c-.014.021-.022.039-.035.061-.039.07-.083.135-.127.206a1.4,1.4,0,0,1-.083.122c-.053.079-.105.153-.162.227-.022.027-.039.053-.062.079,0,0-.009.014-.013.018a4.507,4.507,0,0,1-.3.349c-.027.031-.057.062-.083.087a3.625,3.625,0,0,1-.263.263c-.021.017-.039.039-.057.057a.476.476,0,0,0-.07.061c-.057.049-.109.1-.166.149s-.109.087-.161.131-.118.1-.184.145-.114.083-.17.127-.131.092-.2.14-.122.083-.183.122-.14.092-.21.135c-.044.027-.083.053-.127.074s-.1.062-.145.087c-.17.1-.349.2-.533.289-.052.031-.1.052-.157.079-.14.07-.284.14-.429.205l-.148.066c-.188.083-.38.161-.577.235-.035.014-.07.022-.105.035-.166.062-.332.122-.5.179-.026.009-.057.018-.083.027l-.127.039c-.092.031-.187.061-.28.087l-.24.07c-.1.026-.193.052-.289.074s-.162.044-.245.061-.2.048-.293.07l-.249.052c-.1.022-.2.039-.3.061-.057.009-.113.022-.17.031-.021,0-.044.009-.061.014-.218.039-.437.074-.656.1-.031,0-.061,0-.092.009-.193.027-.39.053-.581.07a.675.675,0,0,1-.092.009l-.128.013c-.127.014-.248.022-.376.031-.078.009-.157.014-.231.018-.131.009-.262.013-.394.017-.052,0-.1.009-.157.009a.321.321,0,0,0-.062,0c-.114,0-.227,0-.341,0-.079,0-.158.005-.236.005-.118,0-.241-.005-.358-.005-.062,0-.127,0-.188,0H254.9c-.109,0-.218-.009-.328-.013-.078,0-.157,0-.231-.009-.118,0-.236-.013-.354-.022l-.2-.013a.019.019,0,0,0-.014,0c-.14-.009-.275-.027-.415-.039l-.144-.013c-.184-.022-.367-.044-.551-.07h-.005l-.074-.013c-.162-.022-.324-.049-.481-.074l-.2-.039-.358-.066a.135.135,0,0,0-.039-.009c-.048-.013-.1-.021-.145-.031l-.393-.092-.214-.052-.35-.092a.877.877,0,0,0-.11-.031l-.092-.027c-.183-.057-.362-.109-.546-.17-.031-.013-.065-.021-.1-.031-.21-.069-.411-.148-.612-.227a.291.291,0,0,1-.061-.022c-.062-.026-.122-.048-.184-.074s-.127-.053-.192-.079c-.092-.039-.184-.083-.271-.122-.057-.027-.118-.052-.175-.079l-.289-.145c-.048-.026-.1-.048-.145-.069-.14-.074-.279-.153-.415-.232-2.286-1.32-3.426-3.051-3.422-4.777l.013-14.612.009-8.1c0,.057.005.113.009.166s0,.1.009.158.013.113.017.166.014.1.022.157.021.11.035.166a1.558,1.558,0,0,0,.03.153c.014.057.031.114.049.166s.03.105.048.158.039.109.061.162a1.612,1.612,0,0,0,.057.152c.026.057.052.11.078.166s.044.1.07.149.062.11.092.166.053.1.083.144.07.11.105.166.061.092.092.14.083.109.127.162a1.653,1.653,0,0,0,.1.14c.044.052.092.11.14.162s.074.092.114.135.1.105.152.158.083.087.131.131.11.105.166.158.092.087.14.127.127.105.192.158c.045.039.092.083.14.118.07.057.144.109.218.162.048.034.092.074.145.109.078.057.166.114.253.17.044.031.087.062.131.087.135.088.271.171.415.254s.276.152.415.227c.048.027.1.048.148.074.092.048.188.1.284.144l.176.079c.092.039.179.083.271.122l.193.079c.083.031.162.066.245.1.2.079.406.153.611.223.031.013.066.021.1.035l.551.17.2.052c.113.035.231.066.349.1l.214.053c.131.03.263.061.394.087.061.013.122.03.183.044l.359.065.2.039c.152.027.31.048.472.074l.087.013c.183.027.367.048.555.07l.136.013.42.039.205.014.358.026c.079,0,.158,0,.236.009l.328.014c.07,0,.144,0,.214,0,.122,0,.241,0,.359,0,.083,0,.162,0,.241,0,.113,0,.223,0,.336-.009.074,0,.148,0,.223-.009.127,0,.258-.009.389-.017.079,0,.158-.013.232-.017.127-.009.249-.018.376-.031.07-.009.145-.013.218-.022.2-.021.39-.044.577-.069.035,0,.066,0,.1-.009.218-.03.437-.069.655-.1.079-.018.153-.031.232-.044.1-.022.2-.039.3-.062l.249-.052c.1-.021.2-.044.293-.07s.162-.039.245-.061.193-.048.289-.079l.241-.066c.092-.03.188-.057.28-.087l.21-.065c.17-.057.341-.118.507-.18.035-.013.07-.026.1-.034.2-.079.39-.158.581-.236l.145-.066c.144-.065.289-.135.428-.205.052-.026.11-.052.158-.079.183-.092.363-.187.533-.288.144-.083.28-.166.411-.249.021-.018.048-.031.069-.049s.022-.017.035-.026c.1-.062.188-.122.276-.184.026-.017.048-.034.07-.052s.052-.039.074-.056c.074-.053.145-.105.214-.158a.769.769,0,0,1,.066-.057c.027-.022.048-.039.07-.062.065-.052.131-.1.192-.158l.066-.061c.021-.022.044-.039.066-.062.056-.052.117-.1.17-.162.044-.039.087-.087.127-.131s.1-.1.148-.152.079-.092.118-.14.092-.1.135-.158c0,0,0-.009.009-.013.026-.031.048-.065.074-.1,0-.009.014-.018.018-.027.044-.056.083-.109.122-.162.009-.013.013-.026.021-.039.027-.035.048-.069.07-.1.035-.052.07-.105.1-.162.014-.022.022-.039.035-.062s.031-.056.048-.083c.027-.057.062-.109.088-.161.013-.027.021-.049.03-.07s.027-.052.039-.083a1.632,1.632,0,0,0,.074-.162c.013-.027.018-.052.031-.079s.017-.048.026-.074a1.713,1.713,0,0,0,.062-.162.509.509,0,0,0,.021-.079.4.4,0,0,0,.022-.074c.017-.053.035-.11.048-.162a.835.835,0,0,0,.018-.087c0-.022.009-.044.013-.07.013-.052.026-.11.035-.162,0-.035.009-.065.013-.1s0-.039,0-.062c.009-.057.018-.109.022-.166a.747.747,0,0,0,0-.1.212.212,0,0,1,0-.052c0-.053,0-.1,0-.149" transform="translate(62.265 758.36)" fill="#855800"/>
    <g id="Group_5738" data-name="Group 5738" transform="translate(306.069 1056.312)" style="mix-blend-mode: multiply;isolation: isolate">
      <g id="Group_5737" data-name="Group 5737">
        <g id="Group_5736" data-name="Group 5736" clip-path="url(#clip-path-2)">
          <path id="Path_22590" data-name="Path 22590" d="M266.995,303.576l-.009,8.047c-.035.035-.074.065-.11.1-.065.053-.127.11-.192.162s-.145.114-.219.17l-.205.153c-.079.057-.158.11-.235.166s-.145.1-.223.149-.166.109-.253.161c-.048.031-.1.066-.148.1s-.114.065-.171.1c-.3.175-.616.336-.935.49-.087.044-.17.083-.258.122-.289.131-.586.258-.888.38-.039.013-.079.031-.122.048-.275.105-.555.205-.843.3-.048.018-.1.027-.153.044-.231.074-.472.14-.717.205-.179.049-.359.1-.542.145-.253.061-.511.114-.77.166-.148.031-.3.07-.445.1a.771.771,0,0,0-.114.018l-.236.039c-.318.048-.638.1-.961.135-.092.009-.188.021-.28.031-.061.009-.122.017-.183.021-.127.013-.253.018-.376.027-.315.026-.625.048-.94.061-.074,0-.148.014-.223.018-.127,0-.253,0-.38,0-.253,0-.507.009-.761,0-.1,0-.187,0-.283,0-.118,0-.232-.014-.35-.018-.236-.009-.472-.021-.7-.039-.1,0-.21,0-.314-.013l-.328-.039c-.232-.021-.463-.048-.7-.079-.11-.013-.218-.017-.328-.035s-.193-.034-.293-.052c-.249-.035-.494-.079-.739-.127-.114-.022-.231-.035-.345-.061-.074-.014-.149-.039-.228-.057-.293-.061-.577-.135-.866-.21-.113-.031-.235-.052-.354-.087-.066-.017-.131-.039-.2-.061-.1-.031-.192-.062-.293-.092-.284-.087-.563-.183-.843-.289-.079-.026-.162-.056-.241-.087l-.114-.039c-.21-.083-.415-.179-.621-.271-.122-.057-.245-.105-.362-.158-.35-.166-.691-.345-1.019-.533a11.451,11.451,0,0,1-1.779-1.254l.009-8.1v-.018c.009-1.709,1.128-3.409,3.371-4.712,4.51-2.622,11.85-2.622,16.387,0,2.286,1.315,3.422,3.051,3.422,4.782" transform="translate(-243.806 -296.827)" fill="#ccc"/>
        </g>
      </g>
    </g>
    <path id="Path_22591" data-name="Path 22591" d="M271.288,292.608c0,.1-.008.2-.013.295s-.009.169-.018.253-.018.147-.028.22-.024.167-.039.251-.029.147-.045.22-.038.164-.06.246-.042.146-.064.22-.052.162-.08.243-.053.144-.081.215-.069.17-.107.254-.064.141-.1.211-.084.168-.129.251c-.037.068-.074.135-.113.2-.057.1-.12.2-.183.3-.039.059-.076.119-.116.179-.074.108-.155.216-.236.323-.036.047-.068.1-.106.142q-.2.256-.434.506c-.039.043-.081.085-.122.128q-.181.19-.379.378c-.06.057-.12.113-.182.17q-.118.107-.241.211c-.076.064-.152.128-.23.192s-.175.138-.264.206-.164.124-.247.186-.187.133-.283.2-.176.121-.267.18-.2.129-.3.193c-.128.08-.254.159-.388.237-.362.211-.742.406-1.128.592-.1.05-.205.1-.308.146-.348.161-.7.314-1.069.456-.049.019-.1.04-.145.059-.391.149-.795.284-1.2.412-.283.089-.573.168-.862.247-.219.059-.436.123-.658.177-.3.074-.613.134-.923.2-.225.046-.449.1-.676.138-.093.016-.187.029-.281.045q-.575.094-1.16.164c-.113.014-.226.028-.34.04-.223.024-.449.038-.673.057-.376.031-.753.059-1.131.075-.241.01-.483.015-.725.02-.3.006-.61.009-.916,0-.256,0-.511-.011-.767-.021q-.424-.017-.847-.045c-.259-.018-.516-.04-.774-.065q-.419-.04-.834-.093-.376-.048-.749-.105c-.3-.046-.592-.1-.886-.154-.232-.045-.464-.09-.694-.14-.35-.077-.7-.164-1.038-.254-.223-.059-.447-.114-.665-.179-.118-.035-.235-.073-.353-.11-.344-.108-.683-.224-1.016-.347-.1-.036-.2-.069-.291-.107-.3-.116-.6-.247-.888-.377-.144-.063-.292-.122-.433-.188-.421-.2-.832-.413-1.226-.64-2.682-1.548-4.271-3.488-4.77-5.5a5.739,5.739,0,0,1-.171-1.4h0l-.045,9.005c-.007,2.5,1.64,5,4.94,6.9.395.228.8.44,1.227.64.141.067.289.125.433.189.25.11.495.225.753.327l.134.05c.1.037.2.07.292.106q.5.185,1.015.347c.117.038.235.074.354.11.079.024.156.051.235.074.14.04.287.068.428.105.343.091.688.177,1.04.254.093.021.182.049.276.068.137.028.278.046.416.073.295.056.59.108.889.154.118.019.235.045.354.062s.262.027.393.045q.416.053.836.093c.133.013.265.033.4.045s.251.011.376.02c.283.02.565.034.848.045.141.006.283.019.424.022.114,0,.228,0,.341,0,.307,0,.612,0,.918,0,.152,0,.3,0,.455,0,.091,0,.18-.014.271-.018.378-.016.754-.044,1.13-.075.152-.013.3-.015.456-.03.073-.008.145-.018.217-.027.115-.012.228-.027.342-.04q.583-.071,1.157-.164c.094-.016.189-.029.283-.045l.135-.021c.182-.033.358-.079.539-.116.31-.063.621-.124.926-.2.223-.054.438-.117.658-.177.289-.079.58-.157.863-.247.06-.019.123-.033.183-.052.345-.111.684-.232,1.017-.36.05-.018.1-.039.145-.059.366-.142.721-.3,1.069-.456l.308-.145c.387-.187.766-.382,1.129-.593.068-.039.137-.08.2-.121s.121-.077.182-.115c.1-.064.207-.128.306-.194s.178-.119.266-.18.191-.132.283-.2.167-.124.249-.187.176-.136.262-.2.154-.128.229-.192.164-.14.243-.211c.032-.029.067-.057.1-.086s.054-.056.083-.083c.133-.124.259-.251.38-.378.04-.042.083-.084.122-.126q.231-.25.434-.507l.02-.022c.031-.039.057-.08.087-.12.081-.107.162-.215.235-.323.041-.059.078-.119.116-.178.063-.1.126-.2.184-.3.015-.027.034-.054.05-.081s.041-.08.063-.122c.044-.083.088-.166.129-.25s.067-.142.1-.212.074-.169.107-.253c.015-.038.033-.075.048-.114s.021-.069.033-.1c.029-.08.056-.161.081-.241s.044-.147.065-.222.041-.163.059-.244c.01-.044.023-.088.033-.132s.008-.059.014-.088c.015-.084.027-.168.039-.253s.021-.146.027-.218.014-.169.018-.253c0-.049.009-.1.011-.147s0-.1,0-.147Z" transform="translate(63.13 760.105)" fill="#855800"/>
    <path id="Path_22592" data-name="Path 22592" d="M266.359,284.09c-6.557-3.786-17.15-3.786-23.664,0s-6.48,9.921.077,13.707,17.146,3.783,23.66,0,6.48-9.921-.073-13.7" transform="translate(63.122 761.725)" fill="#c48200"/>
    <path id="Path_22593" data-name="Path 22593" d="M264.716,285.64c-5.358-3.093-14.015-3.093-19.339,0s-5.295,8.108.063,11.2,14.011,3.092,19.335,0,5.295-8.108-.06-11.2" transform="translate(62.609 761.427)" fill="#ffb729"/>
    <path id="Path_22594" data-name="Path 22594" d="M400.55,421.219c-12.822-7.4-33.535-7.4-46.273,0s-12.672,19.4.151,26.8,33.527,7.4,46.266-.005,12.671-19.4-.143-26.8" transform="translate(47.743 742.393)" fill="#ccc"/>
    <path id="Path_22595" data-name="Path 22595" d="M392.36,436.578s7.714-3.972,11.962-2.765,3,4.737,2.207,6.184-11.223,8.341-16.836,8.681c-6.813.413-3.557-9.833-3.557-9.833Z" transform="translate(41.905 739.816)" fill="#011326"/>
    <path id="Path_22596" data-name="Path 22596" d="M365.863,427.757s7.713-3.972,11.961-2.765,3,4.737,2.207,6.184-11.223,8.341-16.836,8.681c-6.813.413-3.557-9.833-3.557-9.833Z" transform="translate(45.716 741.085)" fill="#011326"/>
    <path id="Path_22597" data-name="Path 22597" d="M382.666,328.988s-.411,3.322-1.079,8.673c-2.7,21.627-9.615,76.508-10.574,79.565-.043.12-.086.24-.137.351-.788,1.7-3.048,2.449-5.471,2.449a.731.731,0,0,1-.137,0,9.458,9.458,0,0,1-5.659-2.012c-.625-.548-.5-5.06-.428-11.9.342-25.66,3.579-83.572,3.579-83.572Z" transform="translate(45.679 755.786)" fill="#03284f"/>
    <g id="Group_5741" data-name="Group 5741" transform="translate(404.8 1092.608)" style="mix-blend-mode: multiply;isolation: isolate">
      <g id="Group_5740" data-name="Group 5740">
        <g id="Group_5739" data-name="Group 5739" clip-path="url(#clip-path-3)">
          <path id="Path_22598" data-name="Path 22598" d="M381.587,340.06c-2.7,21.627-9.615,76.508-10.574,79.565-.043.12-.086.24-.137.351-.8,1.8-3.082,2.534-5.471,2.449a.731.731,0,0,1-.137,0,9.458,9.458,0,0,1-5.659-2.012c-.625-.548-.5-5.06-.428-11.9,4.974,1.087,8.1-3.3,9.589-7.62,1.832-5.343,8.836-61.671,8.836-61.671Z" transform="translate(-359.121 -339.221)" fill="#ccc"/>
        </g>
      </g>
    </g>
    <path id="Path_22599" data-name="Path 22599" d="M392.753,238.745s1.092,7.267-1.31,8.258-6.551-.866-8.3-2.94,0-11.791,0-11.791Z" transform="translate(42.336 768.769)" fill="#ff8b66"/>
    <path id="Path_22600" data-name="Path 22600" d="M398.769,218.363a10.041,10.041,0,0,0,1.163-8.064,6.231,6.231,0,0,0-5.234-4.9,9.9,9.9,0,0,1-8.171,5.284c-6.187.644-11.909,4.769-10.014,13.92s13.825,9.639,13.825,9.639l3.535-4.355Z" transform="translate(43.23 772.633)" fill="#03284f"/>
    <path id="Path_22601" data-name="Path 22601" d="M447.478,258.1a11.292,11.292,0,0,0,2.239-3.461c.408-1.492.271-5.36,2.646-5.156s4.274,3.6,3.867,6.581-6.039,6.106-6.039,6.106Z" transform="translate(32.972 766.294)" fill="#ff9e7f"/>
    <path id="Path_22602" data-name="Path 22602" d="M402.683,326.8s-4.295,95.369-6.653,98.028-10.248,1.529-11.62-.444c-.614-.878-1.217-8.825-2.035-19.53-2.141-28.51-3.606-78.053-3.606-78.053Z" transform="translate(42.853 755.174)" fill="#03284f"/>
    <g id="Group_5744" data-name="Group 5744" transform="translate(425.228 1081.973)" style="mix-blend-mode: multiply;isolation: isolate">
      <g id="Group_5743" data-name="Group 5743">
        <g id="Group_5742" data-name="Group 5742" clip-path="url(#clip-path-4)">
          <path id="Path_22603" data-name="Path 22603" d="M403.289,326.8s-4.295,95.369-6.653,98.028-10.248,1.529-11.62-.444c-.614-.878-1.217-8.825-2.035-19.53,3.272-2.467,6.883-.3,10.612-10.985,4.884-13.978,6.015-65.517,6.015-65.517s.457-.613,1.191-1.551Z" transform="translate(-382.981 -326.799)" fill="#ccc"/>
        </g>
      </g>
    </g>
    <path id="Path_22604" data-name="Path 22604" d="M363.728,247.573c-.019.07-7.318,16.077-8.569,20.635s12.6,22.881,12.6,22.881,5.81-10.368,5.72-10.814-3.932-13.586-4.647-14.212-5.106-18.489-5.106-18.489" transform="translate(46.26 766.568)" fill="#03284f"/>
    <path id="Path_22605" data-name="Path 22605" d="M374.168,239.841c-1.8.119-8.447.4-9.534,8.015s1.3,42.628,1.087,47.412-2.392,16.529-2.392,16.529,15.441,15.66,38.713,5c0,0-1.741-14.571-1.523-20.444s1.958-36.972,1.523-40.888-21.7-16.033-27.874-15.626" transform="translate(45.073 767.681)" fill="#053b75"/>
    <path id="Path_22606" data-name="Path 22606" d="M403.664,254.891c-1.579.2-4.81.74-5.795,4.679s11.69,29.153,18.079,30.568c5.407,1.2,28.947-27.552,28.947-27.552s-2.092-4.186-4.925-4.309l-21.387,19s-10.107-23.013-14.92-22.389" transform="translate(40.114 765.517)" fill="#03284f"/>
    <path id="Path_22607" data-name="Path 22607" d="M397.548,236.986a4.1,4.1,0,0,1-3.518.848,2.408,2.408,0,0,1-1.484-.888,9.718,9.718,0,0,1-1.708-5.4c-1.9-.578-3.309-5.712-1.234-6.119s3.111,3.545,3.111,3.545l.775-.329c-.5-1.733.407-1.982,1.563-2.639s.092-3.4,1.326-4.464A22.967,22.967,0,0,1,400,219.352c.092,1.247.906,14.666-2.456,17.634" transform="translate(41.443 770.627)" fill="#ff9e7f"/>
    <path id="Path_22608" data-name="Path 22608" d="M659.751,361.191c4.081-8.968.02-18.936-12.163-25.97-18.184-10.5-47.569-10.493-65.636.005s-17.969,27.515.214,38.014c12.184,7.034,29.4,9.355,44.87,6.962l-12.163-25.97Z" transform="translate(15.571 755.095)" fill="#ccc"/>
    <path id="Path_22609" data-name="Path 22609" d="M631.64,363.929,643.8,389.9a59.733,59.733,0,0,0,20.766-6.958c5.963-3.465,9.947-7.637,11.949-12.053Z" transform="translate(6.486 749.834)" fill="#ccc"/>
    <path id="Path_22610" data-name="Path 22610" d="M669.058,339.756c-.015.395-.04.789-.085,1.182,0,.015,0,.031-.006.045-.044.382-.108.762-.18,1.142-.018.092-.035.184-.054.276-.08.384-.171.767-.28,1.149-.015.05-.032.1-.046.148-.1.345-.217.689-.342,1.033-.033.092-.065.183-.1.275-.132.342-.271.683-.425,1.023l-44.878-6.957-.03,10.467,44.878,6.958c.155-.34.294-.682.425-1.024.015-.039.034-.078.049-.117s.032-.1.052-.157c.125-.344.241-.689.342-1.035.015-.049.032-.1.045-.146.109-.382.2-.766.28-1.151.009-.041.022-.082.03-.123s.015-.1.024-.15c.073-.38.135-.762.18-1.143l.006-.045c.045-.394.07-.788.085-1.182,0-.048.009-.1.01-.143,0-.137.006-.274.007-.411l.03-10.468c0,.185-.01.369-.017.553" transform="translate(7.781 753.409)" fill="#a1102f"/>
    <path id="Path_22611" data-name="Path 22611" d="M623.709,365.451c-.614.068-1.229.124-1.847.177-.357.031-.713.063-1.071.088-.621.045-1.243.079-1.866.109-.31.015-.62.035-.931.046-.9.033-1.8.054-2.708.057-.161,0-.323,0-.484-.005q-1.13,0-2.258-.037c-.28-.009-.56-.021-.84-.033q-.97-.04-1.937-.1c-.281-.019-.562-.036-.843-.057q-1.192-.091-2.377-.217c-.1-.01-.2-.018-.3-.029q-1.324-.148-2.635-.342c-.271-.039-.541-.085-.813-.128q-.935-.148-1.861-.316-.455-.083-.907-.172c-.572-.113-1.14-.235-1.706-.361-.339-.075-.68-.149-1.017-.229-.6-.142-1.188-.3-1.776-.454-.28-.074-.563-.144-.84-.223-.393-.11-.777-.235-1.165-.353-.549-.165-1.1-.329-1.638-.509-.394-.131-.779-.275-1.168-.413-.514-.182-1.028-.364-1.532-.559-.731-.283-1.455-.575-2.163-.885-.105-.046-.207-.1-.312-.142q-.965-.429-1.9-.893c-.191-.094-.382-.189-.57-.286-.709-.362-1.408-.734-2.086-1.126-9.15-5.283-13.719-12.216-13.7-19.139l-.03,10.468c-.02,6.922,4.55,13.856,13.7,19.139.678.391,1.378.763,2.086,1.126.188.1.378.191.569.285q.932.462,1.9.893c.105.047.207.1.313.143q.918.4,1.86.774c.1.039.2.073.3.111.5.2,1.02.377,1.534.559.388.139.771.282,1.164.413.542.18,1.094.344,1.645.51.323.1.638.206.964.3.064.018.13.033.194.05.279.079.564.149.846.224.586.157,1.175.311,1.77.452.338.081.679.155,1.02.23s.68.16,1.025.231c.224.047.453.085.679.129.3.06.6.117.908.173q.924.17,1.858.315c.272.043.542.089.815.128.11.016.217.036.327.051q1.148.163,2.308.291c.1.01.2.018.3.029.632.068,1.265.132,1.9.184.159.013.319.021.479.033.279.021.558.039.838.056q.97.064,1.941.1c.279.011.558.024.838.033.156.005.312.015.468.018.594.015,1.19.017,1.785.019.164,0,.327.005.491.005q1.239,0,2.475-.044c.077,0,.153-.009.23-.012.313-.011.624-.032.937-.047.621-.03,1.241-.063,1.86-.108.36-.026.717-.058,1.076-.089s.7-.051,1.041-.086c.268-.027.534-.061.8-.09.241-.027.481-.053.721-.081.87-.1,1.736-.217,2.6-.35H627l.03-10.468c-.863.134-1.732.247-2.6.351-.239.029-.478.055-.718.081" transform="translate(15.576 753.431)" fill="#a1102f"/>
    <path id="Path_22612" data-name="Path 22612" d="M647.588,315.544c-18.184-10.5-47.569-10.493-65.636.005s-17.969,27.515.214,38.014c12.182,7.034,29.4,9.355,44.87,6.963l-12.163-25.97,44.878,6.958c4.081-8.968.02-18.936-12.163-25.97" transform="translate(15.571 757.925)" fill="#ff2e5b"/>
    <path id="Path_22613" data-name="Path 22613" d="M678.522,362.843l.03-10.468q-.181.4-.384.793c-.044.086-.092.173-.139.259-.089.17-.179.337-.274.506-.232.408-.485.813-.751,1.214-.051.078-.1.156-.156.234q-.406.6-.862,1.183c-.093.121-.192.241-.289.36s-.212.263-.323.393-.224.259-.338.388-.228.26-.346.389-.24.255-.361.382-.244.257-.371.384-.253.25-.382.375-.261.253-.4.379c-.085.08-.173.158-.259.236q-.478.437-.989.866c-.072.06-.14.121-.213.181q-.588.485-1.22.958c-.1.072-.193.142-.29.214-.383.281-.775.559-1.18.833-.067.045-.132.092-.2.137-.456.306-.93.605-1.414.9-.268.164-.537.328-.813.489q-1.149.668-2.359,1.277c-.27.136-.551.259-.824.391-.545.263-1.088.527-1.647.773-.336.147-.683.282-1.024.423-.513.213-1.024.429-1.549.628-.372.141-.753.27-1.13.4-.509.181-1.016.365-1.534.533-.761.248-1.53.488-2.31.71l-.048.015c-.816.231-1.644.443-2.478.644-.256.063-.515.119-.773.178q-.894.205-1.8.389-.429.086-.859.169c-.807.152-1.615.3-2.432.424l-.029,10.467q.922-.141,1.835-.306c.2-.036.4-.08.6-.117q.429-.081.855-.168.908-.184,1.8-.39c.256-.059.514-.116.769-.177.835-.2,1.664-.414,2.48-.645l.038-.011q1.033-.293,2.045-.617c.093-.03.182-.065.275-.1.516-.168,1.021-.35,1.528-.531.379-.135.762-.265,1.135-.407.525-.2,1.035-.414,1.548-.628.341-.141.688-.276,1.024-.423.561-.247,1.105-.512,1.651-.776.272-.131.552-.253.82-.389q1.207-.611,2.359-1.278.339-.2.669-.4c.05-.03.1-.062.145-.092.485-.3.958-.6,1.415-.9.068-.045.132-.092.2-.137.406-.274.8-.552,1.181-.834.1-.071.2-.142.29-.214q.631-.473,1.221-.958c.072-.059.14-.12.211-.179q.511-.429.991-.867c.05-.045.1-.089.153-.134s.069-.068.105-.1c.135-.126.265-.253.4-.38s.257-.249.381-.374.249-.257.372-.385.243-.253.361-.381.233-.26.348-.39.227-.256.336-.385.218-.264.325-.4c.078-.1.16-.191.236-.288.018-.023.033-.047.051-.07q.457-.587.862-1.183c.053-.078.1-.156.157-.234.266-.4.519-.807.75-1.215l.029-.047c.086-.152.165-.306.247-.46.045-.086.093-.17.137-.257q.2-.394.384-.793" transform="translate(4.448 751.496)" fill="#c48200"/>
    <path id="Path_22614" data-name="Path 22614" d="M631.635,344.252l-.03,10.468,12.159,25.967.03-10.468Z" transform="translate(6.491 752.664)" fill="#c48200"/>
    <path id="Path_22615" data-name="Path 22615" d="M631.64,344.252,643.8,370.219a59.734,59.734,0,0,0,20.766-6.958c5.963-3.465,9.947-7.637,11.949-12.053Z" transform="translate(6.486 752.664)" fill="#fbae17"/>
    <path id="Path_22616" data-name="Path 22616" d="M10.356,367.984l57.283-33.073,75.571,43.917L85.926,411.9Z" transform="translate(95.838 754.007)" fill="#ccc"/>
    <path id="Path_22617" data-name="Path 22617" d="M85.926,401.739l57.283-33.073.016,5.715L85.943,407.454,10.372,363.537l-.015-5.715Z" transform="translate(95.837 750.712)" fill="#061b38"/>
    <path id="Path_22618" data-name="Path 22618" d="M10.356,352.267l57.283-33.073,75.571,43.917L85.926,396.184Z" transform="translate(95.838 756.268)" fill="#0e3c7d"/>
    <path id="Path_22619" data-name="Path 22619" d="M37.469,362.774l-15.711-9.13,49.376-28.507,15.711,9.13Z" transform="translate(94.198 755.413)" fill="#47daff"/>
    <path id="Path_22620" data-name="Path 22620" d="M103.725,346.108l5.454-3.149,5.421,3.151-5.454,3.148Z" transform="translate(82.41 752.85)" fill="#4794ff"/>
    <path id="Path_22621" data-name="Path 22621" d="M100.6,354.194l-5.421-3.15,5.456-3.151,5.421,3.151Z" transform="translate(83.639 752.14)" fill="#fff"/>
    <path id="Path_22622" data-name="Path 22622" d="M92.045,359.131l-5.421-3.15,5.456-3.151,5.421,3.151Z" transform="translate(84.869 751.43)" fill="#fff"/>
    <path id="Path_22623" data-name="Path 22623" d="M83.495,364.067l-5.42-3.15,5.456-3.151,5.421,3.151Z" transform="translate(86.099 750.72)" fill="#fff"/>
    <path id="Path_22624" data-name="Path 22624" d="M74.947,369l-5.421-3.15L74.98,362.7l5.42,3.15Z" transform="translate(87.328 750.01)" fill="#fff"/>
    <path id="Path_22625" data-name="Path 22625" d="M66.4,373.939l-5.421-3.15,5.455-3.149,5.42,3.15Z" transform="translate(88.558 749.3)" fill="#4794ff"/>
    <path id="Path_22626" data-name="Path 22626" d="M63.3,375.727l-5.454,3.149-5.421-3.151,5.454-3.148Z" transform="translate(89.787 748.59)" fill="#4794ff"/>
    <path id="Path_22627" data-name="Path 22627" d="M113.573,351.831l5.454-3.149,5.421,3.151-5.455,3.148Z" transform="translate(80.993 752.027)" fill="#4794ff"/>
    <path id="Path_22628" data-name="Path 22628" d="M105.023,356.767l5.456-3.15,5.42,3.15-5.456,3.15Z" transform="translate(82.223 751.317)" fill="#fff"/>
    <path id="Path_22629" data-name="Path 22629" d="M107.35,361.7l-5.456,3.15-5.42-3.15,5.456-3.15Z" transform="translate(83.452 750.607)" fill="#fff"/>
    <path id="Path_22630" data-name="Path 22630" d="M98.8,366.64l-5.456,3.15-5.42-3.15,5.456-3.15Z" transform="translate(84.682 749.897)" fill="#fff"/>
    <path id="Path_22631" data-name="Path 22631" d="M79.374,371.575l5.454-3.149,5.421,3.151L84.8,374.725Z" transform="translate(85.912 749.187)" fill="#fff"/>
    <path id="Path_22632" data-name="Path 22632" d="M81.7,376.513l-5.454,3.149-5.421-3.151,5.454-3.148Z" transform="translate(87.141 748.477)" fill="#4794ff"/>
    <path id="Path_22633" data-name="Path 22633" d="M67.727,378.3l5.421,3.15L67.694,384.6l-3.983-2.314-1.438-.836Z" transform="translate(88.371 747.767)" fill="#4794ff"/>
    <path id="Path_22634" data-name="Path 22634" d="M123.421,357.554l5.454-3.149,5.419,3.149L128.84,360.7Z" transform="translate(79.577 751.204)" fill="#4794ff"/>
    <path id="Path_22635" data-name="Path 22635" d="M120.289,365.639l-5.419-3.149,5.456-3.15,5.419,3.149Z" transform="translate(80.807 750.494)" fill="#4794ff"/>
    <path id="Path_22636" data-name="Path 22636" d="M117.2,367.425l-5.456,3.15-5.419-3.149,5.456-3.15Z" transform="translate(82.036 749.784)" fill="#4794ff"/>
    <path id="Path_22637" data-name="Path 22637" d="M97.77,372.363l5.456-3.15,5.419,3.149-5.456,3.15Z" transform="translate(83.266 749.074)" fill="#4794ff"/>
    <path id="Path_22638" data-name="Path 22638" d="M89.222,377.3l5.454-3.149,5.419,3.149-5.454,3.149Z" transform="translate(84.495 748.364)" fill="#4794ff"/>
    <path id="Path_22639" data-name="Path 22639" d="M91.544,382.235l-5.454,3.149-5.419-3.149,5.454-3.149Z" transform="translate(85.725 747.654)" fill="#4794ff"/>
    <path id="Path_22640" data-name="Path 22640" d="M77.575,384.023l5.419,3.149-5.454,3.149-3.328-1.934-2.091-1.215Z" transform="translate(86.955 746.944)" fill="#4794ff"/>
    <path id="Path_22641" data-name="Path 22641" d="M133.269,363.277l5.454-3.149,2.353,1.367,3.066,1.782-5.454,3.149Z" transform="translate(78.16 750.381)" fill="#4794ff"/>
    <path id="Path_22642" data-name="Path 22642" d="M130.175,365.063l5.419,3.149-5.456,3.15-5.419-3.149Z" transform="translate(79.39 749.671)" fill="#4794ff"/>
    <path id="Path_22643" data-name="Path 22643" d="M121.624,370l5.419,3.149-5.456,3.15-5.419-3.149Z" transform="translate(80.62 748.961)" fill="#4794ff"/>
    <path id="Path_22644" data-name="Path 22644" d="M113.074,374.936l5.419,3.149-5.456,3.15-5.419-3.149Z" transform="translate(81.849 748.251)" fill="#4794ff"/>
    <path id="Path_22645" data-name="Path 22645" d="M104.524,379.872l5.419,3.149-5.454,3.149-5.419-3.149Z" transform="translate(83.079 747.541)" fill="#4794ff"/>
    <path id="Path_22646" data-name="Path 22646" d="M90.519,387.958l5.454-3.149,5.419,3.149-5.454,3.149Z" transform="translate(84.309 746.831)" fill="#4794ff"/>
    <path id="Path_22647" data-name="Path 22647" d="M87.423,389.745l5.419,3.149-5.454,3.149L83.524,393.8l-1.555-.9Z" transform="translate(85.538 746.121)" fill="#4794ff"/>
    <path id="Path_22648" data-name="Path 22648" d="M148.571,365.85,153.989,369l-5.454,3.149L143.117,369Z" transform="translate(76.744 749.557)" fill="#4794ff"/>
    <path id="Path_22649" data-name="Path 22649" d="M140.022,370.786l5.419,3.149-5.456,3.15-5.419-3.149Z" transform="translate(77.974 748.848)" fill="#4794ff"/>
    <path id="Path_22650" data-name="Path 22650" d="M131.472,375.722l5.419,3.149-5.456,3.15-5.419-3.149Z" transform="translate(79.204 748.138)" fill="#4794ff"/>
    <path id="Path_22651" data-name="Path 22651" d="M122.922,380.659l5.419,3.149-5.456,3.15-5.419-3.149Z" transform="translate(80.433 747.428)" fill="#4794ff"/>
    <path id="Path_22652" data-name="Path 22652" d="M114.372,385.6l5.419,3.149-5.454,3.149-5.419-3.149Z" transform="translate(81.662 746.718)" fill="#4794ff"/>
    <path id="Path_22653" data-name="Path 22653" d="M105.821,390.532l5.419,3.149-5.454,3.149-5.419-3.149Z" transform="translate(82.893 746.008)" fill="#4794ff"/>
    <path id="Path_22654" data-name="Path 22654" d="M97.271,395.468l5.419,3.149-5.454,3.149-5.419-3.149Z" transform="translate(84.122 745.298)" fill="#4794ff"/>
    <path id="Path_22655" data-name="Path 22655" d="M244.932,462.292l-91.266-52.539a5.838,5.838,0,0,0-5.3,0L131.081,419.8c-1.459.848-1.451,2.222.02,3.071L222.367,475.4a5.841,5.841,0,0,0,5.3,0l17.282-10.043c1.46-.848,1.452-2.223-.017-3.07" transform="translate(78.632 743.335)" fill="#ccc"/>
    <path id="Path_22656" data-name="Path 22656" d="M151.923,391.406l13.361,5.48-4.147,2.41-13.361-5.48Z" transform="translate(76.074 745.882)" fill="#fcee21"/>
    <path id="Path_22657" data-name="Path 22657" d="M187.98,440.189l-4.147,2.41L181.6,426l4.147-2.41Z" transform="translate(71.21 741.253)" fill="#fcee21"/>
    <path id="Path_22658" data-name="Path 22658" d="M180.479,402.945l13.348,9.939-4.147,2.41-13.348-9.939-5.93-17.35,4.146-2.41Z" transform="translate(72.82 746.718)" fill="#fcee21"/>
    <path id="Path_22659" data-name="Path 22659" d="M147.776,393.385l13.361,5.48,6.01-10.456,5.931,17.35,13.348,9.94-9.694,5.242,2.237,16.6-11.921-14.111-11.963.321,2.324-13.966Z" transform="translate(76.074 746.313)" fill="#fc9b00"/>
    <path id="Path_22660" data-name="Path 22660" d="M207.031,423.236l13.361,5.48-4.147,2.41-13.361-5.48Z" transform="translate(68.149 741.305)" fill="#fcee21"/>
    <path id="Path_22661" data-name="Path 22661" d="M243.088,472.02l-4.147,2.41-2.237-16.6,4.147-2.41Z" transform="translate(63.285 736.676)" fill="#fcee21"/>
    <path id="Path_22662" data-name="Path 22662" d="M235.586,434.775l13.348,9.939-4.147,2.41-13.348-9.939-5.93-17.35,4.146-2.41Z" transform="translate(64.895 742.14)" fill="#fcee21"/>
    <path id="Path_22663" data-name="Path 22663" d="M202.883,425.216l13.361,5.48,6.01-10.456,5.931,17.35,13.348,9.94-9.694,5.242,2.237,16.6L222.155,455.26l-11.963.321,2.324-13.966Z" transform="translate(68.149 741.735)" fill="#fc9b00"/>
    <path id="Path_22664" data-name="Path 22664" d="M642.268,255.8q0,5.829-2.58,9.35a9.224,9.224,0,0,1-6.89,3.92q-.56.051-1.12.051a16.711,16.711,0,0,1-8.315-2.563,33.385,33.385,0,0,1-9.4-8.366,45.492,45.492,0,0,1-6.856-11.862,33.507,33.507,0,0,1-2.511-12.168v-.118q0-5.855,2.579-9.368a9.294,9.294,0,0,1,6.891-3.937,15.856,15.856,0,0,1,9.418,2.528,33.193,33.193,0,0,1,9.419,8.367,45.516,45.516,0,0,1,6.856,11.862,33.406,33.406,0,0,1,2.511,12.3" transform="translate(10.375 770.434)" fill="#fff"/>
    <path id="Path_22665" data-name="Path 22665" d="M639.757,243.5a45.513,45.513,0,0,0-6.855-11.862,33.2,33.2,0,0,0-9.419-8.367,15.857,15.857,0,0,0-9.419-2.528,9.294,9.294,0,0,0-6.89,3.937q-2.571,3.514-2.58,9.368v.118a33.49,33.49,0,0,0,2.512,12.168,45.525,45.525,0,0,0,6.855,11.862,33.409,33.409,0,0,0,9.4,8.366,16.716,16.716,0,0,0,8.315,2.563q.561,0,1.121-.051a9.224,9.224,0,0,0,6.89-3.92q2.571-3.513,2.58-9.35a33.421,33.421,0,0,0-2.512-12.3m-4.531,3.581-14.035,7.993c-.2.187-.475.17-.831-.034a2,2,0,0,1-.831-.916l-7.874-13.644a2.148,2.148,0,0,1-.391-1.188c0-.408.135-.645.391-.729l1.68-1.052a.849.849,0,0,1,.866.068,2.423,2.423,0,0,1,.883.95l5.295,9.165,11.438-6.5a.809.809,0,0,1,.866.051,2.525,2.525,0,0,1,.882.95l1.664,2.969a2.131,2.131,0,0,1,.373,1.188c0,.407-.119.645-.373.729" transform="translate(10.375 770.434)" fill="#009fa8"/>
    <path id="Path_22666" data-name="Path 22666" d="M642.268,185.805c0,3.9-.866,7.009-2.58,9.35a9.292,9.292,0,0,1-6.89,3.938c-.356.033-.713.051-1.069.051a16.744,16.744,0,0,1-8.366-2.58,33.324,33.324,0,0,1-9.4-8.349,45.59,45.59,0,0,1-6.856-11.88,33.015,33.015,0,0,1-2.511-12.168v-.118c0-3.9.865-7.026,2.563-9.367a9.3,9.3,0,0,1,6.907-3.92c2.884-.289,6.041.543,9.418,2.511a33.69,33.69,0,0,1,9.419,8.367,45.516,45.516,0,0,1,6.856,11.862,33.407,33.407,0,0,1,2.511,12.3" transform="translate(10.375 780.499)" fill="#ff2e5b"/>
    <path id="Path_22667" data-name="Path 22667" d="M635.917,175.763l-4.638-8.033-6.551,3.734-6.51-11.275-4.664,2.663,6.51,11.27-6.552,3.734,4.633,8.03,6.552-3.734,6.51,11.276,4.668-2.66-6.51-11.276Z" transform="translate(9.093 779.136)" fill="#fff"/>
  </g>
</svg>
