<svg xmlns="http://www.w3.org/2000/svg" xmlns:xlink="http://www.w3.org/1999/xlink" width="194" height="114" viewBox="0 0 194 114">
  <defs>
    <clipPath id="clip-path">
      <rect id="Rectangle_437" data-name="Rectangle 437" width="194" height="114" transform="translate(1288 2426)" fill="#fff" stroke="#707070" stroke-width="1"/>
    </clipPath>
    <clipPath id="clip-path-2">
      <path id="path18" d="M0,0H103.45V-114H0Z"/>
    </clipPath>
  </defs>
  <g id="Mask_Group_29" data-name="Mask Group 29" transform="translate(-1288 -2426)" clip-path="url(#clip-path)">
    <g id="g10" transform="translate(1333.274 2540)">
      <g id="g12">
        <g id="g14">
          <g id="g16" clip-path="url(#clip-path-2)">
            <path id="path22" d="M47.058-112.784a9.56,9.56,0,0,1,9.333,0Q77.7-100.742,99.018-88.707a8.776,8.776,0,0,1,4.433,7.558v48.3a8.869,8.869,0,0,1-4.763,7.722Q77.445-13.147,56.211-1.161a9.29,9.29,0,0,1-9.436-.262Q40.407-5.115,34.031-8.793a7.5,7.5,0,0,1-2.458-1.77c.541-.73,1.51-.821,2.3-1.14A29.76,29.76,0,0,0,38.9-14.048a1.174,1.174,0,0,1,1.309.078c3.631,2.082,7.229,4.224,10.872,6.286.777.449,1.564-.147,2.228-.517Q74.152-19.984,95.012-31.738A1.381,1.381,0,0,0,95.77-33.1q.014-23.9,0-47.805a1.494,1.494,0,0,0-.89-1.49Q73.716-94.313,52.556-106.248a1.47,1.47,0,0,0-1.662,0Q29.728-94.322,8.571-82.384A1.476,1.476,0,0,0,7.676-80.9q0,23.9,0,47.808a1.352,1.352,0,0,0,.767,1.341q5.648,3.2,11.3,6.383c2.123,1.143,4.729,1.821,7.068.946a5.361,5.361,0,0,0,3.471-5.037c.02-15.841-.01-31.685.015-47.524A1.193,1.193,0,0,1,31.6-78.2c1.809-.012,3.621-.024,5.43,0a1.253,1.253,0,0,1,1.182,1.449c-.007,15.941.019,31.883-.012,47.825,0,4.249-1.74,8.872-5.67,10.951C27.687-15.466,21.7-16,16.92-18.4c-4.141-2.067-8.092-4.506-12.159-6.719A8.85,8.85,0,0,1,0-32.845v-48.3A8.791,8.791,0,0,1,4.584-88.8q21.239-11.986,42.473-23.982" fill="#81cd39"/>
            <path id="path24" d="M59.41-79.324c6.175-.4,12.787-.236,18.344,2.806,4.3,2.332,6.688,7.224,6.764,12a1.3,1.3,0,0,1-1.409.956c-1.792,0-3.585.024-5.376-.012a1.385,1.385,0,0,1-1.3-1.343,8.185,8.185,0,0,0-3.915-5.656c-3.3-1.654-7.136-1.571-10.74-1.537-2.63.14-5.459.367-7.688,1.914a4.872,4.872,0,0,0-1.62,5.442c.576,1.368,2.155,1.809,3.447,2.216,7.442,1.947,15.329,1.753,22.629,4.314,3.023,1.044,5.979,3.075,7.014,6.239,1.353,4.241.76,9.311-2.258,12.716-2.447,2.8-6.011,4.327-9.566,5.155A45.957,45.957,0,0,1,59.3-33.5c-4.516-.515-9.215-1.7-12.7-4.778a13.328,13.328,0,0,1-4.292-10.514,1.2,1.2,0,0,1,1.319-1.062c1.8-.015,3.609-.02,5.413,0a1.265,1.265,0,0,1,1.292,1.25c.333,2.179,1.152,4.466,3.052,5.758,3.667,2.366,8.269,2.2,12.468,2.27,3.479-.154,7.384-.2,10.223-2.5a5.647,5.647,0,0,0,1.537-5.393c-.438-1.594-2.106-2.336-3.537-2.822-7.347-2.324-15.321-1.481-22.6-4.109-2.954-1.044-5.81-3.017-6.945-6.052-1.583-4.295-.858-9.607,2.476-12.9,3.25-3.273,7.943-4.532,12.4-4.984h0" fill="#81cd39"/>
          </g>
        </g>
      </g>
    </g>
  </g>
</svg>
